<?xml version="1.0" encoding="utf-8"?>
<!-- Generator: Adobe Illustrator 27.0.0, SVG Export Plug-In . SVG Version: 6.00 Build 0)  -->
<svg version="1.1" id="_图层_1" xmlns="http://www.w3.org/2000/svg" xmlns:xlink="http://www.w3.org/1999/xlink" x="0px" y="0px"
	 viewBox="0 0 200 200" style="enable-background:new 0 0 200 200;" xml:space="preserve">
<style type="text/css">
	.st0{fill:#EAFF31;}
	.st1{fill:#757575;}
</style>
<polygon class="st0" points="195,185.7 106.6,180.4 5.2,146.3 17.4,125.9 53.8,137.7 55.5,129.1 0.6,106.5 12,82.4 63,104.5 
	69.6,100.4 20.2,78 37.3,51.3 69.3,67.8 72.4,65.3 45.9,52.3 63.4,22.4 135.3,64.4 113.7,47.7 127.8,16.9 163.1,40.2 199,69.4 "/>
<g>
	<path class="st1" d="M188.5,80.1h-5.1V75h5.1C188.5,75,188.5,80.1,188.5,80.1z M188.5,85.2v10.2h-10.2v-5.1h5.1v-5.1L188.5,85.2
		L188.5,85.2z M183.4,75h-5.1v5.1h-5.1V69.9h10.2L183.4,75L183.4,75z M183.4,85.2h-5.1v-5.1h5.1V85.2z M178.3,90.3h-5.1v-5.1h5.1
		V90.3z"/>
	<path class="st1" d="M165.6,75h5.1v20.3h-10.2v-5.1h5.1v-5.1h-5.1v5.1h-5.1V80.1h10.2V75L165.6,75z M165.6,75h-5.1v-5.1h5.1V75z"/>
	<path class="st1" d="M152.9,85.2h-10.2v5.1h-5.1V69.9h10.2V75h-5.1v5.1h5.1V75h5.1V85.2L152.9,85.2z M147.8,95.3h-5.1v-5.1h5.1
		V95.3z"/>
</g>
<g>
	<path class="st1" d="M97.2,166.5l3.8,0.8l-1.4,6.4l-2.6-0.5l0.3-1.3l1.3,0.3l0.8-3.8l-2.6-0.5L97.2,166.5L97.2,166.5z M97.4,171.9
		l-1.3-0.3l0.3-1.3l1.3,0.3L97.4,171.9z M96.4,170.4l-1.3-0.3l0.5-2.6l1.3,0.3L96.4,170.4z"/>
	<path class="st1" d="M94.8,168.7l-0.3,1.3l-3.8-0.8l0.3-1.3L94.8,168.7z"/>
	<path class="st1" d="M90.3,167.7l-1.3-0.3l0.3-1.3l1.3,0.3L90.3,167.7z M89.5,171.6l-3.8-0.8l0.3-1.3l3.8,0.8L89.5,171.6z
		 M89.6,164.9l-0.3,1.3l-3.8-0.8l0.3-1.3L89.6,164.9z M88.7,168.7l-2.6-0.5l0.3-1.3l2.6,0.5L88.7,168.7z M85.9,169.5l-1.3-0.3
		l0.3-1.3l1.3,0.3L85.9,169.5z"/>
	<path class="st1" d="M84.8,165.2l-0.8,3.8l-1.3-0.3l0.8-3.8L84.8,165.2z M83.8,163.7l-0.3,1.3l-2.6-0.5l0.3-1.3L83.8,163.7
		L83.8,163.7z M82.7,168.8l-0.3,1.3l-2.6-0.5l0.3-1.3L82.7,168.8L82.7,168.8z M80.7,165.7l-1.3-0.3l0.3-1.3l1.3,0.3L80.7,165.7z
		 M80.1,168.2l-1.3-0.3l0.3-1.3l1.3,0.3L80.1,168.2z"/>
	<path class="st1" d="M78,162.4l1.3,0.3l-1.4,6.4l-1.3-0.3l0.5-2.6l-2.6-0.5l-0.5,2.6l-1.3-0.3l1.4-6.4l1.3,0.3l-0.5,2.6l2.6,0.5
		L78,162.4L78,162.4z"/>
	<path class="st1" d="M72.5,166.6l-1.3-0.3l0.8-3.8l1.3,0.3L72.5,166.6z M69.5,161.9l0.3-1.3l2.6,0.5l-0.3,1.3
		C72,162.5,69.5,161.9,69.5,161.9z M70.9,167.6l-2.6-0.5l0.3-1.3l2.6,0.5L70.9,167.6z M68.6,165.8l-1.3-0.3l0.8-3.8l1.3,0.3
		L68.6,165.8z"/>
	<path class="st1" d="M66.7,165.3l-1.3-0.3l0.8-3.8l1.3,0.3L66.7,165.3z M63.7,160.7l0.3-1.3l2.6,0.5l-0.3,1.3L63.7,160.7z
		 M65.2,166.4l-2.6-0.5l0.3-1.3l2.6,0.5L65.2,166.4z M62.9,164.5l-1.3-0.3l0.8-3.8l1.3,0.3L62.9,164.5z"/>
	<path class="st1" d="M62.1,159l-1.4,6.4l-3.8-0.8l0.3-1.3l2.6,0.5l1.1-5.1L62.1,159z"/>
</g>
</svg>
