<?xml version="1.0" encoding="UTF-8"?>
<svg id="_图层_1" data-name="图层 1" xmlns="http://www.w3.org/2000/svg" viewBox="0 0 177.702 214.468">
  <rect x="149.913" y="187.483" width="6.55" height="8.7" style="fill: #212528;"/>
  <rect x="143.363" y="187.483" width="6.55" height="8.7" style="fill: #212528;"/>
  <rect x="136.813" y="187.483" width="6.55" height="8.7" style="fill: #212528;"/>
  <rect x="130.263" y="187.483" width="6.55" height="8.7" style="fill: #51575b;"/>
  <rect x="123.713" y="187.483" width="6.55" height="8.7" style="fill: #51575b;"/>
  <rect x="117.163" y="187.483" width="6.55" height="8.7" style="fill: #51575b;"/>
  <rect x="110.613" y="187.483" width="6.55" height="8.7" style="fill: #51575b;"/>
  <rect x="104.063" y="187.483" width="6.55" height="8.7" style="fill: #51575b;"/>
  <rect x="97.513" y="187.483" width="6.55" height="8.7" style="fill: #51575b;"/>
  <rect x="90.963" y="187.483" width="6.55" height="8.7" style="fill: #51575b;"/>
  <rect x="84.413" y="187.483" width="6.55" height="8.7" style="fill: #51575b;"/>
  <rect x="77.863" y="187.483" width="6.55" height="8.7" style="fill: #51575b;"/>
  <rect x="71.313" y="187.483" width="6.55" height="8.7" style="fill: #51575b;"/>
  <rect x="64.763" y="187.483" width="6.55" height="8.7" style="fill: #51575b;"/>
  <rect x="58.213" y="187.483" width="6.55" height="8.7" style="fill: #51575b;"/>
  <rect x="51.663" y="187.483" width="6.55" height="8.7" style="fill: #51575b;"/>
  <rect x="45.113" y="187.483" width="6.55" height="8.7" style="fill: #51575b;"/>
  <rect x="38.563" y="187.483" width="6.55" height="8.7" style="fill: #4b5054;"/>
  <rect x="32.013" y="187.483" width="6.55" height="8.7" style="fill: #212528;"/>
  <rect x="25.463" y="187.483" width="6.55" height="8.7" style="fill: #212528;"/>
  <rect x="149.913" y="178.783" width="6.55" height="8.7" style="fill: #212528;"/>
  <rect x="143.363" y="178.783" width="6.55" height="8.7" style="fill: #212528;"/>
  <rect x="136.813" y="178.783" width="6.55" height="8.7" style="fill: #212528;"/>
  <rect x="130.263" y="178.783" width="6.55" height="8.7" style="fill: #51575b;"/>
  <rect x="123.713" y="178.783" width="6.55" height="8.7" style="fill: #51575b;"/>
  <rect x="117.163" y="178.783" width="6.55" height="8.7" style="fill: #51575b;"/>
  <rect x="110.613" y="178.783" width="6.55" height="8.7" style="fill: #51575b;"/>
  <rect x="104.063" y="178.783" width="6.55" height="8.7" style="fill: #51575b;"/>
  <rect x="97.513" y="178.783" width="6.55" height="8.7" style="fill: #51575b;"/>
  <rect x="90.963" y="178.783" width="6.55" height="8.7" style="fill: #51575b;"/>
  <rect x="84.413" y="178.783" width="6.55" height="8.7" style="fill: #51575b;"/>
  <rect x="77.863" y="178.783" width="6.55" height="8.7" style="fill: #51575b;"/>
  <rect x="71.313" y="178.783" width="6.55" height="8.7" style="fill: #51575b;"/>
  <rect x="64.763" y="178.783" width="6.55" height="8.7" style="fill: #51575b;"/>
  <rect x="58.213" y="178.783" width="6.55" height="8.7" style="fill: #51575b;"/>
  <rect x="51.663" y="178.783" width="6.55" height="8.7" style="fill: #51575b;"/>
  <rect x="45.113" y="178.783" width="6.55" height="8.7" style="fill: #51575b;"/>
  <rect x="38.563" y="178.783" width="6.55" height="8.7" style="fill: #4e5457;"/>
  <rect x="32.013" y="178.783" width="6.55" height="8.7" style="fill: #212528;"/>
  <rect x="25.463" y="178.783" width="6.55" height="8.7" style="fill: #212528;"/>
  <rect x="143.363" y="170.083" width="6.55" height="8.7" style="fill: #919191;"/>
  <rect x="136.813" y="170.083" width="6.55" height="8.7" style="fill: #fff;"/>
  <rect x="130.263" y="170.083" width="6.55" height="8.7" style="fill: #212528;"/>
  <rect x="123.713" y="170.083" width="6.55" height="8.7" style="fill: #212528;"/>
  <rect x="117.163" y="170.083" width="6.55" height="8.7" style="fill: #51575b;"/>
  <rect x="110.613" y="170.083" width="6.55" height="8.7" style="fill: #51575b;"/>
  <rect x="104.063" y="170.083" width="6.55" height="8.7" style="fill: #51575b;"/>
  <rect x="97.513" y="170.083" width="6.55" height="8.7" style="fill: #51575b;"/>
  <rect x="90.963" y="170.083" width="6.55" height="8.7" style="fill: #51575b;"/>
  <rect x="84.413" y="170.083" width="6.55" height="8.7" style="fill: #51575b;"/>
  <rect x="77.863" y="170.083" width="6.55" height="8.7" style="fill: #51575b;"/>
  <rect x="71.313" y="170.083" width="6.55" height="8.7" style="fill: #51575b;"/>
  <rect x="64.763" y="170.083" width="6.55" height="8.7" style="fill: #51575b;"/>
  <rect x="58.213" y="170.083" width="6.55" height="8.7" style="fill: #51575b;"/>
  <rect x="51.663" y="170.083" width="6.55" height="8.7" style="fill: #212528;"/>
  <rect x="45.113" y="170.083" width="6.55" height="8.7" style="fill: #212528;"/>
  <rect x="38.563" y="170.083" width="6.55" height="8.7" style="fill: #2f3235;"/>
  <rect x="32.013" y="170.083" width="6.55" height="8.7" style="fill: #cecece;"/>
  <rect x="143.363" y="161.383" width="6.55" height="8.7" style="fill: #919191;"/>
  <rect x="136.813" y="161.383" width="6.55" height="8.7" style="fill: #fff;"/>
  <rect x="130.263" y="161.383" width="6.55" height="8.7" style="fill: #d8d9d9;"/>
  <rect x="123.713" y="161.383" width="6.55" height="8.7" style="fill: #d8d9d9;"/>
  <rect x="117.163" y="161.383" width="6.55" height="8.7" style="fill: #dbdcdc;"/>
  <rect x="110.613" y="161.383" width="6.55" height="8.7" style="fill: #eaebeb;"/>
  <rect x="104.063" y="161.383" width="6.55" height="8.7" style="fill: #eaebeb;"/>
  <rect x="97.513" y="161.383" width="6.55" height="8.7" style="fill: #eaebeb;"/>
  <rect x="90.963" y="161.383" width="6.55" height="8.7" style="fill: #eaebeb;"/>
  <rect x="84.413" y="161.383" width="6.55" height="8.7" style="fill: #eaebeb;"/>
  <rect x="77.863" y="161.383" width="6.55" height="8.7" style="fill: #eaebeb;"/>
  <rect x="71.313" y="161.383" width="6.55" height="8.7" style="fill: #eaebeb;"/>
  <rect x="64.763" y="161.383" width="6.55" height="8.7" style="fill: #eaebeb;"/>
  <rect x="58.213" y="161.383" width="6.55" height="8.7" style="fill: #dbdcdc;"/>
  <rect x="51.663" y="161.383" width="6.55" height="8.7" style="fill: #d8d9d9;"/>
  <rect x="45.113" y="161.383" width="6.55" height="8.7" style="fill: #d8d9d9;"/>
  <rect x="38.563" y="161.383" width="6.55" height="8.7" style="fill: #fff;"/>
  <rect x="32.013" y="161.383" width="6.55" height="8.7" style="fill: #cecece;"/>
  <rect x="143.363" y="152.683" width="6.55" height="8.7" style="fill: #919191;"/>
  <rect x="136.813" y="152.683" width="6.55" height="8.7" style="fill: #fff;"/>
  <rect x="130.263" y="152.683" width="6.55" height="8.7" style="fill: #e5e5e5;"/>
  <rect x="123.713" y="152.683" width="6.55" height="8.7" style="fill: #e5e5e5;"/>
  <rect x="117.163" y="152.683" width="6.55" height="8.7" style="fill: #e5e5e5;"/>
  <rect x="110.613" y="152.683" width="6.55" height="8.7" style="fill: #f5f5f5;"/>
  <rect x="104.063" y="152.683" width="6.55" height="8.7" style="fill: #f5f5f5;"/>
  <rect x="97.513" y="152.683" width="6.55" height="8.7" style="fill: #f5f5f5;"/>
  <rect x="90.963" y="152.683" width="6.55" height="8.7" style="fill: #f5f5f5;"/>
  <rect x="84.413" y="152.683" width="6.55" height="8.7" style="fill: #f5f5f5;"/>
  <rect x="77.863" y="152.683" width="6.55" height="8.7" style="fill: #f5f5f5;"/>
  <rect x="71.313" y="152.683" width="6.55" height="8.7" style="fill: #f5f5f5;"/>
  <rect x="64.763" y="152.683" width="6.55" height="8.7" style="fill: #f5f5f5;"/>
  <rect x="58.213" y="152.683" width="6.55" height="8.7" style="fill: #e5e5e5;"/>
  <rect x="51.663" y="152.683" width="6.55" height="8.7" style="fill: #e5e5e5;"/>
  <rect x="45.113" y="152.683" width="6.55" height="8.7" style="fill: #e5e5e5;"/>
  <rect x="38.563" y="152.683" width="6.55" height="8.7" style="fill: #fff;"/>
  <rect x="32.013" y="152.683" width="6.55" height="8.7" style="fill: #cecece;"/>
  <rect x="143.363" y="143.983" width="6.55" height="8.7" style="fill: #919191;"/>
  <rect x="136.813" y="143.983" width="6.55" height="8.7" style="fill: #fff;"/>
  <rect x="130.263" y="143.983" width="6.55" height="8.7" style="fill: #f4f4f4;"/>
  <rect x="123.713" y="143.983" width="6.55" height="8.7" style="fill: #e5e5e5;"/>
  <rect x="117.163" y="143.983" width="6.55" height="8.7" style="fill: #e5e5e5;"/>
  <rect x="110.613" y="143.983" width="6.55" height="8.7" style="fill: #f5f5f5;"/>
  <rect x="104.063" y="143.983" width="6.55" height="8.7" style="fill: #f5f5f5;"/>
  <rect x="97.513" y="143.983" width="6.55" height="8.7" style="fill: #f5f5f5;"/>
  <rect x="90.963" y="143.983" width="6.55" height="8.7" style="fill: #f5f5f5;"/>
  <rect x="84.413" y="143.983" width="6.55" height="8.7" style="fill: #f5f5f5;"/>
  <rect x="77.863" y="143.983" width="6.55" height="8.7" style="fill: #f5f5f5;"/>
  <rect x="71.313" y="143.983" width="6.55" height="8.7" style="fill: #f5f5f5;"/>
  <rect x="64.763" y="143.983" width="6.55" height="8.7" style="fill: #f5f5f5;"/>
  <rect x="58.213" y="143.983" width="6.55" height="8.7" style="fill: #e5e5e5;"/>
  <rect x="51.663" y="143.983" width="6.55" height="8.7" style="fill: #e5e5e5;"/>
  <rect x="45.113" y="143.983" width="6.55" height="8.7" style="fill: #f2f2f2;"/>
  <rect x="38.563" y="143.983" width="6.55" height="8.7" style="fill: #fff;"/>
  <rect x="32.013" y="143.983" width="6.55" height="8.7" style="fill: #cecece;"/>
  <rect x="143.363" y="135.283" width="6.55" height="8.7" style="fill: #919191;"/>
  <rect x="136.813" y="135.283" width="6.55" height="8.7" style="fill: #fff;"/>
  <rect x="130.263" y="135.283" width="6.55" height="8.7" style="fill: #fff;"/>
  <rect x="123.713" y="135.283" width="6.55" height="8.7" style="fill: #e5e5e5;"/>
  <rect x="117.163" y="135.283" width="6.55" height="8.7" style="fill: #e5e5e5;"/>
  <rect x="110.613" y="135.283" width="6.55" height="8.7" style="fill: #f5f5f5;"/>
  <rect x="104.063" y="135.283" width="6.55" height="8.7" style="fill: #f5f5f5;"/>
  <rect x="97.513" y="135.283" width="6.55" height="8.7" style="fill: #f5f5f5;"/>
  <rect x="90.963" y="135.283" width="6.55" height="8.7" style="fill: #f5f5f5;"/>
  <rect x="84.413" y="135.283" width="6.55" height="8.7" style="fill: #f5f5f5;"/>
  <rect x="77.863" y="135.283" width="6.55" height="8.7" style="fill: #f5f5f5;"/>
  <rect x="71.313" y="135.283" width="6.55" height="8.7" style="fill: #f5f5f5;"/>
  <rect x="64.763" y="135.283" width="6.55" height="8.7" style="fill: #f5f5f5;"/>
  <rect x="58.213" y="135.283" width="6.55" height="8.7" style="fill: #e5e5e5;"/>
  <rect x="51.663" y="135.283" width="6.55" height="8.7" style="fill: #e5e5e5;"/>
  <rect x="45.113" y="135.283" width="6.55" height="8.7" style="fill: #fff;"/>
  <rect x="38.563" y="135.283" width="6.55" height="8.7" style="fill: #fff;"/>
  <rect x="32.013" y="135.283" width="6.55" height="8.7" style="fill: #cecece;"/>
  <rect x="143.363" y="126.583" width="6.55" height="8.7" style="fill: #919191;"/>
  <rect x="136.813" y="126.583" width="6.55" height="8.7" style="fill: #fff;"/>
  <rect x="130.263" y="126.583" width="6.55" height="8.7" style="fill: #fff;"/>
  <rect x="123.713" y="126.583" width="6.55" height="8.7" style="fill: #e5e5e5;"/>
  <rect x="117.163" y="126.583" width="6.55" height="8.7" style="fill: #e5e5e5;"/>
  <rect x="110.613" y="126.583" width="6.55" height="8.7" style="fill: #f5f5f5;"/>
  <rect x="104.063" y="126.583" width="6.55" height="8.7" style="fill: #f5f5f5;"/>
  <rect x="97.513" y="126.583" width="6.55" height="8.7" style="fill: #f5f5f5;"/>
  <rect x="90.963" y="126.583" width="6.55" height="8.7" style="fill: #f5f5f5;"/>
  <rect x="84.413" y="126.583" width="6.55" height="8.7" style="fill: #f5f5f5;"/>
  <rect x="77.863" y="126.583" width="6.55" height="8.7" style="fill: #f5f5f5;"/>
  <rect x="71.313" y="126.583" width="6.55" height="8.7" style="fill: #f5f5f5;"/>
  <rect x="64.763" y="126.583" width="6.55" height="8.7" style="fill: #f5f5f5;"/>
  <rect x="58.213" y="126.583" width="6.55" height="8.7" style="fill: #e5e5e5;"/>
  <rect x="51.663" y="126.583" width="6.55" height="8.7" style="fill: #e5e5e5;"/>
  <rect x="45.113" y="126.583" width="6.55" height="8.7" style="fill: #fff;"/>
  <rect x="38.563" y="126.583" width="6.55" height="8.7" style="fill: #fff;"/>
  <rect x="32.013" y="126.583" width="6.55" height="8.7" style="fill: #cecece;"/>
  <rect x="143.363" y="117.883" width="6.55" height="8.7" style="fill: #919191;"/>
  <rect x="136.813" y="117.883" width="6.55" height="8.7" style="fill: #fff;"/>
  <rect x="130.263" y="117.883" width="6.55" height="8.7" style="fill: #fff;"/>
  <rect x="123.713" y="117.883" width="6.55" height="8.7" style="fill: #fff;"/>
  <rect x="117.163" y="117.883" width="6.55" height="8.7" style="fill: #e5e5e5;"/>
  <rect x="110.613" y="117.883" width="6.55" height="8.7" style="fill: #e5e5e5;"/>
  <rect x="104.063" y="117.883" width="6.55" height="8.7" style="fill: #f5f5f5;"/>
  <rect x="97.513" y="117.883" width="6.55" height="8.7" style="fill: #f5f5f5;"/>
  <rect x="90.963" y="117.883" width="6.55" height="8.7" style="fill: #f5f5f5;"/>
  <rect x="84.413" y="117.883" width="6.55" height="8.7" style="fill: #f5f5f5;"/>
  <rect x="77.863" y="117.883" width="6.55" height="8.7" style="fill: #f5f5f5;"/>
  <rect x="71.313" y="117.883" width="6.55" height="8.7" style="fill: #f5f5f5;"/>
  <rect x="64.763" y="117.883" width="6.55" height="8.7" style="fill: #e5e5e5;"/>
  <rect x="58.213" y="117.883" width="6.55" height="8.7" style="fill: #e5e5e5;"/>
  <rect x="51.663" y="117.883" width="6.55" height="8.7" style="fill: #fff;"/>
  <rect x="45.113" y="117.883" width="6.55" height="8.7" style="fill: #fff;"/>
  <rect x="38.563" y="117.883" width="6.55" height="8.7" style="fill: #fff;"/>
  <rect x="32.013" y="117.883" width="6.55" height="8.7" style="fill: #cecece;"/>
  <rect x="143.363" y="109.183" width="6.55" height="8.7" style="fill: #919191;"/>
  <rect x="136.813" y="109.183" width="6.55" height="8.7" style="fill: #fff;"/>
  <rect x="130.263" y="109.183" width="6.55" height="8.7" style="fill: #fff;"/>
  <rect x="123.713" y="109.183" width="6.55" height="8.7" style="fill: #fff;"/>
  <rect x="117.163" y="109.183" width="6.55" height="8.7" style="fill: #fff;"/>
  <rect x="110.613" y="109.183" width="6.55" height="8.7" style="fill: #fff;"/>
  <rect x="104.063" y="109.183" width="6.55" height="8.7" style="fill: #fefefe;"/>
  <rect x="97.513" y="109.183" width="6.55" height="8.7" style="fill: #f1f1f1;"/>
  <rect x="90.963" y="109.183" width="6.55" height="8.7" style="fill: #f5f5f5;"/>
  <rect x="84.413" y="109.183" width="6.55" height="8.7" style="fill: #f5f5f5;"/>
  <rect x="77.863" y="109.183" width="6.55" height="8.7" style="fill: #f2f2f2;"/>
  <rect x="71.313" y="109.183" width="6.55" height="8.7" style="fill: #f8f8f8;"/>
  <rect x="64.763" y="109.183" width="6.55" height="8.7" style="fill: #fff;"/>
  <rect x="58.213" y="109.183" width="6.55" height="8.7" style="fill: #fff;"/>
  <rect x="51.663" y="109.183" width="6.55" height="8.7" style="fill: #fff;"/>
  <rect x="45.113" y="109.183" width="6.55" height="8.7" style="fill: #fff;"/>
  <rect x="38.563" y="109.183" width="6.55" height="8.7" style="fill: #fff;"/>
  <rect x="32.013" y="109.183" width="6.55" height="8.7" style="fill: #cecece;"/>
  <rect x="143.363" y="100.483" width="6.55" height="8.7" style="fill: #919191;"/>
  <rect x="136.813" y="100.483" width="6.55" height="8.7" style="fill: #fff;"/>
  <rect x="130.263" y="100.483" width="6.55" height="8.7" style="fill: #fff;"/>
  <rect x="123.713" y="100.483" width="6.55" height="8.7" style="fill: #fff;"/>
  <rect x="117.163" y="100.483" width="6.55" height="8.7" style="fill: #fff;"/>
  <rect x="110.613" y="100.483" width="6.55" height="8.7" style="fill: #fff;"/>
  <rect x="104.063" y="100.483" width="6.55" height="8.7" style="fill: #fcfcfc;"/>
  <rect x="97.513" y="100.483" width="6.55" height="8.7" style="fill: #f4f4f4;"/>
  <rect x="90.963" y="100.483" width="6.55" height="8.7" style="fill: #428bc1;"/>
  <rect x="84.413" y="100.483" width="6.55" height="8.7" style="fill: #428bc1;"/>
  <rect x="77.863" y="100.483" width="6.55" height="8.7" style="fill: #f4f4f4;"/>
  <rect x="71.313" y="100.483" width="6.55" height="8.7" style="fill: #f4f4f4;"/>
  <rect x="64.763" y="100.483" width="6.55" height="8.7" style="fill: #fff;"/>
  <rect x="58.213" y="100.483" width="6.55" height="8.7" style="fill: #fff;"/>
  <rect x="51.663" y="100.483" width="6.55" height="8.7" style="fill: #fff;"/>
  <rect x="45.113" y="100.483" width="6.55" height="8.7" style="fill: #fff;"/>
  <rect x="38.563" y="100.483" width="6.55" height="8.7" style="fill: #fff;"/>
  <rect x="32.013" y="100.483" width="6.55" height="8.7" style="fill: #cecece;"/>
  <rect x="143.363" y="91.783" width="6.55" height="8.7" style="fill: #919191;"/>
  <rect x="136.813" y="91.783" width="6.55" height="8.7" style="fill: #fff;"/>
  <rect x="130.263" y="91.783" width="6.55" height="8.7" style="fill: #fff;"/>
  <rect x="123.713" y="91.783" width="6.55" height="8.7" style="fill: #fff;"/>
  <rect x="117.163" y="91.783" width="6.55" height="8.7" style="fill: #e5e5e5;"/>
  <rect x="110.613" y="91.783" width="6.55" height="8.7" style="fill: #e5e5e5;"/>
  <rect x="104.063" y="91.783" width="6.55" height="8.7" style="fill: #9bbfdb;"/>
  <rect x="97.513" y="91.783" width="6.55" height="8.7" style="fill: #428bc1;"/>
  <rect x="90.963" y="91.783" width="6.55" height="8.7" style="fill: #428bc1;"/>
  <rect x="84.413" y="91.783" width="6.55" height="8.7" style="fill: #428bc1;"/>
  <rect x="77.863" y="91.783" width="6.55" height="8.7" style="fill: #428bc1;"/>
  <rect x="71.313" y="91.783" width="6.55" height="8.7" style="fill: #428bc1;"/>
  <rect x="64.763" y="91.783" width="6.55" height="8.7" style="fill: #e5e5e5;"/>
  <rect x="58.213" y="91.783" width="6.55" height="8.7" style="fill: #e5e5e5;"/>
  <rect x="51.663" y="91.783" width="6.55" height="8.7" style="fill: #fff;"/>
  <rect x="45.113" y="91.783" width="6.55" height="8.7" style="fill: #fff;"/>
  <rect x="38.563" y="91.783" width="6.55" height="8.7" style="fill: #fff;"/>
  <rect x="32.013" y="91.783" width="6.55" height="8.7" style="fill: #cecece;"/>
  <rect x="143.363" y="83.083" width="6.55" height="8.7" style="fill: #919191;"/>
  <rect x="136.813" y="83.083" width="6.55" height="8.7" style="fill: #fff;"/>
  <rect x="130.263" y="83.083" width="6.55" height="8.7" style="fill: #fff;"/>
  <rect x="123.713" y="83.083" width="6.55" height="8.7" style="fill: #e5e5e5;"/>
  <rect x="117.163" y="83.083" width="6.55" height="8.7" style="fill: #e5e5e5;"/>
  <rect x="110.613" y="83.083" width="6.55" height="8.7" style="fill: #5999c7;"/>
  <rect x="104.063" y="83.083" width="6.55" height="8.7" style="fill: #428bc1;"/>
  <rect x="97.513" y="83.083" width="6.55" height="8.7" style="fill: #428bc1;"/>
  <rect x="90.963" y="83.083" width="6.55" height="8.7" style="fill: #428bc1;"/>
  <rect x="84.413" y="83.083" width="6.55" height="8.7" style="fill: #428bc1;"/>
  <rect x="77.863" y="83.083" width="6.55" height="8.7" style="fill: #428bc1;"/>
  <rect x="71.313" y="83.083" width="6.55" height="8.7" style="fill: #428bc1;"/>
  <rect x="64.763" y="83.083" width="6.55" height="8.7" style="fill: #428bc1;"/>
  <rect x="58.213" y="83.083" width="6.55" height="8.7" style="fill: #e5e5e5;"/>
  <rect x="51.663" y="83.083" width="6.55" height="8.7" style="fill: #e5e5e5;"/>
  <rect x="45.113" y="83.083" width="6.55" height="8.7" style="fill: #fff;"/>
  <rect x="38.563" y="83.083" width="6.55" height="8.7" style="fill: #fff;"/>
  <rect x="32.013" y="83.083" width="6.55" height="8.7" style="fill: #cecece;"/>
  <rect x="143.363" y="74.383" width="6.55" height="8.7" style="fill: #919191;"/>
  <rect x="136.813" y="74.383" width="6.55" height="8.7" style="fill: #fff;"/>
  <rect x="130.263" y="74.383" width="6.55" height="8.7" style="fill: #fff;"/>
  <rect x="123.713" y="74.383" width="6.55" height="8.7" style="fill: #e5e5e5;"/>
  <rect x="117.163" y="74.383" width="6.55" height="8.7" style="fill: #e5e5e5;"/>
  <rect x="110.613" y="74.383" width="6.55" height="8.7" style="fill: #85b2d4;"/>
  <rect x="104.063" y="74.383" width="6.55" height="8.7" style="fill: #85b2d4;"/>
  <rect x="97.513" y="74.383" width="6.55" height="8.7" style="fill: #85b2d4;"/>
  <rect x="90.963" y="74.383" width="6.55" height="8.7" style="fill: #85b2d4;"/>
  <rect x="84.413" y="74.383" width="6.55" height="8.7" style="fill: #85b2d4;"/>
  <rect x="77.863" y="74.383" width="6.55" height="8.7" style="fill: #85b2d4;"/>
  <rect x="71.313" y="74.383" width="6.55" height="8.7" style="fill: #85b2d4;"/>
  <rect x="64.763" y="74.383" width="6.55" height="8.7" style="fill: #85b2d4;"/>
  <rect x="58.213" y="74.383" width="6.55" height="8.7" style="fill: #e5e5e5;"/>
  <rect x="51.663" y="74.383" width="6.55" height="8.7" style="fill: #e5e5e5;"/>
  <rect x="45.113" y="74.383" width="6.55" height="8.7" style="fill: #fff;"/>
  <rect x="38.563" y="74.383" width="6.55" height="8.7" style="fill: #fff;"/>
  <rect x="32.013" y="74.383" width="6.55" height="8.7" style="fill: #cecece;"/>
  <rect x="143.363" y="65.683" width="6.55" height="8.7" style="fill: #919191;"/>
  <rect x="136.813" y="65.683" width="6.55" height="8.7" style="fill: #fff;"/>
  <rect x="130.263" y="65.683" width="6.55" height="8.7" style="fill: #f3f3f3;"/>
  <rect x="123.713" y="65.683" width="6.55" height="8.7" style="fill: #e5e5e5;"/>
  <rect x="117.163" y="65.683" width="6.55" height="8.7" style="fill: #e5e5e5;"/>
  <rect x="110.613" y="65.683" width="6.55" height="8.7" style="fill: #f5f5f5;"/>
  <rect x="104.063" y="65.683" width="6.55" height="8.7" style="fill: #f5f5f5;"/>
  <rect x="97.513" y="65.683" width="6.55" height="8.7" style="fill: #f5f5f5;"/>
  <rect x="90.963" y="65.683" width="6.55" height="8.7" style="fill: #f5f5f5;"/>
  <rect x="84.413" y="65.683" width="6.55" height="8.7" style="fill: #f5f5f5;"/>
  <rect x="77.863" y="65.683" width="6.55" height="8.7" style="fill: #f5f5f5;"/>
  <rect x="71.313" y="65.683" width="6.55" height="8.7" style="fill: #f5f5f5;"/>
  <rect x="64.763" y="65.683" width="6.55" height="8.7" style="fill: #f5f5f5;"/>
  <rect x="58.213" y="65.683" width="6.55" height="8.7" style="fill: #e5e5e5;"/>
  <rect x="51.663" y="65.683" width="6.55" height="8.7" style="fill: #e5e5e5;"/>
  <rect x="45.113" y="65.683" width="6.55" height="8.7" style="fill: #f2f2f2;"/>
  <rect x="38.563" y="65.683" width="6.55" height="8.7" style="fill: #fff;"/>
  <rect x="32.013" y="65.683" width="6.55" height="8.7" style="fill: #cecece;"/>
  <rect x="143.363" y="56.983" width="6.55" height="8.7" style="fill: #919191;"/>
  <rect x="136.813" y="56.983" width="6.55" height="8.7" style="fill: #fff;"/>
  <rect x="130.263" y="56.983" width="6.55" height="8.7" style="fill: #e5e5e5;"/>
  <rect x="123.713" y="56.983" width="6.55" height="8.7" style="fill: #e5e5e5;"/>
  <rect x="117.163" y="56.983" width="6.55" height="8.7" style="fill: #e5e5e5;"/>
  <rect x="110.613" y="56.983" width="6.55" height="8.7" style="fill: #f5f5f5;"/>
  <rect x="104.063" y="56.983" width="6.55" height="8.7" style="fill: #f5f5f5;"/>
  <rect x="97.513" y="56.983" width="6.55" height="8.7" style="fill: #f5f5f5;"/>
  <rect x="90.963" y="56.983" width="6.55" height="8.7" style="fill: #f5f5f5;"/>
  <rect x="84.413" y="56.983" width="6.55" height="8.7" style="fill: #f5f5f5;"/>
  <rect x="77.863" y="56.983" width="6.55" height="8.7" style="fill: #f5f5f5;"/>
  <rect x="71.313" y="56.983" width="6.55" height="8.7" style="fill: #f5f5f5;"/>
  <rect x="64.763" y="56.983" width="6.55" height="8.7" style="fill: #f5f5f5;"/>
  <rect x="58.213" y="56.983" width="6.55" height="8.7" style="fill: #e5e5e5;"/>
  <rect x="51.663" y="56.983" width="6.55" height="8.7" style="fill: #e5e5e5;"/>
  <rect x="45.113" y="56.983" width="6.55" height="8.7" style="fill: #e5e5e5;"/>
  <rect x="38.563" y="56.983" width="6.55" height="8.7" style="fill: #fff;"/>
  <rect x="32.013" y="56.983" width="6.55" height="8.7" style="fill: #cecece;"/>
  <rect x="143.363" y="48.283" width="6.55" height="8.7" style="fill: #919191;"/>
  <rect x="136.813" y="48.283" width="6.55" height="8.7" style="fill: #fff;"/>
  <rect x="130.263" y="48.283" width="6.55" height="8.7" style="fill: #b4b5b5;"/>
  <rect x="123.713" y="48.283" width="6.55" height="8.7" style="fill: #b4b5b5;"/>
  <rect x="117.163" y="48.283" width="6.55" height="8.7" style="fill: #c0c1c2;"/>
  <rect x="110.613" y="48.283" width="6.55" height="8.7" style="fill: #cccdce;"/>
  <rect x="104.063" y="48.283" width="6.55" height="8.7" style="fill: #cccdce;"/>
  <rect x="97.513" y="48.283" width="6.55" height="8.7" style="fill: #cccdce;"/>
  <rect x="90.963" y="48.283" width="6.55" height="8.7" style="fill: #cccdce;"/>
  <rect x="84.413" y="48.283" width="6.55" height="8.7" style="fill: #cccdce;"/>
  <rect x="77.863" y="48.283" width="6.55" height="8.7" style="fill: #cccdce;"/>
  <rect x="71.313" y="48.283" width="6.55" height="8.7" style="fill: #cccdce;"/>
  <rect x="64.763" y="48.283" width="6.55" height="8.7" style="fill: #cccdce;"/>
  <rect x="58.213" y="48.283" width="6.55" height="8.7" style="fill: #c0c1c2;"/>
  <rect x="51.663" y="48.283" width="6.55" height="8.7" style="fill: #b4b5b5;"/>
  <rect x="45.113" y="48.283" width="6.55" height="8.7" style="fill: #b4b5b5;"/>
  <rect x="38.563" y="48.283" width="6.55" height="8.7" style="fill: #fff;"/>
  <rect x="32.013" y="48.283" width="6.55" height="8.7" style="fill: #cecece;"/>
  <rect x="143.363" y="39.583" width="6.55" height="8.7" style="fill: #919191;"/>
  <rect x="136.813" y="39.583" width="6.55" height="8.7" style="fill: #fff;"/>
  <rect x="130.263" y="39.583" width="6.55" height="8.7" style="fill: #212528;"/>
  <rect x="123.713" y="39.583" width="6.55" height="8.7" style="fill: #212528;"/>
  <rect x="117.163" y="39.583" width="6.55" height="8.7" style="fill: #51575b;"/>
  <rect x="110.613" y="39.583" width="6.55" height="8.7" style="fill: #51575b;"/>
  <rect x="104.063" y="39.583" width="6.55" height="8.7" style="fill: #51575b;"/>
  <rect x="97.513" y="39.583" width="6.55" height="8.7" style="fill: #51575b;"/>
  <rect x="90.963" y="39.583" width="6.55" height="8.7" style="fill: #51575b;"/>
  <rect x="84.413" y="39.583" width="6.55" height="8.7" style="fill: #51575b;"/>
  <rect x="77.863" y="39.583" width="6.55" height="8.7" style="fill: #51575b;"/>
  <rect x="71.313" y="39.583" width="6.55" height="8.7" style="fill: #51575b;"/>
  <rect x="64.763" y="39.583" width="6.55" height="8.7" style="fill: #51575b;"/>
  <rect x="58.213" y="39.583" width="6.55" height="8.7" style="fill: #51575b;"/>
  <rect x="51.663" y="39.583" width="6.55" height="8.7" style="fill: #212528;"/>
  <rect x="45.113" y="39.583" width="6.55" height="8.7" style="fill: #212528;"/>
  <rect x="38.563" y="39.583" width="6.55" height="8.7" style="fill: #2f3235;"/>
  <rect x="32.013" y="39.583" width="6.55" height="8.7" style="fill: #cecece;"/>
  <rect x="149.913" y="30.883" width="6.55" height="8.7" style="fill: #212528;"/>
  <rect x="143.363" y="30.883" width="6.55" height="8.7" style="fill: #212528;"/>
  <rect x="136.813" y="30.883" width="6.55" height="8.7" style="fill: #212528;"/>
  <rect x="130.263" y="30.883" width="6.55" height="8.7" style="fill: #51575b;"/>
  <rect x="123.713" y="30.883" width="6.55" height="8.7" style="fill: #51575b;"/>
  <rect x="117.163" y="30.883" width="6.55" height="8.7" style="fill: #51575b;"/>
  <rect x="110.613" y="30.883" width="6.55" height="8.7" style="fill: #51575b;"/>
  <rect x="104.063" y="30.883" width="6.55" height="8.7" style="fill: #51575b;"/>
  <rect x="97.513" y="30.883" width="6.55" height="8.7" style="fill: #51575b;"/>
  <rect x="90.963" y="30.883" width="6.55" height="8.7" style="fill: #51575b;"/>
  <rect x="84.413" y="30.883" width="6.55" height="8.7" style="fill: #51575b;"/>
  <rect x="77.863" y="30.883" width="6.55" height="8.7" style="fill: #51575b;"/>
  <rect x="71.313" y="30.883" width="6.55" height="8.7" style="fill: #51575b;"/>
  <rect x="64.763" y="30.883" width="6.55" height="8.7" style="fill: #51575b;"/>
  <rect x="58.213" y="30.883" width="6.55" height="8.7" style="fill: #51575b;"/>
  <rect x="51.663" y="30.883" width="6.55" height="8.7" style="fill: #51575b;"/>
  <rect x="45.113" y="30.883" width="6.55" height="8.7" style="fill: #51575b;"/>
  <rect x="38.563" y="30.883" width="6.55" height="8.7" style="fill: #4e5457;"/>
  <rect x="32.013" y="30.883" width="6.55" height="8.7" style="fill: #212528;"/>
  <rect x="25.463" y="30.883" width="6.55" height="8.7" style="fill: #212528;"/>
  <rect x="149.913" y="22.183" width="6.55" height="8.7" style="fill: #212528;"/>
  <rect x="143.363" y="22.183" width="6.55" height="8.7" style="fill: #212528;"/>
  <rect x="136.813" y="22.183" width="6.55" height="8.7" style="fill: #212528;"/>
  <rect x="130.263" y="22.183" width="6.55" height="8.7" style="fill: #51575b;"/>
  <rect x="123.713" y="22.183" width="6.55" height="8.7" style="fill: #51575b;"/>
  <rect x="117.163" y="22.183" width="6.55" height="8.7" style="fill: #51575b;"/>
  <rect x="110.613" y="22.183" width="6.55" height="8.7" style="fill: #51575b;"/>
  <rect x="104.063" y="22.183" width="6.55" height="8.7" style="fill: #51575b;"/>
  <rect x="97.513" y="22.183" width="6.55" height="8.7" style="fill: #51575b;"/>
  <rect x="90.963" y="22.183" width="6.55" height="8.7" style="fill: #51575b;"/>
  <rect x="84.413" y="22.183" width="6.55" height="8.7" style="fill: #51575b;"/>
  <rect x="77.863" y="22.183" width="6.55" height="8.7" style="fill: #51575b;"/>
  <rect x="71.313" y="22.183" width="6.55" height="8.7" style="fill: #51575b;"/>
  <rect x="64.763" y="22.183" width="6.55" height="8.7" style="fill: #51575b;"/>
  <rect x="58.213" y="22.183" width="6.55" height="8.7" style="fill: #51575b;"/>
  <rect x="51.663" y="22.183" width="6.55" height="8.7" style="fill: #51575b;"/>
  <rect x="45.113" y="22.183" width="6.55" height="8.7" style="fill: #51575b;"/>
  <rect x="38.563" y="22.183" width="6.55" height="8.7" style="fill: #494f53;"/>
  <rect x="32.013" y="22.183" width="6.55" height="8.7" style="fill: #212528;"/>
  <rect x="25.463" y="22.183" width="6.55" height="8.7" style="fill: #212528;"/>
</svg>