<?xml version="1.0" encoding="UTF-8"?>
<svg id="_图层_1" data-name="图层 1" xmlns="http://www.w3.org/2000/svg" viewBox="0 0 292.085 265.532">
  <rect x="69.078" y="228.918" width="14.867" height="15.333" style="fill: #ed4c5c;"/>
  <rect x="54.212" y="228.918" width="14.867" height="15.333" style="fill: #ed4c5c;"/>
  <rect x="39.345" y="228.918" width="14.867" height="15.333" style="fill: #ed4c5c;"/>
  <rect x="98.812" y="213.585" width="14.867" height="15.333" style="fill: #94989b;"/>
  <rect x="83.945" y="213.585" width="14.867" height="15.333" style="fill: #3e4347;"/>
  <rect x="69.078" y="213.585" width="14.867" height="15.333" style="fill: #7f464e;"/>
  <rect x="54.212" y="213.585" width="14.867" height="15.333" style="fill: #ed4c5c;"/>
  <rect x="98.812" y="198.252" width="14.867" height="15.333" style="fill: #818589;"/>
  <rect x="83.945" y="198.252" width="14.867" height="15.333" style="fill: #94989b;"/>
  <rect x="69.078" y="198.252" width="14.867" height="15.333" style="fill: #3e4347;"/>
  <rect x="54.212" y="198.252" width="14.867" height="15.333" style="fill: #3e4347;"/>
  <rect x="128.545" y="182.918" width="14.867" height="15.333" style="fill: #fff;"/>
  <rect x="113.678" y="182.918" width="14.867" height="15.333" style="fill: #c7d3d8;"/>
  <rect x="98.812" y="182.918" width="14.867" height="15.333" style="fill: #fff;"/>
  <rect x="83.945" y="182.918" width="14.867" height="15.333" style="fill: #3e4347;"/>
  <rect x="69.078" y="182.918" width="14.867" height="15.333" style="fill: #858a8d;"/>
  <rect x="128.545" y="167.585" width="14.867" height="15.333" style="fill: #89664c;"/>
  <rect x="113.678" y="167.585" width="14.867" height="15.333" style="fill: #d3976e;"/>
  <rect x="98.812" y="167.585" width="14.867" height="15.333" style="fill: #fff;"/>
  <rect x="83.945" y="167.585" width="14.867" height="15.333" style="fill: #ced9dd;"/>
  <rect x="143.412" y="152.252" width="14.867" height="15.333" style="fill: #89664c;"/>
  <rect x="128.545" y="152.252" width="14.867" height="15.333" style="fill: #d3976e;"/>
  <rect x="113.678" y="152.252" width="14.867" height="15.333" style="fill: #d3976e;"/>
  <rect x="158.278" y="136.918" width="14.867" height="15.333" style="fill: #916b4f;"/>
  <rect x="143.412" y="136.918" width="14.867" height="15.333" style="fill: #d3976e;"/>
  <rect x="128.545" y="136.918" width="14.867" height="15.333" style="fill: #d3976e;"/>
  <rect x="113.678" y="136.918" width="14.867" height="15.333" style="fill: #ac9482;"/>
  <rect x="173.145" y="121.585" width="14.867" height="15.333" style="fill: #d3976e;"/>
  <rect x="158.278" y="121.585" width="14.867" height="15.333" style="fill: #d3976e;"/>
  <rect x="143.412" y="121.585" width="14.867" height="15.333" style="fill: #d3976e;"/>
  <rect x="128.545" y="121.585" width="14.867" height="15.333" style="fill: #8f6e55;"/>
  <rect x="113.678" y="121.585" width="14.867" height="15.333" style="fill: #fff;"/>
  <rect x="188.012" y="106.252" width="14.867" height="15.333" style="fill: #d3976e;"/>
  <rect x="173.145" y="106.252" width="14.867" height="15.333" style="fill: #d3976e;"/>
  <rect x="158.278" y="106.252" width="14.867" height="15.333" style="fill: #d3976e;"/>
  <rect x="143.412" y="106.252" width="14.867" height="15.333" style="fill: #89664c;"/>
  <rect x="202.878" y="90.918" width="14.867" height="15.333" style="fill: #d3976e;"/>
  <rect x="188.012" y="90.918" width="14.867" height="15.333" style="fill: #d3976e;"/>
  <rect x="173.145" y="90.918" width="14.867" height="15.333" style="fill: #d3976e;"/>
  <rect x="158.278" y="90.918" width="14.867" height="15.333" style="fill: #89664c;"/>
  <rect x="232.612" y="75.585" width="14.867" height="15.333" style="fill: #997a64;"/>
  <rect x="217.745" y="75.585" width="14.867" height="15.333" style="fill: #d3976e;"/>
  <rect x="202.878" y="75.585" width="14.867" height="15.333" style="fill: #d3976e;"/>
  <rect x="188.012" y="75.585" width="14.867" height="15.333" style="fill: #d3976e;"/>
  <rect x="173.145" y="75.585" width="14.867" height="15.333" style="fill: #89664c;"/>
  <rect x="247.478" y="60.252" width="14.867" height="15.333" style="fill: #89664c;"/>
  <rect x="232.612" y="60.252" width="14.867" height="15.333" style="fill: #d3976e;"/>
  <rect x="217.745" y="60.252" width="14.867" height="15.333" style="fill: #d3976e;"/>
  <rect x="202.878" y="60.252" width="14.867" height="15.333" style="fill: #d3976e;"/>
  <rect x="188.012" y="60.252" width="14.867" height="15.333" style="fill: #89664c;"/>
  <rect x="247.478" y="44.918" width="14.867" height="15.333" style="fill: #89664c;"/>
  <rect x="232.612" y="44.918" width="14.867" height="15.333" style="fill: #d3976e;"/>
  <rect x="217.745" y="44.918" width="14.867" height="15.333" style="fill: #d3976e;"/>
  <rect x="202.878" y="44.918" width="14.867" height="15.333" style="fill: #89664c;"/>
  <rect x="247.478" y="29.585" width="14.867" height="15.333" style="fill: #89664c;"/>
  <rect x="232.612" y="29.585" width="14.867" height="15.333" style="fill: #d3976e;"/>
  <rect x="217.745" y="29.585" width="14.867" height="15.333" style="fill: #89664c;"/>
</svg>