<?xml version="1.0" encoding="UTF-8"?>
<svg id="_图层_1" data-name="图层 1" xmlns="http://www.w3.org/2000/svg" viewBox="0 0 357.447 261.447">
  <rect x="267.568" y="217.659" width="14.85" height="9.9" style="fill: #3e4347;"/>
  <rect x="252.718" y="217.659" width="14.85" height="9.9" style="fill: #3e4347;"/>
  <rect x="237.868" y="217.659" width="14.85" height="9.9" style="fill: #3e4347;"/>
  <rect x="104.218" y="217.659" width="14.85" height="9.9" style="fill: #3e4347;"/>
  <rect x="89.368" y="217.659" width="14.85" height="9.9" style="fill: #3e4347;"/>
  <rect x="74.518" y="217.659" width="14.85" height="9.9" style="fill: #3e4347;"/>
  <rect x="282.418" y="207.759" width="14.85" height="9.9" style="fill: #9ea0a2;"/>
  <rect x="267.568" y="207.759" width="14.85" height="9.9" style="fill: #3e4347;"/>
  <rect x="252.718" y="207.759" width="14.85" height="9.9" style="fill: #3e4347;"/>
  <rect x="237.868" y="207.759" width="14.85" height="9.9" style="fill: #3e4347;"/>
  <rect x="223.018" y="207.759" width="14.85" height="9.9" style="fill: #3e4347;"/>
  <rect x="119.068" y="207.759" width="14.85" height="9.9" style="fill: #3e4347;"/>
  <rect x="104.218" y="207.759" width="14.85" height="9.9" style="fill: #3e4347;"/>
  <rect x="89.368" y="207.759" width="14.85" height="9.9" style="fill: #3e4347;"/>
  <rect x="74.518" y="207.759" width="14.85" height="9.9" style="fill: #3e4347;"/>
  <rect x="59.668" y="207.759" width="14.85" height="9.9" style="fill: #ddddde;"/>
  <rect x="282.418" y="197.859" width="14.85" height="9.9" style="fill: #3e4347;"/>
  <rect x="267.568" y="197.859" width="14.85" height="9.9" style="fill: #939597;"/>
  <rect x="252.718" y="197.859" width="14.85" height="9.9" style="fill: #3e4347;"/>
  <rect x="237.868" y="197.859" width="14.85" height="9.9" style="fill: #e8e8e8;"/>
  <rect x="223.018" y="197.859" width="14.85" height="9.9" style="fill: #3e4347;"/>
  <rect x="119.068" y="197.859" width="14.85" height="9.9" style="fill: #3e4347;"/>
  <rect x="104.218" y="197.859" width="14.85" height="9.9" style="fill: #e8e8e8;"/>
  <rect x="89.368" y="197.859" width="14.85" height="9.9" style="fill: #404448;"/>
  <rect x="74.518" y="197.859" width="14.85" height="9.9" style="fill: #616468;"/>
  <rect x="59.668" y="197.859" width="14.85" height="9.9" style="fill: #3e4347;"/>
  <rect x="282.418" y="187.959" width="14.85" height="9.9" style="fill: #3e4347;"/>
  <rect x="267.568" y="187.959" width="14.85" height="9.9" style="fill: #d9dada;"/>
  <rect x="252.718" y="187.959" width="14.85" height="9.9" style="fill: #e8e8e8;"/>
  <rect x="237.868" y="187.959" width="14.85" height="9.9" style="fill: #3e4347;"/>
  <rect x="223.018" y="187.959" width="14.85" height="9.9" style="fill: #3e4347;"/>
  <rect x="208.168" y="187.959" width="14.85" height="9.9" style="fill: #d7d8d9;"/>
  <rect x="133.918" y="187.959" width="14.85" height="9.9" style="fill: #8f9294;"/>
  <rect x="119.068" y="187.959" width="14.85" height="9.9" style="fill: #3e4347;"/>
  <rect x="104.218" y="187.959" width="14.85" height="9.9" style="fill: #3e4347;"/>
  <rect x="89.368" y="187.959" width="14.85" height="9.9" style="fill: #e8e8e8;"/>
  <rect x="74.518" y="187.959" width="14.85" height="9.9" style="fill: #e8e8e8;"/>
  <rect x="59.668" y="187.959" width="14.85" height="9.9" style="fill: #3e4347;"/>
  <rect x="312.118" y="178.059" width="14.85" height="9.9" style="fill: #b2c1c0;"/>
  <rect x="297.268" y="178.059" width="14.85" height="9.9" style="fill: #b2c1c0;"/>
  <rect x="282.418" y="178.059" width="14.85" height="9.9" style="fill: #3e4347;"/>
  <rect x="267.568" y="178.059" width="14.85" height="9.9" style="fill: #e8e8e8;"/>
  <rect x="252.718" y="178.059" width="14.85" height="9.9" style="fill: #e8e8e8;"/>
  <rect x="237.868" y="178.059" width="14.85" height="9.9" style="fill: #484d51;"/>
  <rect x="223.018" y="178.059" width="14.85" height="9.9" style="fill: #3e4347;"/>
  <rect x="208.168" y="178.059" width="14.85" height="9.9" style="fill: #737d7f;"/>
  <rect x="193.318" y="178.059" width="14.85" height="9.9" style="fill: #b2c1c0;"/>
  <rect x="178.468" y="178.059" width="14.85" height="9.9" style="fill: #b2c1c0;"/>
  <rect x="163.618" y="178.059" width="14.85" height="9.9" style="fill: #b2c1c0;"/>
  <rect x="148.768" y="178.059" width="14.85" height="9.9" style="fill: #b2c1c0;"/>
  <rect x="133.918" y="178.059" width="14.85" height="9.9" style="fill: #484e51;"/>
  <rect x="119.068" y="178.059" width="14.85" height="9.9" style="fill: #3e4347;"/>
  <rect x="104.218" y="178.059" width="14.85" height="9.9" style="fill: #484d51;"/>
  <rect x="89.368" y="178.059" width="14.85" height="9.9" style="fill: #e8e8e8;"/>
  <rect x="74.518" y="178.059" width="14.85" height="9.9" style="fill: #e8e8e8;"/>
  <rect x="59.668" y="178.059" width="14.85" height="9.9" style="fill: #3e4347;"/>
  <rect x="312.118" y="168.159" width="14.85" height="9.9" style="fill: #b2c1c0;"/>
  <rect x="297.268" y="168.159" width="14.85" height="9.9" style="fill: #b2c1c0;"/>
  <rect x="282.418" y="168.159" width="14.85" height="9.9" style="fill: #3e4347;"/>
  <rect x="267.568" y="168.159" width="14.85" height="9.9" style="fill: #e8e8e8;"/>
  <rect x="252.718" y="168.159" width="14.85" height="9.9" style="fill: #3e4347;"/>
  <rect x="237.868" y="168.159" width="14.85" height="9.9" style="fill: #e8e8e8;"/>
  <rect x="223.018" y="168.159" width="14.85" height="9.9" style="fill: #3e4347;"/>
  <rect x="208.168" y="168.159" width="14.85" height="9.9" style="fill: #b2c1c0;"/>
  <rect x="193.318" y="168.159" width="14.85" height="9.9" style="fill: #b2c1c0;"/>
  <rect x="178.468" y="168.159" width="14.85" height="9.9" style="fill: #b2c1c0;"/>
  <rect x="163.618" y="168.159" width="14.85" height="9.9" style="fill: #b2c1c0;"/>
  <rect x="148.768" y="168.159" width="14.85" height="9.9" style="fill: #b2c1c0;"/>
  <rect x="133.918" y="168.159" width="14.85" height="9.9" style="fill: #b2c1c0;"/>
  <rect x="119.068" y="168.159" width="14.85" height="9.9" style="fill: #3e4347;"/>
  <rect x="104.218" y="168.159" width="14.85" height="9.9" style="fill: #e8e8e8;"/>
  <rect x="89.368" y="168.159" width="14.85" height="9.9" style="fill: #3e4347;"/>
  <rect x="74.518" y="168.159" width="14.85" height="9.9" style="fill: #e8e8e8;"/>
  <rect x="59.668" y="168.159" width="14.85" height="9.9" style="fill: #3e4347;"/>
  <rect x="44.818" y="168.159" width="14.85" height="9.9" style="fill: #b2c1c0;"/>
  <rect x="29.968" y="168.159" width="14.85" height="9.9" style="fill: #b2c1c0;"/>
  <rect x="312.118" y="158.259" width="14.85" height="9.9" style="fill: #b6c5c4;"/>
  <rect x="297.268" y="158.259" width="14.85" height="9.9" style="fill: #b6bab8;"/>
  <rect x="282.418" y="158.259" width="14.85" height="9.9" style="fill: #3e4347;"/>
  <rect x="267.568" y="158.259" width="14.85" height="9.9" style="fill: #3e4347;"/>
  <rect x="252.718" y="158.259" width="14.85" height="9.9" style="fill: #e8e8e8;"/>
  <rect x="237.868" y="158.259" width="14.85" height="9.9" style="fill: #3e4347;"/>
  <rect x="223.018" y="158.259" width="14.85" height="9.9" style="fill: #3e4347;"/>
  <rect x="208.168" y="158.259" width="14.85" height="9.9" style="fill: #b6bab8;"/>
  <rect x="193.318" y="158.259" width="14.85" height="9.9" style="fill: #b6bab8;"/>
  <rect x="178.468" y="158.259" width="14.85" height="9.9" style="fill: #b6bab8;"/>
  <rect x="163.618" y="158.259" width="14.85" height="9.9" style="fill: #b6bab8;"/>
  <rect x="148.768" y="158.259" width="14.85" height="9.9" style="fill: #b6bab8;"/>
  <rect x="133.918" y="158.259" width="14.85" height="9.9" style="fill: #b6bab8;"/>
  <rect x="119.068" y="158.259" width="14.85" height="9.9" style="fill: #3e4347;"/>
  <rect x="104.218" y="158.259" width="14.85" height="9.9" style="fill: #3e4347;"/>
  <rect x="89.368" y="158.259" width="14.85" height="9.9" style="fill: #e8e8e8;"/>
  <rect x="74.518" y="158.259" width="14.85" height="9.9" style="fill: #3e4347;"/>
  <rect x="59.668" y="158.259" width="14.85" height="9.9" style="fill: #3e4347;"/>
  <rect x="44.818" y="158.259" width="14.85" height="9.9" style="fill: #b6bab8;"/>
  <rect x="29.968" y="158.259" width="14.85" height="9.9" style="fill: #b6c5c4;"/>
  <rect x="297.268" y="148.359" width="14.85" height="9.9" style="fill: #f15744;"/>
  <rect x="282.418" y="148.359" width="14.85" height="9.9" style="fill: #f15744;"/>
  <rect x="267.568" y="148.359" width="14.85" height="9.9" style="fill: #3e4347;"/>
  <rect x="252.718" y="148.359" width="14.85" height="9.9" style="fill: #3e4347;"/>
  <rect x="237.868" y="148.359" width="14.85" height="9.9" style="fill: #3e4347;"/>
  <rect x="223.018" y="148.359" width="14.85" height="9.9" style="fill: #f15744;"/>
  <rect x="208.168" y="148.359" width="14.85" height="9.9" style="fill: #f15744;"/>
  <rect x="193.318" y="148.359" width="14.85" height="9.9" style="fill: #f15744;"/>
  <rect x="178.468" y="148.359" width="14.85" height="9.9" style="fill: #f15744;"/>
  <rect x="163.618" y="148.359" width="14.85" height="9.9" style="fill: #f15744;"/>
  <rect x="148.768" y="148.359" width="14.85" height="9.9" style="fill: #f15744;"/>
  <rect x="133.918" y="148.359" width="14.85" height="9.9" style="fill: #f15744;"/>
  <rect x="119.068" y="148.359" width="14.85" height="9.9" style="fill: #f15744;"/>
  <rect x="104.218" y="148.359" width="14.85" height="9.9" style="fill: #3e4347;"/>
  <rect x="89.368" y="148.359" width="14.85" height="9.9" style="fill: #3e4347;"/>
  <rect x="74.518" y="148.359" width="14.85" height="9.9" style="fill: #3e4347;"/>
  <rect x="59.668" y="148.359" width="14.85" height="9.9" style="fill: #f15744;"/>
  <rect x="44.818" y="148.359" width="14.85" height="9.9" style="fill: #f15744;"/>
  <rect x="297.268" y="138.459" width="14.85" height="9.9" style="fill: #ffe62e;"/>
  <rect x="282.418" y="138.459" width="14.85" height="9.9" style="fill: #f15744;"/>
  <rect x="267.568" y="138.459" width="14.85" height="9.9" style="fill: #f15744;"/>
  <rect x="252.718" y="138.459" width="14.85" height="9.9" style="fill: #f15744;"/>
  <rect x="237.868" y="138.459" width="14.85" height="9.9" style="fill: #f15744;"/>
  <rect x="223.018" y="138.459" width="14.85" height="9.9" style="fill: #f15744;"/>
  <rect x="208.168" y="138.459" width="14.85" height="9.9" style="fill: #f15744;"/>
  <rect x="193.318" y="138.459" width="14.85" height="9.9" style="fill: #f15744;"/>
  <rect x="178.468" y="138.459" width="14.85" height="9.9" style="fill: #f15744;"/>
  <rect x="163.618" y="138.459" width="14.85" height="9.9" style="fill: #f15744;"/>
  <rect x="148.768" y="138.459" width="14.85" height="9.9" style="fill: #f15744;"/>
  <rect x="133.918" y="138.459" width="14.85" height="9.9" style="fill: #f15744;"/>
  <rect x="119.068" y="138.459" width="14.85" height="9.9" style="fill: #f15744;"/>
  <rect x="104.218" y="138.459" width="14.85" height="9.9" style="fill: #f15744;"/>
  <rect x="89.368" y="138.459" width="14.85" height="9.9" style="fill: #f15744;"/>
  <rect x="74.518" y="138.459" width="14.85" height="9.9" style="fill: #f15744;"/>
  <rect x="59.668" y="138.459" width="14.85" height="9.9" style="fill: #f15744;"/>
  <rect x="297.268" y="128.559" width="14.85" height="9.9" style="fill: #ffe62e;"/>
  <rect x="282.418" y="128.559" width="14.85" height="9.9" style="fill: #f15744;"/>
  <rect x="267.568" y="128.559" width="14.85" height="9.9" style="fill: #f15744;"/>
  <rect x="252.718" y="128.559" width="14.85" height="9.9" style="fill: #f15744;"/>
  <rect x="237.868" y="128.559" width="14.85" height="9.9" style="fill: #f15744;"/>
  <rect x="223.018" y="128.559" width="14.85" height="9.9" style="fill: #f15744;"/>
  <rect x="208.168" y="128.559" width="14.85" height="9.9" style="fill: #f15744;"/>
  <rect x="193.318" y="128.559" width="14.85" height="9.9" style="fill: #f15744;"/>
  <rect x="178.468" y="128.559" width="14.85" height="9.9" style="fill: #f15744;"/>
  <rect x="163.618" y="128.559" width="14.85" height="9.9" style="fill: #f15744;"/>
  <rect x="148.768" y="128.559" width="14.85" height="9.9" style="fill: #f15744;"/>
  <rect x="133.918" y="128.559" width="14.85" height="9.9" style="fill: #f15744;"/>
  <rect x="119.068" y="128.559" width="14.85" height="9.9" style="fill: #f15744;"/>
  <rect x="104.218" y="128.559" width="14.85" height="9.9" style="fill: #f15744;"/>
  <rect x="89.368" y="128.559" width="14.85" height="9.9" style="fill: #f15744;"/>
  <rect x="74.518" y="128.559" width="14.85" height="9.9" style="fill: #f15744;"/>
  <rect x="59.668" y="128.559" width="14.85" height="9.9" style="fill: #f15744;"/>
  <rect x="297.268" y="118.659" width="14.85" height="9.9" style="fill: #f15744;"/>
  <rect x="282.418" y="118.659" width="14.85" height="9.9" style="fill: #f15744;"/>
  <rect x="267.568" y="118.659" width="14.85" height="9.9" style="fill: #f15744;"/>
  <rect x="252.718" y="118.659" width="14.85" height="9.9" style="fill: #f15744;"/>
  <rect x="237.868" y="118.659" width="14.85" height="9.9" style="fill: #f15744;"/>
  <rect x="223.018" y="118.659" width="14.85" height="9.9" style="fill: #f15744;"/>
  <rect x="208.168" y="118.659" width="14.85" height="9.9" style="fill: #f15744;"/>
  <rect x="193.318" y="118.659" width="14.85" height="9.9" style="fill: #f15744;"/>
  <rect x="178.468" y="118.659" width="14.85" height="9.9" style="fill: #f15744;"/>
  <rect x="163.618" y="118.659" width="14.85" height="9.9" style="fill: #f15744;"/>
  <rect x="148.768" y="118.659" width="14.85" height="9.9" style="fill: #f15744;"/>
  <rect x="133.918" y="118.659" width="14.85" height="9.9" style="fill: #f15744;"/>
  <rect x="119.068" y="118.659" width="14.85" height="9.9" style="fill: #f15744;"/>
  <rect x="104.218" y="118.659" width="14.85" height="9.9" style="fill: #f15744;"/>
  <rect x="89.368" y="118.659" width="14.85" height="9.9" style="fill: #f15744;"/>
  <rect x="74.518" y="118.659" width="14.85" height="9.9" style="fill: #f15744;"/>
  <rect x="59.668" y="118.659" width="14.85" height="9.9" style="fill: #f15744;"/>
  <rect x="44.818" y="118.659" width="14.85" height="9.9" style="fill: #f15744;"/>
  <rect x="297.268" y="108.759" width="14.85" height="9.9" style="fill: #f15744;"/>
  <rect x="282.418" y="108.759" width="14.85" height="9.9" style="fill: #f15744;"/>
  <rect x="267.568" y="108.759" width="14.85" height="9.9" style="fill: #f15744;"/>
  <rect x="252.718" y="108.759" width="14.85" height="9.9" style="fill: #f15744;"/>
  <rect x="237.868" y="108.759" width="14.85" height="9.9" style="fill: #f15744;"/>
  <rect x="223.018" y="108.759" width="14.85" height="9.9" style="fill: #f15744;"/>
  <rect x="208.168" y="108.759" width="14.85" height="9.9" style="fill: #f15744;"/>
  <rect x="193.318" y="108.759" width="14.85" height="9.9" style="fill: #f15744;"/>
  <rect x="178.468" y="108.759" width="14.85" height="9.9" style="fill: #f15744;"/>
  <rect x="163.618" y="108.759" width="14.85" height="9.9" style="fill: #f15744;"/>
  <rect x="148.768" y="108.759" width="14.85" height="9.9" style="fill: #f15744;"/>
  <rect x="133.918" y="108.759" width="14.85" height="9.9" style="fill: #f15744;"/>
  <rect x="119.068" y="108.759" width="14.85" height="9.9" style="fill: #f15744;"/>
  <rect x="104.218" y="108.759" width="14.85" height="9.9" style="fill: #f15744;"/>
  <rect x="89.368" y="108.759" width="14.85" height="9.9" style="fill: #f15744;"/>
  <rect x="74.518" y="108.759" width="14.85" height="9.9" style="fill: #f15744;"/>
  <rect x="59.668" y="108.759" width="14.85" height="9.9" style="fill: #f15744;"/>
  <rect x="282.418" y="98.859" width="14.85" height="9.9" style="fill: #f15744;"/>
  <rect x="267.568" y="98.859" width="14.85" height="9.9" style="fill: #f15744;"/>
  <rect x="252.718" y="98.859" width="14.85" height="9.9" style="fill: #f15744;"/>
  <rect x="237.868" y="98.859" width="14.85" height="9.9" style="fill: #f15744;"/>
  <rect x="223.018" y="98.859" width="14.85" height="9.9" style="fill: #f15744;"/>
  <rect x="208.168" y="98.859" width="14.85" height="9.9" style="fill: #f15744;"/>
  <rect x="193.318" y="98.859" width="14.85" height="9.9" style="fill: #f15744;"/>
  <rect x="178.468" y="98.859" width="14.85" height="9.9" style="fill: #f15744;"/>
  <rect x="163.618" y="98.859" width="14.85" height="9.9" style="fill: #f15744;"/>
  <rect x="148.768" y="98.859" width="14.85" height="9.9" style="fill: #f15744;"/>
  <rect x="133.918" y="98.859" width="14.85" height="9.9" style="fill: #f15744;"/>
  <rect x="119.068" y="98.859" width="14.85" height="9.9" style="fill: #f15744;"/>
  <rect x="104.218" y="98.859" width="14.85" height="9.9" style="fill: #f15744;"/>
  <rect x="89.368" y="98.859" width="14.85" height="9.9" style="fill: #f15744;"/>
  <rect x="74.518" y="98.859" width="14.85" height="9.9" style="fill: #f15744;"/>
  <rect x="267.568" y="88.959" width="14.85" height="9.9" style="fill: #f15744;"/>
  <rect x="252.718" y="88.959" width="14.85" height="9.9" style="fill: #5e4646;"/>
  <rect x="237.868" y="88.959" width="14.85" height="9.9" style="fill: #3e4347;"/>
  <rect x="223.018" y="88.959" width="14.85" height="9.9" style="fill: #3e4347;"/>
  <rect x="208.168" y="88.959" width="14.85" height="9.9" style="fill: #3e4347;"/>
  <rect x="193.318" y="88.959" width="14.85" height="9.9" style="fill: #f15744;"/>
  <rect x="178.468" y="88.959" width="14.85" height="9.9" style="fill: #3e4347;"/>
  <rect x="163.618" y="88.959" width="14.85" height="9.9" style="fill: #3e4347;"/>
  <rect x="148.768" y="88.959" width="14.85" height="9.9" style="fill: #3e4347;"/>
  <rect x="133.918" y="88.959" width="14.85" height="9.9" style="fill: #3e4347;"/>
  <rect x="119.068" y="88.959" width="14.85" height="9.9" style="fill: #f15744;"/>
  <rect x="104.218" y="88.959" width="14.85" height="9.9" style="fill: #f15744;"/>
  <rect x="267.568" y="79.059" width="14.85" height="9.9" style="fill: #f15744;"/>
  <rect x="252.718" y="79.059" width="14.85" height="9.9" style="fill: #3e4347;"/>
  <rect x="237.868" y="79.059" width="14.85" height="9.9" style="fill: #3e4347;"/>
  <rect x="223.018" y="79.059" width="14.85" height="9.9" style="fill: #3e4347;"/>
  <rect x="208.168" y="79.059" width="14.85" height="9.9" style="fill: #3e4347;"/>
  <rect x="193.318" y="79.059" width="14.85" height="9.9" style="fill: #f15744;"/>
  <rect x="178.468" y="79.059" width="14.85" height="9.9" style="fill: #3e4347;"/>
  <rect x="163.618" y="79.059" width="14.85" height="9.9" style="fill: #3e4347;"/>
  <rect x="148.768" y="79.059" width="14.85" height="9.9" style="fill: #3e4347;"/>
  <rect x="133.918" y="79.059" width="14.85" height="9.9" style="fill: #3e4347;"/>
  <rect x="119.068" y="79.059" width="14.85" height="9.9" style="fill: #f15744;"/>
  <rect x="104.218" y="79.059" width="14.85" height="9.9" style="fill: #f15744;"/>
  <rect x="267.568" y="69.159" width="14.85" height="9.9" style="fill: #f15744;"/>
  <rect x="252.718" y="69.159" width="14.85" height="9.9" style="fill: #d75444;"/>
  <rect x="237.868" y="69.159" width="14.85" height="9.9" style="fill: #3e4347;"/>
  <rect x="223.018" y="69.159" width="14.85" height="9.9" style="fill: #3e4347;"/>
  <rect x="208.168" y="69.159" width="14.85" height="9.9" style="fill: #3e4347;"/>
  <rect x="193.318" y="69.159" width="14.85" height="9.9" style="fill: #f15744;"/>
  <rect x="178.468" y="69.159" width="14.85" height="9.9" style="fill: #3e4347;"/>
  <rect x="163.618" y="69.159" width="14.85" height="9.9" style="fill: #3e4347;"/>
  <rect x="148.768" y="69.159" width="14.85" height="9.9" style="fill: #3e4347;"/>
  <rect x="133.918" y="69.159" width="14.85" height="9.9" style="fill: #3e4347;"/>
  <rect x="119.068" y="69.159" width="14.85" height="9.9" style="fill: #f15744;"/>
  <rect x="267.568" y="59.259" width="14.85" height="9.9" style="fill: #f58a7d;"/>
  <rect x="252.718" y="59.259" width="14.85" height="9.9" style="fill: #f15744;"/>
  <rect x="237.868" y="59.259" width="14.85" height="9.9" style="fill: #3e4347;"/>
  <rect x="223.018" y="59.259" width="14.85" height="9.9" style="fill: #3e4347;"/>
  <rect x="208.168" y="59.259" width="14.85" height="9.9" style="fill: #3e4347;"/>
  <rect x="193.318" y="59.259" width="14.85" height="9.9" style="fill: #f15744;"/>
  <rect x="178.468" y="59.259" width="14.85" height="9.9" style="fill: #3e4347;"/>
  <rect x="163.618" y="59.259" width="14.85" height="9.9" style="fill: #3e4347;"/>
  <rect x="148.768" y="59.259" width="14.85" height="9.9" style="fill: #3e4347;"/>
  <rect x="133.918" y="59.259" width="14.85" height="9.9" style="fill: #3e4347;"/>
  <rect x="119.068" y="59.259" width="14.85" height="9.9" style="fill: #f15744;"/>
  <rect x="252.718" y="49.359" width="14.85" height="9.9" style="fill: #f15744;"/>
  <rect x="237.868" y="49.359" width="14.85" height="9.9" style="fill: #3e4347;"/>
  <rect x="223.018" y="49.359" width="14.85" height="9.9" style="fill: #3e4347;"/>
  <rect x="208.168" y="49.359" width="14.85" height="9.9" style="fill: #3e4347;"/>
  <rect x="193.318" y="49.359" width="14.85" height="9.9" style="fill: #f15744;"/>
  <rect x="178.468" y="49.359" width="14.85" height="9.9" style="fill: #3e4347;"/>
  <rect x="163.618" y="49.359" width="14.85" height="9.9" style="fill: #3e4347;"/>
  <rect x="148.768" y="49.359" width="14.85" height="9.9" style="fill: #3e4347;"/>
  <rect x="133.918" y="49.359" width="14.85" height="9.9" style="fill: #f15744;"/>
  <rect x="119.068" y="49.359" width="14.85" height="9.9" style="fill: #f15744;"/>
  <rect x="252.718" y="39.459" width="14.85" height="9.9" style="fill: #f15744;"/>
  <rect x="237.868" y="39.459" width="14.85" height="9.9" style="fill: #3e4347;"/>
  <rect x="223.018" y="39.459" width="14.85" height="9.9" style="fill: #3e4347;"/>
  <rect x="208.168" y="39.459" width="14.85" height="9.9" style="fill: #3e4347;"/>
  <rect x="193.318" y="39.459" width="14.85" height="9.9" style="fill: #f15744;"/>
  <rect x="178.468" y="39.459" width="14.85" height="9.9" style="fill: #3e4347;"/>
  <rect x="163.618" y="39.459" width="14.85" height="9.9" style="fill: #3e4347;"/>
  <rect x="148.768" y="39.459" width="14.85" height="9.9" style="fill: #3e4347;"/>
  <rect x="133.918" y="39.459" width="14.85" height="9.9" style="fill: #f15744;"/>
  <rect x="252.718" y="29.559" width="14.85" height="9.9" style="fill: #f15744;"/>
  <rect x="237.868" y="29.559" width="14.85" height="9.9" style="fill: #f15744;"/>
  <rect x="223.018" y="29.559" width="14.85" height="9.9" style="fill: #f15744;"/>
  <rect x="208.168" y="29.559" width="14.85" height="9.9" style="fill: #f15744;"/>
  <rect x="193.318" y="29.559" width="14.85" height="9.9" style="fill: #f15744;"/>
  <rect x="178.468" y="29.559" width="14.85" height="9.9" style="fill: #f15744;"/>
  <rect x="163.618" y="29.559" width="14.85" height="9.9" style="fill: #f15744;"/>
  <rect x="148.768" y="29.559" width="14.85" height="9.9" style="fill: #f15744;"/>
  <rect x="133.918" y="29.559" width="14.85" height="9.9" style="fill: #f15744;"/>
</svg>