<?xml version="1.0" encoding="UTF-8"?>
<svg id="_图层_1" data-name="图层 1" xmlns="http://www.w3.org/2000/svg" viewBox="0 0 173.617 253.277">
  <rect x="101.073" y="216.131" width="2.95" height="9.85" style="fill: red;"/>
  <rect x="98.123" y="216.131" width="2.95" height="9.85" style="fill: red;"/>
  <rect x="95.173" y="216.131" width="2.95" height="9.85" style="fill: red;"/>
  <rect x="92.223" y="216.131" width="2.95" height="9.85" style="fill: red;"/>
  <rect x="89.273" y="216.131" width="2.95" height="9.85" style="fill: red;"/>
  <rect x="86.323" y="216.131" width="2.95" height="9.85" style="fill: red;"/>
  <rect x="83.373" y="216.131" width="2.95" height="9.85" style="fill: red;"/>
  <rect x="80.423" y="216.131" width="2.95" height="9.85" style="fill: red;"/>
  <rect x="77.473" y="216.131" width="2.95" height="9.85" style="fill: red;"/>
  <rect x="74.523" y="216.131" width="2.95" height="9.85" style="fill: red;"/>
  <rect x="112.873" y="206.281" width="2.95" height="9.85" style="fill: red;"/>
  <rect x="109.923" y="206.281" width="2.95" height="9.85" style="fill: red;"/>
  <rect x="106.973" y="206.281" width="2.95" height="9.85" style="fill: red;"/>
  <rect x="104.023" y="206.281" width="2.95" height="9.85" style="fill: red;"/>
  <rect x="101.073" y="206.281" width="2.95" height="9.85" style="fill: red;"/>
  <rect x="98.123" y="206.281" width="2.95" height="9.85" style="fill: red;"/>
  <rect x="95.173" y="206.281" width="2.95" height="9.85" style="fill: red;"/>
  <rect x="92.223" y="206.281" width="2.95" height="9.85" style="fill: red;"/>
  <rect x="89.273" y="206.281" width="2.95" height="9.85" style="fill: red;"/>
  <rect x="86.323" y="206.281" width="2.95" height="9.85" style="fill: red;"/>
  <rect x="83.373" y="206.281" width="2.95" height="9.85" style="fill: red;"/>
  <rect x="80.423" y="206.281" width="2.95" height="9.85" style="fill: red;"/>
  <rect x="77.473" y="206.281" width="2.95" height="9.85" style="fill: red;"/>
  <rect x="74.523" y="206.281" width="2.95" height="9.85" style="fill: red;"/>
  <rect x="71.573" y="206.281" width="2.95" height="9.85" style="fill: red;"/>
  <rect x="68.623" y="206.281" width="2.95" height="9.85" style="fill: red;"/>
  <rect x="65.673" y="206.281" width="2.95" height="9.85" style="fill: red;"/>
  <rect x="112.873" y="196.431" width="2.95" height="9.85" style="fill: red;"/>
  <rect x="109.923" y="196.431" width="2.95" height="9.85" style="fill: red;"/>
  <rect x="106.973" y="196.431" width="2.95" height="9.85" style="fill: red;"/>
  <rect x="104.023" y="196.431" width="2.95" height="9.85" style="fill: red;"/>
  <rect x="101.073" y="196.431" width="2.95" height="9.85" style="fill: red;"/>
  <rect x="98.123" y="196.431" width="2.95" height="9.85" style="fill: red;"/>
  <rect x="95.173" y="196.431" width="2.95" height="9.85" style="fill: red;"/>
  <rect x="92.223" y="196.431" width="2.95" height="9.85" style="fill: red;"/>
  <rect x="89.273" y="196.431" width="2.95" height="9.85" style="fill: red;"/>
  <rect x="86.323" y="196.431" width="2.95" height="9.85" style="fill: red;"/>
  <rect x="83.373" y="196.431" width="2.95" height="9.85" style="fill: red;"/>
  <rect x="80.423" y="196.431" width="2.95" height="9.85" style="fill: red;"/>
  <rect x="77.473" y="196.431" width="2.95" height="9.85" style="fill: red;"/>
  <rect x="74.523" y="196.431" width="2.95" height="9.85" style="fill: red;"/>
  <rect x="71.573" y="196.431" width="2.95" height="9.85" style="fill: red;"/>
  <rect x="68.623" y="196.431" width="2.95" height="9.85" style="fill: red;"/>
  <rect x="65.673" y="196.431" width="2.95" height="9.85" style="fill: red;"/>
  <rect x="62.723" y="196.431" width="2.95" height="9.85" style="fill: red;"/>
  <rect x="109.923" y="186.581" width="2.95" height="9.85" style="fill: red;"/>
  <rect x="106.973" y="186.581" width="2.95" height="9.85" style="fill: red;"/>
  <rect x="104.023" y="186.581" width="2.95" height="9.85" style="fill: red;"/>
  <rect x="101.073" y="186.581" width="2.95" height="9.85" style="fill: red;"/>
  <rect x="98.123" y="186.581" width="2.95" height="9.85" style="fill: red;"/>
  <rect x="95.173" y="186.581" width="2.95" height="9.85" style="fill: red;"/>
  <rect x="92.223" y="186.581" width="2.95" height="9.85" style="fill: red;"/>
  <rect x="89.273" y="186.581" width="2.95" height="9.85" style="fill: red;"/>
  <rect x="86.323" y="186.581" width="2.95" height="9.85" style="fill: red;"/>
  <rect x="83.373" y="186.581" width="2.95" height="9.85" style="fill: red;"/>
  <rect x="80.423" y="186.581" width="2.95" height="9.85" style="fill: red;"/>
  <rect x="77.473" y="186.581" width="2.95" height="9.85" style="fill: red;"/>
  <rect x="74.523" y="186.581" width="2.95" height="9.85" style="fill: red;"/>
  <rect x="71.573" y="186.581" width="2.95" height="9.85" style="fill: red;"/>
  <rect x="68.623" y="186.581" width="2.95" height="9.85" style="fill: red;"/>
  <rect x="65.673" y="186.581" width="2.95" height="9.85" style="fill: red;"/>
  <rect x="104.023" y="176.731" width="2.95" height="9.85" style="fill: red;"/>
  <rect x="101.073" y="176.731" width="2.95" height="9.85" style="fill: red;"/>
  <rect x="98.123" y="176.731" width="2.95" height="9.85" style="fill: red;"/>
  <rect x="95.173" y="176.731" width="2.95" height="9.85" style="fill: red;"/>
  <rect x="92.223" y="176.731" width="2.95" height="9.85" style="fill: red;"/>
  <rect x="89.273" y="176.731" width="2.95" height="9.85" style="fill: red;"/>
  <rect x="86.323" y="176.731" width="2.95" height="9.85" style="fill: red;"/>
  <rect x="83.373" y="176.731" width="2.95" height="9.85" style="fill: red;"/>
  <rect x="80.423" y="176.731" width="2.95" height="9.85" style="fill: red;"/>
  <rect x="77.473" y="176.731" width="2.95" height="9.85" style="fill: red;"/>
  <rect x="74.523" y="176.731" width="2.95" height="9.85" style="fill: red;"/>
  <rect x="71.573" y="176.731" width="2.95" height="9.85" style="fill: red;"/>
  <rect x="104.023" y="147.181" width="2.95" height="9.85" style="fill: red;"/>
  <rect x="101.073" y="147.181" width="2.95" height="9.85" style="fill: red;"/>
  <rect x="98.123" y="147.181" width="2.95" height="9.85" style="fill: red;"/>
  <rect x="95.173" y="147.181" width="2.95" height="9.85" style="fill: red;"/>
  <rect x="92.223" y="147.181" width="2.95" height="9.85" style="fill: red;"/>
  <rect x="89.273" y="147.181" width="2.95" height="9.85" style="fill: red;"/>
  <rect x="86.323" y="147.181" width="2.95" height="9.85" style="fill: red;"/>
  <rect x="83.373" y="147.181" width="2.95" height="9.85" style="fill: red;"/>
  <rect x="80.423" y="147.181" width="2.95" height="9.85" style="fill: red;"/>
  <rect x="77.473" y="147.181" width="2.95" height="9.85" style="fill: red;"/>
  <rect x="74.523" y="147.181" width="2.95" height="9.85" style="fill: red;"/>
  <rect x="71.573" y="147.181" width="2.95" height="9.85" style="fill: red;"/>
  <rect x="104.023" y="137.331" width="2.95" height="9.85" style="fill: red;"/>
  <rect x="101.073" y="137.331" width="2.95" height="9.85" style="fill: red;"/>
  <rect x="98.123" y="137.331" width="2.95" height="9.85" style="fill: red;"/>
  <rect x="95.173" y="137.331" width="2.95" height="9.85" style="fill: red;"/>
  <rect x="92.223" y="137.331" width="2.95" height="9.85" style="fill: red;"/>
  <rect x="89.273" y="137.331" width="2.95" height="9.85" style="fill: red;"/>
  <rect x="86.323" y="137.331" width="2.95" height="9.85" style="fill: red;"/>
  <rect x="83.373" y="137.331" width="2.95" height="9.85" style="fill: red;"/>
  <rect x="80.423" y="137.331" width="2.95" height="9.85" style="fill: red;"/>
  <rect x="77.473" y="137.331" width="2.95" height="9.85" style="fill: red;"/>
  <rect x="74.523" y="137.331" width="2.95" height="9.85" style="fill: red;"/>
  <rect x="71.573" y="137.331" width="2.95" height="9.85" style="fill: red;"/>
  <rect x="106.973" y="127.481" width="2.95" height="9.85" style="fill: red;"/>
  <rect x="104.023" y="127.481" width="2.95" height="9.85" style="fill: red;"/>
  <rect x="101.073" y="127.481" width="2.95" height="9.85" style="fill: red;"/>
  <rect x="98.123" y="127.481" width="2.95" height="9.85" style="fill: red;"/>
  <rect x="95.173" y="127.481" width="2.95" height="9.85" style="fill: red;"/>
  <rect x="92.223" y="127.481" width="2.95" height="9.85" style="fill: red;"/>
  <rect x="89.273" y="127.481" width="2.95" height="9.85" style="fill: red;"/>
  <rect x="86.323" y="127.481" width="2.95" height="9.85" style="fill: red;"/>
  <rect x="83.373" y="127.481" width="2.95" height="9.85" style="fill: red;"/>
  <rect x="80.423" y="127.481" width="2.95" height="9.85" style="fill: red;"/>
  <rect x="77.473" y="127.481" width="2.95" height="9.85" style="fill: red;"/>
  <rect x="74.523" y="127.481" width="2.95" height="9.85" style="fill: red;"/>
  <rect x="71.573" y="127.481" width="2.95" height="9.85" style="fill: red;"/>
  <rect x="106.973" y="117.631" width="2.95" height="9.85" style="fill: red;"/>
  <rect x="104.023" y="117.631" width="2.95" height="9.85" style="fill: red;"/>
  <rect x="101.073" y="117.631" width="2.95" height="9.85" style="fill: red;"/>
  <rect x="98.123" y="117.631" width="2.95" height="9.85" style="fill: red;"/>
  <rect x="95.173" y="117.631" width="2.95" height="9.85" style="fill: red;"/>
  <rect x="92.223" y="117.631" width="2.95" height="9.85" style="fill: red;"/>
  <rect x="89.273" y="117.631" width="2.95" height="9.85" style="fill: red;"/>
  <rect x="86.323" y="117.631" width="2.95" height="9.85" style="fill: red;"/>
  <rect x="83.373" y="117.631" width="2.95" height="9.85" style="fill: red;"/>
  <rect x="80.423" y="117.631" width="2.95" height="9.85" style="fill: red;"/>
  <rect x="77.473" y="117.631" width="2.95" height="9.85" style="fill: red;"/>
  <rect x="74.523" y="117.631" width="2.95" height="9.85" style="fill: red;"/>
  <rect x="71.573" y="117.631" width="2.95" height="9.85" style="fill: red;"/>
  <rect x="106.973" y="107.781" width="2.95" height="9.85" style="fill: red;"/>
  <rect x="104.023" y="107.781" width="2.95" height="9.85" style="fill: red;"/>
  <rect x="101.073" y="107.781" width="2.95" height="9.85" style="fill: red;"/>
  <rect x="98.123" y="107.781" width="2.95" height="9.85" style="fill: red;"/>
  <rect x="95.173" y="107.781" width="2.95" height="9.85" style="fill: red;"/>
  <rect x="92.223" y="107.781" width="2.95" height="9.85" style="fill: red;"/>
  <rect x="89.273" y="107.781" width="2.95" height="9.85" style="fill: red;"/>
  <rect x="86.323" y="107.781" width="2.95" height="9.85" style="fill: red;"/>
  <rect x="83.373" y="107.781" width="2.95" height="9.85" style="fill: red;"/>
  <rect x="80.423" y="107.781" width="2.95" height="9.85" style="fill: red;"/>
  <rect x="77.473" y="107.781" width="2.95" height="9.85" style="fill: red;"/>
  <rect x="74.523" y="107.781" width="2.95" height="9.85" style="fill: red;"/>
  <rect x="71.573" y="107.781" width="2.95" height="9.85" style="fill: red;"/>
  <rect x="109.923" y="97.931" width="2.95" height="9.85" style="fill: red;"/>
  <rect x="106.973" y="97.931" width="2.95" height="9.85" style="fill: red;"/>
  <rect x="104.023" y="97.931" width="2.95" height="9.85" style="fill: red;"/>
  <rect x="101.073" y="97.931" width="2.95" height="9.85" style="fill: red;"/>
  <rect x="98.123" y="97.931" width="2.95" height="9.85" style="fill: red;"/>
  <rect x="95.173" y="97.931" width="2.95" height="9.85" style="fill: red;"/>
  <rect x="92.223" y="97.931" width="2.95" height="9.85" style="fill: red;"/>
  <rect x="89.273" y="97.931" width="2.95" height="9.85" style="fill: red;"/>
  <rect x="86.323" y="97.931" width="2.95" height="9.85" style="fill: red;"/>
  <rect x="83.373" y="97.931" width="2.95" height="9.85" style="fill: red;"/>
  <rect x="80.423" y="97.931" width="2.95" height="9.85" style="fill: red;"/>
  <rect x="77.473" y="97.931" width="2.95" height="9.85" style="fill: red;"/>
  <rect x="74.523" y="97.931" width="2.95" height="9.85" style="fill: red;"/>
  <rect x="71.573" y="97.931" width="2.95" height="9.85" style="fill: red;"/>
  <rect x="68.623" y="97.931" width="2.95" height="9.85" style="fill: red;"/>
  <rect x="109.923" y="88.081" width="2.95" height="9.85" style="fill: red;"/>
  <rect x="106.973" y="88.081" width="2.95" height="9.85" style="fill: red;"/>
  <rect x="104.023" y="88.081" width="2.95" height="9.85" style="fill: red;"/>
  <rect x="101.073" y="88.081" width="2.95" height="9.85" style="fill: red;"/>
  <rect x="98.123" y="88.081" width="2.95" height="9.85" style="fill: red;"/>
  <rect x="95.173" y="88.081" width="2.95" height="9.85" style="fill: red;"/>
  <rect x="92.223" y="88.081" width="2.95" height="9.85" style="fill: red;"/>
  <rect x="89.273" y="88.081" width="2.95" height="9.85" style="fill: red;"/>
  <rect x="86.323" y="88.081" width="2.95" height="9.85" style="fill: red;"/>
  <rect x="83.373" y="88.081" width="2.95" height="9.85" style="fill: red;"/>
  <rect x="80.423" y="88.081" width="2.95" height="9.85" style="fill: red;"/>
  <rect x="77.473" y="88.081" width="2.95" height="9.85" style="fill: red;"/>
  <rect x="74.523" y="88.081" width="2.95" height="9.85" style="fill: red;"/>
  <rect x="71.573" y="88.081" width="2.95" height="9.85" style="fill: red;"/>
  <rect x="68.623" y="88.081" width="2.95" height="9.85" style="fill: red;"/>
  <rect x="65.673" y="88.081" width="2.95" height="9.85" style="fill: red;"/>
  <rect x="109.923" y="78.231" width="2.95" height="9.85" style="fill: red;"/>
  <rect x="106.973" y="78.231" width="2.95" height="9.85" style="fill: red;"/>
  <rect x="104.023" y="78.231" width="2.95" height="9.85" style="fill: red;"/>
  <rect x="101.073" y="78.231" width="2.95" height="9.85" style="fill: red;"/>
  <rect x="98.123" y="78.231" width="2.95" height="9.85" style="fill: red;"/>
  <rect x="95.173" y="78.231" width="2.95" height="9.85" style="fill: red;"/>
  <rect x="92.223" y="78.231" width="2.95" height="9.85" style="fill: red;"/>
  <rect x="89.273" y="78.231" width="2.95" height="9.85" style="fill: red;"/>
  <rect x="86.323" y="78.231" width="2.95" height="9.85" style="fill: red;"/>
  <rect x="83.373" y="78.231" width="2.95" height="9.85" style="fill: red;"/>
  <rect x="80.423" y="78.231" width="2.95" height="9.85" style="fill: red;"/>
  <rect x="77.473" y="78.231" width="2.95" height="9.85" style="fill: red;"/>
  <rect x="74.523" y="78.231" width="2.95" height="9.85" style="fill: red;"/>
  <rect x="71.573" y="78.231" width="2.95" height="9.85" style="fill: red;"/>
  <rect x="68.623" y="78.231" width="2.95" height="9.85" style="fill: red;"/>
  <rect x="65.673" y="78.231" width="2.95" height="9.85" style="fill: red;"/>
  <rect x="112.873" y="68.381" width="2.95" height="9.85" style="fill: red;"/>
  <rect x="109.923" y="68.381" width="2.95" height="9.85" style="fill: red;"/>
  <rect x="106.973" y="68.381" width="2.95" height="9.85" style="fill: red;"/>
  <rect x="104.023" y="68.381" width="2.95" height="9.85" style="fill: red;"/>
  <rect x="101.073" y="68.381" width="2.95" height="9.85" style="fill: red;"/>
  <rect x="98.123" y="68.381" width="2.95" height="9.85" style="fill: red;"/>
  <rect x="95.173" y="68.381" width="2.95" height="9.85" style="fill: red;"/>
  <rect x="92.223" y="68.381" width="2.95" height="9.85" style="fill: red;"/>
  <rect x="89.273" y="68.381" width="2.95" height="9.85" style="fill: red;"/>
  <rect x="86.323" y="68.381" width="2.95" height="9.85" style="fill: red;"/>
  <rect x="83.373" y="68.381" width="2.95" height="9.85" style="fill: red;"/>
  <rect x="80.423" y="68.381" width="2.95" height="9.85" style="fill: red;"/>
  <rect x="77.473" y="68.381" width="2.95" height="9.85" style="fill: red;"/>
  <rect x="74.523" y="68.381" width="2.95" height="9.85" style="fill: red;"/>
  <rect x="71.573" y="68.381" width="2.95" height="9.85" style="fill: red;"/>
  <rect x="68.623" y="68.381" width="2.95" height="9.85" style="fill: red;"/>
  <rect x="65.673" y="68.381" width="2.95" height="9.85" style="fill: red;"/>
  <rect x="112.873" y="58.531" width="2.95" height="9.85" style="fill: red;"/>
  <rect x="109.923" y="58.531" width="2.95" height="9.85" style="fill: red;"/>
  <rect x="106.973" y="58.531" width="2.95" height="9.85" style="fill: red;"/>
  <rect x="104.023" y="58.531" width="2.95" height="9.85" style="fill: red;"/>
  <rect x="101.073" y="58.531" width="2.95" height="9.85" style="fill: red;"/>
  <rect x="98.123" y="58.531" width="2.95" height="9.85" style="fill: red;"/>
  <rect x="95.173" y="58.531" width="2.95" height="9.85" style="fill: red;"/>
  <rect x="92.223" y="58.531" width="2.95" height="9.85" style="fill: red;"/>
  <rect x="89.273" y="58.531" width="2.95" height="9.85" style="fill: red;"/>
  <rect x="86.323" y="58.531" width="2.95" height="9.85" style="fill: red;"/>
  <rect x="83.373" y="58.531" width="2.95" height="9.85" style="fill: red;"/>
  <rect x="80.423" y="58.531" width="2.95" height="9.85" style="fill: red;"/>
  <rect x="77.473" y="58.531" width="2.95" height="9.85" style="fill: red;"/>
  <rect x="74.523" y="58.531" width="2.95" height="9.85" style="fill: red;"/>
  <rect x="71.573" y="58.531" width="2.95" height="9.85" style="fill: red;"/>
  <rect x="68.623" y="58.531" width="2.95" height="9.85" style="fill: red;"/>
  <rect x="65.673" y="58.531" width="2.95" height="9.85" style="fill: red;"/>
  <rect x="62.723" y="58.531" width="2.95" height="9.85" style="fill: red;"/>
  <rect x="112.873" y="48.681" width="2.95" height="9.85" style="fill: red;"/>
  <rect x="109.923" y="48.681" width="2.95" height="9.85" style="fill: red;"/>
  <rect x="106.973" y="48.681" width="2.95" height="9.85" style="fill: red;"/>
  <rect x="104.023" y="48.681" width="2.95" height="9.85" style="fill: red;"/>
  <rect x="101.073" y="48.681" width="2.95" height="9.85" style="fill: red;"/>
  <rect x="98.123" y="48.681" width="2.95" height="9.85" style="fill: red;"/>
  <rect x="95.173" y="48.681" width="2.95" height="9.85" style="fill: red;"/>
  <rect x="92.223" y="48.681" width="2.95" height="9.85" style="fill: red;"/>
  <rect x="89.273" y="48.681" width="2.95" height="9.85" style="fill: red;"/>
  <rect x="86.323" y="48.681" width="2.95" height="9.85" style="fill: red;"/>
  <rect x="83.373" y="48.681" width="2.95" height="9.85" style="fill: red;"/>
  <rect x="80.423" y="48.681" width="2.95" height="9.85" style="fill: red;"/>
  <rect x="77.473" y="48.681" width="2.95" height="9.85" style="fill: red;"/>
  <rect x="74.523" y="48.681" width="2.95" height="9.85" style="fill: red;"/>
  <rect x="71.573" y="48.681" width="2.95" height="9.85" style="fill: red;"/>
  <rect x="68.623" y="48.681" width="2.95" height="9.85" style="fill: red;"/>
  <rect x="65.673" y="48.681" width="2.95" height="9.85" style="fill: red;"/>
  <rect x="62.723" y="48.681" width="2.95" height="9.85" style="fill: red;"/>
  <rect x="115.823" y="38.831" width="2.95" height="9.85" style="fill: red;"/>
  <rect x="112.873" y="38.831" width="2.95" height="9.85" style="fill: red;"/>
  <rect x="109.923" y="38.831" width="2.95" height="9.85" style="fill: red;"/>
  <rect x="106.973" y="38.831" width="2.95" height="9.85" style="fill: red;"/>
  <rect x="104.023" y="38.831" width="2.95" height="9.85" style="fill: red;"/>
  <rect x="101.073" y="38.831" width="2.95" height="9.85" style="fill: red;"/>
  <rect x="98.123" y="38.831" width="2.95" height="9.85" style="fill: red;"/>
  <rect x="95.173" y="38.831" width="2.95" height="9.85" style="fill: red;"/>
  <rect x="92.223" y="38.831" width="2.95" height="9.85" style="fill: red;"/>
  <rect x="89.273" y="38.831" width="2.95" height="9.85" style="fill: red;"/>
  <rect x="86.323" y="38.831" width="2.95" height="9.85" style="fill: red;"/>
  <rect x="83.373" y="38.831" width="2.95" height="9.85" style="fill: red;"/>
  <rect x="80.423" y="38.831" width="2.95" height="9.85" style="fill: red;"/>
  <rect x="77.473" y="38.831" width="2.95" height="9.85" style="fill: red;"/>
  <rect x="74.523" y="38.831" width="2.95" height="9.85" style="fill: red;"/>
  <rect x="71.573" y="38.831" width="2.95" height="9.85" style="fill: red;"/>
  <rect x="68.623" y="38.831" width="2.95" height="9.85" style="fill: red;"/>
  <rect x="65.673" y="38.831" width="2.95" height="9.85" style="fill: red;"/>
  <rect x="62.723" y="38.831" width="2.95" height="9.85" style="fill: red;"/>
  <rect x="115.823" y="28.981" width="2.95" height="9.85" style="fill: red;"/>
  <rect x="112.873" y="28.981" width="2.95" height="9.85" style="fill: red;"/>
  <rect x="109.923" y="28.981" width="2.95" height="9.85" style="fill: red;"/>
  <rect x="106.973" y="28.981" width="2.95" height="9.85" style="fill: red;"/>
  <rect x="104.023" y="28.981" width="2.95" height="9.85" style="fill: red;"/>
  <rect x="101.073" y="28.981" width="2.95" height="9.85" style="fill: red;"/>
  <rect x="98.123" y="28.981" width="2.95" height="9.85" style="fill: red;"/>
  <rect x="95.173" y="28.981" width="2.95" height="9.85" style="fill: red;"/>
  <rect x="92.223" y="28.981" width="2.95" height="9.85" style="fill: red;"/>
  <rect x="89.273" y="28.981" width="2.95" height="9.85" style="fill: red;"/>
  <rect x="86.323" y="28.981" width="2.95" height="9.85" style="fill: red;"/>
  <rect x="83.373" y="28.981" width="2.95" height="9.85" style="fill: red;"/>
  <rect x="80.423" y="28.981" width="2.95" height="9.85" style="fill: red;"/>
  <rect x="77.473" y="28.981" width="2.95" height="9.85" style="fill: red;"/>
  <rect x="74.523" y="28.981" width="2.95" height="9.85" style="fill: red;"/>
  <rect x="71.573" y="28.981" width="2.95" height="9.85" style="fill: red;"/>
  <rect x="68.623" y="28.981" width="2.95" height="9.85" style="fill: red;"/>
  <rect x="65.673" y="28.981" width="2.95" height="9.85" style="fill: red;"/>
  <rect x="62.723" y="28.981" width="2.95" height="9.85" style="fill: red;"/>
  <rect x="59.773" y="28.981" width="2.95" height="9.85" style="fill: red;"/>
</svg>