<?xml version="1.0" encoding="UTF-8"?>
<svg id="_图层_1" data-name="图层 1" xmlns="http://www.w3.org/2000/svg" viewBox="0 0 232.851 241.021">
  <rect x="77.516" y="202.793" width="10.4" height="10.7" style="fill: #d3976e;"/>
  <rect x="67.116" y="202.793" width="10.4" height="10.7" style="fill: #d3976e;"/>
  <rect x="56.716" y="202.793" width="10.4" height="10.7" style="fill: #d3976e;"/>
  <rect x="181.516" y="192.093" width="10.4" height="10.7" style="fill: #d3976e;"/>
  <rect x="77.516" y="192.093" width="10.4" height="10.7" style="fill: #3e4347;"/>
  <rect x="67.116" y="192.093" width="10.4" height="10.7" style="fill: #3e4347;"/>
  <rect x="181.516" y="181.393" width="10.4" height="10.7" style="fill: #d3976e;"/>
  <rect x="171.116" y="181.393" width="10.4" height="10.7" style="fill: #3e4347;"/>
  <rect x="160.716" y="181.393" width="10.4" height="10.7" style="fill: #717477;"/>
  <rect x="87.916" y="181.393" width="10.4" height="10.7" style="fill: #74777a;"/>
  <rect x="77.516" y="181.393" width="10.4" height="10.7" style="fill: #3e4347;"/>
  <rect x="67.116" y="181.393" width="10.4" height="10.7" style="fill: #3e4347;"/>
  <rect x="181.516" y="170.693" width="10.4" height="10.7" style="fill: #d3976e;"/>
  <rect x="171.116" y="170.693" width="10.4" height="10.7" style="fill: #3e4347;"/>
  <rect x="160.716" y="170.693" width="10.4" height="10.7" style="fill: #3e4347;"/>
  <rect x="150.316" y="170.693" width="10.4" height="10.7" style="fill: #3e4347;"/>
  <rect x="139.916" y="170.693" width="10.4" height="10.7" style="fill: #3e4347;"/>
  <rect x="129.516" y="170.693" width="10.4" height="10.7" style="fill: #3e4347;"/>
  <rect x="87.916" y="170.693" width="10.4" height="10.7" style="fill: #3e4347;"/>
  <rect x="77.516" y="170.693" width="10.4" height="10.7" style="fill: #3e4347;"/>
  <rect x="150.316" y="159.993" width="10.4" height="10.7" style="fill: #3e4347;"/>
  <rect x="139.916" y="159.993" width="10.4" height="10.7" style="fill: #3e4347;"/>
  <rect x="129.516" y="159.993" width="10.4" height="10.7" style="fill: #3e4347;"/>
  <rect x="108.716" y="159.993" width="10.4" height="10.7" style="fill: #3e4347;"/>
  <rect x="98.316" y="159.993" width="10.4" height="10.7" style="fill: #3e4347;"/>
  <rect x="87.916" y="159.993" width="10.4" height="10.7" style="fill: #3e4347;"/>
  <rect x="77.516" y="159.993" width="10.4" height="10.7" style="fill: #3e4347;"/>
  <rect x="139.916" y="149.293" width="10.4" height="10.7" style="fill: #3e4347;"/>
  <rect x="129.516" y="149.293" width="10.4" height="10.7" style="fill: #3e4347;"/>
  <rect x="119.116" y="149.293" width="10.4" height="10.7" style="fill: #3e4347;"/>
  <rect x="108.716" y="149.293" width="10.4" height="10.7" style="fill: #3e4347;"/>
  <rect x="98.316" y="149.293" width="10.4" height="10.7" style="fill: #3e4347;"/>
  <rect x="87.916" y="149.293" width="10.4" height="10.7" style="fill: #3e4347;"/>
  <rect x="129.516" y="138.593" width="10.4" height="10.7" style="fill: #47b892;"/>
  <rect x="119.116" y="138.593" width="10.4" height="10.7" style="fill: #47b892;"/>
  <rect x="108.716" y="138.593" width="10.4" height="10.7" style="fill: #47b892;"/>
  <rect x="98.316" y="138.593" width="10.4" height="10.7" style="fill: #54bd99;"/>
  <rect x="129.516" y="127.893" width="10.4" height="10.7" style="fill: #47b892;"/>
  <rect x="119.116" y="127.893" width="10.4" height="10.7" style="fill: #47b892;"/>
  <rect x="108.716" y="127.893" width="10.4" height="10.7" style="fill: #47b892;"/>
  <rect x="98.316" y="127.893" width="10.4" height="10.7" style="fill: #47b892;"/>
  <rect x="171.116" y="117.193" width="10.4" height="10.7" style="fill: #ffe1bd;"/>
  <rect x="160.716" y="117.193" width="10.4" height="10.7" style="fill: #fee0bc;"/>
  <rect x="129.516" y="117.193" width="10.4" height="10.7" style="fill: #47b892;"/>
  <rect x="119.116" y="117.193" width="10.4" height="10.7" style="fill: #47b892;"/>
  <rect x="108.716" y="117.193" width="10.4" height="10.7" style="fill: #47b892;"/>
  <rect x="98.316" y="117.193" width="10.4" height="10.7" style="fill: #47b892;"/>
  <rect x="171.116" y="106.493" width="10.4" height="10.7" style="fill: #ffe1bd;"/>
  <rect x="160.716" y="106.493" width="10.4" height="10.7" style="fill: #68a681;"/>
  <rect x="129.516" y="106.493" width="10.4" height="10.7" style="fill: #47b892;"/>
  <rect x="119.116" y="106.493" width="10.4" height="10.7" style="fill: #47b892;"/>
  <rect x="108.716" y="106.493" width="10.4" height="10.7" style="fill: #47b892;"/>
  <rect x="98.316" y="106.493" width="10.4" height="10.7" style="fill: #47b892;"/>
  <rect x="87.916" y="106.493" width="10.4" height="10.7" style="fill: #47b892;"/>
  <rect x="77.516" y="106.493" width="10.4" height="10.7" style="fill: #47b892;"/>
  <rect x="67.116" y="106.493" width="10.4" height="10.7" style="fill: #47b892;"/>
  <rect x="56.716" y="106.493" width="10.4" height="10.7" style="fill: #47b892;"/>
  <rect x="46.316" y="106.493" width="10.4" height="10.7" style="fill: #ffe1bd;"/>
  <rect x="160.716" y="95.793" width="10.4" height="10.7" style="fill: #3b946f;"/>
  <rect x="150.316" y="95.793" width="10.4" height="10.7" style="fill: #5ba586;"/>
  <rect x="129.516" y="95.793" width="10.4" height="10.7" style="fill: #47b892;"/>
  <rect x="119.116" y="95.793" width="10.4" height="10.7" style="fill: #47b892;"/>
  <rect x="108.716" y="95.793" width="10.4" height="10.7" style="fill: #47b892;"/>
  <rect x="98.316" y="95.793" width="10.4" height="10.7" style="fill: #47b892;"/>
  <rect x="87.916" y="95.793" width="10.4" height="10.7" style="fill: #47b892;"/>
  <rect x="56.716" y="95.793" width="10.4" height="10.7" style="fill: #ffe1bd;"/>
  <rect x="46.316" y="95.793" width="10.4" height="10.7" style="fill: #ffe1bd;"/>
  <rect x="150.316" y="85.093" width="10.4" height="10.7" style="fill: #3b946f;"/>
  <rect x="139.916" y="85.093" width="10.4" height="10.7" style="fill: #3b946f;"/>
  <rect x="129.516" y="85.093" width="10.4" height="10.7" style="fill: #3b946f;"/>
  <rect x="119.116" y="85.093" width="10.4" height="10.7" style="fill: #47b892;"/>
  <rect x="108.716" y="85.093" width="10.4" height="10.7" style="fill: #47b892;"/>
  <rect x="98.316" y="85.093" width="10.4" height="10.7" style="fill: #47b892;"/>
  <rect x="119.116" y="74.393" width="10.4" height="10.7" style="fill: #ffebd4;"/>
  <rect x="108.716" y="74.393" width="10.4" height="10.7" style="fill: #e6b796;"/>
  <rect x="98.316" y="74.393" width="10.4" height="10.7" style="fill: #ffe1bd;"/>
  <rect x="87.916" y="74.393" width="10.4" height="10.7" style="fill: #ffe1bd;"/>
  <rect x="119.116" y="63.693" width="10.4" height="10.7" style="fill: #594640;"/>
  <rect x="108.716" y="63.693" width="10.4" height="10.7" style="fill: #ffe1bd;"/>
  <rect x="98.316" y="63.693" width="10.4" height="10.7" style="fill: #ffe1bd;"/>
  <rect x="87.916" y="63.693" width="10.4" height="10.7" style="fill: #ffe1bd;"/>
  <rect x="77.516" y="63.693" width="10.4" height="10.7" style="fill: #ffe1bd;"/>
  <rect x="119.116" y="52.993" width="10.4" height="10.7" style="fill: #594640;"/>
  <rect x="108.716" y="52.993" width="10.4" height="10.7" style="fill: #e8bb9a;"/>
  <rect x="98.316" y="52.993" width="10.4" height="10.7" style="fill: #ffe1bd;"/>
  <rect x="87.916" y="52.993" width="10.4" height="10.7" style="fill: #ffe1bd;"/>
  <rect x="77.516" y="52.993" width="10.4" height="10.7" style="fill: #ffe1bd;"/>
  <rect x="119.116" y="42.293" width="10.4" height="10.7" style="fill: #594640;"/>
  <rect x="108.716" y="42.293" width="10.4" height="10.7" style="fill: #5e4a43;"/>
  <rect x="98.316" y="42.293" width="10.4" height="10.7" style="fill: #ffe1bd;"/>
  <rect x="87.916" y="42.293" width="10.4" height="10.7" style="fill: #ffe1bd;"/>
  <rect x="77.516" y="42.293" width="10.4" height="10.7" style="fill: #ffe1bd;"/>
  <rect x="119.116" y="31.593" width="10.4" height="10.7" style="fill: #594640;"/>
  <rect x="108.716" y="31.593" width="10.4" height="10.7" style="fill: #594640;"/>
  <rect x="98.316" y="31.593" width="10.4" height="10.7" style="fill: #594640;"/>
  <rect x="87.916" y="31.593" width="10.4" height="10.7" style="fill: #594640;"/>
  <rect x="77.516" y="31.593" width="10.4" height="10.7" style="fill: #594640;"/>
  <rect x="108.716" y="20.893" width="10.4" height="10.7" style="fill: #594640;"/>
  <rect x="98.316" y="20.893" width="10.4" height="10.7" style="fill: #594640;"/>
  <rect x="87.916" y="20.893" width="10.4" height="10.7" style="fill: #594640;"/>
</svg>