<?xml version="1.0" encoding="UTF-8"?>
<svg id="_图层_1" data-name="图层 1" xmlns="http://www.w3.org/2000/svg" viewBox="0 0 337.021 320.681">
  <rect x="45.635" y="273.384" width="13.25" height="12.8" style="fill: #f7b600;"/>
  <rect x="270.885" y="260.584" width="13.25" height="12.8" style="fill: #ff8736;"/>
  <rect x="85.385" y="260.584" width="13.25" height="12.8" style="fill: #ffdd7d;"/>
  <rect x="72.135" y="260.584" width="13.25" height="12.8" style="fill: #ffdd7d;"/>
  <rect x="58.885" y="260.584" width="13.25" height="12.8" style="fill: #f7b600;"/>
  <rect x="270.885" y="247.784" width="13.25" height="12.8" style="fill: #ff8736;"/>
  <rect x="217.885" y="247.784" width="13.25" height="12.8" style="fill: #ed4c5c;"/>
  <rect x="204.635" y="247.784" width="13.25" height="12.8" style="fill: #ed4c5c;"/>
  <rect x="125.135" y="247.784" width="13.25" height="12.8" style="fill: #f7b600;"/>
  <rect x="111.885" y="247.784" width="13.25" height="12.8" style="fill: #f7b600;"/>
  <rect x="98.635" y="247.784" width="13.25" height="12.8" style="fill: #ffdd7d;"/>
  <rect x="85.385" y="247.784" width="13.25" height="12.8" style="fill: #ffdd7d;"/>
  <rect x="72.135" y="247.784" width="13.25" height="12.8" style="fill: #ffdd7d;"/>
  <rect x="58.885" y="247.784" width="13.25" height="12.8" style="fill: #ffdd7d;"/>
  <rect x="164.885" y="234.984" width="13.25" height="12.8" style="fill: #ffe089;"/>
  <rect x="151.635" y="234.984" width="13.25" height="12.8" style="fill: #ffdd7d;"/>
  <rect x="138.385" y="234.984" width="13.25" height="12.8" style="fill: #f7b600;"/>
  <rect x="125.135" y="234.984" width="13.25" height="12.8" style="fill: #f7b600;"/>
  <rect x="111.885" y="234.984" width="13.25" height="12.8" style="fill: #f7b600;"/>
  <rect x="98.635" y="234.984" width="13.25" height="12.8" style="fill: #f7b600;"/>
  <rect x="85.385" y="234.984" width="13.25" height="12.8" style="fill: #f7b600;"/>
  <rect x="72.135" y="234.984" width="13.25" height="12.8" style="fill: #ffdd7d;"/>
  <rect x="58.885" y="234.984" width="13.25" height="12.8" style="fill: #ffdd7d;"/>
  <rect x="191.385" y="222.184" width="13.25" height="12.8" style="fill: #493816;"/>
  <rect x="178.135" y="222.184" width="13.25" height="12.8" style="fill: #ffdd7d;"/>
  <rect x="164.885" y="222.184" width="13.25" height="12.8" style="fill: #ffdd7d;"/>
  <rect x="151.635" y="222.184" width="13.25" height="12.8" style="fill: #ffdd7d;"/>
  <rect x="138.385" y="222.184" width="13.25" height="12.8" style="fill: #ffdd7d;"/>
  <rect x="125.135" y="222.184" width="13.25" height="12.8" style="fill: #ffdd7d;"/>
  <rect x="111.885" y="222.184" width="13.25" height="12.8" style="fill: #f7b600;"/>
  <rect x="98.635" y="222.184" width="13.25" height="12.8" style="fill: #f7b600;"/>
  <rect x="85.385" y="222.184" width="13.25" height="12.8" style="fill: #f7b600;"/>
  <rect x="72.135" y="222.184" width="13.25" height="12.8" style="fill: #f7b600;"/>
  <rect x="58.885" y="222.184" width="13.25" height="12.8" style="fill: #ffdd7d;"/>
  <rect x="244.385" y="209.384" width="13.25" height="12.8" style="fill: #c28fef;"/>
  <rect x="204.635" y="209.384" width="13.25" height="12.8" style="fill: #493816;"/>
  <rect x="191.385" y="209.384" width="13.25" height="12.8" style="fill: #493816;"/>
  <rect x="178.135" y="209.384" width="13.25" height="12.8" style="fill: #493816;"/>
  <rect x="164.885" y="209.384" width="13.25" height="12.8" style="fill: #493816;"/>
  <rect x="151.635" y="209.384" width="13.25" height="12.8" style="fill: #ffdd7d;"/>
  <rect x="138.385" y="209.384" width="13.25" height="12.8" style="fill: #ffdd7d;"/>
  <rect x="125.135" y="209.384" width="13.25" height="12.8" style="fill: #ffdd7d;"/>
  <rect x="111.885" y="209.384" width="13.25" height="12.8" style="fill: #ffdd7d;"/>
  <rect x="98.635" y="209.384" width="13.25" height="12.8" style="fill: #ffdd7d;"/>
  <rect x="85.385" y="209.384" width="13.25" height="12.8" style="fill: #f7b600;"/>
  <rect x="72.135" y="209.384" width="13.25" height="12.8" style="fill: #f7b600;"/>
  <rect x="284.135" y="196.584" width="13.25" height="12.8" style="fill: #42ade2;"/>
  <rect x="270.885" y="196.584" width="13.25" height="12.8" style="fill: #42ade2;"/>
  <rect x="244.385" y="196.584" width="13.25" height="12.8" style="fill: #c28fef;"/>
  <rect x="204.635" y="196.584" width="13.25" height="12.8" style="fill: #493816;"/>
  <rect x="191.385" y="196.584" width="13.25" height="12.8" style="fill: #493816;"/>
  <rect x="178.135" y="196.584" width="13.25" height="12.8" style="fill: #493816;"/>
  <rect x="164.885" y="196.584" width="13.25" height="12.8" style="fill: #493816;"/>
  <rect x="151.635" y="196.584" width="13.25" height="12.8" style="fill: #493816;"/>
  <rect x="138.385" y="196.584" width="13.25" height="12.8" style="fill: #f7b600;"/>
  <rect x="125.135" y="196.584" width="13.25" height="12.8" style="fill: #ffdd7d;"/>
  <rect x="111.885" y="196.584" width="13.25" height="12.8" style="fill: #ffdd7d;"/>
  <rect x="98.635" y="196.584" width="13.25" height="12.8" style="fill: #ffdd7d;"/>
  <rect x="85.385" y="196.584" width="13.25" height="12.8" style="fill: #ffdd7d;"/>
  <rect x="72.135" y="196.584" width="13.25" height="12.8" style="fill: #ffdd7d;"/>
  <rect x="191.385" y="183.784" width="13.25" height="12.8" style="fill: #493816;"/>
  <rect x="178.135" y="183.784" width="13.25" height="12.8" style="fill: #493816;"/>
  <rect x="164.885" y="183.784" width="13.25" height="12.8" style="fill: #493816;"/>
  <rect x="151.635" y="183.784" width="13.25" height="12.8" style="fill: #493816;"/>
  <rect x="138.385" y="183.784" width="13.25" height="12.8" style="fill: #493816;"/>
  <rect x="125.135" y="183.784" width="13.25" height="12.8" style="fill: #f7b600;"/>
  <rect x="111.885" y="183.784" width="13.25" height="12.8" style="fill: #f7b600;"/>
  <rect x="98.635" y="183.784" width="13.25" height="12.8" style="fill: #ffdd7d;"/>
  <rect x="85.385" y="183.784" width="13.25" height="12.8" style="fill: #ffdd7d;"/>
  <rect x="72.135" y="183.784" width="13.25" height="12.8" style="fill: #ffdd7d;"/>
  <rect x="257.635" y="170.984" width="13.25" height="12.8" style="fill: #ed4c5c;"/>
  <rect x="244.385" y="170.984" width="13.25" height="12.8" style="fill: #ed4c5c;"/>
  <rect x="178.135" y="170.984" width="13.25" height="12.8" style="fill: #493816;"/>
  <rect x="164.885" y="170.984" width="13.25" height="12.8" style="fill: #493816;"/>
  <rect x="151.635" y="170.984" width="13.25" height="12.8" style="fill: #493816;"/>
  <rect x="138.385" y="170.984" width="13.25" height="12.8" style="fill: #493816;"/>
  <rect x="125.135" y="170.984" width="13.25" height="12.8" style="fill: #493816;"/>
  <rect x="111.885" y="170.984" width="13.25" height="12.8" style="fill: #f7b600;"/>
  <rect x="98.635" y="170.984" width="13.25" height="12.8" style="fill: #f7b600;"/>
  <rect x="85.385" y="170.984" width="13.25" height="12.8" style="fill: #f7b600;"/>
  <rect x="270.885" y="158.184" width="13.25" height="12.8" style="fill: #ed4c5c;"/>
  <rect x="257.635" y="158.184" width="13.25" height="12.8" style="fill: #ed4c5c;"/>
  <rect x="178.135" y="158.184" width="13.25" height="12.8" style="fill: #493816;"/>
  <rect x="164.885" y="158.184" width="13.25" height="12.8" style="fill: #ff8736;"/>
  <rect x="151.635" y="158.184" width="13.25" height="12.8" style="fill: #493816;"/>
  <rect x="138.385" y="158.184" width="13.25" height="12.8" style="fill: #493816;"/>
  <rect x="125.135" y="158.184" width="13.25" height="12.8" style="fill: #493816;"/>
  <rect x="111.885" y="158.184" width="13.25" height="12.8" style="fill: #493816;"/>
  <rect x="98.635" y="158.184" width="13.25" height="12.8" style="fill: #f7b600;"/>
  <rect x="85.385" y="158.184" width="13.25" height="12.8" style="fill: #f7b600;"/>
  <rect x="297.385" y="145.384" width="13.25" height="12.8" style="fill: #ed4c5c;"/>
  <rect x="284.135" y="145.384" width="13.25" height="12.8" style="fill: #ed4c5c;"/>
  <rect x="270.885" y="145.384" width="13.25" height="12.8" style="fill: #ed4c5c;"/>
  <rect x="231.135" y="145.384" width="13.25" height="12.8" style="fill: #42ade2;"/>
  <rect x="164.885" y="145.384" width="13.25" height="12.8" style="fill: #493816;"/>
  <rect x="151.635" y="145.384" width="13.25" height="12.8" style="fill: #493816;"/>
  <rect x="138.385" y="145.384" width="13.25" height="12.8" style="fill: #493816;"/>
  <rect x="125.135" y="145.384" width="13.25" height="12.8" style="fill: #ed4c5c;"/>
  <rect x="111.885" y="145.384" width="13.25" height="12.8" style="fill: #493816;"/>
  <rect x="98.635" y="145.384" width="13.25" height="12.8" style="fill: #ffdd7d;"/>
  <rect x="85.385" y="145.384" width="13.25" height="12.8" style="fill: #fada80;"/>
  <rect x="231.135" y="132.584" width="13.25" height="12.8" style="fill: #71c1e9;"/>
  <rect x="151.635" y="132.584" width="13.25" height="12.8" style="fill: #493816;"/>
  <rect x="138.385" y="132.584" width="13.25" height="12.8" style="fill: #493816;"/>
  <rect x="125.135" y="132.584" width="13.25" height="12.8" style="fill: #ed4c5c;"/>
  <rect x="111.885" y="132.584" width="13.25" height="12.8" style="fill: #493816;"/>
  <rect x="98.635" y="132.584" width="13.25" height="12.8" style="fill: #493816;"/>
  <rect x="244.385" y="119.784" width="13.25" height="12.8" style="fill: #42ade2;"/>
  <rect x="191.385" y="119.784" width="13.25" height="12.8" style="fill: #ffa060;"/>
  <rect x="125.135" y="119.784" width="13.25" height="12.8" style="fill: #493816;"/>
  <rect x="111.885" y="119.784" width="13.25" height="12.8" style="fill: #493816;"/>
  <rect x="98.635" y="119.784" width="13.25" height="12.8" style="fill: #493816;"/>
  <rect x="72.135" y="119.784" width="13.25" height="12.8" style="fill: #ff8736;"/>
  <rect x="284.135" y="106.984" width="13.25" height="12.8" style="fill: #ff8736;"/>
  <rect x="270.885" y="106.984" width="13.25" height="12.8" style="fill: #ff8736;"/>
  <rect x="257.635" y="106.984" width="13.25" height="12.8" style="fill: #42ade2;"/>
  <rect x="231.135" y="106.984" width="13.25" height="12.8" style="fill: #ff8736;"/>
  <rect x="217.885" y="106.984" width="13.25" height="12.8" style="fill: #ff8736;"/>
  <rect x="72.135" y="106.984" width="13.25" height="12.8" style="fill: #ff8736;"/>
  <rect x="270.885" y="94.184" width="13.25" height="12.8" style="fill: #42ade2;"/>
  <rect x="257.635" y="94.184" width="13.25" height="12.8" style="fill: #42ade2;"/>
  <rect x="217.885" y="81.384" width="13.25" height="12.8" style="fill: #ff8736;"/>
  <rect x="191.385" y="81.384" width="13.25" height="12.8" style="fill: #c28fef;"/>
  <rect x="138.385" y="81.384" width="13.25" height="12.8" style="fill: #42ade2;"/>
  <rect x="125.135" y="81.384" width="13.25" height="12.8" style="fill: #42ade2;"/>
  <rect x="58.885" y="81.384" width="13.25" height="12.8" style="fill: #42ade2;"/>
  <rect x="270.885" y="68.584" width="13.25" height="12.8" style="fill: #42ade2;"/>
  <rect x="257.635" y="68.584" width="13.25" height="12.8" style="fill: #42ade2;"/>
  <rect x="231.135" y="68.584" width="13.25" height="12.8" style="fill: #ff8736;"/>
  <rect x="191.385" y="68.584" width="13.25" height="12.8" style="fill: #c28fef;"/>
  <rect x="151.635" y="68.584" width="13.25" height="12.8" style="fill: #42ade2;"/>
  <rect x="138.385" y="68.584" width="13.25" height="12.8" style="fill: #42ade2;"/>
  <rect x="58.885" y="68.584" width="13.25" height="12.8" style="fill: #42ade2;"/>
  <rect x="231.135" y="55.784" width="13.25" height="12.8" style="fill: #ff8736;"/>
  <rect x="217.885" y="55.784" width="13.25" height="12.8" style="fill: #ff8736;"/>
  <rect x="191.385" y="55.784" width="13.25" height="12.8" style="fill: #c28fef;"/>
  <rect x="151.635" y="55.784" width="13.25" height="12.8" style="fill: #42ade2;"/>
  <rect x="111.885" y="55.784" width="13.25" height="12.8" style="fill: #ed4c5c;"/>
  <rect x="98.635" y="55.784" width="13.25" height="12.8" style="fill: #ed4c5c;"/>
  <rect x="231.135" y="42.984" width="13.25" height="12.8" style="fill: #ff8736;"/>
  <rect x="178.135" y="42.984" width="13.25" height="12.8" style="fill: #c28fef;"/>
  <rect x="178.135" y="30.184" width="13.25" height="12.8" style="fill: #c28fef;"/>
</svg>