<?xml version="1.0" encoding="UTF-8"?>
<svg id="_图层_1" data-name="图层 1" xmlns="http://www.w3.org/2000/svg" viewBox="0 0 222.638 220.596">
  <rect x="134.342" y="183.446" width="8.2" height="8.2" style="fill: #ff97ab;"/>
  <rect x="126.142" y="183.446" width="8.2" height="8.2" style="fill: #ff5a79;"/>
  <rect x="117.942" y="183.446" width="8.2" height="8.2" style="fill: #ff5a79;"/>
  <rect x="109.742" y="183.446" width="8.2" height="8.2" style="fill: #ff5a79;"/>
  <rect x="101.542" y="183.446" width="8.2" height="8.2" style="fill: #ff5a79;"/>
  <rect x="93.342" y="183.446" width="8.2" height="8.2" style="fill: #ff5a79;"/>
  <rect x="85.142" y="183.446" width="8.2" height="8.2" style="fill: #ff5a79;"/>
  <rect x="76.942" y="183.446" width="8.2" height="8.2" style="fill: #ffc7d2;"/>
  <rect x="150.742" y="175.246" width="8.2" height="8.2" style="fill: #ffdbe2;"/>
  <rect x="142.542" y="175.246" width="8.2" height="8.2" style="fill: #ff5a79;"/>
  <rect x="134.342" y="175.246" width="8.2" height="8.2" style="fill: #ff5a79;"/>
  <rect x="126.142" y="175.246" width="8.2" height="8.2" style="fill: #ff5a79;"/>
  <rect x="117.942" y="175.246" width="8.2" height="8.2" style="fill: #ff5a79;"/>
  <rect x="109.742" y="175.246" width="8.2" height="8.2" style="fill: #ff5a79;"/>
  <rect x="101.542" y="175.246" width="8.2" height="8.2" style="fill: #ff5a79;"/>
  <rect x="93.342" y="175.246" width="8.2" height="8.2" style="fill: #ff5a79;"/>
  <rect x="85.142" y="175.246" width="8.2" height="8.2" style="fill: #ff5a79;"/>
  <rect x="76.942" y="175.246" width="8.2" height="8.2" style="fill: #ff5a79;"/>
  <rect x="68.742" y="175.246" width="8.2" height="8.2" style="fill: #ff5a79;"/>
  <rect x="158.942" y="167.046" width="8.2" height="8.2" style="fill: #ff5a79;"/>
  <rect x="150.742" y="167.046" width="8.2" height="8.2" style="fill: #ff5a79;"/>
  <rect x="142.542" y="167.046" width="8.2" height="8.2" style="fill: #ff5a79;"/>
  <rect x="134.342" y="167.046" width="8.2" height="8.2" style="fill: #ff5a79;"/>
  <rect x="126.142" y="167.046" width="8.2" height="8.2" style="fill: #ff5a79;"/>
  <rect x="117.942" y="167.046" width="8.2" height="8.2" style="fill: #ff5a79;"/>
  <rect x="109.742" y="167.046" width="8.2" height="8.2" style="fill: #ff5a79;"/>
  <rect x="101.542" y="167.046" width="8.2" height="8.2" style="fill: #ff5a79;"/>
  <rect x="93.342" y="167.046" width="8.2" height="8.2" style="fill: #ff5a79;"/>
  <rect x="85.142" y="167.046" width="8.2" height="8.2" style="fill: #ff5a79;"/>
  <rect x="76.942" y="167.046" width="8.2" height="8.2" style="fill: #ff5a79;"/>
  <rect x="68.742" y="167.046" width="8.2" height="8.2" style="fill: #ff5a79;"/>
  <rect x="60.542" y="167.046" width="8.2" height="8.2" style="fill: #ff5a79;"/>
  <rect x="52.342" y="167.046" width="8.2" height="8.2" style="fill: #ff5a79;"/>
  <rect x="167.142" y="158.846" width="8.2" height="8.2" style="fill: #ff5a79;"/>
  <rect x="158.942" y="158.846" width="8.2" height="8.2" style="fill: #ff5a79;"/>
  <rect x="150.742" y="158.846" width="8.2" height="8.2" style="fill: #ff5a79;"/>
  <rect x="142.542" y="158.846" width="8.2" height="8.2" style="fill: #ff5a79;"/>
  <rect x="134.342" y="158.846" width="8.2" height="8.2" style="fill: #ff5a79;"/>
  <rect x="126.142" y="158.846" width="8.2" height="8.2" style="fill: #ff5a79;"/>
  <rect x="117.942" y="158.846" width="8.2" height="8.2" style="fill: #ff5a79;"/>
  <rect x="109.742" y="158.846" width="8.2" height="8.2" style="fill: #ff5a79;"/>
  <rect x="101.542" y="158.846" width="8.2" height="8.2" style="fill: #ff5a79;"/>
  <rect x="93.342" y="158.846" width="8.2" height="8.2" style="fill: #ff5a79;"/>
  <rect x="85.142" y="158.846" width="8.2" height="8.2" style="fill: #ff5a79;"/>
  <rect x="76.942" y="158.846" width="8.2" height="8.2" style="fill: #ff5a79;"/>
  <rect x="68.742" y="158.846" width="8.2" height="8.2" style="fill: #ff5a79;"/>
  <rect x="60.542" y="158.846" width="8.2" height="8.2" style="fill: #ff5a79;"/>
  <rect x="52.342" y="158.846" width="8.2" height="8.2" style="fill: #ff5a79;"/>
  <rect x="44.142" y="158.846" width="8.2" height="8.2" style="fill: #ff5a79;"/>
  <rect x="175.342" y="150.646" width="8.2" height="8.2" style="fill: #ffdae1;"/>
  <rect x="167.142" y="150.646" width="8.2" height="8.2" style="fill: #ff5a79;"/>
  <rect x="158.942" y="150.646" width="8.2" height="8.2" style="fill: #ff5a79;"/>
  <rect x="150.742" y="150.646" width="8.2" height="8.2" style="fill: #ff5a79;"/>
  <rect x="142.542" y="150.646" width="8.2" height="8.2" style="fill: #ff5a79;"/>
  <rect x="134.342" y="150.646" width="8.2" height="8.2" style="fill: #ff5a79;"/>
  <rect x="126.142" y="150.646" width="8.2" height="8.2" style="fill: #ff5a79;"/>
  <rect x="117.942" y="150.646" width="8.2" height="8.2" style="fill: #ff5a79;"/>
  <rect x="109.742" y="150.646" width="8.2" height="8.2" style="fill: #ff5a79;"/>
  <rect x="101.542" y="150.646" width="8.2" height="8.2" style="fill: #ff5a79;"/>
  <rect x="93.342" y="150.646" width="8.2" height="8.2" style="fill: #ff5a79;"/>
  <rect x="85.142" y="150.646" width="8.2" height="8.2" style="fill: #ff5a79;"/>
  <rect x="76.942" y="150.646" width="8.2" height="8.2" style="fill: #ff5a79;"/>
  <rect x="68.742" y="150.646" width="8.2" height="8.2" style="fill: #ff5a79;"/>
  <rect x="60.542" y="150.646" width="8.2" height="8.2" style="fill: #ff5a79;"/>
  <rect x="52.342" y="150.646" width="8.2" height="8.2" style="fill: #ff5a79;"/>
  <rect x="44.142" y="150.646" width="8.2" height="8.2" style="fill: #ff5a79;"/>
  <rect x="175.342" y="142.446" width="8.2" height="8.2" style="fill: #ff5a79;"/>
  <rect x="167.142" y="142.446" width="8.2" height="8.2" style="fill: #ff5a79;"/>
  <rect x="158.942" y="142.446" width="8.2" height="8.2" style="fill: #ff5a79;"/>
  <rect x="150.742" y="142.446" width="8.2" height="8.2" style="fill: #ff5a79;"/>
  <rect x="142.542" y="142.446" width="8.2" height="8.2" style="fill: #ff5a79;"/>
  <rect x="134.342" y="142.446" width="8.2" height="8.2" style="fill: #ff5a79;"/>
  <rect x="126.142" y="142.446" width="8.2" height="8.2" style="fill: #ff5a79;"/>
  <rect x="117.942" y="142.446" width="8.2" height="8.2" style="fill: #ff5a79;"/>
  <rect x="109.742" y="142.446" width="8.2" height="8.2" style="fill: #ff5a79;"/>
  <rect x="101.542" y="142.446" width="8.2" height="8.2" style="fill: #ff5a79;"/>
  <rect x="93.342" y="142.446" width="8.2" height="8.2" style="fill: #ff5a79;"/>
  <rect x="85.142" y="142.446" width="8.2" height="8.2" style="fill: #ff5a79;"/>
  <rect x="76.942" y="142.446" width="8.2" height="8.2" style="fill: #ff5a79;"/>
  <rect x="68.742" y="142.446" width="8.2" height="8.2" style="fill: #ff5a79;"/>
  <rect x="60.542" y="142.446" width="8.2" height="8.2" style="fill: #ff5a79;"/>
  <rect x="52.342" y="142.446" width="8.2" height="8.2" style="fill: #ff5a79;"/>
  <rect x="44.142" y="142.446" width="8.2" height="8.2" style="fill: #ff5a79;"/>
  <rect x="35.942" y="142.446" width="8.2" height="8.2" style="fill: #ff5a79;"/>
  <rect x="183.542" y="134.246" width="8.2" height="8.2" style="fill: #ff94a8;"/>
  <rect x="175.342" y="134.246" width="8.2" height="8.2" style="fill: #ff5a79;"/>
  <rect x="167.142" y="134.246" width="8.2" height="8.2" style="fill: #ff5a79;"/>
  <rect x="158.942" y="134.246" width="8.2" height="8.2" style="fill: #ff5a79;"/>
  <rect x="150.742" y="134.246" width="8.2" height="8.2" style="fill: #ff5a79;"/>
  <rect x="142.542" y="134.246" width="8.2" height="8.2" style="fill: #ff5a79;"/>
  <rect x="134.342" y="134.246" width="8.2" height="8.2" style="fill: #ff5a79;"/>
  <rect x="126.142" y="134.246" width="8.2" height="8.2" style="fill: #ff5a79;"/>
  <rect x="117.942" y="134.246" width="8.2" height="8.2" style="fill: #ff5a79;"/>
  <rect x="109.742" y="134.246" width="8.2" height="8.2" style="fill: #ff5a79;"/>
  <rect x="101.542" y="134.246" width="8.2" height="8.2" style="fill: #ff5a79;"/>
  <rect x="93.342" y="134.246" width="8.2" height="8.2" style="fill: #ff5a79;"/>
  <rect x="85.142" y="134.246" width="8.2" height="8.2" style="fill: #ff5a79;"/>
  <rect x="76.942" y="134.246" width="8.2" height="8.2" style="fill: #ff5a79;"/>
  <rect x="68.742" y="134.246" width="8.2" height="8.2" style="fill: #ff5a79;"/>
  <rect x="60.542" y="134.246" width="8.2" height="8.2" style="fill: #ff5a79;"/>
  <rect x="52.342" y="134.246" width="8.2" height="8.2" style="fill: #ff5a79;"/>
  <rect x="44.142" y="134.246" width="8.2" height="8.2" style="fill: #ff5a79;"/>
  <rect x="35.942" y="134.246" width="8.2" height="8.2" style="fill: #ff5a79;"/>
  <rect x="183.542" y="126.046" width="8.2" height="8.2" style="fill: #ff5a79;"/>
  <rect x="175.342" y="126.046" width="8.2" height="8.2" style="fill: #ff5a79;"/>
  <rect x="167.142" y="126.046" width="8.2" height="8.2" style="fill: #ff5a79;"/>
  <rect x="158.942" y="126.046" width="8.2" height="8.2" style="fill: #ff5a79;"/>
  <rect x="150.742" y="126.046" width="8.2" height="8.2" style="fill: #ff5a79;"/>
  <rect x="142.542" y="126.046" width="8.2" height="8.2" style="fill: #ff5a79;"/>
  <rect x="134.342" y="126.046" width="8.2" height="8.2" style="fill: #ff5a79;"/>
  <rect x="126.142" y="126.046" width="8.2" height="8.2" style="fill: #ff5a79;"/>
  <rect x="117.942" y="126.046" width="8.2" height="8.2" style="fill: #ff5a79;"/>
  <rect x="109.742" y="126.046" width="8.2" height="8.2" style="fill: #ff5a79;"/>
  <rect x="101.542" y="126.046" width="8.2" height="8.2" style="fill: #ff5a79;"/>
  <rect x="93.342" y="126.046" width="8.2" height="8.2" style="fill: #ff5a79;"/>
  <rect x="85.142" y="126.046" width="8.2" height="8.2" style="fill: #ff5a79;"/>
  <rect x="76.942" y="126.046" width="8.2" height="8.2" style="fill: #ff5a79;"/>
  <rect x="68.742" y="126.046" width="8.2" height="8.2" style="fill: #ff5a79;"/>
  <rect x="60.542" y="126.046" width="8.2" height="8.2" style="fill: #ff5a79;"/>
  <rect x="52.342" y="126.046" width="8.2" height="8.2" style="fill: #ff5a79;"/>
  <rect x="44.142" y="126.046" width="8.2" height="8.2" style="fill: #ff5a79;"/>
  <rect x="35.942" y="126.046" width="8.2" height="8.2" style="fill: #ff5a79;"/>
  <rect x="27.742" y="126.046" width="8.2" height="8.2" style="fill: #ff5a79;"/>
  <rect x="183.542" y="117.846" width="8.2" height="8.2" style="fill: #ff5a79;"/>
  <rect x="175.342" y="117.846" width="8.2" height="8.2" style="fill: #ff5a79;"/>
  <rect x="167.142" y="117.846" width="8.2" height="8.2" style="fill: #fff;"/>
  <rect x="158.942" y="117.846" width="8.2" height="8.2" style="fill: #fff;"/>
  <rect x="150.742" y="117.846" width="8.2" height="8.2" style="fill: #fff;"/>
  <rect x="142.542" y="117.846" width="8.2" height="8.2" style="fill: #fff;"/>
  <rect x="134.342" y="117.846" width="8.2" height="8.2" style="fill: #fff;"/>
  <rect x="126.142" y="117.846" width="8.2" height="8.2" style="fill: #fff;"/>
  <rect x="117.942" y="117.846" width="8.2" height="8.2" style="fill: #fff;"/>
  <rect x="109.742" y="117.846" width="8.2" height="8.2" style="fill: #fff;"/>
  <rect x="101.542" y="117.846" width="8.2" height="8.2" style="fill: #fff;"/>
  <rect x="93.342" y="117.846" width="8.2" height="8.2" style="fill: #fff;"/>
  <rect x="85.142" y="117.846" width="8.2" height="8.2" style="fill: #fff;"/>
  <rect x="76.942" y="117.846" width="8.2" height="8.2" style="fill: #fff;"/>
  <rect x="68.742" y="117.846" width="8.2" height="8.2" style="fill: #fff;"/>
  <rect x="60.542" y="117.846" width="8.2" height="8.2" style="fill: #fff;"/>
  <rect x="52.342" y="117.846" width="8.2" height="8.2" style="fill: #fff;"/>
  <rect x="44.142" y="117.846" width="8.2" height="8.2" style="fill: #fff;"/>
  <rect x="35.942" y="117.846" width="8.2" height="8.2" style="fill: #ff5a79;"/>
  <rect x="27.742" y="117.846" width="8.2" height="8.2" style="fill: #ff5a79;"/>
  <rect x="183.542" y="109.646" width="8.2" height="8.2" style="fill: #ff5a79;"/>
  <rect x="175.342" y="109.646" width="8.2" height="8.2" style="fill: #ff5a79;"/>
  <rect x="167.142" y="109.646" width="8.2" height="8.2" style="fill: #fff;"/>
  <rect x="158.942" y="109.646" width="8.2" height="8.2" style="fill: #fff;"/>
  <rect x="150.742" y="109.646" width="8.2" height="8.2" style="fill: #fff;"/>
  <rect x="142.542" y="109.646" width="8.2" height="8.2" style="fill: #fff;"/>
  <rect x="134.342" y="109.646" width="8.2" height="8.2" style="fill: #fff;"/>
  <rect x="126.142" y="109.646" width="8.2" height="8.2" style="fill: #fff;"/>
  <rect x="117.942" y="109.646" width="8.2" height="8.2" style="fill: #fff;"/>
  <rect x="109.742" y="109.646" width="8.2" height="8.2" style="fill: #fff;"/>
  <rect x="101.542" y="109.646" width="8.2" height="8.2" style="fill: #fff;"/>
  <rect x="93.342" y="109.646" width="8.2" height="8.2" style="fill: #fff;"/>
  <rect x="85.142" y="109.646" width="8.2" height="8.2" style="fill: #fff;"/>
  <rect x="76.942" y="109.646" width="8.2" height="8.2" style="fill: #fff;"/>
  <rect x="68.742" y="109.646" width="8.2" height="8.2" style="fill: #fff;"/>
  <rect x="60.542" y="109.646" width="8.2" height="8.2" style="fill: #fff;"/>
  <rect x="52.342" y="109.646" width="8.2" height="8.2" style="fill: #fff;"/>
  <rect x="44.142" y="109.646" width="8.2" height="8.2" style="fill: #fff;"/>
  <rect x="35.942" y="109.646" width="8.2" height="8.2" style="fill: #ff5a79;"/>
  <rect x="27.742" y="109.646" width="8.2" height="8.2" style="fill: #ff5a79;"/>
  <rect x="183.542" y="101.446" width="8.2" height="8.2" style="fill: #ff5a79;"/>
  <rect x="175.342" y="101.446" width="8.2" height="8.2" style="fill: #ff5a79;"/>
  <rect x="167.142" y="101.446" width="8.2" height="8.2" style="fill: #fff;"/>
  <rect x="158.942" y="101.446" width="8.2" height="8.2" style="fill: #fff;"/>
  <rect x="150.742" y="101.446" width="8.2" height="8.2" style="fill: #fff;"/>
  <rect x="142.542" y="101.446" width="8.2" height="8.2" style="fill: #fff;"/>
  <rect x="134.342" y="101.446" width="8.2" height="8.2" style="fill: #fff;"/>
  <rect x="126.142" y="101.446" width="8.2" height="8.2" style="fill: #fff;"/>
  <rect x="117.942" y="101.446" width="8.2" height="8.2" style="fill: #fff;"/>
  <rect x="109.742" y="101.446" width="8.2" height="8.2" style="fill: #fff;"/>
  <rect x="101.542" y="101.446" width="8.2" height="8.2" style="fill: #fff;"/>
  <rect x="93.342" y="101.446" width="8.2" height="8.2" style="fill: #fff;"/>
  <rect x="85.142" y="101.446" width="8.2" height="8.2" style="fill: #fff;"/>
  <rect x="76.942" y="101.446" width="8.2" height="8.2" style="fill: #fff;"/>
  <rect x="68.742" y="101.446" width="8.2" height="8.2" style="fill: #fff;"/>
  <rect x="60.542" y="101.446" width="8.2" height="8.2" style="fill: #fff;"/>
  <rect x="52.342" y="101.446" width="8.2" height="8.2" style="fill: #fff;"/>
  <rect x="44.142" y="101.446" width="8.2" height="8.2" style="fill: #fff;"/>
  <rect x="35.942" y="101.446" width="8.2" height="8.2" style="fill: #ff5a79;"/>
  <rect x="27.742" y="101.446" width="8.2" height="8.2" style="fill: #ff5a79;"/>
  <rect x="183.542" y="93.246" width="8.2" height="8.2" style="fill: #ff5a79;"/>
  <rect x="175.342" y="93.246" width="8.2" height="8.2" style="fill: #ff5a79;"/>
  <rect x="167.142" y="93.246" width="8.2" height="8.2" style="fill: #fff;"/>
  <rect x="158.942" y="93.246" width="8.2" height="8.2" style="fill: #fff;"/>
  <rect x="150.742" y="93.246" width="8.2" height="8.2" style="fill: #fff;"/>
  <rect x="142.542" y="93.246" width="8.2" height="8.2" style="fill: #fff;"/>
  <rect x="134.342" y="93.246" width="8.2" height="8.2" style="fill: #fff;"/>
  <rect x="126.142" y="93.246" width="8.2" height="8.2" style="fill: #fff;"/>
  <rect x="117.942" y="93.246" width="8.2" height="8.2" style="fill: #fff;"/>
  <rect x="109.742" y="93.246" width="8.2" height="8.2" style="fill: #fff;"/>
  <rect x="101.542" y="93.246" width="8.2" height="8.2" style="fill: #fff;"/>
  <rect x="93.342" y="93.246" width="8.2" height="8.2" style="fill: #fff;"/>
  <rect x="85.142" y="93.246" width="8.2" height="8.2" style="fill: #fff;"/>
  <rect x="76.942" y="93.246" width="8.2" height="8.2" style="fill: #fff;"/>
  <rect x="68.742" y="93.246" width="8.2" height="8.2" style="fill: #fff;"/>
  <rect x="60.542" y="93.246" width="8.2" height="8.2" style="fill: #fff;"/>
  <rect x="64.642" y="103.714" width="8.2" height="8.2" style="fill: #fff;"/>
  <rect x="44.142" y="93.246" width="8.2" height="8.2" style="fill: #fff;"/>
  <rect x="35.942" y="93.246" width="8.2" height="8.2" style="fill: #ff5a79;"/>
  <rect x="27.742" y="93.246" width="8.2" height="8.2" style="fill: #ff5a79;"/>
  <rect x="183.542" y="85.046" width="8.2" height="8.2" style="fill: #ff5a79;"/>
  <rect x="175.342" y="85.046" width="8.2" height="8.2" style="fill: #ff5a79;"/>
  <rect x="167.142" y="85.046" width="8.2" height="8.2" style="fill: #ff5a79;"/>
  <rect x="158.942" y="85.046" width="8.2" height="8.2" style="fill: #ff5a79;"/>
  <rect x="150.742" y="85.046" width="8.2" height="8.2" style="fill: #ff5a79;"/>
  <rect x="142.542" y="85.046" width="8.2" height="8.2" style="fill: #ff5a79;"/>
  <rect x="134.342" y="85.046" width="8.2" height="8.2" style="fill: #ff5a79;"/>
  <rect x="126.142" y="85.046" width="8.2" height="8.2" style="fill: #ff5a79;"/>
  <rect x="117.942" y="85.046" width="8.2" height="8.2" style="fill: #ff5a79;"/>
  <rect x="109.742" y="85.046" width="8.2" height="8.2" style="fill: #ff5a79;"/>
  <rect x="101.542" y="85.046" width="8.2" height="8.2" style="fill: #ff5a79;"/>
  <rect x="93.342" y="85.046" width="8.2" height="8.2" style="fill: #ff5a79;"/>
  <rect x="85.142" y="85.046" width="8.2" height="8.2" style="fill: #ff5a79;"/>
  <rect x="76.942" y="85.046" width="8.2" height="8.2" style="fill: #ff5a79;"/>
  <rect x="68.742" y="85.046" width="8.2" height="8.2" style="fill: #ff5a79;"/>
  <rect x="60.542" y="85.046" width="8.2" height="8.2" style="fill: #ff5a79;"/>
  <rect x="52.342" y="85.046" width="8.2" height="8.2" style="fill: #ff5a79;"/>
  <rect x="44.142" y="85.046" width="8.2" height="8.2" style="fill: #ff5a79;"/>
  <rect x="35.942" y="85.046" width="8.2" height="8.2" style="fill: #ff5a79;"/>
  <rect x="27.742" y="85.046" width="8.2" height="8.2" style="fill: #ff5a79;"/>
  <rect x="183.542" y="76.846" width="8.2" height="8.2" style="fill: #ffc1cc;"/>
  <rect x="175.342" y="76.846" width="8.2" height="8.2" style="fill: #ff5a79;"/>
  <rect x="167.142" y="76.846" width="8.2" height="8.2" style="fill: #ff5a79;"/>
  <rect x="158.942" y="76.846" width="8.2" height="8.2" style="fill: #ff5a79;"/>
  <rect x="150.742" y="76.846" width="8.2" height="8.2" style="fill: #ff5a79;"/>
  <rect x="142.542" y="76.846" width="8.2" height="8.2" style="fill: #ff5a79;"/>
  <rect x="134.342" y="76.846" width="8.2" height="8.2" style="fill: #ff5a79;"/>
  <rect x="126.142" y="76.846" width="8.2" height="8.2" style="fill: #ff5a79;"/>
  <rect x="117.942" y="76.846" width="8.2" height="8.2" style="fill: #ff5a79;"/>
  <rect x="109.742" y="76.846" width="8.2" height="8.2" style="fill: #ff5a79;"/>
  <rect x="101.542" y="76.846" width="8.2" height="8.2" style="fill: #ff5a79;"/>
  <rect x="93.342" y="76.846" width="8.2" height="8.2" style="fill: #ff5a79;"/>
  <rect x="85.142" y="76.846" width="8.2" height="8.2" style="fill: #ff5a79;"/>
  <rect x="76.942" y="76.846" width="8.2" height="8.2" style="fill: #ff5a79;"/>
  <rect x="68.742" y="76.846" width="8.2" height="8.2" style="fill: #ff5a79;"/>
  <rect x="60.542" y="76.846" width="8.2" height="8.2" style="fill: #ff5a79;"/>
  <rect x="52.342" y="76.846" width="8.2" height="8.2" style="fill: #ff5a79;"/>
  <rect x="44.142" y="76.846" width="8.2" height="8.2" style="fill: #ff5a79;"/>
  <rect x="35.942" y="76.846" width="8.2" height="8.2" style="fill: #ff5a79;"/>
  <rect x="175.342" y="68.646" width="8.2" height="8.2" style="fill: #ff5a79;"/>
  <rect x="167.142" y="68.646" width="8.2" height="8.2" style="fill: #ff5a79;"/>
  <rect x="158.942" y="68.646" width="8.2" height="8.2" style="fill: #ff5a79;"/>
  <rect x="150.742" y="68.646" width="8.2" height="8.2" style="fill: #ff5a79;"/>
  <rect x="142.542" y="68.646" width="8.2" height="8.2" style="fill: #ff5a79;"/>
  <rect x="134.342" y="68.646" width="8.2" height="8.2" style="fill: #ff5a79;"/>
  <rect x="126.142" y="68.646" width="8.2" height="8.2" style="fill: #ff5a79;"/>
  <rect x="117.942" y="68.646" width="8.2" height="8.2" style="fill: #ff5a79;"/>
  <rect x="109.742" y="68.646" width="8.2" height="8.2" style="fill: #ff5a79;"/>
  <rect x="101.542" y="68.646" width="8.2" height="8.2" style="fill: #ff5a79;"/>
  <rect x="93.342" y="68.646" width="8.2" height="8.2" style="fill: #ff5a79;"/>
  <rect x="85.142" y="68.646" width="8.2" height="8.2" style="fill: #ff5a79;"/>
  <rect x="76.942" y="68.646" width="8.2" height="8.2" style="fill: #ff5a79;"/>
  <rect x="68.742" y="68.646" width="8.2" height="8.2" style="fill: #ff5a79;"/>
  <rect x="60.542" y="68.646" width="8.2" height="8.2" style="fill: #ff5a79;"/>
  <rect x="52.342" y="68.646" width="8.2" height="8.2" style="fill: #ff5a79;"/>
  <rect x="44.142" y="68.646" width="8.2" height="8.2" style="fill: #ff5a79;"/>
  <rect x="35.942" y="68.646" width="8.2" height="8.2" style="fill: #ff5a79;"/>
  <rect x="167.142" y="60.446" width="8.2" height="8.2" style="fill: #ff5a79;"/>
  <rect x="158.942" y="60.446" width="8.2" height="8.2" style="fill: #ff5a79;"/>
  <rect x="150.742" y="60.446" width="8.2" height="8.2" style="fill: #ff5a79;"/>
  <rect x="142.542" y="60.446" width="8.2" height="8.2" style="fill: #ff5a79;"/>
  <rect x="134.342" y="60.446" width="8.2" height="8.2" style="fill: #ff5a79;"/>
  <rect x="126.142" y="60.446" width="8.2" height="8.2" style="fill: #ff5a79;"/>
  <rect x="117.942" y="60.446" width="8.2" height="8.2" style="fill: #ff5a79;"/>
  <rect x="109.742" y="60.446" width="8.2" height="8.2" style="fill: #ff5a79;"/>
  <rect x="101.542" y="60.446" width="8.2" height="8.2" style="fill: #ff5a79;"/>
  <rect x="93.342" y="60.446" width="8.2" height="8.2" style="fill: #ff5a79;"/>
  <rect x="85.142" y="60.446" width="8.2" height="8.2" style="fill: #ff5a79;"/>
  <rect x="76.942" y="60.446" width="8.2" height="8.2" style="fill: #ff5a79;"/>
  <rect x="68.742" y="60.446" width="8.2" height="8.2" style="fill: #ff5a79;"/>
  <rect x="60.542" y="60.446" width="8.2" height="8.2" style="fill: #ff5a79;"/>
  <rect x="52.342" y="60.446" width="8.2" height="8.2" style="fill: #ff5a79;"/>
  <rect x="44.142" y="60.446" width="8.2" height="8.2" style="fill: #ff5a79;"/>
  <rect x="167.142" y="52.246" width="8.2" height="8.2" style="fill: #ff5a79;"/>
  <rect x="158.942" y="52.246" width="8.2" height="8.2" style="fill: #ff5a79;"/>
  <rect x="150.742" y="52.246" width="8.2" height="8.2" style="fill: #ff5a79;"/>
  <rect x="142.542" y="52.246" width="8.2" height="8.2" style="fill: #ff5a79;"/>
  <rect x="134.342" y="52.246" width="8.2" height="8.2" style="fill: #ff5a79;"/>
  <rect x="126.142" y="52.246" width="8.2" height="8.2" style="fill: #ff5a79;"/>
  <rect x="117.942" y="52.246" width="8.2" height="8.2" style="fill: #ff5a79;"/>
  <rect x="109.742" y="52.246" width="8.2" height="8.2" style="fill: #ff5a79;"/>
  <rect x="101.542" y="52.246" width="8.2" height="8.2" style="fill: #ff5a79;"/>
  <rect x="93.342" y="52.246" width="8.2" height="8.2" style="fill: #ff5a79;"/>
  <rect x="85.142" y="52.246" width="8.2" height="8.2" style="fill: #ff5a79;"/>
  <rect x="76.942" y="52.246" width="8.2" height="8.2" style="fill: #ff5a79;"/>
  <rect x="68.742" y="52.246" width="8.2" height="8.2" style="fill: #ff5a79;"/>
  <rect x="60.542" y="52.246" width="8.2" height="8.2" style="fill: #ff5a79;"/>
  <rect x="52.342" y="52.246" width="8.2" height="8.2" style="fill: #ff5a79;"/>
  <rect x="44.142" y="52.246" width="8.2" height="8.2" style="fill: #ff607e;"/>
  <rect x="158.942" y="44.046" width="8.2" height="8.2" style="fill: #ff5a79;"/>
  <rect x="150.742" y="44.046" width="8.2" height="8.2" style="fill: #ff5a79;"/>
  <rect x="142.542" y="44.046" width="8.2" height="8.2" style="fill: #ff5a79;"/>
  <rect x="134.342" y="44.046" width="8.2" height="8.2" style="fill: #ff5a79;"/>
  <rect x="126.142" y="44.046" width="8.2" height="8.2" style="fill: #ff5a79;"/>
  <rect x="117.942" y="44.046" width="8.2" height="8.2" style="fill: #ff5a79;"/>
  <rect x="109.742" y="44.046" width="8.2" height="8.2" style="fill: #ff5a79;"/>
  <rect x="101.542" y="44.046" width="8.2" height="8.2" style="fill: #ff5a79;"/>
  <rect x="93.342" y="44.046" width="8.2" height="8.2" style="fill: #ff5a79;"/>
  <rect x="85.142" y="44.046" width="8.2" height="8.2" style="fill: #ff5a79;"/>
  <rect x="76.942" y="44.046" width="8.2" height="8.2" style="fill: #ff5a79;"/>
  <rect x="68.742" y="44.046" width="8.2" height="8.2" style="fill: #ff5a79;"/>
  <rect x="60.542" y="44.046" width="8.2" height="8.2" style="fill: #ff5a79;"/>
  <rect x="52.342" y="44.046" width="8.2" height="8.2" style="fill: #ff607e;"/>
  <rect x="142.542" y="35.846" width="8.2" height="8.2" style="fill: #ff5a79;"/>
  <rect x="134.342" y="35.846" width="8.2" height="8.2" style="fill: #ff5a79;"/>
  <rect x="126.142" y="35.846" width="8.2" height="8.2" style="fill: #ff5a79;"/>
  <rect x="117.942" y="35.846" width="8.2" height="8.2" style="fill: #ff5a79;"/>
  <rect x="109.742" y="35.846" width="8.2" height="8.2" style="fill: #ff5a79;"/>
  <rect x="101.542" y="35.846" width="8.2" height="8.2" style="fill: #ff5a79;"/>
  <rect x="93.342" y="35.846" width="8.2" height="8.2" style="fill: #ff5a79;"/>
  <rect x="85.142" y="35.846" width="8.2" height="8.2" style="fill: #ff5a79;"/>
  <rect x="76.942" y="35.846" width="8.2" height="8.2" style="fill: #ff5a79;"/>
  <rect x="68.742" y="35.846" width="8.2" height="8.2" style="fill: #ff5a79;"/>
  <rect x="126.142" y="27.646" width="8.2" height="8.2" style="fill: #ff5a79;"/>
  <rect x="117.942" y="27.646" width="8.2" height="8.2" style="fill: #ff5a79;"/>
  <rect x="109.742" y="27.646" width="8.2" height="8.2" style="fill: #ff5a79;"/>
  <rect x="101.542" y="27.646" width="8.2" height="8.2" style="fill: #ff5a79;"/>
  <rect x="93.342" y="27.646" width="8.2" height="8.2" style="fill: #ff5a79;"/>
  <rect x="85.142" y="27.646" width="8.2" height="8.2" style="fill: #ff5a79;"/>
</svg>