<?xml version="1.0" encoding="UTF-8"?>
<svg id="_图层_1" data-name="图层 1" xmlns="http://www.w3.org/2000/svg" viewBox="0 0 267.574 281.872">
  <rect x="119.624" y="252.263" width="15.333" height="15.8" style="fill: #efd8b1;"/>
  <rect x="119.624" y="236.463" width="15.333" height="15.8" style="fill: #efd8b1;"/>
  <rect x="104.29" y="236.463" width="15.333" height="15.8" style="fill: #fff6d7;"/>
  <rect x="134.957" y="220.663" width="15.333" height="15.8" style="fill: #efd8b1;"/>
  <rect x="119.624" y="220.663" width="15.333" height="15.8" style="fill: #fff6d7;"/>
  <rect x="104.29" y="220.663" width="15.333" height="15.8" style="fill: #fff6d7;"/>
  <rect x="150.29" y="204.863" width="15.333" height="15.8" style="fill: #fff6d7;"/>
  <rect x="134.957" y="204.863" width="15.333" height="15.8" style="fill: #fff6d7;"/>
  <rect x="119.624" y="204.863" width="15.333" height="15.8" style="fill: #fff6d7;"/>
  <rect x="104.29" y="204.863" width="15.333" height="15.8" style="fill: #fff6d7;"/>
  <rect x="88.957" y="204.863" width="15.333" height="15.8" style="fill: #fff6d7;"/>
  <rect x="211.624" y="189.063" width="15.333" height="15.8" style="fill: #fff6d7;"/>
  <rect x="196.29" y="189.063" width="15.333" height="15.8" style="fill: #fff6d7;"/>
  <rect x="180.957" y="189.063" width="15.333" height="15.8" style="fill: #fff6d7;"/>
  <rect x="165.624" y="189.063" width="15.333" height="15.8" style="fill: #fff6d7;"/>
  <rect x="150.29" y="189.063" width="15.333" height="15.8" style="fill: #fff6d7;"/>
  <rect x="134.957" y="189.063" width="15.333" height="15.8" style="fill: #fff6d7;"/>
  <rect x="119.624" y="189.063" width="15.333" height="15.8" style="fill: #fff6d7;"/>
  <rect x="104.29" y="189.063" width="15.333" height="15.8" style="fill: #fff6d7;"/>
  <rect x="88.957" y="189.063" width="15.333" height="15.8" style="fill: #fff6d7;"/>
  <rect x="211.624" y="173.263" width="15.333" height="15.8" style="fill: #fff6d7;"/>
  <rect x="196.29" y="173.263" width="15.333" height="15.8" style="fill: #fff6d7;"/>
  <rect x="180.957" y="173.263" width="15.333" height="15.8" style="fill: #fff6d7;"/>
  <rect x="165.624" y="173.263" width="15.333" height="15.8" style="fill: #fff6d7;"/>
  <rect x="150.29" y="173.263" width="15.333" height="15.8" style="fill: #fff6d7;"/>
  <rect x="134.957" y="173.263" width="15.333" height="15.8" style="fill: #fff6d7;"/>
  <rect x="119.624" y="173.263" width="15.333" height="15.8" style="fill: #fff6d7;"/>
  <rect x="104.29" y="173.263" width="15.333" height="15.8" style="fill: #fff6d7;"/>
  <rect x="88.957" y="173.263" width="15.333" height="15.8" style="fill: #fff6d7;"/>
  <rect x="73.624" y="173.263" width="15.333" height="15.8" style="fill: #f7e7c4;"/>
  <rect x="226.957" y="157.463" width="15.333" height="15.8" style="fill: #efd8b1;"/>
  <rect x="211.624" y="157.463" width="15.333" height="15.8" style="fill: #fff6d7;"/>
  <rect x="196.29" y="157.463" width="15.333" height="15.8" style="fill: #fff6d7;"/>
  <rect x="180.957" y="157.463" width="15.333" height="15.8" style="fill: #fff6d7;"/>
  <rect x="165.624" y="157.463" width="15.333" height="15.8" style="fill: #fff6d7;"/>
  <rect x="150.29" y="157.463" width="15.333" height="15.8" style="fill: #fff6d7;"/>
  <rect x="134.957" y="157.463" width="15.333" height="15.8" style="fill: #fff6d7;"/>
  <rect x="119.624" y="157.463" width="15.333" height="15.8" style="fill: #fff6d7;"/>
  <rect x="104.29" y="157.463" width="15.333" height="15.8" style="fill: #fff6d7;"/>
  <rect x="88.957" y="157.463" width="15.333" height="15.8" style="fill: #fff6d7;"/>
  <rect x="73.624" y="157.463" width="15.333" height="15.8" style="fill: #fff6d7;"/>
  <rect x="58.29" y="157.463" width="15.333" height="15.8" style="fill: #efd8b1;"/>
  <rect x="211.624" y="141.663" width="15.333" height="15.8" style="fill: #efd8b1;"/>
  <rect x="196.29" y="141.663" width="15.333" height="15.8" style="fill: #fff6d7;"/>
  <rect x="180.957" y="141.663" width="15.333" height="15.8" style="fill: #fff6d7;"/>
  <rect x="165.624" y="141.663" width="15.333" height="15.8" style="fill: #fff6d7;"/>
  <rect x="150.29" y="141.663" width="15.333" height="15.8" style="fill: #fff6d7;"/>
  <rect x="134.957" y="141.663" width="15.333" height="15.8" style="fill: #8b8779;"/>
  <rect x="119.624" y="141.663" width="15.333" height="15.8" style="fill: #333;"/>
  <rect x="104.29" y="141.663" width="15.333" height="15.8" style="fill: #fff6d7;"/>
  <rect x="88.957" y="141.663" width="15.333" height="15.8" style="fill: #fff6d7;"/>
  <rect x="73.624" y="141.663" width="15.333" height="15.8" style="fill: #fff6d7;"/>
  <rect x="58.29" y="141.663" width="15.333" height="15.8" style="fill: #efd8b1;"/>
  <rect x="42.957" y="141.663" width="15.333" height="15.8" style="fill: #efd8b1;"/>
  <rect x="196.29" y="125.863" width="15.333" height="15.8" style="fill: #fff6d7;"/>
  <rect x="180.957" y="125.863" width="15.333" height="15.8" style="fill: #fff6d7;"/>
  <rect x="165.624" y="125.863" width="15.333" height="15.8" style="fill: #ffce9d;"/>
  <rect x="150.29" y="125.863" width="15.333" height="15.8" style="fill: #fed0ac;"/>
  <rect x="134.957" y="125.863" width="15.333" height="15.8" style="fill: #fed0ac;"/>
  <rect x="119.624" y="125.863" width="15.333" height="15.8" style="fill: #fff6d7;"/>
  <rect x="104.29" y="125.863" width="15.333" height="15.8" style="fill: #fff6d7;"/>
  <rect x="88.957" y="125.863" width="15.333" height="15.8" style="fill: #7d8b91;"/>
  <rect x="73.624" y="125.863" width="15.333" height="15.8" style="fill: #fff6d7;"/>
  <rect x="58.29" y="125.863" width="15.333" height="15.8" style="fill: #fff6d7;"/>
  <rect x="42.957" y="125.863" width="15.333" height="15.8" style="fill: #efd8b1;"/>
  <rect x="27.624" y="125.863" width="15.333" height="15.8" style="fill: #efd8b1;"/>
  <rect x="196.29" y="110.063" width="15.333" height="15.8" style="fill: #efd9b3;"/>
  <rect x="180.957" y="110.063" width="15.333" height="15.8" style="fill: #ff8837;"/>
  <rect x="165.624" y="110.063" width="15.333" height="15.8" style="fill: #ff8736;"/>
  <rect x="150.29" y="110.063" width="15.333" height="15.8" style="fill: #ffce31;"/>
  <rect x="134.957" y="110.063" width="15.333" height="15.8" style="fill: #fed0ac;"/>
  <rect x="119.624" y="110.063" width="15.333" height="15.8" style="fill: #fff6d7;"/>
  <rect x="104.29" y="110.063" width="15.333" height="15.8" style="fill: #fff6d7;"/>
  <rect x="88.957" y="110.063" width="15.333" height="15.8" style="fill: #fff6d7;"/>
  <rect x="73.624" y="110.063" width="15.333" height="15.8" style="fill: #dad8c3;"/>
  <rect x="58.29" y="110.063" width="15.333" height="15.8" style="fill: #fff6d7;"/>
  <rect x="42.957" y="110.063" width="15.333" height="15.8" style="fill: #f0dab4;"/>
  <rect x="27.624" y="110.063" width="15.333" height="15.8" style="fill: #efd8b1;"/>
  <rect x="12.29" y="110.063" width="15.333" height="15.8" style="fill: #efd8b1;"/>
  <rect x="196.29" y="94.263" width="15.333" height="15.8" style="fill: #ff8838;"/>
  <rect x="180.957" y="94.263" width="15.333" height="15.8" style="fill: #ff8736;"/>
  <rect x="165.624" y="94.263" width="15.333" height="15.8" style="fill: #ffce31;"/>
  <rect x="150.29" y="94.263" width="15.333" height="15.8" style="fill: #ffdf85;"/>
  <rect x="134.957" y="94.263" width="15.333" height="15.8" style="fill: #fff6d7;"/>
  <rect x="119.624" y="94.263" width="15.333" height="15.8" style="fill: #fff6d7;"/>
  <rect x="104.29" y="94.263" width="15.333" height="15.8" style="fill: #fff6d7;"/>
  <rect x="88.957" y="94.263" width="15.333" height="15.8" style="fill: #fff6d7;"/>
  <rect x="73.624" y="94.263" width="15.333" height="15.8" style="fill: #fff6d7;"/>
  <rect x="58.29" y="94.263" width="15.333" height="15.8" style="fill: #fff6d7;"/>
  <rect x="42.957" y="94.263" width="15.333" height="15.8" style="fill: #fff6d7;"/>
  <rect x="27.624" y="94.263" width="15.333" height="15.8" style="fill: #efd8b1;"/>
  <rect x="12.29" y="94.263" width="15.333" height="15.8" style="fill: #efd8b1;"/>
  <rect x="211.624" y="78.463" width="15.333" height="15.8" style="fill: #93a2aa;"/>
  <rect x="196.29" y="78.463" width="15.333" height="15.8" style="fill: #ff8736;"/>
  <rect x="180.957" y="78.463" width="15.333" height="15.8" style="fill: #ffce31;"/>
  <rect x="165.624" y="78.463" width="15.333" height="15.8" style="fill: #ffdf85;"/>
  <rect x="150.29" y="78.463" width="15.333" height="15.8" style="fill: #c4c6b7;"/>
  <rect x="134.957" y="78.463" width="15.333" height="15.8" style="fill: #7d8b91;"/>
  <rect x="119.624" y="78.463" width="15.333" height="15.8" style="fill: #a5aca7;"/>
  <rect x="104.29" y="78.463" width="15.333" height="15.8" style="fill: #fff6d7;"/>
  <rect x="88.957" y="78.463" width="15.333" height="15.8" style="fill: #fff6d7;"/>
  <rect x="73.624" y="78.463" width="15.333" height="15.8" style="fill: #fff6d7;"/>
  <rect x="58.29" y="78.463" width="15.333" height="15.8" style="fill: #fff6d7;"/>
  <rect x="42.957" y="78.463" width="15.333" height="15.8" style="fill: #fff6d7;"/>
  <rect x="27.624" y="78.463" width="15.333" height="15.8" style="fill: #fff6d7;"/>
  <rect x="226.957" y="62.663" width="15.333" height="15.8" style="fill: #ed4c5c;"/>
  <rect x="211.624" y="62.663" width="15.333" height="15.8" style="fill: #ed4c5c;"/>
  <rect x="196.29" y="62.663" width="15.333" height="15.8" style="fill: #c7d3d8;"/>
  <rect x="180.957" y="62.663" width="15.333" height="15.8" style="fill: #ffdf85;"/>
  <rect x="150.29" y="62.663" width="15.333" height="15.8" style="fill: #fff6d7;"/>
  <rect x="134.957" y="62.663" width="15.333" height="15.8" style="fill: #fff6d7;"/>
  <rect x="119.624" y="62.663" width="15.333" height="15.8" style="fill: #fff6d7;"/>
  <rect x="104.29" y="62.663" width="15.333" height="15.8" style="fill: #fff6d7;"/>
  <rect x="88.957" y="62.663" width="15.333" height="15.8" style="fill: #fff6d7;"/>
  <rect x="73.624" y="62.663" width="15.333" height="15.8" style="fill: #fff6d7;"/>
  <rect x="58.29" y="62.663" width="15.333" height="15.8" style="fill: #fff6d7;"/>
  <rect x="42.957" y="62.663" width="15.333" height="15.8" style="fill: #fff6d7;"/>
  <rect x="27.624" y="62.663" width="15.333" height="15.8" style="fill: #fff6d7;"/>
  <rect x="226.957" y="46.863" width="15.333" height="15.8" style="fill: #ed4c5c;"/>
  <rect x="211.624" y="46.863" width="15.333" height="15.8" style="fill: #ed4c5c;"/>
  <rect x="196.29" y="46.863" width="15.333" height="15.8" style="fill: #ed4c5c;"/>
  <rect x="150.29" y="46.863" width="15.333" height="15.8" style="fill: #fff6d7;"/>
  <rect x="134.957" y="46.863" width="15.333" height="15.8" style="fill: #fff6d7;"/>
  <rect x="119.624" y="46.863" width="15.333" height="15.8" style="fill: #fff6d7;"/>
  <rect x="104.29" y="46.863" width="15.333" height="15.8" style="fill: #fff6d7;"/>
  <rect x="88.957" y="46.863" width="15.333" height="15.8" style="fill: #fff6d7;"/>
  <rect x="73.624" y="46.863" width="15.333" height="15.8" style="fill: #fff6d7;"/>
  <rect x="58.29" y="46.863" width="15.333" height="15.8" style="fill: #fff6d7;"/>
  <rect x="42.957" y="46.863" width="15.333" height="15.8" style="fill: #fff6d7;"/>
  <rect x="211.624" y="31.063" width="15.333" height="15.8" style="fill: #ed4c5c;"/>
  <rect x="134.957" y="31.063" width="15.333" height="15.8" style="fill: #fff6d7;"/>
  <rect x="119.624" y="31.063" width="15.333" height="15.8" style="fill: #fff6d7;"/>
  <rect x="104.29" y="31.063" width="15.333" height="15.8" style="fill: #fffaea;"/>
</svg>