<?xml version="1.0" encoding="UTF-8"?>
<svg id="_图层_1" data-name="图层 1" xmlns="http://www.w3.org/2000/svg" viewBox="0 0 251.234 259.404">
  <rect x="107.684" y="231.514" width="8.45" height="10.75" style="fill: #ccc;"/>
  <rect x="99.234" y="231.514" width="8.45" height="10.75" style="fill: #ccc;"/>
  <rect x="90.784" y="231.514" width="8.45" height="10.75" style="fill: #ccc;"/>
  <rect x="82.334" y="231.514" width="8.45" height="10.75" style="fill: #ccc;"/>
  <rect x="73.884" y="231.514" width="8.45" height="10.75" style="fill: #ccc;"/>
  <rect x="65.434" y="231.514" width="8.45" height="10.75" style="fill: #ccc;"/>
  <rect x="56.984" y="231.514" width="8.45" height="10.75" style="fill: #ccc;"/>
  <rect x="99.234" y="220.764" width="8.45" height="10.75" style="fill: #eaeaea;"/>
  <rect x="90.784" y="220.764" width="8.45" height="10.75" style="fill: #d3976e;"/>
  <rect x="82.334" y="220.764" width="8.45" height="10.75" style="fill: #d3976e;"/>
  <rect x="73.884" y="220.764" width="8.45" height="10.75" style="fill: #d8d8d8;"/>
  <rect x="90.784" y="210.014" width="8.45" height="10.75" style="fill: #d3976e;"/>
  <rect x="82.334" y="210.014" width="8.45" height="10.75" style="fill: #d3976e;"/>
  <rect x="90.784" y="199.264" width="8.45" height="10.75" style="fill: #d3976e;"/>
  <rect x="82.334" y="199.264" width="8.45" height="10.75" style="fill: #d3976e;"/>
  <rect x="90.784" y="188.514" width="8.45" height="10.75" style="fill: #d3976e;"/>
  <rect x="82.334" y="188.514" width="8.45" height="10.75" style="fill: #d3976e;"/>
  <rect x="90.784" y="177.764" width="8.45" height="10.75" style="fill: #d3976e;"/>
  <rect x="82.334" y="177.764" width="8.45" height="10.75" style="fill: #d3976e;"/>
  <rect x="90.784" y="167.014" width="8.45" height="10.75" style="fill: #d3976e;"/>
  <rect x="82.334" y="167.014" width="8.45" height="10.75" style="fill: #d3976e;"/>
  <rect x="90.784" y="156.264" width="8.45" height="10.75" style="fill: #d3976e;"/>
  <rect x="82.334" y="156.264" width="8.45" height="10.75" style="fill: #d3976e;"/>
  <rect x="107.684" y="145.514" width="8.45" height="10.75" style="fill: #ed1c24;"/>
  <rect x="99.234" y="145.514" width="8.45" height="10.75" style="fill: #ed1c24;"/>
  <rect x="90.784" y="145.514" width="8.45" height="10.75" style="fill: #d3976e;"/>
  <rect x="82.334" y="145.514" width="8.45" height="10.75" style="fill: #d3976e;"/>
  <rect x="133.034" y="134.764" width="8.45" height="10.75" style="fill: #ed1c24;"/>
  <rect x="124.584" y="134.764" width="8.45" height="10.75" style="fill: #ed1c24;"/>
  <rect x="116.134" y="134.764" width="8.45" height="10.75" style="fill: #ed1c24;"/>
  <rect x="107.684" y="134.764" width="8.45" height="10.75" style="fill: #ed1c24;"/>
  <rect x="99.234" y="134.764" width="8.45" height="10.75" style="fill: #ed1c24;"/>
  <rect x="90.784" y="134.764" width="8.45" height="10.75" style="fill: #d3976e;"/>
  <rect x="82.334" y="134.764" width="8.45" height="10.75" style="fill: #d3976e;"/>
  <rect x="149.934" y="124.014" width="8.45" height="10.75" style="fill: #ed1c24;"/>
  <rect x="141.484" y="124.014" width="8.45" height="10.75" style="fill: #ed1c24;"/>
  <rect x="133.034" y="124.014" width="8.45" height="10.75" style="fill: #ed1c24;"/>
  <rect x="124.584" y="124.014" width="8.45" height="10.75" style="fill: #ed1c24;"/>
  <rect x="116.134" y="124.014" width="8.45" height="10.75" style="fill: #ed1c24;"/>
  <rect x="107.684" y="124.014" width="8.45" height="10.75" style="fill: #ed1c24;"/>
  <rect x="99.234" y="124.014" width="8.45" height="10.75" style="fill: #ed1c24;"/>
  <rect x="90.784" y="124.014" width="8.45" height="10.75" style="fill: #d3976e;"/>
  <rect x="82.334" y="124.014" width="8.45" height="10.75" style="fill: #d3976e;"/>
  <rect x="175.284" y="113.264" width="8.45" height="10.75" style="fill: #ed1c24;"/>
  <rect x="166.834" y="113.264" width="8.45" height="10.75" style="fill: #ed1c24;"/>
  <rect x="158.384" y="113.264" width="8.45" height="10.75" style="fill: #ed1c24;"/>
  <rect x="149.934" y="113.264" width="8.45" height="10.75" style="fill: #ed1c24;"/>
  <rect x="141.484" y="113.264" width="8.45" height="10.75" style="fill: #ed1c24;"/>
  <rect x="133.034" y="113.264" width="8.45" height="10.75" style="fill: #ed1c24;"/>
  <rect x="124.584" y="113.264" width="8.45" height="10.75" style="fill: #ed1c24;"/>
  <rect x="116.134" y="113.264" width="8.45" height="10.75" style="fill: #ed1c24;"/>
  <rect x="107.684" y="113.264" width="8.45" height="10.75" style="fill: #ed1c24;"/>
  <rect x="99.234" y="113.264" width="8.45" height="10.75" style="fill: #ed1c24;"/>
  <rect x="90.784" y="113.264" width="8.45" height="10.75" style="fill: #d3976e;"/>
  <rect x="82.334" y="113.264" width="8.45" height="10.75" style="fill: #d3976e;"/>
  <rect x="200.634" y="102.514" width="8.45" height="10.75" style="fill: #ed1c24;"/>
  <rect x="192.184" y="102.514" width="8.45" height="10.75" style="fill: #ed1c24;"/>
  <rect x="183.734" y="102.514" width="8.45" height="10.75" style="fill: #ed1c24;"/>
  <rect x="175.284" y="102.514" width="8.45" height="10.75" style="fill: #ed1c24;"/>
  <rect x="166.834" y="102.514" width="8.45" height="10.75" style="fill: #ed1c24;"/>
  <rect x="158.384" y="102.514" width="8.45" height="10.75" style="fill: #ed1c24;"/>
  <rect x="149.934" y="102.514" width="8.45" height="10.75" style="fill: #ed1c24;"/>
  <rect x="141.484" y="102.514" width="8.45" height="10.75" style="fill: #ed1c24;"/>
  <rect x="133.034" y="102.514" width="8.45" height="10.75" style="fill: #ed1c24;"/>
  <rect x="124.584" y="102.514" width="8.45" height="10.75" style="fill: #ed1c24;"/>
  <rect x="116.134" y="102.514" width="8.45" height="10.75" style="fill: #ed1c24;"/>
  <rect x="107.684" y="102.514" width="8.45" height="10.75" style="fill: #ed1c24;"/>
  <rect x="99.234" y="102.514" width="8.45" height="10.75" style="fill: #ed1c24;"/>
  <rect x="90.784" y="102.514" width="8.45" height="10.75" style="fill: #d3976e;"/>
  <rect x="82.334" y="102.514" width="8.45" height="10.75" style="fill: #d3976e;"/>
  <rect x="217.534" y="91.764" width="8.45" height="10.75" style="fill: #ed1c24;"/>
  <rect x="209.084" y="91.764" width="8.45" height="10.75" style="fill: #ed1c24;"/>
  <rect x="200.634" y="91.764" width="8.45" height="10.75" style="fill: #ed1c24;"/>
  <rect x="192.184" y="91.764" width="8.45" height="10.75" style="fill: #ed1c24;"/>
  <rect x="183.734" y="91.764" width="8.45" height="10.75" style="fill: #ed1c24;"/>
  <rect x="175.284" y="91.764" width="8.45" height="10.75" style="fill: #ed1c24;"/>
  <rect x="166.834" y="91.764" width="8.45" height="10.75" style="fill: #ed1c24;"/>
  <rect x="158.384" y="91.764" width="8.45" height="10.75" style="fill: #ed1c24;"/>
  <rect x="149.934" y="91.764" width="8.45" height="10.75" style="fill: #ed1c24;"/>
  <rect x="141.484" y="91.764" width="8.45" height="10.75" style="fill: #ed1c24;"/>
  <rect x="133.034" y="91.764" width="8.45" height="10.75" style="fill: #ed1c24;"/>
  <rect x="124.584" y="91.764" width="8.45" height="10.75" style="fill: #ed1c24;"/>
  <rect x="116.134" y="91.764" width="8.45" height="10.75" style="fill: #ed1c24;"/>
  <rect x="107.684" y="91.764" width="8.45" height="10.75" style="fill: #ed1c24;"/>
  <rect x="99.234" y="91.764" width="8.45" height="10.75" style="fill: #ed1c24;"/>
  <rect x="90.784" y="91.764" width="8.45" height="10.75" style="fill: #d3976e;"/>
  <rect x="82.334" y="91.764" width="8.45" height="10.75" style="fill: #d3976e;"/>
  <rect x="217.534" y="81.014" width="8.45" height="10.75" style="fill: #ed1c24;"/>
  <rect x="209.084" y="81.014" width="8.45" height="10.75" style="fill: #ed1c24;"/>
  <rect x="200.634" y="81.014" width="8.45" height="10.75" style="fill: #ed1c24;"/>
  <rect x="192.184" y="81.014" width="8.45" height="10.75" style="fill: #ed1c24;"/>
  <rect x="183.734" y="81.014" width="8.45" height="10.75" style="fill: #ed1c24;"/>
  <rect x="175.284" y="81.014" width="8.45" height="10.75" style="fill: #ed1c24;"/>
  <rect x="166.834" y="81.014" width="8.45" height="10.75" style="fill: #ed1c24;"/>
  <rect x="158.384" y="81.014" width="8.45" height="10.75" style="fill: #ed1c24;"/>
  <rect x="149.934" y="81.014" width="8.45" height="10.75" style="fill: #ed1c24;"/>
  <rect x="141.484" y="81.014" width="8.45" height="10.75" style="fill: #ed1c24;"/>
  <rect x="133.034" y="81.014" width="8.45" height="10.75" style="fill: #ed1c24;"/>
  <rect x="124.584" y="81.014" width="8.45" height="10.75" style="fill: #ed1c24;"/>
  <rect x="116.134" y="81.014" width="8.45" height="10.75" style="fill: #ed1c24;"/>
  <rect x="107.684" y="81.014" width="8.45" height="10.75" style="fill: #ed1c24;"/>
  <rect x="99.234" y="81.014" width="8.45" height="10.75" style="fill: #ed1c24;"/>
  <rect x="90.784" y="81.014" width="8.45" height="10.75" style="fill: #d3976e;"/>
  <rect x="82.334" y="81.014" width="8.45" height="10.75" style="fill: #d3976e;"/>
  <rect x="192.184" y="70.264" width="8.45" height="10.75" style="fill: #ed1c24;"/>
  <rect x="183.734" y="70.264" width="8.45" height="10.75" style="fill: #ed1c24;"/>
  <rect x="175.284" y="70.264" width="8.45" height="10.75" style="fill: #ed1c24;"/>
  <rect x="166.834" y="70.264" width="8.45" height="10.75" style="fill: #ed1c24;"/>
  <rect x="158.384" y="70.264" width="8.45" height="10.75" style="fill: #ed1c24;"/>
  <rect x="149.934" y="70.264" width="8.45" height="10.75" style="fill: #ed1c24;"/>
  <rect x="141.484" y="70.264" width="8.45" height="10.75" style="fill: #ed1c24;"/>
  <rect x="133.034" y="70.264" width="8.45" height="10.75" style="fill: #ed1c24;"/>
  <rect x="124.584" y="70.264" width="8.45" height="10.75" style="fill: #ed1c24;"/>
  <rect x="116.134" y="70.264" width="8.45" height="10.75" style="fill: #ed1c24;"/>
  <rect x="107.684" y="70.264" width="8.45" height="10.75" style="fill: #ed1c24;"/>
  <rect x="99.234" y="70.264" width="8.45" height="10.75" style="fill: #ed1c24;"/>
  <rect x="90.784" y="70.264" width="8.45" height="10.75" style="fill: #d3976e;"/>
  <rect x="82.334" y="70.264" width="8.45" height="10.75" style="fill: #d3976e;"/>
  <rect x="166.834" y="59.514" width="8.45" height="10.75" style="fill: #ed1c24;"/>
  <rect x="158.384" y="59.514" width="8.45" height="10.75" style="fill: #ed1c24;"/>
  <rect x="149.934" y="59.514" width="8.45" height="10.75" style="fill: #ed1c24;"/>
  <rect x="141.484" y="59.514" width="8.45" height="10.75" style="fill: #ed1c24;"/>
  <rect x="133.034" y="59.514" width="8.45" height="10.75" style="fill: #ed1c24;"/>
  <rect x="124.584" y="59.514" width="8.45" height="10.75" style="fill: #ed1c24;"/>
  <rect x="116.134" y="59.514" width="8.45" height="10.75" style="fill: #ed1c24;"/>
  <rect x="107.684" y="59.514" width="8.45" height="10.75" style="fill: #ed1c24;"/>
  <rect x="99.234" y="59.514" width="8.45" height="10.75" style="fill: #ed1c24;"/>
  <rect x="90.784" y="59.514" width="8.45" height="10.75" style="fill: #d3976e;"/>
  <rect x="82.334" y="59.514" width="8.45" height="10.75" style="fill: #d3976e;"/>
  <rect x="141.484" y="48.764" width="8.45" height="10.75" style="fill: #ed1c24;"/>
  <rect x="133.034" y="48.764" width="8.45" height="10.75" style="fill: #ed1c24;"/>
  <rect x="124.584" y="48.764" width="8.45" height="10.75" style="fill: #ed1c24;"/>
  <rect x="116.134" y="48.764" width="8.45" height="10.75" style="fill: #ed1c24;"/>
  <rect x="107.684" y="48.764" width="8.45" height="10.75" style="fill: #ed1c24;"/>
  <rect x="99.234" y="48.764" width="8.45" height="10.75" style="fill: #ed1c24;"/>
  <rect x="90.784" y="48.764" width="8.45" height="10.75" style="fill: #d3976e;"/>
  <rect x="82.334" y="48.764" width="8.45" height="10.75" style="fill: #d3976e;"/>
  <rect x="124.584" y="38.014" width="8.45" height="10.75" style="fill: #ed1c24;"/>
  <rect x="116.134" y="38.014" width="8.45" height="10.75" style="fill: #ed1c24;"/>
  <rect x="107.684" y="38.014" width="8.45" height="10.75" style="fill: #ed1c24;"/>
  <rect x="99.234" y="38.014" width="8.45" height="10.75" style="fill: #ed1c24;"/>
  <rect x="90.784" y="38.014" width="8.45" height="10.75" style="fill: #d3976e;"/>
  <rect x="82.334" y="38.014" width="8.45" height="10.75" style="fill: #d3976e;"/>
  <rect x="99.234" y="27.264" width="8.45" height="10.75" style="fill: #ed1c24;"/>
  <rect x="90.784" y="27.264" width="8.45" height="10.75" style="fill: #d3976e;"/>
  <rect x="82.334" y="27.264" width="8.45" height="10.75" style="fill: #d3976e;"/>
</svg>