<?xml version="1.0" encoding="UTF-8"?>
<svg id="_图层_1" data-name="图层 1" xmlns="http://www.w3.org/2000/svg" viewBox="0 0 322.723 277.787">
  <rect x="244.764" y="221.188" width="13.6" height="9.55" style="fill: #75d6ff;"/>
  <rect x="231.164" y="221.188" width="13.6" height="9.55" style="fill: #75d6ff;"/>
  <rect x="217.564" y="221.188" width="13.6" height="9.55" style="fill: #75d6ff;"/>
  <rect x="203.964" y="221.188" width="13.6" height="9.55" style="fill: #75d6ff;"/>
  <rect x="190.364" y="221.188" width="13.6" height="9.55" style="fill: #75d6ff;"/>
  <rect x="176.764" y="221.188" width="13.6" height="9.55" style="fill: #75d6ff;"/>
  <rect x="163.164" y="221.188" width="13.6" height="9.55" style="fill: #75d6ff;"/>
  <rect x="149.564" y="221.188" width="13.6" height="9.55" style="fill: #75d6ff;"/>
  <rect x="135.964" y="221.188" width="13.6" height="9.55" style="fill: #75d6ff;"/>
  <rect x="122.364" y="221.188" width="13.6" height="9.55" style="fill: #75d6ff;"/>
  <rect x="108.764" y="221.188" width="13.6" height="9.55" style="fill: #75d6ff;"/>
  <rect x="95.164" y="221.188" width="13.6" height="9.55" style="fill: #75d6ff;"/>
  <rect x="81.564" y="221.188" width="13.6" height="9.55" style="fill: #75d6ff;"/>
  <rect x="67.964" y="221.188" width="13.6" height="9.55" style="fill: #75d6ff;"/>
  <rect x="54.364" y="221.188" width="13.6" height="9.55" style="fill: #75d6ff;"/>
  <rect x="258.364" y="211.638" width="13.6" height="9.55" style="fill: #75d6ff;"/>
  <rect x="244.764" y="211.638" width="13.6" height="9.55" style="fill: #75d6ff;"/>
  <rect x="231.164" y="211.638" width="13.6" height="9.55" style="fill: #75d6ff;"/>
  <rect x="217.564" y="211.638" width="13.6" height="9.55" style="fill: #75d6ff;"/>
  <rect x="203.964" y="211.638" width="13.6" height="9.55" style="fill: #75d6ff;"/>
  <rect x="190.364" y="211.638" width="13.6" height="9.55" style="fill: #75d6ff;"/>
  <rect x="176.764" y="211.638" width="13.6" height="9.55" style="fill: #75d6ff;"/>
  <rect x="163.164" y="211.638" width="13.6" height="9.55" style="fill: #75d6ff;"/>
  <rect x="149.564" y="211.638" width="13.6" height="9.55" style="fill: #75d6ff;"/>
  <rect x="135.964" y="211.638" width="13.6" height="9.55" style="fill: #75d6ff;"/>
  <rect x="122.364" y="211.638" width="13.6" height="9.55" style="fill: #75d6ff;"/>
  <rect x="108.764" y="211.638" width="13.6" height="9.55" style="fill: #75d6ff;"/>
  <rect x="95.164" y="211.638" width="13.6" height="9.55" style="fill: #75d6ff;"/>
  <rect x="81.564" y="211.638" width="13.6" height="9.55" style="fill: #75d6ff;"/>
  <rect x="67.964" y="211.638" width="13.6" height="9.55" style="fill: #75d6ff;"/>
  <rect x="54.364" y="211.638" width="13.6" height="9.55" style="fill: #75d6ff;"/>
  <rect x="40.764" y="211.638" width="13.6" height="9.55" style="fill: #75d6ff;"/>
  <rect x="271.964" y="202.088" width="13.6" height="9.55" style="fill: #75d6ff;"/>
  <rect x="258.364" y="202.088" width="13.6" height="9.55" style="fill: #75d6ff;"/>
  <rect x="54.364" y="202.088" width="13.6" height="9.55" style="fill: #8bdcff;"/>
  <rect x="40.764" y="202.088" width="13.6" height="9.55" style="fill: #75d6ff;"/>
  <rect x="271.964" y="192.538" width="13.6" height="9.55" style="fill: #75d6ff;"/>
  <rect x="40.764" y="192.538" width="13.6" height="9.55" style="fill: #75d6ff;"/>
  <rect x="27.164" y="192.538" width="13.6" height="9.55" style="fill: #75d6ff;"/>
  <rect x="285.564" y="182.988" width="13.6" height="9.55" style="fill: #75d6ff;"/>
  <rect x="271.964" y="182.988" width="13.6" height="9.55" style="fill: #75d6ff;"/>
  <rect x="27.164" y="182.988" width="13.6" height="9.55" style="fill: #75d6ff;"/>
  <rect x="285.564" y="173.438" width="13.6" height="9.55" style="fill: #75d6ff;"/>
  <rect x="271.964" y="173.438" width="13.6" height="9.55" style="fill: #d9f3ff;"/>
  <rect x="27.164" y="173.438" width="13.6" height="9.55" style="fill: #75d6ff;"/>
  <rect x="285.564" y="163.888" width="13.6" height="9.55" style="fill: #75d6ff;"/>
  <rect x="27.164" y="163.888" width="13.6" height="9.55" style="fill: #75d6ff;"/>
  <rect x="285.564" y="154.338" width="13.6" height="9.55" style="fill: #75d6ff;"/>
  <rect x="40.764" y="154.338" width="13.6" height="9.55" style="fill: #75d6ff;"/>
  <rect x="27.164" y="154.338" width="13.6" height="9.55" style="fill: #75d6ff;"/>
  <rect x="285.564" y="144.788" width="13.6" height="9.55" style="fill: #75d6ff;"/>
  <rect x="271.964" y="144.788" width="13.6" height="9.55" style="fill: #75d6ff;"/>
  <rect x="40.764" y="144.788" width="13.6" height="9.55" style="fill: #75d6ff;"/>
  <rect x="27.164" y="144.788" width="13.6" height="9.55" style="fill: #75d6ff;"/>
  <rect x="271.964" y="135.238" width="13.6" height="9.55" style="fill: #75d6ff;"/>
  <rect x="81.564" y="135.238" width="13.6" height="9.55" style="fill: #9ce1ff;"/>
  <rect x="67.964" y="135.238" width="13.6" height="9.55" style="fill: #8cdcff;"/>
  <rect x="54.364" y="135.238" width="13.6" height="9.55" style="fill: #75d6ff;"/>
  <rect x="40.764" y="135.238" width="13.6" height="9.55" style="fill: #75d6ff;"/>
  <rect x="271.964" y="125.688" width="13.6" height="9.55" style="fill: #75d6ff;"/>
  <rect x="258.364" y="125.688" width="13.6" height="9.55" style="fill: #75d6ff;"/>
  <rect x="67.964" y="125.688" width="13.6" height="9.55" style="fill: #75d6ff;"/>
  <rect x="54.364" y="125.688" width="13.6" height="9.55" style="fill: #75d6ff;"/>
  <rect x="258.364" y="116.138" width="13.6" height="9.55" style="fill: #75d6ff;"/>
  <rect x="244.764" y="116.138" width="13.6" height="9.55" style="fill: #75d6ff;"/>
  <rect x="231.164" y="116.138" width="13.6" height="9.55" style="fill: #75d6ff;"/>
  <rect x="163.164" y="116.138" width="13.6" height="9.55" style="fill: #75d6ff;"/>
  <rect x="67.964" y="116.138" width="13.6" height="9.55" style="fill: #75d6ff;"/>
  <rect x="54.364" y="116.138" width="13.6" height="9.55" style="fill: #75d6ff;"/>
  <rect x="244.764" y="106.588" width="13.6" height="9.55" style="fill: #75d6ff;"/>
  <rect x="67.964" y="106.588" width="13.6" height="9.55" style="fill: #75d6ff;"/>
  <rect x="54.364" y="106.588" width="13.6" height="9.55" style="fill: #75d6ff;"/>
  <rect x="244.764" y="97.038" width="13.6" height="9.55" style="fill: #75d6ff;"/>
  <rect x="149.564" y="97.038" width="13.6" height="9.55" style="fill: #75d6ff;"/>
  <rect x="81.564" y="97.038" width="13.6" height="9.55" style="fill: #75d6ff;"/>
  <rect x="67.964" y="97.038" width="13.6" height="9.55" style="fill: #75d6ff;"/>
  <rect x="244.764" y="87.488" width="13.6" height="9.55" style="fill: #75d6ff;"/>
  <rect x="135.964" y="87.488" width="13.6" height="9.55" style="fill: #75d6ff;"/>
  <rect x="95.164" y="87.488" width="13.6" height="9.55" style="fill: #75d6ff;"/>
  <rect x="81.564" y="87.488" width="13.6" height="9.55" style="fill: #75d6ff;"/>
  <rect x="67.964" y="87.488" width="13.6" height="9.55" style="fill: #75d6ff;"/>
  <rect x="244.764" y="77.938" width="13.6" height="9.55" style="fill: #75d6ff;"/>
  <rect x="231.164" y="77.938" width="13.6" height="9.55" style="fill: #a2e3ff;"/>
  <rect x="135.964" y="77.938" width="13.6" height="9.55" style="fill: #75d6ff;"/>
  <rect x="122.364" y="77.938" width="13.6" height="9.55" style="fill: #75d6ff;"/>
  <rect x="108.764" y="77.938" width="13.6" height="9.55" style="fill: #75d6ff;"/>
  <rect x="95.164" y="77.938" width="13.6" height="9.55" style="fill: #75d6ff;"/>
  <rect x="81.564" y="77.938" width="13.6" height="9.55" style="fill: #75d6ff;"/>
  <rect x="244.764" y="68.388" width="13.6" height="9.55" style="fill: #75d6ff;"/>
  <rect x="231.164" y="68.388" width="13.6" height="9.55" style="fill: #75d6ff;"/>
  <rect x="149.564" y="68.388" width="13.6" height="9.55" style="fill: #d4f2ff;"/>
  <rect x="135.964" y="68.388" width="13.6" height="9.55" style="fill: #75d6ff;"/>
  <rect x="122.364" y="68.388" width="13.6" height="9.55" style="fill: #75d6ff;"/>
  <rect x="108.764" y="68.388" width="13.6" height="9.55" style="fill: #75d6ff;"/>
  <rect x="231.164" y="58.838" width="13.6" height="9.55" style="fill: #75d6ff;"/>
  <rect x="217.564" y="58.838" width="13.6" height="9.55" style="fill: #75d6ff;"/>
  <rect x="163.164" y="58.838" width="13.6" height="9.55" style="fill: #b5e9ff;"/>
  <rect x="149.564" y="58.838" width="13.6" height="9.55" style="fill: #75d6ff;"/>
  <rect x="135.964" y="58.838" width="13.6" height="9.55" style="fill: #75d6ff;"/>
  <rect x="217.564" y="49.288" width="13.6" height="9.55" style="fill: #75d6ff;"/>
  <rect x="203.964" y="49.288" width="13.6" height="9.55" style="fill: #75d6ff;"/>
  <rect x="190.364" y="49.288" width="13.6" height="9.55" style="fill: #75d6ff;"/>
  <rect x="176.764" y="49.288" width="13.6" height="9.55" style="fill: #75d6ff;"/>
  <rect x="163.164" y="49.288" width="13.6" height="9.55" style="fill: #75d6ff;"/>
  <rect x="149.564" y="49.288" width="13.6" height="9.55" style="fill: #75d6ff;"/>
  <rect x="203.964" y="39.738" width="13.6" height="9.55" style="fill: #75d6ff;"/>
  <rect x="190.364" y="39.738" width="13.6" height="9.55" style="fill: #75d6ff;"/>
  <rect x="176.764" y="39.738" width="13.6" height="9.55" style="fill: #75d6ff;"/>
  <rect x="163.164" y="39.738" width="13.6" height="9.55" style="fill: #7dd8ff;"/>
</svg>