<?xml version="1.0" encoding="UTF-8"?>
<svg id="_图层_1" data-name="图层 1" xmlns="http://www.w3.org/2000/svg" viewBox="0 0 263.489 200.17">
  <rect x="219.051" y="154.564" width="14.267" height="14.667" style="fill: #fff;"/>
  <rect x="204.785" y="154.564" width="14.267" height="14.667" style="fill: #dde8e3;"/>
  <rect x="190.518" y="154.564" width="14.267" height="14.667" style="fill: #fff;"/>
  <rect x="176.251" y="154.564" width="14.267" height="14.667" style="fill: #fff;"/>
  <rect x="161.985" y="154.564" width="14.267" height="14.667" style="fill: #fff;"/>
  <rect x="147.718" y="154.564" width="14.267" height="14.667" style="fill: #fff;"/>
  <rect x="133.451" y="154.564" width="14.267" height="14.667" style="fill: #fff;"/>
  <rect x="119.185" y="154.564" width="14.267" height="14.667" style="fill: #fff;"/>
  <rect x="104.918" y="154.564" width="14.267" height="14.667" style="fill: #dde8e3;"/>
  <rect x="90.651" y="154.564" width="14.267" height="14.667" style="fill: #fff;"/>
  <rect x="76.385" y="154.564" width="14.267" height="14.667" style="fill: #fff;"/>
  <rect x="62.118" y="154.564" width="14.267" height="14.667" style="fill: #fff;"/>
  <rect x="47.851" y="154.564" width="14.267" height="14.667" style="fill: #fff;"/>
  <rect x="33.585" y="154.564" width="14.267" height="14.667" style="fill: #fff;"/>
  <rect x="219.051" y="139.897" width="14.267" height="14.667" style="fill: #dde8e3;"/>
  <rect x="204.785" y="139.897" width="14.267" height="14.667" style="fill: #fff;"/>
  <rect x="190.518" y="139.897" width="14.267" height="14.667" style="fill: #fff;"/>
  <rect x="176.251" y="139.897" width="14.267" height="14.667" style="fill: #fff;"/>
  <rect x="161.985" y="139.897" width="14.267" height="14.667" style="fill: #fff;"/>
  <rect x="147.718" y="139.897" width="14.267" height="14.667" style="fill: #fff;"/>
  <rect x="133.451" y="139.897" width="14.267" height="14.667" style="fill: #fff;"/>
  <rect x="119.185" y="139.897" width="14.267" height="14.667" style="fill: #dde8e3;"/>
  <rect x="104.918" y="139.897" width="14.267" height="14.667" style="fill: #fff;"/>
  <rect x="90.651" y="139.897" width="14.267" height="14.667" style="fill: #fff;"/>
  <rect x="76.385" y="139.897" width="14.267" height="14.667" style="fill: #fff;"/>
  <rect x="62.118" y="139.897" width="14.267" height="14.667" style="fill: #fff;"/>
  <rect x="47.851" y="139.897" width="14.267" height="14.667" style="fill: #fff;"/>
  <rect x="33.585" y="139.897" width="14.267" height="14.667" style="fill: #fff;"/>
  <rect x="219.051" y="125.23" width="14.267" height="14.667" style="fill: #dde8e3;"/>
  <rect x="204.785" y="125.23" width="14.267" height="14.667" style="fill: #fff;"/>
  <rect x="190.518" y="125.23" width="14.267" height="14.667" style="fill: #493b30;"/>
  <rect x="176.251" y="125.23" width="14.267" height="14.667" style="fill: #493b30;"/>
  <rect x="161.985" y="125.23" width="14.267" height="14.667" style="fill: #493b30;"/>
  <rect x="147.718" y="125.23" width="14.267" height="14.667" style="fill: #493b30;"/>
  <rect x="133.451" y="125.23" width="14.267" height="14.667" style="fill: #fff;"/>
  <rect x="119.185" y="125.23" width="14.267" height="14.667" style="fill: #dde8e3;"/>
  <rect x="104.918" y="125.23" width="14.267" height="14.667" style="fill: #fff;"/>
  <rect x="90.651" y="125.23" width="14.267" height="14.667" style="fill: #493b30;"/>
  <rect x="76.385" y="125.23" width="14.267" height="14.667" style="fill: #493b30;"/>
  <rect x="62.118" y="125.23" width="14.267" height="14.667" style="fill: #493b30;"/>
  <rect x="47.851" y="125.23" width="14.267" height="14.667" style="fill: #493b30;"/>
  <rect x="33.585" y="125.23" width="14.267" height="14.667" style="fill: #fff;"/>
  <rect x="219.051" y="110.564" width="14.267" height="14.667" style="fill: #dde8e3;"/>
  <rect x="204.785" y="110.564" width="14.267" height="14.667" style="fill: #fff;"/>
  <rect x="190.518" y="110.564" width="14.267" height="14.667" style="fill: #493b30;"/>
  <rect x="176.251" y="110.564" width="14.267" height="14.667" style="fill: #493b30;"/>
  <rect x="161.985" y="110.564" width="14.267" height="14.667" style="fill: #493b30;"/>
  <rect x="147.718" y="110.564" width="14.267" height="14.667" style="fill: #493b30;"/>
  <rect x="133.451" y="110.564" width="14.267" height="14.667" style="fill: #fff;"/>
  <rect x="119.185" y="110.564" width="14.267" height="14.667" style="fill: #dde8e3;"/>
  <rect x="104.918" y="110.564" width="14.267" height="14.667" style="fill: #fff;"/>
  <rect x="90.651" y="110.564" width="14.267" height="14.667" style="fill: #493b30;"/>
  <rect x="76.385" y="110.564" width="14.267" height="14.667" style="fill: #493b30;"/>
  <rect x="62.118" y="110.564" width="14.267" height="14.667" style="fill: #493b30;"/>
  <rect x="47.851" y="110.564" width="14.267" height="14.667" style="fill: #493b30;"/>
  <rect x="33.585" y="110.564" width="14.267" height="14.667" style="fill: #fbfcfb;"/>
  <rect x="233.318" y="95.897" width="14.267" height="14.667" style="fill: #dde8e3;"/>
  <rect x="219.051" y="95.897" width="14.267" height="14.667" style="fill: #dde8e3;"/>
  <rect x="204.785" y="95.897" width="14.267" height="14.667" style="fill: #fff;"/>
  <rect x="190.518" y="95.897" width="14.267" height="14.667" style="fill: #493b30;"/>
  <rect x="176.251" y="95.897" width="14.267" height="14.667" style="fill: #493b30;"/>
  <rect x="161.985" y="95.897" width="14.267" height="14.667" style="fill: #493b30;"/>
  <rect x="147.718" y="95.897" width="14.267" height="14.667" style="fill: #493b30;"/>
  <rect x="133.451" y="95.897" width="14.267" height="14.667" style="fill: #dde8e3;"/>
  <rect x="119.185" y="95.897" width="14.267" height="14.667" style="fill: #dde8e3;"/>
  <rect x="104.918" y="95.897" width="14.267" height="14.667" style="fill: #fff;"/>
  <rect x="90.651" y="95.897" width="14.267" height="14.667" style="fill: #493b30;"/>
  <rect x="76.385" y="95.897" width="14.267" height="14.667" style="fill: #493b30;"/>
  <rect x="62.118" y="95.897" width="14.267" height="14.667" style="fill: #493b30;"/>
  <rect x="47.851" y="95.897" width="14.267" height="14.667" style="fill: #493b30;"/>
  <rect x="33.585" y="95.897" width="14.267" height="14.667" style="fill: #dde8e3;"/>
  <rect x="219.051" y="81.23" width="14.267" height="14.667" style="fill: #dde8e3;"/>
  <rect x="204.785" y="81.23" width="14.267" height="14.667" style="fill: #fff;"/>
  <rect x="190.518" y="81.23" width="14.267" height="14.667" style="fill: #493b30;"/>
  <rect x="176.251" y="81.23" width="14.267" height="14.667" style="fill: #493b30;"/>
  <rect x="161.985" y="81.23" width="14.267" height="14.667" style="fill: #493b30;"/>
  <rect x="147.718" y="81.23" width="14.267" height="14.667" style="fill: #493b30;"/>
  <rect x="133.451" y="81.23" width="14.267" height="14.667" style="fill: #fff;"/>
  <rect x="119.185" y="81.23" width="14.267" height="14.667" style="fill: #dde8e3;"/>
  <rect x="104.918" y="81.23" width="14.267" height="14.667" style="fill: #fff;"/>
  <rect x="90.651" y="81.23" width="14.267" height="14.667" style="fill: #493b30;"/>
  <rect x="76.385" y="81.23" width="14.267" height="14.667" style="fill: #493b30;"/>
  <rect x="62.118" y="81.23" width="14.267" height="14.667" style="fill: #493b30;"/>
  <rect x="47.851" y="81.23" width="14.267" height="14.667" style="fill: #493b30;"/>
  <rect x="33.585" y="81.23" width="14.267" height="14.667" style="fill: #fff;"/>
  <rect x="219.051" y="66.564" width="14.267" height="14.667" style="fill: #dde8e3;"/>
  <rect x="204.785" y="66.564" width="14.267" height="14.667" style="fill: #fff;"/>
  <rect x="190.518" y="66.564" width="14.267" height="14.667" style="fill: #fff;"/>
  <rect x="176.251" y="66.564" width="14.267" height="14.667" style="fill: #493b30;"/>
  <rect x="161.985" y="66.564" width="14.267" height="14.667" style="fill: #493b30;"/>
  <rect x="147.718" y="66.564" width="14.267" height="14.667" style="fill: #fff;"/>
  <rect x="133.451" y="66.564" width="14.267" height="14.667" style="fill: #fff;"/>
  <rect x="119.185" y="66.564" width="14.267" height="14.667" style="fill: #dde8e3;"/>
  <rect x="104.918" y="66.564" width="14.267" height="14.667" style="fill: #fff;"/>
  <rect x="90.651" y="66.564" width="14.267" height="14.667" style="fill: #fff;"/>
  <rect x="76.385" y="66.564" width="14.267" height="14.667" style="fill: #493b30;"/>
  <rect x="62.118" y="66.564" width="14.267" height="14.667" style="fill: #493b30;"/>
  <rect x="47.851" y="66.564" width="14.267" height="14.667" style="fill: #fff;"/>
  <rect x="33.585" y="66.564" width="14.267" height="14.667" style="fill: #fff;"/>
  <rect x="219.051" y="51.897" width="14.267" height="14.667" style="fill: #dde8e3;"/>
  <rect x="204.785" y="51.897" width="14.267" height="14.667" style="fill: #eaf0ed;"/>
  <rect x="190.518" y="51.897" width="14.267" height="14.667" style="fill: #fff;"/>
  <rect x="176.251" y="51.897" width="14.267" height="14.667" style="fill: #fff;"/>
  <rect x="161.985" y="51.897" width="14.267" height="14.667" style="fill: #fff;"/>
  <rect x="147.718" y="51.897" width="14.267" height="14.667" style="fill: #ebf1ee;"/>
  <rect x="133.451" y="51.897" width="14.267" height="14.667" style="fill: #fff;"/>
  <rect x="119.185" y="51.897" width="14.267" height="14.667" style="fill: #dde8e3;"/>
  <rect x="104.918" y="51.897" width="14.267" height="14.667" style="fill: #dee8e4;"/>
  <rect x="90.651" y="51.897" width="14.267" height="14.667" style="fill: #fff;"/>
  <rect x="76.385" y="51.897" width="14.267" height="14.667" style="fill: #fff;"/>
  <rect x="62.118" y="51.897" width="14.267" height="14.667" style="fill: #fff;"/>
  <rect x="47.851" y="51.897" width="14.267" height="14.667" style="fill: #fafbfb;"/>
  <rect x="33.585" y="51.897" width="14.267" height="14.667" style="fill: #fff;"/>
  <rect x="204.785" y="37.23" width="14.267" height="14.667" style="fill: #dde8e3;"/>
  <rect x="190.518" y="37.23" width="14.267" height="14.667" style="fill: #dde8e3;"/>
  <rect x="176.251" y="37.23" width="14.267" height="14.667" style="fill: #fff;"/>
  <rect x="161.985" y="37.23" width="14.267" height="14.667" style="fill: #dde8e3;"/>
  <rect x="147.718" y="37.23" width="14.267" height="14.667" style="fill: #fff;"/>
  <rect x="133.451" y="37.23" width="14.267" height="14.667" style="fill: #fff;"/>
  <rect x="119.185" y="37.23" width="14.267" height="14.667" style="fill: #fff;"/>
  <rect x="104.918" y="37.23" width="14.267" height="14.667" style="fill: #dde8e3;"/>
  <rect x="90.651" y="37.23" width="14.267" height="14.667" style="fill: #dde8e3;"/>
  <rect x="76.385" y="37.23" width="14.267" height="14.667" style="fill: #fff;"/>
  <rect x="62.118" y="37.23" width="14.267" height="14.667" style="fill: #e0eae5;"/>
  <rect x="47.851" y="37.23" width="14.267" height="14.667" style="fill: #fff;"/>
  <rect x="33.585" y="37.23" width="14.267" height="14.667" style="fill: #fff;"/>
</svg>