<?xml version="1.0" encoding="UTF-8"?>
<svg id="_图层_1" data-name="图层 1" xmlns="http://www.w3.org/2000/svg" viewBox="0 0 271.66 267.574">
  <rect x="207.383" y="227.5" width="10.138" height="10.138" style="fill: #428bc1;"/>
  <rect x="146.557" y="227.5" width="10.138" height="10.138" style="fill: #428bc1;"/>
  <rect x="136.419" y="227.5" width="10.138" height="10.138" style="fill: #428bc1;"/>
  <rect x="126.281" y="227.5" width="10.138" height="10.138" style="fill: #428bc1;"/>
  <rect x="116.143" y="227.5" width="10.138" height="10.138" style="fill: #428bc1;"/>
  <rect x="65.454" y="227.5" width="10.138" height="10.138" style="fill: #7fb0d5;"/>
  <rect x="55.317" y="227.5" width="10.138" height="10.138" style="fill: #428bc1;"/>
  <rect x="207.383" y="217.362" width="10.138" height="10.138" style="fill: #428bc1;"/>
  <rect x="197.245" y="217.362" width="10.138" height="10.138" style="fill: #428bc1;"/>
  <rect x="176.97" y="217.362" width="10.138" height="10.138" style="fill: #dce9f3;"/>
  <rect x="166.832" y="217.362" width="10.138" height="10.138" style="fill: #428bc1;"/>
  <rect x="156.694" y="217.362" width="10.138" height="10.138" style="fill: #428bc1;"/>
  <rect x="146.557" y="217.362" width="10.138" height="10.138" style="fill: #428bc1;"/>
  <rect x="136.419" y="217.362" width="10.138" height="10.138" style="fill: #428bc1;"/>
  <rect x="126.281" y="217.362" width="10.138" height="10.138" style="fill: #428bc1;"/>
  <rect x="116.143" y="217.362" width="10.138" height="10.138" style="fill: #428bc1;"/>
  <rect x="106.006" y="217.362" width="10.138" height="10.138" style="fill: #428bc1;"/>
  <rect x="95.868" y="217.362" width="10.138" height="10.138" style="fill: #428bc1;"/>
  <rect x="65.454" y="217.362" width="10.138" height="10.138" style="fill: #428bc1;"/>
  <rect x="197.245" y="207.225" width="10.138" height="10.138" style="fill: #428bc1;"/>
  <rect x="187.108" y="207.225" width="10.138" height="10.138" style="fill: #428bc1;"/>
  <rect x="176.97" y="207.225" width="10.138" height="10.138" style="fill: #428bc1;"/>
  <rect x="166.832" y="207.225" width="10.138" height="10.138" style="fill: #428bc1;"/>
  <rect x="156.694" y="207.225" width="10.138" height="10.138" style="fill: #428bc1;"/>
  <rect x="106.006" y="207.225" width="10.138" height="10.138" style="fill: #428bc1;"/>
  <rect x="95.868" y="207.225" width="10.138" height="10.138" style="fill: #428bc1;"/>
  <rect x="85.73" y="207.225" width="10.138" height="10.138" style="fill: #428bc1;"/>
  <rect x="75.592" y="207.225" width="10.138" height="10.138" style="fill: #4c91c4;"/>
  <rect x="65.454" y="207.225" width="10.138" height="10.138" style="fill: #428bc1;"/>
  <rect x="197.245" y="197.087" width="10.138" height="10.138" style="fill: #428bc1;"/>
  <rect x="187.108" y="197.087" width="10.138" height="10.138" style="fill: #428bc1;"/>
  <rect x="176.97" y="197.087" width="10.138" height="10.138" style="fill: #428bc1;"/>
  <rect x="85.73" y="197.087" width="10.138" height="10.138" style="fill: #428bc1;"/>
  <rect x="75.592" y="197.087" width="10.138" height="10.138" style="fill: #428bc1;"/>
  <rect x="65.454" y="197.087" width="10.138" height="10.138" style="fill: #428bc1;"/>
  <rect x="197.245" y="186.949" width="10.138" height="10.138" style="fill: #428bc1;"/>
  <rect x="187.108" y="186.949" width="10.138" height="10.138" style="fill: #428bc1;"/>
  <rect x="75.592" y="186.949" width="10.138" height="10.138" style="fill: #428bc1;"/>
  <rect x="65.454" y="186.949" width="10.138" height="10.138" style="fill: #428bc1;"/>
  <rect x="207.383" y="176.811" width="10.138" height="10.138" style="fill: #428bc1;"/>
  <rect x="197.245" y="176.811" width="10.138" height="10.138" style="fill: #428bc1;"/>
  <rect x="106.006" y="176.811" width="10.138" height="10.138" style="fill: #fdebed;"/>
  <rect x="65.454" y="176.811" width="10.138" height="10.138" style="fill: #428bc1;"/>
  <rect x="55.317" y="176.811" width="10.138" height="10.138" style="fill: #428bc1;"/>
  <rect x="207.383" y="166.673" width="10.138" height="10.138" style="fill: #428bc1;"/>
  <rect x="197.245" y="166.673" width="10.138" height="10.138" style="fill: #428bc1;"/>
  <rect x="116.143" y="166.673" width="10.138" height="10.138" style="fill: #fdf0f1;"/>
  <rect x="65.454" y="166.673" width="10.138" height="10.138" style="fill: #428bc1;"/>
  <rect x="55.317" y="166.673" width="10.138" height="10.138" style="fill: #428bc1;"/>
  <rect x="207.383" y="156.536" width="10.138" height="10.138" style="fill: #428bc1;"/>
  <rect x="197.245" y="156.536" width="10.138" height="10.138" style="fill: #93bddb;"/>
  <rect x="136.419" y="156.536" width="10.138" height="10.138" style="fill: #b4d1e6;"/>
  <rect x="126.281" y="156.536" width="10.138" height="10.138" style="fill: #fdf7f8;"/>
  <rect x="65.454" y="156.536" width="10.138" height="10.138" style="fill: #428bc1;"/>
  <rect x="55.317" y="156.536" width="10.138" height="10.138" style="fill: #428bc1;"/>
  <rect x="207.383" y="146.398" width="10.138" height="10.138" style="fill: #428bc1;"/>
  <rect x="197.245" y="146.398" width="10.138" height="10.138" style="fill: #fff;"/>
  <rect x="156.694" y="146.398" width="10.138" height="10.138" style="fill: #428bc1;"/>
  <rect x="146.557" y="146.398" width="10.138" height="10.138" style="fill: #428bc1;"/>
  <rect x="136.419" y="146.398" width="10.138" height="10.138" style="fill: #428bc1;"/>
  <rect x="126.281" y="146.398" width="10.138" height="10.138" style="fill: #428bc1;"/>
  <rect x="65.454" y="146.398" width="10.138" height="10.138" style="fill: #428bc1;"/>
  <rect x="55.317" y="146.398" width="10.138" height="10.138" style="fill: #428bc1;"/>
  <rect x="207.383" y="136.26" width="10.138" height="10.138" style="fill: #428bc1;"/>
  <rect x="197.245" y="136.26" width="10.138" height="10.138" style="fill: #ebf3f8;"/>
  <rect x="136.419" y="136.26" width="10.138" height="10.138" style="fill: #428bc1;"/>
  <rect x="126.281" y="136.26" width="10.138" height="10.138" style="fill: #428bc1;"/>
  <rect x="65.454" y="136.26" width="10.138" height="10.138" style="fill: #428bc1;"/>
  <rect x="55.317" y="136.26" width="10.138" height="10.138" style="fill: #428bc1;"/>
  <rect x="207.383" y="126.122" width="10.138" height="10.138" style="fill: #428bc1;"/>
  <rect x="197.245" y="126.122" width="10.138" height="10.138" style="fill: #428bc1;"/>
  <rect x="136.419" y="126.122" width="10.138" height="10.138" style="fill: #428bc1;"/>
  <rect x="126.281" y="126.122" width="10.138" height="10.138" style="fill: #65a0cc;"/>
  <rect x="65.454" y="126.122" width="10.138" height="10.138" style="fill: #428bc1;"/>
  <rect x="55.317" y="126.122" width="10.138" height="10.138" style="fill: #428bc1;"/>
  <rect x="207.383" y="115.985" width="10.138" height="10.138" style="fill: #428bc1;"/>
  <rect x="197.245" y="115.985" width="10.138" height="10.138" style="fill: #428bc1;"/>
  <rect x="136.419" y="115.985" width="10.138" height="10.138" style="fill: #428bc1;"/>
  <rect x="126.281" y="115.985" width="10.138" height="10.138" style="fill: #65a0cc;"/>
  <rect x="65.454" y="115.985" width="10.138" height="10.138" style="fill: #428bc1;"/>
  <rect x="55.317" y="115.985" width="10.138" height="10.138" style="fill: #428bc1;"/>
  <rect x="207.383" y="105.847" width="10.138" height="10.138" style="fill: #5496c7;"/>
  <rect x="197.245" y="105.847" width="10.138" height="10.138" style="fill: #428bc1;"/>
  <rect x="187.108" y="105.847" width="10.138" height="10.138" style="fill: #428bc1;"/>
  <rect x="136.419" y="105.847" width="10.138" height="10.138" style="fill: #428bc1;"/>
  <rect x="126.281" y="105.847" width="10.138" height="10.138" style="fill: #65a0cc;"/>
  <rect x="75.592" y="105.847" width="10.138" height="10.138" style="fill: #428bc1;"/>
  <rect x="65.454" y="105.847" width="10.138" height="10.138" style="fill: #428bc1;"/>
  <rect x="217.521" y="95.709" width="10.138" height="10.138" style="fill: #b0b8b8;"/>
  <rect x="197.245" y="95.709" width="10.138" height="10.138" style="fill: #428bc1;"/>
  <rect x="187.108" y="95.709" width="10.138" height="10.138" style="fill: #428bc1;"/>
  <rect x="176.97" y="95.709" width="10.138" height="10.138" style="fill: #a8c9e2;"/>
  <rect x="85.73" y="95.709" width="10.138" height="10.138" style="fill: #428bc1;"/>
  <rect x="75.592" y="95.709" width="10.138" height="10.138" style="fill: #428bc1;"/>
  <rect x="65.454" y="95.709" width="10.138" height="10.138" style="fill: #428bc1;"/>
  <rect x="45.179" y="95.709" width="10.138" height="10.138" style="fill: #b0b8b8;"/>
  <rect x="227.659" y="85.571" width="10.138" height="10.138" style="fill: #b0b8b8;"/>
  <rect x="217.521" y="85.571" width="10.138" height="10.138" style="fill: #b0b8b8;"/>
  <rect x="207.383" y="85.571" width="10.138" height="10.138" style="fill: #b0b8b8;"/>
  <rect x="187.108" y="85.571" width="10.138" height="10.138" style="fill: #428bc1;"/>
  <rect x="176.97" y="85.571" width="10.138" height="10.138" style="fill: #428bc1;"/>
  <rect x="166.832" y="85.571" width="10.138" height="10.138" style="fill: #428bc1;"/>
  <rect x="95.868" y="85.571" width="10.138" height="10.138" style="fill: #428bc1;"/>
  <rect x="85.73" y="85.571" width="10.138" height="10.138" style="fill: #428bc1;"/>
  <rect x="75.592" y="85.571" width="10.138" height="10.138" style="fill: #428bc1;"/>
  <rect x="55.317" y="85.571" width="10.138" height="10.138" style="fill: #b0b8b8;"/>
  <rect x="45.179" y="85.571" width="10.138" height="10.138" style="fill: #b0b8b8;"/>
  <rect x="35.041" y="85.571" width="10.138" height="10.138" style="fill: #b0b8b8;"/>
  <rect x="227.659" y="75.434" width="10.138" height="10.138" style="fill: #b0b8b8;"/>
  <rect x="217.521" y="75.434" width="10.138" height="10.138" style="fill: #b0b8b8;"/>
  <rect x="207.383" y="75.434" width="10.138" height="10.138" style="fill: #b0b8b8;"/>
  <rect x="197.245" y="75.434" width="10.138" height="10.138" style="fill: #b0b8b8;"/>
  <rect x="187.108" y="75.434" width="10.138" height="10.138" style="fill: #428bc1;"/>
  <rect x="176.97" y="75.434" width="10.138" height="10.138" style="fill: #428bc1;"/>
  <rect x="166.832" y="75.434" width="10.138" height="10.138" style="fill: #428bc1;"/>
  <rect x="156.694" y="75.434" width="10.138" height="10.138" style="fill: #428bc1;"/>
  <rect x="146.557" y="75.434" width="10.138" height="10.138" style="fill: #428bc1;"/>
  <rect x="136.419" y="75.434" width="10.138" height="10.138" style="fill: #428bc1;"/>
  <rect x="126.281" y="75.434" width="10.138" height="10.138" style="fill: #428bc1;"/>
  <rect x="116.143" y="75.434" width="10.138" height="10.138" style="fill: #428bc1;"/>
  <rect x="106.006" y="75.434" width="10.138" height="10.138" style="fill: #428bc1;"/>
  <rect x="95.868" y="75.434" width="10.138" height="10.138" style="fill: #428bc1;"/>
  <rect x="85.73" y="75.434" width="10.138" height="10.138" style="fill: #428bc1;"/>
  <rect x="75.592" y="75.434" width="10.138" height="10.138" style="fill: #428bc1;"/>
  <rect x="65.454" y="75.434" width="10.138" height="10.138" style="fill: #b0b8b8;"/>
  <rect x="55.317" y="75.434" width="10.138" height="10.138" style="fill: #b0b8b8;"/>
  <rect x="45.179" y="75.434" width="10.138" height="10.138" style="fill: #b0b8b8;"/>
  <rect x="35.041" y="75.434" width="10.138" height="10.138" style="fill: #b0b8b8;"/>
  <rect x="227.659" y="65.296" width="10.138" height="10.138" style="fill: #b0b8b8;"/>
  <rect x="217.521" y="65.296" width="10.138" height="10.138" style="fill: #b0b8b8;"/>
  <rect x="207.383" y="65.296" width="10.138" height="10.138" style="fill: #b0b8b8;"/>
  <rect x="197.245" y="65.296" width="10.138" height="10.138" style="fill: #b0b8b8;"/>
  <rect x="187.108" y="65.296" width="10.138" height="10.138" style="fill: #b0b8b8;"/>
  <rect x="156.694" y="65.296" width="10.138" height="10.138" style="fill: #428bc1;"/>
  <rect x="146.557" y="65.296" width="10.138" height="10.138" style="fill: #428bc1;"/>
  <rect x="136.419" y="65.296" width="10.138" height="10.138" style="fill: #428bc1;"/>
  <rect x="126.281" y="65.296" width="10.138" height="10.138" style="fill: #428bc1;"/>
  <rect x="116.143" y="65.296" width="10.138" height="10.138" style="fill: #428bc1;"/>
  <rect x="106.006" y="65.296" width="10.138" height="10.138" style="fill: #428bc1;"/>
  <rect x="75.592" y="65.296" width="10.138" height="10.138" style="fill: #b0b8b8;"/>
  <rect x="65.454" y="65.296" width="10.138" height="10.138" style="fill: #b0b8b8;"/>
  <rect x="55.317" y="65.296" width="10.138" height="10.138" style="fill: #b0b8b8;"/>
  <rect x="45.179" y="65.296" width="10.138" height="10.138" style="fill: #b0b8b8;"/>
  <rect x="35.041" y="65.296" width="10.138" height="10.138" style="fill: #b0b8b8;"/>
  <rect x="227.659" y="55.158" width="10.138" height="10.138" style="fill: #b0b8b8;"/>
  <rect x="217.521" y="55.158" width="10.138" height="10.138" style="fill: #b0b8b8;"/>
  <rect x="207.383" y="55.158" width="10.138" height="10.138" style="fill: #b0b8b8;"/>
  <rect x="197.245" y="55.158" width="10.138" height="10.138" style="fill: #b0b8b8;"/>
  <rect x="187.108" y="55.158" width="10.138" height="10.138" style="fill: #b0b8b8;"/>
  <rect x="176.97" y="55.158" width="10.138" height="10.138" style="fill: #b0b8b8;"/>
  <rect x="85.73" y="55.158" width="10.138" height="10.138" style="fill: #b0b8b8;"/>
  <rect x="75.592" y="55.158" width="10.138" height="10.138" style="fill: #b0b8b8;"/>
  <rect x="65.454" y="55.158" width="10.138" height="10.138" style="fill: #b0b8b8;"/>
  <rect x="55.317" y="55.158" width="10.138" height="10.138" style="fill: #b0b8b8;"/>
  <rect x="45.179" y="55.158" width="10.138" height="10.138" style="fill: #b0b8b8;"/>
  <rect x="35.041" y="55.158" width="10.138" height="10.138" style="fill: #c7cccc;"/>
  <rect x="217.521" y="45.02" width="10.138" height="10.138" style="fill: #b0b8b8;"/>
  <rect x="207.383" y="45.02" width="10.138" height="10.138" style="fill: #b0b8b8;"/>
  <rect x="197.245" y="45.02" width="10.138" height="10.138" style="fill: #b0b8b8;"/>
  <rect x="187.108" y="45.02" width="10.138" height="10.138" style="fill: #b0b8b8;"/>
  <rect x="176.97" y="45.02" width="10.138" height="10.138" style="fill: #b0b8b8;"/>
  <rect x="166.832" y="45.02" width="10.138" height="10.138" style="fill: #b0b8b8;"/>
  <rect x="95.868" y="45.02" width="10.138" height="10.138" style="fill: #b0b8b8;"/>
  <rect x="85.73" y="45.02" width="10.138" height="10.138" style="fill: #b0b8b8;"/>
  <rect x="75.592" y="45.02" width="10.138" height="10.138" style="fill: #b0b8b8;"/>
  <rect x="65.454" y="45.02" width="10.138" height="10.138" style="fill: #b0b8b8;"/>
  <rect x="55.317" y="45.02" width="10.138" height="10.138" style="fill: #b0b8b8;"/>
  <rect x="45.179" y="45.02" width="10.138" height="10.138" style="fill: #b0b8b8;"/>
  <rect x="207.383" y="34.883" width="10.138" height="10.138" style="fill: #b5bdbd;"/>
  <rect x="197.245" y="34.883" width="10.138" height="10.138" style="fill: #b0b8b8;"/>
  <rect x="187.108" y="34.883" width="10.138" height="10.138" style="fill: #b0b8b8;"/>
  <rect x="176.97" y="34.883" width="10.138" height="10.138" style="fill: #b0b8b8;"/>
  <rect x="85.73" y="34.883" width="10.138" height="10.138" style="fill: #b0b8b8;"/>
  <rect x="75.592" y="34.883" width="10.138" height="10.138" style="fill: #b0b8b8;"/>
  <rect x="65.454" y="34.883" width="10.138" height="10.138" style="fill: #b0b8b8;"/>
  <rect x="55.317" y="34.883" width="10.138" height="10.138" style="fill: #c1c7c7;"/>
</svg>