<?xml version="1.0" encoding="UTF-8"?>
<svg id="_图层_1" data-name="图层 1" xmlns="http://www.w3.org/2000/svg" viewBox="0 0 281.872 277.787">
  <rect x="136.716" y="244.135" width="11.8" height="12.15" style="fill: #75a843;"/>
  <rect x="124.916" y="244.135" width="11.8" height="12.15" style="fill: #75a843;"/>
  <rect x="136.716" y="231.985" width="11.8" height="12.15" style="fill: #75a843;"/>
  <rect x="124.916" y="231.985" width="11.8" height="12.15" style="fill: #75a843;"/>
  <rect x="136.716" y="219.835" width="11.8" height="12.15" style="fill: #75a843;"/>
  <rect x="124.916" y="219.835" width="11.8" height="12.15" style="fill: #a8c888;"/>
  <rect x="136.716" y="207.685" width="11.8" height="12.15" style="fill: #75a843;"/>
  <rect x="136.716" y="195.535" width="11.8" height="12.15" style="fill: #75a843;"/>
  <rect x="136.716" y="183.385" width="11.8" height="12.15" style="fill: #75a843;"/>
  <rect x="136.716" y="171.235" width="11.8" height="12.15" style="fill: #75a843;"/>
  <rect x="136.716" y="159.085" width="11.8" height="12.15" style="fill: #75a843;"/>
  <rect x="231.116" y="146.935" width="11.8" height="12.15" style="fill: #e9f3df;"/>
  <rect x="219.316" y="146.935" width="11.8" height="12.15" style="fill: #83bf4f;"/>
  <rect x="207.516" y="146.935" width="11.8" height="12.15" style="fill: #83bf4f;"/>
  <rect x="195.716" y="146.935" width="11.8" height="12.15" style="fill: #83bf4f;"/>
  <rect x="183.916" y="146.935" width="11.8" height="12.15" style="fill: #83bf4f;"/>
  <rect x="160.316" y="146.935" width="11.8" height="12.15" style="fill: #75a843;"/>
  <rect x="148.516" y="146.935" width="11.8" height="12.15" style="fill: #75a843;"/>
  <rect x="136.716" y="146.935" width="11.8" height="12.15" style="fill: #75a843;"/>
  <rect x="242.916" y="134.785" width="11.8" height="12.15" style="fill: #83bf4f;"/>
  <rect x="231.116" y="134.785" width="11.8" height="12.15" style="fill: #83bf4f;"/>
  <rect x="219.316" y="134.785" width="11.8" height="12.15" style="fill: #83bf4f;"/>
  <rect x="207.516" y="134.785" width="11.8" height="12.15" style="fill: #83bf4f;"/>
  <rect x="195.716" y="134.785" width="11.8" height="12.15" style="fill: #83bf4f;"/>
  <rect x="183.916" y="134.785" width="11.8" height="12.15" style="fill: #83bf4f;"/>
  <rect x="172.116" y="134.785" width="11.8" height="12.15" style="fill: #83bf4f;"/>
  <rect x="160.316" y="134.785" width="11.8" height="12.15" style="fill: #75a843;"/>
  <rect x="136.716" y="134.785" width="11.8" height="12.15" style="fill: #75a843;"/>
  <rect x="124.916" y="134.785" width="11.8" height="12.15" style="fill: #75a843;"/>
  <rect x="242.916" y="122.635" width="11.8" height="12.15" style="fill: #83bf4f;"/>
  <rect x="231.116" y="122.635" width="11.8" height="12.15" style="fill: #75a943;"/>
  <rect x="219.316" y="122.635" width="11.8" height="12.15" style="fill: #75a843;"/>
  <rect x="207.516" y="122.635" width="11.8" height="12.15" style="fill: #75a843;"/>
  <rect x="195.716" y="122.635" width="11.8" height="12.15" style="fill: #75a843;"/>
  <rect x="183.916" y="122.635" width="11.8" height="12.15" style="fill: #76aa44;"/>
  <rect x="172.116" y="122.635" width="11.8" height="12.15" style="fill: #83bf4f;"/>
  <rect x="136.716" y="122.635" width="11.8" height="12.15" style="fill: #75a843;"/>
  <rect x="124.916" y="122.635" width="11.8" height="12.15" style="fill: #75a843;"/>
  <rect x="231.116" y="110.485" width="11.8" height="12.15" style="fill: #bbdc9f;"/>
  <rect x="219.316" y="110.485" width="11.8" height="12.15" style="fill: #83bf4f;"/>
  <rect x="207.516" y="110.485" width="11.8" height="12.15" style="fill: #83bf4f;"/>
  <rect x="195.716" y="110.485" width="11.8" height="12.15" style="fill: #83bf4f;"/>
  <rect x="183.916" y="110.485" width="11.8" height="12.15" style="fill: #83bf4f;"/>
  <rect x="124.916" y="110.485" width="11.8" height="12.15" style="fill: #83bf4f;"/>
  <rect x="113.116" y="110.485" width="11.8" height="12.15" style="fill: #75a843;"/>
  <rect x="113.116" y="98.335" width="11.8" height="12.15" style="fill: #75a843;"/>
  <rect x="113.116" y="86.185" width="11.8" height="12.15" style="fill: #75a843;"/>
  <rect x="101.316" y="86.185" width="11.8" height="12.15" style="fill: #75a843;"/>
  <rect x="89.516" y="86.185" width="11.8" height="12.15" style="fill: #83bf4f;"/>
  <rect x="77.716" y="86.185" width="11.8" height="12.15" style="fill: #83bf4f;"/>
  <rect x="65.916" y="86.185" width="11.8" height="12.15" style="fill: #83bf4f;"/>
  <rect x="54.116" y="86.185" width="11.8" height="12.15" style="fill: #deeed0;"/>
  <rect x="101.316" y="74.035" width="11.8" height="12.15" style="fill: #83bf4f;"/>
  <rect x="89.516" y="74.035" width="11.8" height="12.15" style="fill: #75a843;"/>
  <rect x="77.716" y="74.035" width="11.8" height="12.15" style="fill: #83bf4f;"/>
  <rect x="65.916" y="74.035" width="11.8" height="12.15" style="fill: #83bf4f;"/>
  <rect x="54.116" y="74.035" width="11.8" height="12.15" style="fill: #83bf4f;"/>
  <rect x="101.316" y="61.885" width="11.8" height="12.15" style="fill: #83bf4f;"/>
  <rect x="89.516" y="61.885" width="11.8" height="12.15" style="fill: #83bf4f;"/>
  <rect x="77.716" y="61.885" width="11.8" height="12.15" style="fill: #75a843;"/>
  <rect x="65.916" y="61.885" width="11.8" height="12.15" style="fill: #83bf4f;"/>
  <rect x="54.116" y="61.885" width="11.8" height="12.15" style="fill: #83bf4f;"/>
  <rect x="42.316" y="61.885" width="11.8" height="12.15" style="fill: #83bf4f;"/>
  <rect x="89.516" y="49.735" width="11.8" height="12.15" style="fill: #83bf4f;"/>
  <rect x="77.716" y="49.735" width="11.8" height="12.15" style="fill: #83bf4f;"/>
  <rect x="65.916" y="49.735" width="11.8" height="12.15" style="fill: #7cb349;"/>
  <rect x="54.116" y="49.735" width="11.8" height="12.15" style="fill: #83bf4f;"/>
  <rect x="42.316" y="49.735" width="11.8" height="12.15" style="fill: #83bf4f;"/>
  <rect x="89.516" y="37.585" width="11.8" height="12.15" style="fill: #aad386;"/>
  <rect x="77.716" y="37.585" width="11.8" height="12.15" style="fill: #83bf4f;"/>
  <rect x="65.916" y="37.585" width="11.8" height="12.15" style="fill: #83bf4f;"/>
  <rect x="54.116" y="37.585" width="11.8" height="12.15" style="fill: #75a843;"/>
  <rect x="42.316" y="37.585" width="11.8" height="12.15" style="fill: #83bf4f;"/>
  <rect x="54.116" y="25.435" width="11.8" height="12.15" style="fill: #83bf4f;"/>
  <rect x="42.316" y="25.435" width="11.8" height="12.15" style="fill: #83bf4f;"/>
  <rect x="30.516" y="25.435" width="11.8" height="12.15" style="fill: #83bf4f;"/>
</svg>