<?xml version="1.0" encoding="UTF-8"?>
<svg id="_图层_1" data-name="图层 1" xmlns="http://www.w3.org/2000/svg" viewBox="0 0 314.553 271.66">
  <rect x="219.766" y="248.564" width="11.45" height="11.45" style="fill: #c94747;"/>
  <rect x="93.816" y="248.564" width="11.45" height="11.45" style="fill: #c94747;"/>
  <rect x="219.766" y="237.114" width="11.45" height="11.45" style="fill: #c94747;"/>
  <rect x="93.816" y="237.114" width="11.45" height="11.45" style="fill: #c94747;"/>
  <rect x="219.766" y="225.664" width="11.45" height="11.45" style="fill: #c94747;"/>
  <rect x="208.316" y="225.664" width="11.45" height="11.45" style="fill: #c94747;"/>
  <rect x="105.266" y="225.664" width="11.45" height="11.45" style="fill: #c94747;"/>
  <rect x="93.816" y="225.664" width="11.45" height="11.45" style="fill: #c94747;"/>
  <rect x="219.766" y="214.214" width="11.45" height="11.45" style="fill: #c94747;"/>
  <rect x="208.316" y="214.214" width="11.45" height="11.45" style="fill: #c94747;"/>
  <rect x="105.266" y="214.214" width="11.45" height="11.45" style="fill: #c94747;"/>
  <rect x="93.816" y="214.214" width="11.45" height="11.45" style="fill: #c94747;"/>
  <rect x="219.766" y="202.764" width="11.45" height="11.45" style="fill: #c94747;"/>
  <rect x="208.316" y="202.764" width="11.45" height="11.45" style="fill: #c94747;"/>
  <rect x="196.866" y="202.764" width="11.45" height="11.45" style="fill: #c94747;"/>
  <rect x="116.716" y="202.764" width="11.45" height="11.45" style="fill: #c94747;"/>
  <rect x="105.266" y="202.764" width="11.45" height="11.45" style="fill: #c94747;"/>
  <rect x="93.816" y="202.764" width="11.45" height="11.45" style="fill: #c94747;"/>
  <rect x="265.566" y="191.314" width="11.45" height="11.45" style="fill: #c94747;"/>
  <rect x="254.116" y="191.314" width="11.45" height="11.45" style="fill: #c94747;"/>
  <rect x="242.666" y="191.314" width="11.45" height="11.45" style="fill: #c94747;"/>
  <rect x="231.216" y="191.314" width="11.45" height="11.45" style="fill: #c94747;"/>
  <rect x="219.766" y="191.314" width="11.45" height="11.45" style="fill: #c94747;"/>
  <rect x="208.316" y="191.314" width="11.45" height="11.45" style="fill: #c94747;"/>
  <rect x="196.866" y="191.314" width="11.45" height="11.45" style="fill: #c94747;"/>
  <rect x="116.716" y="191.314" width="11.45" height="11.45" style="fill: #c94747;"/>
  <rect x="105.266" y="191.314" width="11.45" height="11.45" style="fill: #c94747;"/>
  <rect x="93.816" y="191.314" width="11.45" height="11.45" style="fill: #c94747;"/>
  <rect x="82.366" y="191.314" width="11.45" height="11.45" style="fill: #c94747;"/>
  <rect x="70.916" y="191.314" width="11.45" height="11.45" style="fill: #c94747;"/>
  <rect x="59.466" y="191.314" width="11.45" height="11.45" style="fill: #c94747;"/>
  <rect x="48.016" y="191.314" width="11.45" height="11.45" style="fill: #c94747;"/>
  <rect x="254.116" y="179.864" width="11.45" height="11.45" style="fill: #c94747;"/>
  <rect x="242.666" y="179.864" width="11.45" height="11.45" style="fill: #c94747;"/>
  <rect x="231.216" y="179.864" width="11.45" height="11.45" style="fill: #c94747;"/>
  <rect x="219.766" y="179.864" width="11.45" height="11.45" style="fill: #c94747;"/>
  <rect x="208.316" y="179.864" width="11.45" height="11.45" style="fill: #c94747;"/>
  <rect x="196.866" y="179.864" width="11.45" height="11.45" style="fill: #c94747;"/>
  <rect x="116.716" y="179.864" width="11.45" height="11.45" style="fill: #c94747;"/>
  <rect x="105.266" y="179.864" width="11.45" height="11.45" style="fill: #c94747;"/>
  <rect x="93.816" y="179.864" width="11.45" height="11.45" style="fill: #c94747;"/>
  <rect x="82.366" y="179.864" width="11.45" height="11.45" style="fill: #c94747;"/>
  <rect x="70.916" y="179.864" width="11.45" height="11.45" style="fill: #c94747;"/>
  <rect x="59.466" y="179.864" width="11.45" height="11.45" style="fill: #c94747;"/>
  <rect x="242.666" y="168.414" width="11.45" height="11.45" style="fill: #c94747;"/>
  <rect x="231.216" y="168.414" width="11.45" height="11.45" style="fill: #c94747;"/>
  <rect x="219.766" y="168.414" width="11.45" height="11.45" style="fill: #c94747;"/>
  <rect x="208.316" y="168.414" width="11.45" height="11.45" style="fill: #c94747;"/>
  <rect x="196.866" y="168.414" width="11.45" height="11.45" style="fill: #c94747;"/>
  <rect x="185.416" y="168.414" width="11.45" height="11.45" style="fill: #c94747;"/>
  <rect x="128.166" y="168.414" width="11.45" height="11.45" style="fill: #c94747;"/>
  <rect x="116.716" y="168.414" width="11.45" height="11.45" style="fill: #c94747;"/>
  <rect x="105.266" y="168.414" width="11.45" height="11.45" style="fill: #c94747;"/>
  <rect x="93.816" y="168.414" width="11.45" height="11.45" style="fill: #c94747;"/>
  <rect x="82.366" y="168.414" width="11.45" height="11.45" style="fill: #c94747;"/>
  <rect x="70.916" y="168.414" width="11.45" height="11.45" style="fill: #c94747;"/>
  <rect x="231.216" y="156.964" width="11.45" height="11.45" style="fill: #c94747;"/>
  <rect x="219.766" y="156.964" width="11.45" height="11.45" style="fill: #c94747;"/>
  <rect x="208.316" y="156.964" width="11.45" height="11.45" style="fill: #c94747;"/>
  <rect x="196.866" y="156.964" width="11.45" height="11.45" style="fill: #c94747;"/>
  <rect x="185.416" y="156.964" width="11.45" height="11.45" style="fill: #c94747;"/>
  <rect x="128.166" y="156.964" width="11.45" height="11.45" style="fill: #c94747;"/>
  <rect x="116.716" y="156.964" width="11.45" height="11.45" style="fill: #c94747;"/>
  <rect x="105.266" y="156.964" width="11.45" height="11.45" style="fill: #c94747;"/>
  <rect x="93.816" y="156.964" width="11.45" height="11.45" style="fill: #c94747;"/>
  <rect x="82.366" y="156.964" width="11.45" height="11.45" style="fill: #c94747;"/>
  <rect x="231.216" y="145.514" width="11.45" height="11.45" style="fill: #c94747;"/>
  <rect x="219.766" y="145.514" width="11.45" height="11.45" style="fill: #c94747;"/>
  <rect x="208.316" y="145.514" width="11.45" height="11.45" style="fill: #c94747;"/>
  <rect x="196.866" y="145.514" width="11.45" height="11.45" style="fill: #c94747;"/>
  <rect x="185.416" y="145.514" width="11.45" height="11.45" style="fill: #c94747;"/>
  <rect x="128.166" y="145.514" width="11.45" height="11.45" style="fill: #c94747;"/>
  <rect x="116.716" y="145.514" width="11.45" height="11.45" style="fill: #c94747;"/>
  <rect x="105.266" y="145.514" width="11.45" height="11.45" style="fill: #c94747;"/>
  <rect x="93.816" y="145.514" width="11.45" height="11.45" style="fill: #c94747;"/>
  <rect x="82.366" y="145.514" width="11.45" height="11.45" style="fill: #c94747;"/>
  <rect x="231.216" y="134.064" width="11.45" height="11.45" style="fill: #c94747;"/>
  <rect x="219.766" y="134.064" width="11.45" height="11.45" style="fill: #c94747;"/>
  <rect x="208.316" y="134.064" width="11.45" height="11.45" style="fill: #c94747;"/>
  <rect x="196.866" y="134.064" width="11.45" height="11.45" style="fill: #c94747;"/>
  <rect x="185.416" y="134.064" width="11.45" height="11.45" style="fill: #c94747;"/>
  <rect x="128.166" y="134.064" width="11.45" height="11.45" style="fill: #c94747;"/>
  <rect x="116.716" y="134.064" width="11.45" height="11.45" style="fill: #c94747;"/>
  <rect x="105.266" y="134.064" width="11.45" height="11.45" style="fill: #c94747;"/>
  <rect x="93.816" y="134.064" width="11.45" height="11.45" style="fill: #c94747;"/>
  <rect x="82.366" y="134.064" width="11.45" height="11.45" style="fill: #c94747;"/>
  <rect x="219.766" y="122.614" width="11.45" height="11.45" style="fill: #c94747;"/>
  <rect x="208.316" y="122.614" width="11.45" height="11.45" style="fill: #c94747;"/>
  <rect x="196.866" y="122.614" width="11.45" height="11.45" style="fill: #c94747;"/>
  <rect x="185.416" y="122.614" width="11.45" height="11.45" style="fill: #c94747;"/>
  <rect x="128.166" y="122.614" width="11.45" height="11.45" style="fill: #c94747;"/>
  <rect x="116.716" y="122.614" width="11.45" height="11.45" style="fill: #c94747;"/>
  <rect x="105.266" y="122.614" width="11.45" height="11.45" style="fill: #c94747;"/>
  <rect x="93.816" y="122.614" width="11.45" height="11.45" style="fill: #c94747;"/>
  <rect x="254.116" y="111.164" width="11.45" height="11.45" style="fill: #ff5760;"/>
  <rect x="242.666" y="111.164" width="11.45" height="11.45" style="fill: #ff5760;"/>
  <rect x="231.216" y="111.164" width="11.45" height="11.45" style="fill: #ff5760;"/>
  <rect x="219.766" y="111.164" width="11.45" height="11.45" style="fill: #ff5760;"/>
  <rect x="208.316" y="111.164" width="11.45" height="11.45" style="fill: #ff5760;"/>
  <rect x="196.866" y="111.164" width="11.45" height="11.45" style="fill: #c94747;"/>
  <rect x="185.416" y="111.164" width="11.45" height="11.45" style="fill: #c94747;"/>
  <rect x="173.966" y="111.164" width="11.45" height="11.45" style="fill: #c94747;"/>
  <rect x="139.616" y="111.164" width="11.45" height="11.45" style="fill: #c94747;"/>
  <rect x="128.166" y="111.164" width="11.45" height="11.45" style="fill: #c94747;"/>
  <rect x="116.716" y="111.164" width="11.45" height="11.45" style="fill: #c94747;"/>
  <rect x="105.266" y="111.164" width="11.45" height="11.45" style="fill: #ff5760;"/>
  <rect x="93.816" y="111.164" width="11.45" height="11.45" style="fill: #ff5760;"/>
  <rect x="82.366" y="111.164" width="11.45" height="11.45" style="fill: #ff5760;"/>
  <rect x="70.916" y="111.164" width="11.45" height="11.45" style="fill: #ff5760;"/>
  <rect x="59.466" y="111.164" width="11.45" height="11.45" style="fill: #ff5760;"/>
  <rect x="265.566" y="99.714" width="11.45" height="11.45" style="fill: #ff5760;"/>
  <rect x="254.116" y="99.714" width="11.45" height="11.45" style="fill: #c94747;"/>
  <rect x="242.666" y="99.714" width="11.45" height="11.45" style="fill: #c94747;"/>
  <rect x="231.216" y="99.714" width="11.45" height="11.45" style="fill: #c94747;"/>
  <rect x="219.766" y="99.714" width="11.45" height="11.45" style="fill: #c94747;"/>
  <rect x="208.316" y="99.714" width="11.45" height="11.45" style="fill: #c94747;"/>
  <rect x="196.866" y="99.714" width="11.45" height="11.45" style="fill: #c94747;"/>
  <rect x="185.416" y="99.714" width="11.45" height="11.45" style="fill: #ff5760;"/>
  <rect x="173.966" y="99.714" width="11.45" height="11.45" style="fill: #c94747;"/>
  <rect x="139.616" y="99.714" width="11.45" height="11.45" style="fill: #c94747;"/>
  <rect x="128.166" y="99.714" width="11.45" height="11.45" style="fill: #ff5760;"/>
  <rect x="116.716" y="99.714" width="11.45" height="11.45" style="fill: #c94747;"/>
  <rect x="105.266" y="99.714" width="11.45" height="11.45" style="fill: #c94747;"/>
  <rect x="93.816" y="99.714" width="11.45" height="11.45" style="fill: #c94747;"/>
  <rect x="82.366" y="99.714" width="11.45" height="11.45" style="fill: #c94747;"/>
  <rect x="70.916" y="99.714" width="11.45" height="11.45" style="fill: #c94747;"/>
  <rect x="59.466" y="99.714" width="11.45" height="11.45" style="fill: #c94747;"/>
  <rect x="48.016" y="99.714" width="11.45" height="11.45" style="fill: #ff5760;"/>
  <rect x="265.566" y="88.264" width="11.45" height="11.45" style="fill: #ff5760;"/>
  <rect x="254.116" y="88.264" width="11.45" height="11.45" style="fill: #ff5760;"/>
  <rect x="242.666" y="88.264" width="11.45" height="11.45" style="fill: #cb4748;"/>
  <rect x="231.216" y="88.264" width="11.45" height="11.45" style="fill: #c94747;"/>
  <rect x="219.766" y="88.264" width="11.45" height="11.45" style="fill: #c94747;"/>
  <rect x="208.316" y="88.264" width="11.45" height="11.45" style="fill: #c94747;"/>
  <rect x="196.866" y="88.264" width="11.45" height="11.45" style="fill: #c94747;"/>
  <rect x="185.416" y="88.264" width="11.45" height="11.45" style="fill: #c94747;"/>
  <rect x="173.966" y="88.264" width="11.45" height="11.45" style="fill: #c94747;"/>
  <rect x="162.516" y="88.264" width="11.45" height="11.45" style="fill: #ff5760;"/>
  <rect x="151.066" y="88.264" width="11.45" height="11.45" style="fill: #ff5760;"/>
  <rect x="139.616" y="88.264" width="11.45" height="11.45" style="fill: #d2494b;"/>
  <rect x="128.166" y="88.264" width="11.45" height="11.45" style="fill: #c94747;"/>
  <rect x="116.716" y="88.264" width="11.45" height="11.45" style="fill: #c94747;"/>
  <rect x="105.266" y="88.264" width="11.45" height="11.45" style="fill: #c94747;"/>
  <rect x="93.816" y="88.264" width="11.45" height="11.45" style="fill: #c94747;"/>
  <rect x="82.366" y="88.264" width="11.45" height="11.45" style="fill: #c94747;"/>
  <rect x="70.916" y="88.264" width="11.45" height="11.45" style="fill: #d2494b;"/>
  <rect x="59.466" y="88.264" width="11.45" height="11.45" style="fill: #ff5760;"/>
  <rect x="48.016" y="88.264" width="11.45" height="11.45" style="fill: #ff5760;"/>
  <rect x="265.566" y="76.814" width="11.45" height="11.45" style="fill: #ff5760;"/>
  <rect x="254.116" y="76.814" width="11.45" height="11.45" style="fill: #ff5760;"/>
  <rect x="242.666" y="76.814" width="11.45" height="11.45" style="fill: #ff5760;"/>
  <rect x="231.216" y="76.814" width="11.45" height="11.45" style="fill: #ff5760;"/>
  <rect x="219.766" y="76.814" width="11.45" height="11.45" style="fill: #ff5760;"/>
  <rect x="208.316" y="76.814" width="11.45" height="11.45" style="fill: #ff5760;"/>
  <rect x="196.866" y="76.814" width="11.45" height="11.45" style="fill: #ff5760;"/>
  <rect x="185.416" y="76.814" width="11.45" height="11.45" style="fill: #ff5760;"/>
  <rect x="173.966" y="76.814" width="11.45" height="11.45" style="fill: #c94747;"/>
  <rect x="162.516" y="76.814" width="11.45" height="11.45" style="fill: #ff5760;"/>
  <rect x="151.066" y="76.814" width="11.45" height="11.45" style="fill: #ff5760;"/>
  <rect x="139.616" y="76.814" width="11.45" height="11.45" style="fill: #c94747;"/>
  <rect x="128.166" y="76.814" width="11.45" height="11.45" style="fill: #ff5760;"/>
  <rect x="116.716" y="76.814" width="11.45" height="11.45" style="fill: #ff5760;"/>
  <rect x="105.266" y="76.814" width="11.45" height="11.45" style="fill: #ff5760;"/>
  <rect x="93.816" y="76.814" width="11.45" height="11.45" style="fill: #ff5760;"/>
  <rect x="82.366" y="76.814" width="11.45" height="11.45" style="fill: #ff5760;"/>
  <rect x="70.916" y="76.814" width="11.45" height="11.45" style="fill: #ff5760;"/>
  <rect x="59.466" y="76.814" width="11.45" height="11.45" style="fill: #ff5760;"/>
  <rect x="48.016" y="76.814" width="11.45" height="11.45" style="fill: #ff5760;"/>
  <rect x="265.566" y="65.364" width="11.45" height="11.45" style="fill: #ff5760;"/>
  <rect x="254.116" y="65.364" width="11.45" height="11.45" style="fill: #ff5760;"/>
  <rect x="242.666" y="65.364" width="11.45" height="11.45" style="fill: #ff5760;"/>
  <rect x="231.216" y="65.364" width="11.45" height="11.45" style="fill: #ff5760;"/>
  <rect x="219.766" y="65.364" width="11.45" height="11.45" style="fill: #ff5760;"/>
  <rect x="208.316" y="65.364" width="11.45" height="11.45" style="fill: #ff5760;"/>
  <rect x="196.866" y="65.364" width="11.45" height="11.45" style="fill: #c94747;"/>
  <rect x="185.416" y="65.364" width="11.45" height="11.45" style="fill: #c94747;"/>
  <rect x="173.966" y="65.364" width="11.45" height="11.45" style="fill: #c94747;"/>
  <rect x="162.516" y="65.364" width="11.45" height="11.45" style="fill: #ff5760;"/>
  <rect x="151.066" y="65.364" width="11.45" height="11.45" style="fill: #ff5760;"/>
  <rect x="139.616" y="65.364" width="11.45" height="11.45" style="fill: #c94747;"/>
  <rect x="128.166" y="65.364" width="11.45" height="11.45" style="fill: #c94747;"/>
  <rect x="116.716" y="65.364" width="11.45" height="11.45" style="fill: #c94747;"/>
  <rect x="105.266" y="65.364" width="11.45" height="11.45" style="fill: #ff5760;"/>
  <rect x="93.816" y="65.364" width="11.45" height="11.45" style="fill: #ff5760;"/>
  <rect x="82.366" y="65.364" width="11.45" height="11.45" style="fill: #ff5760;"/>
  <rect x="70.916" y="65.364" width="11.45" height="11.45" style="fill: #ff5760;"/>
  <rect x="59.466" y="65.364" width="11.45" height="11.45" style="fill: #ff5760;"/>
  <rect x="48.016" y="65.364" width="11.45" height="11.45" style="fill: #ff5760;"/>
  <rect x="265.566" y="53.914" width="11.45" height="11.45" style="fill: #ff5760;"/>
  <rect x="254.116" y="53.914" width="11.45" height="11.45" style="fill: #ff5760;"/>
  <rect x="242.666" y="53.914" width="11.45" height="11.45" style="fill: #ff5760;"/>
  <rect x="231.216" y="53.914" width="11.45" height="11.45" style="fill: #ff5760;"/>
  <rect x="219.766" y="53.914" width="11.45" height="11.45" style="fill: #ff5760;"/>
  <rect x="208.316" y="53.914" width="11.45" height="11.45" style="fill: #ff5760;"/>
  <rect x="196.866" y="53.914" width="11.45" height="11.45" style="fill: #c94747;"/>
  <rect x="185.416" y="53.914" width="11.45" height="11.45" style="fill: #ff5760;"/>
  <rect x="173.966" y="53.914" width="11.45" height="11.45" style="fill: #c94747;"/>
  <rect x="162.516" y="53.914" width="11.45" height="11.45" style="fill: #ff5760;"/>
  <rect x="151.066" y="53.914" width="11.45" height="11.45" style="fill: #ff5760;"/>
  <rect x="139.616" y="53.914" width="11.45" height="11.45" style="fill: #d74b4d;"/>
  <rect x="128.166" y="53.914" width="11.45" height="11.45" style="fill: #ff5760;"/>
  <rect x="116.716" y="53.914" width="11.45" height="11.45" style="fill: #c94747;"/>
  <rect x="105.266" y="53.914" width="11.45" height="11.45" style="fill: #ff5760;"/>
  <rect x="93.816" y="53.914" width="11.45" height="11.45" style="fill: #ff5760;"/>
  <rect x="82.366" y="53.914" width="11.45" height="11.45" style="fill: #ff5760;"/>
  <rect x="70.916" y="53.914" width="11.45" height="11.45" style="fill: #ff5760;"/>
  <rect x="59.466" y="53.914" width="11.45" height="11.45" style="fill: #ff5760;"/>
  <rect x="48.016" y="53.914" width="11.45" height="11.45" style="fill: #ff5760;"/>
  <rect x="265.566" y="42.464" width="11.45" height="11.45" style="fill: #ff5760;"/>
  <rect x="254.116" y="42.464" width="11.45" height="11.45" style="fill: #ff5760;"/>
  <rect x="242.666" y="42.464" width="11.45" height="11.45" style="fill: #ff5760;"/>
  <rect x="231.216" y="42.464" width="11.45" height="11.45" style="fill: #ff5760;"/>
  <rect x="219.766" y="42.464" width="11.45" height="11.45" style="fill: #ff5760;"/>
  <rect x="208.316" y="42.464" width="11.45" height="11.45" style="fill: #ff5760;"/>
  <rect x="196.866" y="42.464" width="11.45" height="11.45" style="fill: #ff5760;"/>
  <rect x="185.416" y="42.464" width="11.45" height="11.45" style="fill: #ff5760;"/>
  <rect x="128.166" y="42.464" width="11.45" height="11.45" style="fill: #ff5760;"/>
  <rect x="116.716" y="42.464" width="11.45" height="11.45" style="fill: #ff5760;"/>
  <rect x="105.266" y="42.464" width="11.45" height="11.45" style="fill: #ff5760;"/>
  <rect x="93.816" y="42.464" width="11.45" height="11.45" style="fill: #ff5760;"/>
  <rect x="82.366" y="42.464" width="11.45" height="11.45" style="fill: #ff5760;"/>
  <rect x="70.916" y="42.464" width="11.45" height="11.45" style="fill: #ff5760;"/>
  <rect x="59.466" y="42.464" width="11.45" height="11.45" style="fill: #ff5760;"/>
  <rect x="48.016" y="42.464" width="11.45" height="11.45" style="fill: #ff5760;"/>
  <rect x="254.116" y="31.014" width="11.45" height="11.45" style="fill: #ff5760;"/>
  <rect x="242.666" y="31.014" width="11.45" height="11.45" style="fill: #ff5760;"/>
  <rect x="231.216" y="31.014" width="11.45" height="11.45" style="fill: #ff5760;"/>
  <rect x="219.766" y="31.014" width="11.45" height="11.45" style="fill: #ff5760;"/>
  <rect x="208.316" y="31.014" width="11.45" height="11.45" style="fill: #ff5760;"/>
  <rect x="105.266" y="31.014" width="11.45" height="11.45" style="fill: #ff5760;"/>
  <rect x="93.816" y="31.014" width="11.45" height="11.45" style="fill: #ff5760;"/>
  <rect x="82.366" y="31.014" width="11.45" height="11.45" style="fill: #ff5760;"/>
  <rect x="70.916" y="31.014" width="11.45" height="11.45" style="fill: #ff5760;"/>
  <rect x="59.466" y="31.014" width="11.45" height="11.45" style="fill: #ff5760;"/>
</svg>