<?xml version="1.0" encoding="UTF-8"?>
<svg id="_图层_1" data-name="图层 1" xmlns="http://www.w3.org/2000/svg" viewBox="0 0 216.511 261.447">
  <rect x="159.022" y="224.039" width="7.7" height="10.45" style="fill: #4d5357;"/>
  <rect x="151.322" y="224.039" width="7.7" height="10.45" style="fill: #4d5357;"/>
  <rect x="143.622" y="224.039" width="7.7" height="10.45" style="fill: #4d5357;"/>
  <rect x="135.922" y="224.039" width="7.7" height="10.45" style="fill: #4d5357;"/>
  <rect x="128.222" y="224.039" width="7.7" height="10.45" style="fill: #4d5357;"/>
  <rect x="120.522" y="224.039" width="7.7" height="10.45" style="fill: #4d5357;"/>
  <rect x="166.722" y="213.589" width="7.7" height="10.45" style="fill: #4d5357;"/>
  <rect x="159.022" y="213.589" width="7.7" height="10.45" style="fill: #4d5357;"/>
  <rect x="151.322" y="213.589" width="7.7" height="10.45" style="fill: #4d5357;"/>
  <rect x="143.622" y="213.589" width="7.7" height="10.45" style="fill: #4d5357;"/>
  <rect x="135.922" y="213.589" width="7.7" height="10.45" style="fill: #4d5357;"/>
  <rect x="128.222" y="213.589" width="7.7" height="10.45" style="fill: #4d5357;"/>
  <rect x="120.522" y="213.589" width="7.7" height="10.45" style="fill: #4d5357;"/>
  <rect x="112.822" y="213.589" width="7.7" height="10.45" style="fill: #4d5357;"/>
  <rect x="105.122" y="213.589" width="7.7" height="10.45" style="fill: #4d5357;"/>
  <rect x="174.422" y="203.139" width="7.7" height="10.45" style="fill: #4d5357;"/>
  <rect x="166.722" y="203.139" width="7.7" height="10.45" style="fill: #4d5357;"/>
  <rect x="159.022" y="203.139" width="7.7" height="10.45" style="fill: #4d5357;"/>
  <rect x="151.322" y="203.139" width="7.7" height="10.45" style="fill: #4d5357;"/>
  <rect x="143.622" y="203.139" width="7.7" height="10.45" style="fill: #4d5357;"/>
  <rect x="135.922" y="203.139" width="7.7" height="10.45" style="fill: #4d5357;"/>
  <rect x="128.222" y="203.139" width="7.7" height="10.45" style="fill: #4d5357;"/>
  <rect x="120.522" y="203.139" width="7.7" height="10.45" style="fill: #4d5357;"/>
  <rect x="112.822" y="203.139" width="7.7" height="10.45" style="fill: #4d5357;"/>
  <rect x="105.122" y="203.139" width="7.7" height="10.45" style="fill: #4d5357;"/>
  <rect x="66.622" y="203.139" width="7.7" height="10.45" style="fill: #4d5357;"/>
  <rect x="58.922" y="203.139" width="7.7" height="10.45" style="fill: #4d5357;"/>
  <rect x="51.222" y="203.139" width="7.7" height="10.45" style="fill: #4d5357;"/>
  <rect x="174.422" y="192.689" width="7.7" height="10.45" style="fill: #4d5357;"/>
  <rect x="166.722" y="192.689" width="7.7" height="10.45" style="fill: #4d5357;"/>
  <rect x="159.022" y="192.689" width="7.7" height="10.45" style="fill: #4d5357;"/>
  <rect x="151.322" y="192.689" width="7.7" height="10.45" style="fill: #4d5357;"/>
  <rect x="143.622" y="192.689" width="7.7" height="10.45" style="fill: #4d5357;"/>
  <rect x="135.922" y="192.689" width="7.7" height="10.45" style="fill: #4d5357;"/>
  <rect x="128.222" y="192.689" width="7.7" height="10.45" style="fill: #4d5357;"/>
  <rect x="120.522" y="192.689" width="7.7" height="10.45" style="fill: #4d5357;"/>
  <rect x="112.822" y="192.689" width="7.7" height="10.45" style="fill: #4d5357;"/>
  <rect x="105.122" y="192.689" width="7.7" height="10.45" style="fill: #4d5357;"/>
  <rect x="89.722" y="192.689" width="7.7" height="10.45" style="fill: #4d5357;"/>
  <rect x="82.022" y="192.689" width="7.7" height="10.45" style="fill: #4d5357;"/>
  <rect x="74.322" y="192.689" width="7.7" height="10.45" style="fill: #4d5357;"/>
  <rect x="66.622" y="192.689" width="7.7" height="10.45" style="fill: #4d5357;"/>
  <rect x="58.922" y="192.689" width="7.7" height="10.45" style="fill: #4d5357;"/>
  <rect x="51.222" y="192.689" width="7.7" height="10.45" style="fill: #4d5357;"/>
  <rect x="43.522" y="192.689" width="7.7" height="10.45" style="fill: #4d5357;"/>
  <rect x="35.822" y="192.689" width="7.7" height="10.45" style="fill: #4d5357;"/>
  <rect x="174.422" y="182.239" width="7.7" height="10.45" style="fill: #4d5357;"/>
  <rect x="166.722" y="182.239" width="7.7" height="10.45" style="fill: #4d5357;"/>
  <rect x="159.022" y="182.239" width="7.7" height="10.45" style="fill: #4d5357;"/>
  <rect x="151.322" y="182.239" width="7.7" height="10.45" style="fill: #4d5357;"/>
  <rect x="143.622" y="182.239" width="7.7" height="10.45" style="fill: #4d5357;"/>
  <rect x="135.922" y="182.239" width="7.7" height="10.45" style="fill: #4d5357;"/>
  <rect x="128.222" y="182.239" width="7.7" height="10.45" style="fill: #4d5357;"/>
  <rect x="120.522" y="182.239" width="7.7" height="10.45" style="fill: #4d5357;"/>
  <rect x="112.822" y="182.239" width="7.7" height="10.45" style="fill: #4d5357;"/>
  <rect x="97.422" y="182.239" width="7.7" height="10.45" style="fill: #4d5357;"/>
  <rect x="89.722" y="182.239" width="7.7" height="10.45" style="fill: #4d5357;"/>
  <rect x="82.022" y="182.239" width="7.7" height="10.45" style="fill: #4d5357;"/>
  <rect x="74.322" y="182.239" width="7.7" height="10.45" style="fill: #4d5357;"/>
  <rect x="66.622" y="182.239" width="7.7" height="10.45" style="fill: #4d5357;"/>
  <rect x="58.922" y="182.239" width="7.7" height="10.45" style="fill: #4d5357;"/>
  <rect x="51.222" y="182.239" width="7.7" height="10.45" style="fill: #4d5357;"/>
  <rect x="43.522" y="182.239" width="7.7" height="10.45" style="fill: #4d5357;"/>
  <rect x="35.822" y="182.239" width="7.7" height="10.45" style="fill: #4d5357;"/>
  <rect x="28.122" y="182.239" width="7.7" height="10.45" style="fill: #4d5357;"/>
  <rect x="174.422" y="171.789" width="7.7" height="10.45" style="fill: #4d5357;"/>
  <rect x="166.722" y="171.789" width="7.7" height="10.45" style="fill: #4d5357;"/>
  <rect x="159.022" y="171.789" width="7.7" height="10.45" style="fill: #4d5357;"/>
  <rect x="97.422" y="171.789" width="7.7" height="10.45" style="fill: #4d5357;"/>
  <rect x="89.722" y="171.789" width="7.7" height="10.45" style="fill: #4d5357;"/>
  <rect x="82.022" y="171.789" width="7.7" height="10.45" style="fill: #4d5357;"/>
  <rect x="74.322" y="171.789" width="7.7" height="10.45" style="fill: #4d5357;"/>
  <rect x="66.622" y="171.789" width="7.7" height="10.45" style="fill: #4d5357;"/>
  <rect x="58.922" y="171.789" width="7.7" height="10.45" style="fill: #4d5357;"/>
  <rect x="51.222" y="171.789" width="7.7" height="10.45" style="fill: #4d5357;"/>
  <rect x="43.522" y="171.789" width="7.7" height="10.45" style="fill: #4d5357;"/>
  <rect x="35.822" y="171.789" width="7.7" height="10.45" style="fill: #4d5357;"/>
  <rect x="28.122" y="171.789" width="7.7" height="10.45" style="fill: #4d5357;"/>
  <rect x="174.422" y="161.339" width="7.7" height="10.45" style="fill: #4d5357;"/>
  <rect x="166.722" y="161.339" width="7.7" height="10.45" style="fill: #4d5357;"/>
  <rect x="159.022" y="161.339" width="7.7" height="10.45" style="fill: #4d5357;"/>
  <rect x="97.422" y="161.339" width="7.7" height="10.45" style="fill: #4d5357;"/>
  <rect x="89.722" y="161.339" width="7.7" height="10.45" style="fill: #4d5357;"/>
  <rect x="82.022" y="161.339" width="7.7" height="10.45" style="fill: #4d5357;"/>
  <rect x="74.322" y="161.339" width="7.7" height="10.45" style="fill: #4d5357;"/>
  <rect x="66.622" y="161.339" width="7.7" height="10.45" style="fill: #4d5357;"/>
  <rect x="58.922" y="161.339" width="7.7" height="10.45" style="fill: #4d5357;"/>
  <rect x="51.222" y="161.339" width="7.7" height="10.45" style="fill: #4d5357;"/>
  <rect x="43.522" y="161.339" width="7.7" height="10.45" style="fill: #4d5357;"/>
  <rect x="35.822" y="161.339" width="7.7" height="10.45" style="fill: #4d5357;"/>
  <rect x="28.122" y="161.339" width="7.7" height="10.45" style="fill: #74797c;"/>
  <rect x="174.422" y="150.889" width="7.7" height="10.45" style="fill: #4d5357;"/>
  <rect x="166.722" y="150.889" width="7.7" height="10.45" style="fill: #4d5357;"/>
  <rect x="159.022" y="150.889" width="7.7" height="10.45" style="fill: #4d5357;"/>
  <rect x="97.422" y="150.889" width="7.7" height="10.45" style="fill: #4d5357;"/>
  <rect x="89.722" y="150.889" width="7.7" height="10.45" style="fill: #4d5357;"/>
  <rect x="82.022" y="150.889" width="7.7" height="10.45" style="fill: #4d5357;"/>
  <rect x="74.322" y="150.889" width="7.7" height="10.45" style="fill: #4d5357;"/>
  <rect x="66.622" y="150.889" width="7.7" height="10.45" style="fill: #4d5357;"/>
  <rect x="58.922" y="150.889" width="7.7" height="10.45" style="fill: #4d5357;"/>
  <rect x="51.222" y="150.889" width="7.7" height="10.45" style="fill: #4d5357;"/>
  <rect x="43.522" y="150.889" width="7.7" height="10.45" style="fill: #4d5357;"/>
  <rect x="174.422" y="140.439" width="7.7" height="10.45" style="fill: #4d5357;"/>
  <rect x="166.722" y="140.439" width="7.7" height="10.45" style="fill: #4d5357;"/>
  <rect x="159.022" y="140.439" width="7.7" height="10.45" style="fill: #4d5357;"/>
  <rect x="97.422" y="140.439" width="7.7" height="10.45" style="fill: #4d5357;"/>
  <rect x="89.722" y="140.439" width="7.7" height="10.45" style="fill: #4d5357;"/>
  <rect x="82.022" y="140.439" width="7.7" height="10.45" style="fill: #4d5357;"/>
  <rect x="174.422" y="129.989" width="7.7" height="10.45" style="fill: #4d5357;"/>
  <rect x="166.722" y="129.989" width="7.7" height="10.45" style="fill: #4d5357;"/>
  <rect x="159.022" y="129.989" width="7.7" height="10.45" style="fill: #4d5357;"/>
  <rect x="97.422" y="129.989" width="7.7" height="10.45" style="fill: #4d5357;"/>
  <rect x="89.722" y="129.989" width="7.7" height="10.45" style="fill: #4d5357;"/>
  <rect x="82.022" y="129.989" width="7.7" height="10.45" style="fill: #4d5357;"/>
  <rect x="174.422" y="119.539" width="7.7" height="10.45" style="fill: #4d5357;"/>
  <rect x="166.722" y="119.539" width="7.7" height="10.45" style="fill: #4d5357;"/>
  <rect x="159.022" y="119.539" width="7.7" height="10.45" style="fill: #4d5357;"/>
  <rect x="151.322" y="119.539" width="7.7" height="10.45" style="fill: #4d5357;"/>
  <rect x="97.422" y="119.539" width="7.7" height="10.45" style="fill: #4d5357;"/>
  <rect x="89.722" y="119.539" width="7.7" height="10.45" style="fill: #4d5357;"/>
  <rect x="82.022" y="119.539" width="7.7" height="10.45" style="fill: #4d5357;"/>
  <rect x="174.422" y="109.089" width="7.7" height="10.45" style="fill: #4d5357;"/>
  <rect x="166.722" y="109.089" width="7.7" height="10.45" style="fill: #4d5357;"/>
  <rect x="159.022" y="109.089" width="7.7" height="10.45" style="fill: #4d5357;"/>
  <rect x="151.322" y="109.089" width="7.7" height="10.45" style="fill: #4d5357;"/>
  <rect x="143.622" y="109.089" width="7.7" height="10.45" style="fill: #4d5357;"/>
  <rect x="135.922" y="109.089" width="7.7" height="10.45" style="fill: #4d5357;"/>
  <rect x="128.222" y="109.089" width="7.7" height="10.45" style="fill: #4d5357;"/>
  <rect x="120.522" y="109.089" width="7.7" height="10.45" style="fill: #4d5357;"/>
  <rect x="97.422" y="109.089" width="7.7" height="10.45" style="fill: #4d5357;"/>
  <rect x="89.722" y="109.089" width="7.7" height="10.45" style="fill: #4d5357;"/>
  <rect x="82.022" y="109.089" width="7.7" height="10.45" style="fill: #4d5357;"/>
  <rect x="174.422" y="98.639" width="7.7" height="10.45" style="fill: #4d5357;"/>
  <rect x="166.722" y="98.639" width="7.7" height="10.45" style="fill: #4d5357;"/>
  <rect x="159.022" y="98.639" width="7.7" height="10.45" style="fill: #4d5357;"/>
  <rect x="151.322" y="98.639" width="7.7" height="10.45" style="fill: #4d5357;"/>
  <rect x="143.622" y="98.639" width="7.7" height="10.45" style="fill: #4d5357;"/>
  <rect x="135.922" y="98.639" width="7.7" height="10.45" style="fill: #4d5357;"/>
  <rect x="128.222" y="98.639" width="7.7" height="10.45" style="fill: #4d5357;"/>
  <rect x="120.522" y="98.639" width="7.7" height="10.45" style="fill: #4d5357;"/>
  <rect x="112.822" y="98.639" width="7.7" height="10.45" style="fill: #4d5357;"/>
  <rect x="105.122" y="98.639" width="7.7" height="10.45" style="fill: #4d5357;"/>
  <rect x="97.422" y="98.639" width="7.7" height="10.45" style="fill: #4d5357;"/>
  <rect x="89.722" y="98.639" width="7.7" height="10.45" style="fill: #4d5357;"/>
  <rect x="82.022" y="98.639" width="7.7" height="10.45" style="fill: #4d5357;"/>
  <rect x="174.422" y="88.189" width="7.7" height="10.45" style="fill: #4d5357;"/>
  <rect x="166.722" y="88.189" width="7.7" height="10.45" style="fill: #4d5357;"/>
  <rect x="159.022" y="88.189" width="7.7" height="10.45" style="fill: #4d5357;"/>
  <rect x="151.322" y="88.189" width="7.7" height="10.45" style="fill: #fff;"/>
  <rect x="143.622" y="88.189" width="7.7" height="10.45" style="fill: #fff;"/>
  <rect x="135.922" y="88.189" width="7.7" height="10.45" style="fill: #fff;"/>
  <rect x="128.222" y="88.189" width="7.7" height="10.45" style="fill: #4d5357;"/>
  <rect x="120.522" y="88.189" width="7.7" height="10.45" style="fill: #4d5357;"/>
  <rect x="112.822" y="88.189" width="7.7" height="10.45" style="fill: #4d5357;"/>
  <rect x="105.122" y="88.189" width="7.7" height="10.45" style="fill: #4d5357;"/>
  <rect x="97.422" y="88.189" width="7.7" height="10.45" style="fill: #4d5357;"/>
  <rect x="89.722" y="88.189" width="7.7" height="10.45" style="fill: #4d5357;"/>
  <rect x="82.022" y="88.189" width="7.7" height="10.45" style="fill: #4d5357;"/>
  <rect x="174.422" y="77.739" width="7.7" height="10.45" style="fill: #4d5357;"/>
  <rect x="166.722" y="77.739" width="7.7" height="10.45" style="fill: #4d5357;"/>
  <rect x="159.022" y="77.739" width="7.7" height="10.45" style="fill: #4d5357;"/>
  <rect x="151.322" y="77.739" width="7.7" height="10.45" style="fill: #fff;"/>
  <rect x="143.622" y="77.739" width="7.7" height="10.45" style="fill: #fff;"/>
  <rect x="135.922" y="77.739" width="7.7" height="10.45" style="fill: #fff;"/>
  <rect x="128.222" y="77.739" width="7.7" height="10.45" style="fill: #fff;"/>
  <rect x="120.522" y="77.739" width="7.7" height="10.45" style="fill: #fff;"/>
  <rect x="112.822" y="77.739" width="7.7" height="10.45" style="fill: #fff;"/>
  <rect x="105.122" y="77.739" width="7.7" height="10.45" style="fill: #fff;"/>
  <rect x="97.422" y="77.739" width="7.7" height="10.45" style="fill: #4d5357;"/>
  <rect x="89.722" y="77.739" width="7.7" height="10.45" style="fill: #4d5357;"/>
  <rect x="82.022" y="77.739" width="7.7" height="10.45" style="fill: #4d5357;"/>
  <rect x="174.422" y="67.289" width="7.7" height="10.45" style="fill: #4d5357;"/>
  <rect x="166.722" y="67.289" width="7.7" height="10.45" style="fill: #4d5357;"/>
  <rect x="159.022" y="67.289" width="7.7" height="10.45" style="fill: #4d5357;"/>
  <rect x="151.322" y="67.289" width="7.7" height="10.45" style="fill: #4d5357;"/>
  <rect x="143.622" y="67.289" width="7.7" height="10.45" style="fill: #4d5357;"/>
  <rect x="135.922" y="67.289" width="7.7" height="10.45" style="fill: #686d71;"/>
  <rect x="128.222" y="67.289" width="7.7" height="10.45" style="fill: #fff;"/>
  <rect x="120.522" y="67.289" width="7.7" height="10.45" style="fill: #fff;"/>
  <rect x="112.822" y="67.289" width="7.7" height="10.45" style="fill: #fff;"/>
  <rect x="105.122" y="67.289" width="7.7" height="10.45" style="fill: #fff;"/>
  <rect x="97.422" y="67.289" width="7.7" height="10.45" style="fill: #4d5357;"/>
  <rect x="89.722" y="67.289" width="7.7" height="10.45" style="fill: #4d5357;"/>
  <rect x="82.022" y="67.289" width="7.7" height="10.45" style="fill: #4d5357;"/>
  <rect x="174.422" y="56.839" width="7.7" height="10.45" style="fill: #4d5357;"/>
  <rect x="166.722" y="56.839" width="7.7" height="10.45" style="fill: #4d5357;"/>
  <rect x="159.022" y="56.839" width="7.7" height="10.45" style="fill: #4d5357;"/>
  <rect x="151.322" y="56.839" width="7.7" height="10.45" style="fill: #4d5357;"/>
  <rect x="143.622" y="56.839" width="7.7" height="10.45" style="fill: #4d5357;"/>
  <rect x="135.922" y="56.839" width="7.7" height="10.45" style="fill: #4d5357;"/>
  <rect x="128.222" y="56.839" width="7.7" height="10.45" style="fill: #4d5357;"/>
  <rect x="120.522" y="56.839" width="7.7" height="10.45" style="fill: #4d5357;"/>
  <rect x="112.822" y="56.839" width="7.7" height="10.45" style="fill: #4d5357;"/>
  <rect x="105.122" y="56.839" width="7.7" height="10.45" style="fill: #74797c;"/>
  <rect x="97.422" y="56.839" width="7.7" height="10.45" style="fill: #4d5357;"/>
  <rect x="89.722" y="56.839" width="7.7" height="10.45" style="fill: #4d5357;"/>
  <rect x="82.022" y="56.839" width="7.7" height="10.45" style="fill: #4d5357;"/>
  <rect x="151.322" y="46.389" width="7.7" height="10.45" style="fill: #4d5357;"/>
  <rect x="143.622" y="46.389" width="7.7" height="10.45" style="fill: #4d5357;"/>
  <rect x="135.922" y="46.389" width="7.7" height="10.45" style="fill: #4d5357;"/>
  <rect x="128.222" y="46.389" width="7.7" height="10.45" style="fill: #4d5357;"/>
  <rect x="120.522" y="46.389" width="7.7" height="10.45" style="fill: #4d5357;"/>
  <rect x="112.822" y="46.389" width="7.7" height="10.45" style="fill: #4d5357;"/>
  <rect x="105.122" y="46.389" width="7.7" height="10.45" style="fill: #4d5357;"/>
  <rect x="97.422" y="46.389" width="7.7" height="10.45" style="fill: #4d5357;"/>
  <rect x="89.722" y="46.389" width="7.7" height="10.45" style="fill: #4d5357;"/>
  <rect x="82.022" y="46.389" width="7.7" height="10.45" style="fill: #4d5357;"/>
  <rect x="120.522" y="35.939" width="7.7" height="10.45" style="fill: #4d5357;"/>
  <rect x="112.822" y="35.939" width="7.7" height="10.45" style="fill: #4d5357;"/>
  <rect x="105.122" y="35.939" width="7.7" height="10.45" style="fill: #4d5357;"/>
  <rect x="97.422" y="35.939" width="7.7" height="10.45" style="fill: #4d5357;"/>
  <rect x="89.722" y="35.939" width="7.7" height="10.45" style="fill: #4d5357;"/>
  <rect x="82.022" y="35.939" width="7.7" height="10.45" style="fill: #4d5357;"/>
  <rect x="89.722" y="25.489" width="7.7" height="10.45" style="fill: #4d5357;"/>
  <rect x="82.022" y="25.489" width="7.7" height="10.45" style="fill: #4d5357;"/>
</svg>