<?xml version="1.0" encoding="UTF-8"?>
<svg id="_图层_1" data-name="图层 1" xmlns="http://www.w3.org/2000/svg" viewBox="0 0 255.319 243.064">
  <rect x="104.805" y="212.413" width="11.2" height="11.55" style="fill: #ff4848;"/>
  <rect x="172.005" y="200.863" width="11.2" height="11.55" style="fill: #ba1717;"/>
  <rect x="160.805" y="200.863" width="11.2" height="11.55" style="fill: #b70b0b;"/>
  <rect x="149.605" y="200.863" width="11.2" height="11.55" style="fill: #b70b0b;"/>
  <rect x="138.405" y="200.863" width="11.2" height="11.55" style="fill: #b70b0b;"/>
  <rect x="127.205" y="200.863" width="11.2" height="11.55" style="fill: #b70b0b;"/>
  <rect x="116.005" y="200.863" width="11.2" height="11.55" style="fill: #b70b0b;"/>
  <rect x="104.805" y="200.863" width="11.2" height="11.55" style="fill: #ff7369;"/>
  <rect x="183.205" y="189.313" width="11.2" height="11.55" style="fill: #b70b0b;"/>
  <rect x="172.005" y="189.313" width="11.2" height="11.55" style="fill: #b70b0b;"/>
  <rect x="160.805" y="189.313" width="11.2" height="11.55" style="fill: #ff4848;"/>
  <rect x="149.605" y="189.313" width="11.2" height="11.55" style="fill: #ffe1bd;"/>
  <rect x="138.405" y="189.313" width="11.2" height="11.55" style="fill: #b70b0b;"/>
  <rect x="127.205" y="189.313" width="11.2" height="11.55" style="fill: #b70b0b;"/>
  <rect x="116.005" y="189.313" width="11.2" height="11.55" style="fill: #b70b0b;"/>
  <rect x="104.805" y="189.313" width="11.2" height="11.55" style="fill: #ffe1bd;"/>
  <rect x="93.605" y="189.313" width="11.2" height="11.55" style="fill: #ffe1bd;"/>
  <rect x="194.405" y="177.763" width="11.2" height="11.55" style="fill: #b70b0b;"/>
  <rect x="183.205" y="177.763" width="11.2" height="11.55" style="fill: #b70b0b;"/>
  <rect x="172.005" y="177.763" width="11.2" height="11.55" style="fill: #b70b0b;"/>
  <rect x="160.805" y="177.763" width="11.2" height="11.55" style="fill: #b70b0b;"/>
  <rect x="149.605" y="177.763" width="11.2" height="11.55" style="fill: #b70b0b;"/>
  <rect x="138.405" y="177.763" width="11.2" height="11.55" style="fill: #ffe1bd;"/>
  <rect x="127.205" y="177.763" width="11.2" height="11.55" style="fill: #ffe1bd;"/>
  <rect x="116.005" y="177.763" width="11.2" height="11.55" style="fill: #b70b0b;"/>
  <rect x="104.805" y="177.763" width="11.2" height="11.55" style="fill: #b70b0b;"/>
  <rect x="93.605" y="177.763" width="11.2" height="11.55" style="fill: #ffe1bd;"/>
  <rect x="205.605" y="166.213" width="11.2" height="11.55" style="fill: #b70b0b;"/>
  <rect x="194.405" y="166.213" width="11.2" height="11.55" style="fill: #fe4747;"/>
  <rect x="183.205" y="166.213" width="11.2" height="11.55" style="fill: #ff4848;"/>
  <rect x="172.005" y="166.213" width="11.2" height="11.55" style="fill: #ff4848;"/>
  <rect x="160.805" y="166.213" width="11.2" height="11.55" style="fill: #ff4848;"/>
  <rect x="149.605" y="166.213" width="11.2" height="11.55" style="fill: #ff4848;"/>
  <rect x="138.405" y="166.213" width="11.2" height="11.55" style="fill: #ff4848;"/>
  <rect x="127.205" y="166.213" width="11.2" height="11.55" style="fill: #ff4848;"/>
  <rect x="116.005" y="166.213" width="11.2" height="11.55" style="fill: #ff4848;"/>
  <rect x="104.805" y="166.213" width="11.2" height="11.55" style="fill: #ff4848;"/>
  <rect x="93.605" y="166.213" width="11.2" height="11.55" style="fill: #ff4848;"/>
  <rect x="205.605" y="154.663" width="11.2" height="11.55" style="fill: #ff4848;"/>
  <rect x="194.405" y="154.663" width="11.2" height="11.55" style="fill: #ff4848;"/>
  <rect x="183.205" y="154.663" width="11.2" height="11.55" style="fill: #ff4848;"/>
  <rect x="172.005" y="154.663" width="11.2" height="11.55" style="fill: #ff4848;"/>
  <rect x="160.805" y="154.663" width="11.2" height="11.55" style="fill: #ff4848;"/>
  <rect x="149.605" y="154.663" width="11.2" height="11.55" style="fill: #ff4848;"/>
  <rect x="138.405" y="154.663" width="11.2" height="11.55" style="fill: #ff4848;"/>
  <rect x="127.205" y="154.663" width="11.2" height="11.55" style="fill: #ff4848;"/>
  <rect x="116.005" y="154.663" width="11.2" height="11.55" style="fill: #ff4848;"/>
  <rect x="104.805" y="154.663" width="11.2" height="11.55" style="fill: #ff4848;"/>
  <rect x="93.605" y="154.663" width="11.2" height="11.55" style="fill: #ff4848;"/>
  <rect x="205.605" y="143.113" width="11.2" height="11.55" style="fill: #ff4848;"/>
  <rect x="194.405" y="143.113" width="11.2" height="11.55" style="fill: #ff4848;"/>
  <rect x="138.405" y="143.113" width="11.2" height="11.55" style="fill: #ff4f4f;"/>
  <rect x="127.205" y="143.113" width="11.2" height="11.55" style="fill: #ff4848;"/>
  <rect x="116.005" y="143.113" width="11.2" height="11.55" style="fill: #ff4848;"/>
  <rect x="104.805" y="143.113" width="11.2" height="11.55" style="fill: #ff4848;"/>
  <rect x="93.605" y="143.113" width="11.2" height="11.55" style="fill: #ff4848;"/>
  <rect x="149.605" y="131.563" width="11.2" height="11.55" style="fill: #ffe1bd;"/>
  <rect x="116.005" y="131.563" width="11.2" height="11.55" style="fill: #ff6161;"/>
  <rect x="104.805" y="131.563" width="11.2" height="11.55" style="fill: #ff4848;"/>
  <rect x="93.605" y="131.563" width="11.2" height="11.55" style="fill: #ff4848;"/>
  <rect x="82.405" y="131.563" width="11.2" height="11.55" style="fill: #ff8484;"/>
  <rect x="149.605" y="120.013" width="11.2" height="11.55" style="fill: #ffe1bd;"/>
  <rect x="138.405" y="120.013" width="11.2" height="11.55" style="fill: #ffe1bd;"/>
  <rect x="116.005" y="120.013" width="11.2" height="11.55" style="fill: #ff5353;"/>
  <rect x="104.805" y="120.013" width="11.2" height="11.55" style="fill: #ff4848;"/>
  <rect x="93.605" y="120.013" width="11.2" height="11.55" style="fill: #ff4848;"/>
  <rect x="82.405" y="120.013" width="11.2" height="11.55" style="fill: #ff4848;"/>
  <rect x="127.205" y="108.463" width="11.2" height="11.55" style="fill: #ffe1bd;"/>
  <rect x="116.005" y="108.463" width="11.2" height="11.55" style="fill: #ffbfa3;"/>
  <rect x="104.805" y="108.463" width="11.2" height="11.55" style="fill: #ff4848;"/>
  <rect x="93.605" y="108.463" width="11.2" height="11.55" style="fill: #ffe1bd;"/>
  <rect x="82.405" y="108.463" width="11.2" height="11.55" style="fill: #ff4848;"/>
  <rect x="71.205" y="108.463" width="11.2" height="11.55" style="fill: #ffe1bd;"/>
  <rect x="60.005" y="108.463" width="11.2" height="11.55" style="fill: #ffe1bd;"/>
  <rect x="160.805" y="96.913" width="11.2" height="11.55" style="fill: #594640;"/>
  <rect x="149.605" y="96.913" width="11.2" height="11.55" style="fill: #594640;"/>
  <rect x="138.405" y="96.913" width="11.2" height="11.55" style="fill: #594640;"/>
  <rect x="127.205" y="96.913" width="11.2" height="11.55" style="fill: #594640;"/>
  <rect x="116.005" y="96.913" width="11.2" height="11.55" style="fill: #594640;"/>
  <rect x="104.805" y="96.913" width="11.2" height="11.55" style="fill: #ffe1bd;"/>
  <rect x="93.605" y="96.913" width="11.2" height="11.55" style="fill: #ffe1bd;"/>
  <rect x="82.405" y="96.913" width="11.2" height="11.55" style="fill: #ffe1bd;"/>
  <rect x="48.805" y="96.913" width="11.2" height="11.55" style="fill: #ffe1bd;"/>
  <rect x="160.805" y="85.363" width="11.2" height="11.55" style="fill: #594640;"/>
  <rect x="149.605" y="85.363" width="11.2" height="11.55" style="fill: #594640;"/>
  <rect x="138.405" y="85.363" width="11.2" height="11.55" style="fill: #594640;"/>
  <rect x="127.205" y="85.363" width="11.2" height="11.55" style="fill: #594640;"/>
  <rect x="116.005" y="85.363" width="11.2" height="11.55" style="fill: #ffe1bd;"/>
  <rect x="104.805" y="85.363" width="11.2" height="11.55" style="fill: #ffe1bd;"/>
  <rect x="93.605" y="85.363" width="11.2" height="11.55" style="fill: #ffe1bd;"/>
  <rect x="82.405" y="85.363" width="11.2" height="11.55" style="fill: #ffe1bd;"/>
  <rect x="71.205" y="85.363" width="11.2" height="11.55" style="fill: #e4c8a9;"/>
  <rect x="37.605" y="85.363" width="11.2" height="11.55" style="fill: #ffe1bd;"/>
  <rect x="194.405" y="73.813" width="11.2" height="11.55" style="fill: #594640;"/>
  <rect x="183.205" y="73.813" width="11.2" height="11.55" style="fill: #594640;"/>
  <rect x="172.005" y="73.813" width="11.2" height="11.55" style="fill: #594640;"/>
  <rect x="160.805" y="73.813" width="11.2" height="11.55" style="fill: #594640;"/>
  <rect x="149.605" y="73.813" width="11.2" height="11.55" style="fill: #594640;"/>
  <rect x="138.405" y="73.813" width="11.2" height="11.55" style="fill: #594640;"/>
  <rect x="127.205" y="73.813" width="11.2" height="11.55" style="fill: #594640;"/>
  <rect x="116.005" y="73.813" width="11.2" height="11.55" style="fill: #ffe1bd;"/>
  <rect x="104.805" y="73.813" width="11.2" height="11.55" style="fill: #ffe1bd;"/>
  <rect x="93.605" y="73.813" width="11.2" height="11.55" style="fill: #ffe1bd;"/>
  <rect x="82.405" y="73.813" width="11.2" height="11.55" style="fill: #ffe1bd;"/>
  <rect x="71.205" y="73.813" width="11.2" height="11.55" style="fill: #ffe1bd;"/>
  <rect x="60.005" y="73.813" width="11.2" height="11.55" style="fill: #594640;"/>
  <rect x="194.405" y="62.263" width="11.2" height="11.55" style="fill: #594640;"/>
  <rect x="149.605" y="62.263" width="11.2" height="11.55" style="fill: #594640;"/>
  <rect x="138.405" y="62.263" width="11.2" height="11.55" style="fill: #594640;"/>
  <rect x="127.205" y="62.263" width="11.2" height="11.55" style="fill: #ffe1bd;"/>
  <rect x="116.005" y="62.263" width="11.2" height="11.55" style="fill: #ffe1bd;"/>
  <rect x="104.805" y="62.263" width="11.2" height="11.55" style="fill: #8b724b;"/>
  <rect x="93.605" y="62.263" width="11.2" height="11.55" style="fill: #ffe1bd;"/>
  <rect x="82.405" y="62.263" width="11.2" height="11.55" style="fill: #664e27;"/>
  <rect x="71.205" y="62.263" width="11.2" height="11.55" style="fill: #ffe1bd;"/>
  <rect x="60.005" y="62.263" width="11.2" height="11.55" style="fill: #ffe1bd;"/>
  <rect x="138.405" y="50.713" width="11.2" height="11.55" style="fill: #594640;"/>
  <rect x="127.205" y="50.713" width="11.2" height="11.55" style="fill: #594640;"/>
  <rect x="116.005" y="50.713" width="11.2" height="11.55" style="fill: #ffe1bd;"/>
  <rect x="104.805" y="50.713" width="11.2" height="11.55" style="fill: #ffe1bd;"/>
  <rect x="93.605" y="50.713" width="11.2" height="11.55" style="fill: #ffe1bd;"/>
  <rect x="82.405" y="50.713" width="11.2" height="11.55" style="fill: #ffe1bd;"/>
  <rect x="71.205" y="50.713" width="11.2" height="11.55" style="fill: #594640;"/>
  <rect x="60.005" y="50.713" width="11.2" height="11.55" style="fill: #594640;"/>
  <rect x="138.405" y="39.163" width="11.2" height="11.55" style="fill: #5b4843;"/>
  <rect x="127.205" y="39.163" width="11.2" height="11.55" style="fill: #594640;"/>
  <rect x="116.005" y="39.163" width="11.2" height="11.55" style="fill: #594640;"/>
  <rect x="104.805" y="39.163" width="11.2" height="11.55" style="fill: #594640;"/>
  <rect x="93.605" y="39.163" width="11.2" height="11.55" style="fill: #594640;"/>
  <rect x="82.405" y="39.163" width="11.2" height="11.55" style="fill: #594640;"/>
  <rect x="71.205" y="39.163" width="11.2" height="11.55" style="fill: #594640;"/>
  <rect x="60.005" y="39.163" width="11.2" height="11.55" style="fill: #594640;"/>
  <rect x="127.205" y="27.613" width="11.2" height="11.55" style="fill: #594640;"/>
  <rect x="116.005" y="27.613" width="11.2" height="11.55" style="fill: #594640;"/>
  <rect x="104.805" y="27.613" width="11.2" height="11.55" style="fill: #594640;"/>
  <rect x="93.605" y="27.613" width="11.2" height="11.55" style="fill: #594640;"/>
  <rect x="82.405" y="27.613" width="11.2" height="11.55" style="fill: #594640;"/>
  <rect x="71.205" y="27.613" width="11.2" height="11.55" style="fill: #594640;"/>
  <rect x="93.605" y="16.063" width="11.2" height="11.55" style="fill: #594640;"/>
  <rect x="82.405" y="16.063" width="11.2" height="11.55" style="fill: #594640;"/>
</svg>