<?xml version="1.0" encoding="UTF-8"?>
<svg id="_图层_1" data-name="图层 1" xmlns="http://www.w3.org/2000/svg" viewBox="0 0 290.043 275.745">
  <rect x="161.611" y="236.389" width="10.6" height="10.65" style="fill: #75d6ff;"/>
  <rect x="151.011" y="236.389" width="10.6" height="10.65" style="fill: #75d6ff;"/>
  <rect x="140.411" y="236.389" width="10.6" height="10.65" style="fill: #75d6ff;"/>
  <rect x="129.811" y="236.389" width="10.6" height="10.65" style="fill: #75d6ff;"/>
  <rect x="119.211" y="236.389" width="10.6" height="10.65" style="fill: #75d6ff;"/>
  <rect x="108.611" y="236.389" width="10.6" height="10.65" style="fill: #75d6ff;"/>
  <rect x="98.011" y="236.389" width="10.6" height="10.65" style="fill: #75d6ff;"/>
  <rect x="87.411" y="236.389" width="10.6" height="10.65" style="fill: #75d6ff;"/>
  <rect x="76.811" y="236.389" width="10.6" height="10.65" style="fill: #75d6ff;"/>
  <rect x="66.211" y="236.389" width="10.6" height="10.65" style="fill: #75d6ff;"/>
  <rect x="55.611" y="236.389" width="10.6" height="10.65" style="fill: #75d6ff;"/>
  <rect x="172.211" y="225.739" width="10.6" height="10.65" style="fill: #75d6ff;"/>
  <rect x="161.611" y="225.739" width="10.6" height="10.65" style="fill: #fff;"/>
  <rect x="151.011" y="225.739" width="10.6" height="10.65" style="fill: #fff;"/>
  <rect x="140.411" y="225.739" width="10.6" height="10.65" style="fill: #fff;"/>
  <rect x="129.811" y="225.739" width="10.6" height="10.65" style="fill: #fff;"/>
  <rect x="119.211" y="225.739" width="10.6" height="10.65" style="fill: #fff;"/>
  <rect x="108.611" y="225.739" width="10.6" height="10.65" style="fill: #fff;"/>
  <rect x="98.011" y="225.739" width="10.6" height="10.65" style="fill: #fff;"/>
  <rect x="87.411" y="225.739" width="10.6" height="10.65" style="fill: #fff;"/>
  <rect x="76.811" y="225.739" width="10.6" height="10.65" style="fill: #fff;"/>
  <rect x="66.211" y="225.739" width="10.6" height="10.65" style="fill: #fff;"/>
  <rect x="55.611" y="225.739" width="10.6" height="10.65" style="fill: #fff;"/>
  <rect x="45.011" y="225.739" width="10.6" height="10.65" style="fill: #75d6ff;"/>
  <rect x="182.811" y="215.089" width="10.6" height="10.65" style="fill: #e2f6ff;"/>
  <rect x="172.211" y="215.089" width="10.6" height="10.65" style="fill: #e9f8ff;"/>
  <rect x="161.611" y="215.089" width="10.6" height="10.65" style="fill: #fff;"/>
  <rect x="151.011" y="215.089" width="10.6" height="10.65" style="fill: #fff;"/>
  <rect x="140.411" y="215.089" width="10.6" height="10.65" style="fill: #fff;"/>
  <rect x="129.811" y="215.089" width="10.6" height="10.65" style="fill: #fff;"/>
  <rect x="119.211" y="215.089" width="10.6" height="10.65" style="fill: #fff;"/>
  <rect x="108.611" y="215.089" width="10.6" height="10.65" style="fill: #fff;"/>
  <rect x="98.011" y="215.089" width="10.6" height="10.65" style="fill: #fff;"/>
  <rect x="87.411" y="215.089" width="10.6" height="10.65" style="fill: #fff;"/>
  <rect x="76.811" y="215.089" width="10.6" height="10.65" style="fill: #fff;"/>
  <rect x="66.211" y="215.089" width="10.6" height="10.65" style="fill: #fff;"/>
  <rect x="55.611" y="215.089" width="10.6" height="10.65" style="fill: #fff;"/>
  <rect x="45.011" y="215.089" width="10.6" height="10.65" style="fill: #75d6ff;"/>
  <rect x="182.811" y="204.439" width="10.6" height="10.65" style="fill: #a8e5ff;"/>
  <rect x="172.211" y="204.439" width="10.6" height="10.65" style="fill: #fff;"/>
  <rect x="161.611" y="204.439" width="10.6" height="10.65" style="fill: #fff;"/>
  <rect x="151.011" y="204.439" width="10.6" height="10.65" style="fill: #fff;"/>
  <rect x="140.411" y="204.439" width="10.6" height="10.65" style="fill: #fff;"/>
  <rect x="129.811" y="204.439" width="10.6" height="10.65" style="fill: #fff;"/>
  <rect x="119.211" y="204.439" width="10.6" height="10.65" style="fill: #fff;"/>
  <rect x="108.611" y="204.439" width="10.6" height="10.65" style="fill: #fff;"/>
  <rect x="98.011" y="204.439" width="10.6" height="10.65" style="fill: #fff;"/>
  <rect x="87.411" y="204.439" width="10.6" height="10.65" style="fill: #fff;"/>
  <rect x="76.811" y="204.439" width="10.6" height="10.65" style="fill: #fff;"/>
  <rect x="66.211" y="204.439" width="10.6" height="10.65" style="fill: #fff;"/>
  <rect x="55.611" y="204.439" width="10.6" height="10.65" style="fill: #fff;"/>
  <rect x="45.011" y="204.439" width="10.6" height="10.65" style="fill: #75d6ff;"/>
  <rect x="172.211" y="193.789" width="10.6" height="10.65" style="fill: #75d6ff;"/>
  <rect x="161.611" y="193.789" width="10.6" height="10.65" style="fill: #fff;"/>
  <rect x="151.011" y="193.789" width="10.6" height="10.65" style="fill: #fff;"/>
  <rect x="140.411" y="193.789" width="10.6" height="10.65" style="fill: #fff;"/>
  <rect x="129.811" y="193.789" width="10.6" height="10.65" style="fill: #fff;"/>
  <rect x="119.211" y="193.789" width="10.6" height="10.65" style="fill: #fff;"/>
  <rect x="108.611" y="193.789" width="10.6" height="10.65" style="fill: #fff;"/>
  <rect x="98.011" y="193.789" width="10.6" height="10.65" style="fill: #fff;"/>
  <rect x="87.411" y="193.789" width="10.6" height="10.65" style="fill: #fff;"/>
  <rect x="76.811" y="193.789" width="10.6" height="10.65" style="fill: #75d6ff;"/>
  <rect x="66.211" y="193.789" width="10.6" height="10.65" style="fill: #b1e7ff;"/>
  <rect x="55.611" y="193.789" width="10.6" height="10.65" style="fill: #75d6ff;"/>
  <rect x="161.611" y="183.139" width="10.6" height="10.65" style="fill: #75d6ff;"/>
  <rect x="151.011" y="183.139" width="10.6" height="10.65" style="fill: #75d6ff;"/>
  <rect x="140.411" y="183.139" width="10.6" height="10.65" style="fill: #fff;"/>
  <rect x="129.811" y="183.139" width="10.6" height="10.65" style="fill: #fff;"/>
  <rect x="119.211" y="183.139" width="10.6" height="10.65" style="fill: #fff;"/>
  <rect x="108.611" y="183.139" width="10.6" height="10.65" style="fill: #fff;"/>
  <rect x="98.011" y="183.139" width="10.6" height="10.65" style="fill: #fff;"/>
  <rect x="87.411" y="183.139" width="10.6" height="10.65" style="fill: #fff;"/>
  <rect x="76.811" y="183.139" width="10.6" height="10.65" style="fill: #fff;"/>
  <rect x="66.211" y="183.139" width="10.6" height="10.65" style="fill: #fff;"/>
  <rect x="55.611" y="183.139" width="10.6" height="10.65" style="fill: #75d6ff;"/>
  <rect x="161.611" y="172.489" width="10.6" height="10.65" style="fill: #75d6ff;"/>
  <rect x="151.011" y="172.489" width="10.6" height="10.65" style="fill: #fff;"/>
  <rect x="140.411" y="172.489" width="10.6" height="10.65" style="fill: #fff;"/>
  <rect x="129.811" y="172.489" width="10.6" height="10.65" style="fill: #fff;"/>
  <rect x="119.211" y="172.489" width="10.6" height="10.65" style="fill: #fff;"/>
  <rect x="108.611" y="172.489" width="10.6" height="10.65" style="fill: #75d6ff;"/>
  <rect x="98.011" y="172.489" width="10.6" height="10.65" style="fill: #fff;"/>
  <rect x="87.411" y="172.489" width="10.6" height="10.65" style="fill: #fff;"/>
  <rect x="76.811" y="172.489" width="10.6" height="10.65" style="fill: #fff;"/>
  <rect x="66.211" y="172.489" width="10.6" height="10.65" style="fill: #75d6ff;"/>
  <rect x="161.611" y="161.839" width="10.6" height="10.65" style="fill: #77cdff;"/>
  <rect x="151.011" y="161.839" width="10.6" height="10.65" style="fill: #90deff;"/>
  <rect x="140.411" y="161.839" width="10.6" height="10.65" style="fill: #fff;"/>
  <rect x="129.811" y="161.839" width="10.6" height="10.65" style="fill: #fff;"/>
  <rect x="119.211" y="161.839" width="10.6" height="10.65" style="fill: #fff;"/>
  <rect x="108.611" y="161.839" width="10.6" height="10.65" style="fill: #fff;"/>
  <rect x="98.011" y="161.839" width="10.6" height="10.65" style="fill: #75d6ff;"/>
  <rect x="87.411" y="161.839" width="10.6" height="10.65" style="fill: #75d6ff;"/>
  <rect x="76.811" y="161.839" width="10.6" height="10.65" style="fill: #75d6ff;"/>
  <rect x="172.211" y="151.189" width="10.6" height="10.65" style="fill: #9180ff;"/>
  <rect x="161.611" y="151.189" width="10.6" height="10.65" style="fill: #9180ff;"/>
  <rect x="151.011" y="151.189" width="10.6" height="10.65" style="fill: #75d6ff;"/>
  <rect x="140.411" y="151.189" width="10.6" height="10.65" style="fill: #75d6ff;"/>
  <rect x="129.811" y="151.189" width="10.6" height="10.65" style="fill: #92deff;"/>
  <rect x="119.211" y="151.189" width="10.6" height="10.65" style="fill: #75d6ff;"/>
  <rect x="108.611" y="151.189" width="10.6" height="10.65" style="fill: #75d6ff;"/>
  <rect x="98.011" y="151.189" width="10.6" height="10.65" style="fill: #f66;"/>
  <rect x="87.411" y="151.189" width="10.6" height="10.65" style="fill: #ff6b6b;"/>
  <rect x="172.211" y="140.539" width="10.6" height="10.65" style="fill: #9180ff;"/>
  <rect x="161.611" y="140.539" width="10.6" height="10.65" style="fill: #66c2ff;"/>
  <rect x="151.011" y="140.539" width="10.6" height="10.65" style="fill: #66c2ff;"/>
  <rect x="140.411" y="140.539" width="10.6" height="10.65" style="fill: #a3e66f;"/>
  <rect x="129.811" y="140.539" width="10.6" height="10.65" style="fill: #a3e66f;"/>
  <rect x="119.211" y="140.539" width="10.6" height="10.65" style="fill: #fffb80;"/>
  <rect x="108.611" y="140.539" width="10.6" height="10.65" style="fill: #fffb80;"/>
  <rect x="98.011" y="140.539" width="10.6" height="10.65" style="fill: #f66;"/>
  <rect x="193.411" y="129.889" width="10.6" height="10.65" style="fill: #e3dfff;"/>
  <rect x="182.811" y="129.889" width="10.6" height="10.65" style="fill: #9180ff;"/>
  <rect x="172.211" y="129.889" width="10.6" height="10.65" style="fill: #9180ff;"/>
  <rect x="161.611" y="129.889" width="10.6" height="10.65" style="fill: #66c2ff;"/>
  <rect x="151.011" y="129.889" width="10.6" height="10.65" style="fill: #67c3fb;"/>
  <rect x="140.411" y="129.889" width="10.6" height="10.65" style="fill: #a3e66f;"/>
  <rect x="129.811" y="129.889" width="10.6" height="10.65" style="fill: #fffb80;"/>
  <rect x="119.211" y="129.889" width="10.6" height="10.65" style="fill: #fffb80;"/>
  <rect x="108.611" y="129.889" width="10.6" height="10.65" style="fill: #f66;"/>
  <rect x="98.011" y="129.889" width="10.6" height="10.65" style="fill: #f66;"/>
  <rect x="204.011" y="119.239" width="10.6" height="10.65" style="fill: #9180ff;"/>
  <rect x="193.411" y="119.239" width="10.6" height="10.65" style="fill: #9180ff;"/>
  <rect x="182.811" y="119.239" width="10.6" height="10.65" style="fill: #9180ff;"/>
  <rect x="172.211" y="119.239" width="10.6" height="10.65" style="fill: #66c2ff;"/>
  <rect x="161.611" y="119.239" width="10.6" height="10.65" style="fill: #66c2ff;"/>
  <rect x="151.011" y="119.239" width="10.6" height="10.65" style="fill: #a3e66f;"/>
  <rect x="140.411" y="119.239" width="10.6" height="10.65" style="fill: #a3e66f;"/>
  <rect x="129.811" y="119.239" width="10.6" height="10.65" style="fill: #fffb80;"/>
  <rect x="119.211" y="119.239" width="10.6" height="10.65" style="fill: #ffd879;"/>
  <rect x="108.611" y="119.239" width="10.6" height="10.65" style="fill: #f66;"/>
  <rect x="246.411" y="108.589" width="10.6" height="10.65" style="fill: #9180ff;"/>
  <rect x="235.811" y="108.589" width="10.6" height="10.65" style="fill: #9180ff;"/>
  <rect x="225.211" y="108.589" width="10.6" height="10.65" style="fill: #9180ff;"/>
  <rect x="214.611" y="108.589" width="10.6" height="10.65" style="fill: #9180ff;"/>
  <rect x="204.011" y="108.589" width="10.6" height="10.65" style="fill: #9180ff;"/>
  <rect x="193.411" y="108.589" width="10.6" height="10.65" style="fill: #66c2ff;"/>
  <rect x="182.811" y="108.589" width="10.6" height="10.65" style="fill: #66c2ff;"/>
  <rect x="172.211" y="108.589" width="10.6" height="10.65" style="fill: #66c2ff;"/>
  <rect x="161.611" y="108.589" width="10.6" height="10.65" style="fill: #a3e66f;"/>
  <rect x="151.011" y="108.589" width="10.6" height="10.65" style="fill: #a3e66f;"/>
  <rect x="140.411" y="108.589" width="10.6" height="10.65" style="fill: #fffb80;"/>
  <rect x="129.811" y="108.589" width="10.6" height="10.65" style="fill: #fffb80;"/>
  <rect x="119.211" y="108.589" width="10.6" height="10.65" style="fill: #f66;"/>
  <rect x="108.611" y="108.589" width="10.6" height="10.65" style="fill: #f66;"/>
  <rect x="246.411" y="97.939" width="10.6" height="10.65" style="fill: #9180ff;"/>
  <rect x="235.811" y="97.939" width="10.6" height="10.65" style="fill: #9180ff;"/>
  <rect x="225.211" y="97.939" width="10.6" height="10.65" style="fill: #9180ff;"/>
  <rect x="214.611" y="97.939" width="10.6" height="10.65" style="fill: #66c2ff;"/>
  <rect x="204.011" y="97.939" width="10.6" height="10.65" style="fill: #66c2ff;"/>
  <rect x="193.411" y="97.939" width="10.6" height="10.65" style="fill: #66c2ff;"/>
  <rect x="182.811" y="97.939" width="10.6" height="10.65" style="fill: #6ec7ea;"/>
  <rect x="172.211" y="97.939" width="10.6" height="10.65" style="fill: #a3e66f;"/>
  <rect x="161.611" y="97.939" width="10.6" height="10.65" style="fill: #a3e66f;"/>
  <rect x="151.011" y="97.939" width="10.6" height="10.65" style="fill: #fffb80;"/>
  <rect x="140.411" y="97.939" width="10.6" height="10.65" style="fill: #fffb80;"/>
  <rect x="129.811" y="97.939" width="10.6" height="10.65" style="fill: #f66;"/>
  <rect x="119.211" y="97.939" width="10.6" height="10.65" style="fill: #f66;"/>
  <rect x="246.411" y="87.289" width="10.6" height="10.65" style="fill: #66c2ff;"/>
  <rect x="235.811" y="87.289" width="10.6" height="10.65" style="fill: #66c2ff;"/>
  <rect x="225.211" y="87.289" width="10.6" height="10.65" style="fill: #66c2ff;"/>
  <rect x="214.611" y="87.289" width="10.6" height="10.65" style="fill: #66c2ff;"/>
  <rect x="204.011" y="87.289" width="10.6" height="10.65" style="fill: #66c2ff;"/>
  <rect x="193.411" y="87.289" width="10.6" height="10.65" style="fill: #a3e66f;"/>
  <rect x="182.811" y="87.289" width="10.6" height="10.65" style="fill: #a3e66f;"/>
  <rect x="172.211" y="87.289" width="10.6" height="10.65" style="fill: #a3e66f;"/>
  <rect x="161.611" y="87.289" width="10.6" height="10.65" style="fill: #fffb80;"/>
  <rect x="151.011" y="87.289" width="10.6" height="10.65" style="fill: #fffb80;"/>
  <rect x="140.411" y="87.289" width="10.6" height="10.65" style="fill: #f66;"/>
  <rect x="129.811" y="87.289" width="10.6" height="10.65" style="fill: #f66;"/>
  <rect x="246.411" y="76.639" width="10.6" height="10.65" style="fill: #9fe377;"/>
  <rect x="235.811" y="76.639" width="10.6" height="10.65" style="fill: #a3e66f;"/>
  <rect x="225.211" y="76.639" width="10.6" height="10.65" style="fill: #a3e66f;"/>
  <rect x="214.611" y="76.639" width="10.6" height="10.65" style="fill: #a3e66f;"/>
  <rect x="204.011" y="76.639" width="10.6" height="10.65" style="fill: #a3e66f;"/>
  <rect x="193.411" y="76.639" width="10.6" height="10.65" style="fill: #a3e66f;"/>
  <rect x="182.811" y="76.639" width="10.6" height="10.65" style="fill: #fffb80;"/>
  <rect x="172.211" y="76.639" width="10.6" height="10.65" style="fill: #fffb80;"/>
  <rect x="161.611" y="76.639" width="10.6" height="10.65" style="fill: #fffb80;"/>
  <rect x="151.011" y="76.639" width="10.6" height="10.65" style="fill: #f66;"/>
  <rect x="140.411" y="76.639" width="10.6" height="10.65" style="fill: #f66;"/>
  <rect x="246.411" y="65.989" width="10.6" height="10.65" style="fill: #a3e66f;"/>
  <rect x="235.811" y="65.989" width="10.6" height="10.65" style="fill: #a3e66f;"/>
  <rect x="225.211" y="65.989" width="10.6" height="10.65" style="fill: #a3e66f;"/>
  <rect x="214.611" y="65.989" width="10.6" height="10.65" style="fill: #c0ec74;"/>
  <rect x="204.011" y="65.989" width="10.6" height="10.65" style="fill: #fffb80;"/>
  <rect x="193.411" y="65.989" width="10.6" height="10.65" style="fill: #fffb80;"/>
  <rect x="182.811" y="65.989" width="10.6" height="10.65" style="fill: #fffb80;"/>
  <rect x="172.211" y="65.989" width="10.6" height="10.65" style="fill: #ff7b69;"/>
  <rect x="161.611" y="65.989" width="10.6" height="10.65" style="fill: #f66;"/>
  <rect x="151.011" y="65.989" width="10.6" height="10.65" style="fill: #f66;"/>
  <rect x="246.411" y="55.339" width="10.6" height="10.65" style="fill: #fffb80;"/>
  <rect x="235.811" y="55.339" width="10.6" height="10.65" style="fill: #fffb80;"/>
  <rect x="225.211" y="55.339" width="10.6" height="10.65" style="fill: #fffb80;"/>
  <rect x="214.611" y="55.339" width="10.6" height="10.65" style="fill: #fffb80;"/>
  <rect x="204.011" y="55.339" width="10.6" height="10.65" style="fill: #fffb80;"/>
  <rect x="193.411" y="55.339" width="10.6" height="10.65" style="fill: #f66;"/>
  <rect x="182.811" y="55.339" width="10.6" height="10.65" style="fill: #f66;"/>
  <rect x="172.211" y="55.339" width="10.6" height="10.65" style="fill: #f66;"/>
  <rect x="161.611" y="55.339" width="10.6" height="10.65" style="fill: #f66;"/>
  <rect x="246.411" y="44.689" width="10.6" height="10.65" style="fill: #ff896c;"/>
  <rect x="235.811" y="44.689" width="10.6" height="10.65" style="fill: #f66;"/>
  <rect x="225.211" y="44.689" width="10.6" height="10.65" style="fill: #f66;"/>
  <rect x="214.611" y="44.689" width="10.6" height="10.65" style="fill: #f66;"/>
  <rect x="204.011" y="44.689" width="10.6" height="10.65" style="fill: #f66;"/>
  <rect x="193.411" y="44.689" width="10.6" height="10.65" style="fill: #f66;"/>
  <rect x="182.811" y="44.689" width="10.6" height="10.65" style="fill: #f66;"/>
  <rect x="246.411" y="34.039" width="10.6" height="10.65" style="fill: #f66;"/>
  <rect x="235.811" y="34.039" width="10.6" height="10.65" style="fill: #f66;"/>
  <rect x="225.211" y="34.039" width="10.6" height="10.65" style="fill: #f66;"/>
  <rect x="214.611" y="34.039" width="10.6" height="10.65" style="fill: #f66;"/>
</svg>