<?xml version="1.0" encoding="UTF-8"?>
<svg id="_图层_1" data-name="图层 1" xmlns="http://www.w3.org/2000/svg" viewBox="0 0 275.745 269.617">
  <polyline points="217.319 232.591 205.394 232.591 205.394 244.824" style="fill: #fff;"/>
  <rect x="181.544" y="232.591" width="11.925" height="12.232" style="fill: #ff506e;"/>
  <rect x="169.619" y="232.591" width="11.925" height="12.232" style="fill: #ff506e;"/>
  <rect x="109.994" y="232.591" width="11.925" height="12.232" style="fill: #ff506e;"/>
  <rect x="98.069" y="232.591" width="11.925" height="12.232" style="fill: #ff506e;"/>
  <rect x="217.319" y="220.359" width="11.925" height="12.232" style="fill: #ff506e;"/>
  <rect x="205.394" y="220.359" width="11.925" height="12.232" style="fill: #ff8196;"/>
  <rect x="193.469" y="220.359" width="11.925" height="12.232" style="fill: #ff506e;"/>
  <rect x="181.544" y="220.359" width="11.925" height="12.232" style="fill: #fff0f3;"/>
  <rect x="169.619" y="220.359" width="11.925" height="12.232" style="fill: #fff0f3;"/>
  <rect x="157.694" y="220.359" width="11.925" height="12.232" style="fill: #ff506e;"/>
  <rect x="121.919" y="220.359" width="11.925" height="12.232" style="fill: #ff506e;"/>
  <rect x="109.994" y="220.359" width="11.925" height="12.232" style="fill: #fff0f3;"/>
  <rect x="98.069" y="220.359" width="11.925" height="12.232" style="fill: #fff0f3;"/>
  <rect x="86.144" y="220.359" width="11.925" height="12.232" style="fill: #ff506e;"/>
  <rect x="74.219" y="220.359" width="11.925" height="12.232" style="fill: #ff8398;"/>
  <rect x="62.294" y="220.359" width="11.925" height="12.232" style="fill: #ff506e;"/>
  <rect x="217.319" y="208.127" width="11.925" height="12.232" style="fill: #ff506e;"/>
  <rect x="205.394" y="208.127" width="11.925" height="12.232" style="fill: #fff0f3;"/>
  <rect x="193.469" y="208.127" width="11.925" height="12.232" style="fill: #fff0f3;"/>
  <rect x="181.544" y="208.127" width="11.925" height="12.232" style="fill: #fff0f3;"/>
  <rect x="169.619" y="208.127" width="11.925" height="12.232" style="fill: #fff0f3;"/>
  <rect x="157.694" y="208.127" width="11.925" height="12.232" style="fill: #fff0f3;"/>
  <rect x="121.919" y="208.127" width="11.925" height="12.232" style="fill: #fff0f3;"/>
  <rect x="109.994" y="208.127" width="11.925" height="12.232" style="fill: #fff0f3;"/>
  <rect x="98.069" y="208.127" width="11.925" height="12.232" style="fill: #fff0f3;"/>
  <rect x="86.144" y="208.127" width="11.925" height="12.232" style="fill: #fff0f3;"/>
  <rect x="74.219" y="208.127" width="11.925" height="12.232" style="fill: #fff0f3;"/>
  <rect x="62.294" y="208.127" width="11.925" height="12.232" style="fill: #ff506e;"/>
  <rect x="217.319" y="195.894" width="11.925" height="12.232" style="fill: #ff506e;"/>
  <rect x="205.394" y="195.894" width="11.925" height="12.232" style="fill: #fff0f3;"/>
  <rect x="193.469" y="195.894" width="11.925" height="12.232" style="fill: #fff0f3;"/>
  <rect x="181.544" y="195.894" width="11.925" height="12.232" style="fill: #fff0f3;"/>
  <rect x="169.619" y="195.894" width="11.925" height="12.232" style="fill: #fff0f3;"/>
  <rect x="157.694" y="195.894" width="11.925" height="12.232" style="fill: #fff0f3;"/>
  <rect x="145.769" y="195.894" width="11.925" height="12.232" style="fill: #ffeef1;"/>
  <rect x="133.844" y="195.894" width="11.925" height="12.232" style="fill: #fff0f3;"/>
  <rect x="121.919" y="195.894" width="11.925" height="12.232" style="fill: #fff0f3;"/>
  <rect x="109.994" y="195.894" width="11.925" height="12.232" style="fill: #fff0f3;"/>
  <rect x="98.069" y="195.894" width="11.925" height="12.232" style="fill: #fff0f3;"/>
  <rect x="86.144" y="195.894" width="11.925" height="12.232" style="fill: #fff0f3;"/>
  <rect x="74.219" y="195.894" width="11.925" height="12.232" style="fill: #fff0f3;"/>
  <rect x="62.294" y="195.894" width="11.925" height="12.232" style="fill: #ff506e;"/>
  <rect x="205.394" y="183.662" width="11.925" height="12.232" style="fill: #fff0f3;"/>
  <rect x="193.469" y="183.662" width="11.925" height="12.232" style="fill: #fff0f3;"/>
  <rect x="181.544" y="183.662" width="11.925" height="12.232" style="fill: #fff0f3;"/>
  <rect x="169.619" y="183.662" width="11.925" height="12.232" style="fill: #fff0f3;"/>
  <rect x="157.694" y="183.662" width="11.925" height="12.232" style="fill: #fff0f3;"/>
  <rect x="145.769" y="183.662" width="11.925" height="12.232" style="fill: #fff0f3;"/>
  <rect x="133.844" y="183.662" width="11.925" height="12.232" style="fill: #fff0f3;"/>
  <rect x="121.919" y="183.662" width="11.925" height="12.232" style="fill: #fff0f3;"/>
  <rect x="109.994" y="183.662" width="11.925" height="12.232" style="fill: #fff0f3;"/>
  <rect x="98.069" y="183.662" width="11.925" height="12.232" style="fill: #ff6b85;"/>
  <rect x="86.144" y="183.662" width="11.925" height="12.232" style="fill: #fff0f3;"/>
  <rect x="74.219" y="183.662" width="11.925" height="12.232" style="fill: #fff0f3;"/>
  <rect x="205.394" y="171.43" width="11.925" height="12.232" style="fill: #ff506e;"/>
  <rect x="193.469" y="171.43" width="11.925" height="12.232" style="fill: #fff0f3;"/>
  <rect x="181.544" y="171.43" width="11.925" height="12.232" style="fill: #fff0f3;"/>
  <rect x="169.619" y="171.43" width="11.925" height="12.232" style="fill: #ff6b85;"/>
  <rect x="157.694" y="171.43" width="11.925" height="12.232" style="fill: #fff0f3;"/>
  <rect x="145.769" y="171.43" width="11.925" height="12.232" style="fill: #fff0f3;"/>
  <rect x="133.844" y="171.43" width="11.925" height="12.232" style="fill: #fff0f3;"/>
  <rect x="121.919" y="171.43" width="11.925" height="12.232" style="fill: #fff0f3;"/>
  <rect x="109.994" y="171.43" width="11.925" height="12.232" style="fill: #ff6b85;"/>
  <rect x="98.069" y="171.43" width="11.925" height="12.232" style="fill: #fff0f3;"/>
  <rect x="86.144" y="171.43" width="11.925" height="12.232" style="fill: #fff0f3;"/>
  <rect x="74.219" y="171.43" width="11.925" height="12.232" style="fill: #ff506e;"/>
  <rect x="193.469" y="159.197" width="11.925" height="12.232" style="fill: #ff506e;"/>
  <rect x="181.544" y="159.197" width="11.925" height="12.232" style="fill: #fff0f3;"/>
  <rect x="169.619" y="159.197" width="11.925" height="12.232" style="fill: #fff0f3;"/>
  <rect x="157.694" y="159.197" width="11.925" height="12.232" style="fill: #ff6b85;"/>
  <rect x="145.769" y="159.197" width="11.925" height="12.232" style="fill: #fff0f3;"/>
  <rect x="133.844" y="159.197" width="11.925" height="12.232" style="fill: #fff0f3;"/>
  <rect x="121.919" y="159.197" width="11.925" height="12.232" style="fill: #ff6b85;"/>
  <rect x="109.994" y="159.197" width="11.925" height="12.232" style="fill: #fff0f3;"/>
  <rect x="98.069" y="159.197" width="11.925" height="12.232" style="fill: #fff0f3;"/>
  <rect x="86.144" y="159.197" width="11.925" height="12.232" style="fill: #ff526f;"/>
  <rect x="205.394" y="146.965" width="11.925" height="12.232" style="fill: #ff6781;"/>
  <rect x="193.469" y="146.965" width="11.925" height="12.232" style="fill: #ff506e;"/>
  <rect x="181.544" y="146.965" width="11.925" height="12.232" style="fill: #ffaab8;"/>
  <rect x="169.619" y="146.965" width="11.925" height="12.232" style="fill: #ff506e;"/>
  <rect x="157.694" y="146.965" width="11.925" height="12.232" style="fill: #fff0f3;"/>
  <rect x="145.769" y="146.965" width="11.925" height="12.232" style="fill: #ff506e;"/>
  <rect x="133.844" y="146.965" width="11.925" height="12.232" style="fill: #ff506e;"/>
  <rect x="121.919" y="146.965" width="11.925" height="12.232" style="fill: #fff0f3;"/>
  <rect x="109.994" y="146.965" width="11.925" height="12.232" style="fill: #ff506e;"/>
  <rect x="98.069" y="146.965" width="11.925" height="12.232" style="fill: #ffaab8;"/>
  <rect x="86.144" y="146.965" width="11.925" height="12.232" style="fill: #ff506e;"/>
  <rect x="74.219" y="146.965" width="11.925" height="12.232" style="fill: #ff6982;"/>
  <rect x="229.244" y="134.733" width="11.925" height="12.232" style="fill: #ff506e;"/>
  <rect x="217.319" y="134.733" width="11.925" height="12.232" style="fill: #fff0f3;"/>
  <rect x="205.394" y="134.733" width="11.925" height="12.232" style="fill: #fff0f3;"/>
  <rect x="193.469" y="134.733" width="11.925" height="12.232" style="fill: #fff0f3;"/>
  <rect x="181.544" y="134.733" width="11.925" height="12.232" style="fill: #fff0f3;"/>
  <rect x="169.619" y="134.733" width="11.925" height="12.232" style="fill: #fff0f3;"/>
  <rect x="157.694" y="134.733" width="11.925" height="12.232" style="fill: #fff0f3;"/>
  <rect x="145.769" y="134.733" width="11.925" height="12.232" style="fill: #ff506e;"/>
  <rect x="133.844" y="134.733" width="11.925" height="12.232" style="fill: #ff506e;"/>
  <rect x="121.919" y="134.733" width="11.925" height="12.232" style="fill: #fff0f3;"/>
  <rect x="109.994" y="134.733" width="11.925" height="12.232" style="fill: #fff0f3;"/>
  <rect x="98.069" y="134.733" width="11.925" height="12.232" style="fill: #fff0f3;"/>
  <rect x="86.144" y="134.733" width="11.925" height="12.232" style="fill: #fff0f3;"/>
  <rect x="74.219" y="134.733" width="11.925" height="12.232" style="fill: #fff0f3;"/>
  <rect x="62.294" y="134.733" width="11.925" height="12.232" style="fill: #fff0f3;"/>
  <rect x="50.369" y="134.733" width="11.925" height="12.232" style="fill: #ff506e;"/>
  <rect x="241.169" y="122.5" width="11.925" height="12.232" style="fill: #ff506e;"/>
  <rect x="229.244" y="122.5" width="11.925" height="12.232" style="fill: #fff0f3;"/>
  <rect x="217.319" y="122.5" width="11.925" height="12.232" style="fill: #fff0f3;"/>
  <rect x="205.394" y="122.5" width="11.925" height="12.232" style="fill: #fff0f3;"/>
  <rect x="193.469" y="122.5" width="11.925" height="12.232" style="fill: #fff0f3;"/>
  <rect x="181.544" y="122.5" width="11.925" height="12.232" style="fill: #fff0f3;"/>
  <rect x="169.619" y="122.5" width="11.925" height="12.232" style="fill: #ff506e;"/>
  <rect x="157.694" y="122.5" width="11.925" height="12.232" style="fill: #ff506e;"/>
  <rect x="145.769" y="122.5" width="11.925" height="12.232" style="fill: #ff506e;"/>
  <rect x="133.844" y="122.5" width="11.925" height="12.232" style="fill: #ff506e;"/>
  <rect x="121.919" y="122.5" width="11.925" height="12.232" style="fill: #ff506e;"/>
  <rect x="109.994" y="122.5" width="11.925" height="12.232" style="fill: #ff506e;"/>
  <rect x="98.069" y="122.5" width="11.925" height="12.232" style="fill: #fff0f3;"/>
  <rect x="86.144" y="122.5" width="11.925" height="12.232" style="fill: #fff0f3;"/>
  <rect x="74.219" y="122.5" width="11.925" height="12.232" style="fill: #fff0f3;"/>
  <rect x="62.294" y="122.5" width="11.925" height="12.232" style="fill: #fff0f3;"/>
  <rect x="50.369" y="122.5" width="11.925" height="12.232" style="fill: #fff0f3;"/>
  <rect x="38.444" y="122.5" width="11.925" height="12.232" style="fill: #ff506e;"/>
  <rect x="241.169" y="110.268" width="11.925" height="12.232" style="fill: #ff506e;"/>
  <rect x="229.244" y="110.268" width="11.925" height="12.232" style="fill: #fff0f3;"/>
  <rect x="217.319" y="110.268" width="11.925" height="12.232" style="fill: #fff0f3;"/>
  <rect x="205.394" y="110.268" width="11.925" height="12.232" style="fill: #fff0f3;"/>
  <rect x="193.469" y="110.268" width="11.925" height="12.232" style="fill: #fff0f3;"/>
  <rect x="181.544" y="110.268" width="11.925" height="12.232" style="fill: #fff0f3;"/>
  <rect x="169.619" y="110.268" width="11.925" height="12.232" style="fill: #fff0f3;"/>
  <rect x="157.694" y="110.268" width="11.925" height="12.232" style="fill: #fff0f3;"/>
  <rect x="145.769" y="110.268" width="11.925" height="12.232" style="fill: #ffe2e8;"/>
  <rect x="133.844" y="110.268" width="11.925" height="12.232" style="fill: #ff7b91;"/>
  <rect x="121.919" y="110.268" width="11.925" height="12.232" style="fill: #fff0f3;"/>
  <rect x="109.994" y="110.268" width="11.925" height="12.232" style="fill: #ffe7eb;"/>
  <rect x="98.069" y="110.268" width="11.925" height="12.232" style="fill: #fff0f3;"/>
  <rect x="86.144" y="110.268" width="11.925" height="12.232" style="fill: #fff0f3;"/>
  <rect x="74.219" y="110.268" width="11.925" height="12.232" style="fill: #fff0f3;"/>
  <rect x="62.294" y="110.268" width="11.925" height="12.232" style="fill: #fff0f3;"/>
  <rect x="50.369" y="110.268" width="11.925" height="12.232" style="fill: #fff0f3;"/>
  <rect x="38.444" y="110.268" width="11.925" height="12.232" style="fill: #ff506e;"/>
  <rect x="229.244" y="98.036" width="11.925" height="12.232" style="fill: #ff506e;"/>
  <rect x="217.319" y="98.036" width="11.925" height="12.232" style="fill: #fff0f3;"/>
  <rect x="205.394" y="98.036" width="11.925" height="12.232" style="fill: #fff0f3;"/>
  <rect x="193.469" y="98.036" width="11.925" height="12.232" style="fill: #fff0f3;"/>
  <rect x="181.544" y="98.036" width="11.925" height="12.232" style="fill: #fff0f3;"/>
  <rect x="169.619" y="98.036" width="11.925" height="12.232" style="fill: #fff0f3;"/>
  <rect x="157.694" y="98.036" width="11.925" height="12.232" style="fill: #ff506e;"/>
  <rect x="145.769" y="98.036" width="11.925" height="12.232" style="fill: #fff0f3;"/>
  <rect x="133.844" y="98.036" width="11.925" height="12.232" style="fill: #fff0f3;"/>
  <rect x="121.919" y="98.036" width="11.925" height="12.232" style="fill: #ff506e;"/>
  <rect x="109.994" y="98.036" width="11.925" height="12.232" style="fill: #fff0f3;"/>
  <rect x="98.069" y="98.036" width="11.925" height="12.232" style="fill: #fff0f3;"/>
  <rect x="86.144" y="98.036" width="11.925" height="12.232" style="fill: #fff0f3;"/>
  <rect x="74.219" y="98.036" width="11.925" height="12.232" style="fill: #fff0f3;"/>
  <rect x="62.294" y="98.036" width="11.925" height="12.232" style="fill: #fff0f3;"/>
  <rect x="50.369" y="98.036" width="11.925" height="12.232" style="fill: #ff506e;"/>
  <rect x="229.244" y="85.803" width="11.925" height="12.232" style="fill: #ff506e;"/>
  <rect x="217.319" y="85.803" width="11.925" height="12.232" style="fill: #fff0f3;"/>
  <rect x="205.394" y="85.803" width="11.925" height="12.232" style="fill: #fff0f3;"/>
  <rect x="193.469" y="85.803" width="11.925" height="12.232" style="fill: #fff0f3;"/>
  <rect x="181.544" y="85.803" width="11.925" height="12.232" style="fill: #fff0f3;"/>
  <rect x="169.619" y="85.803" width="11.925" height="12.232" style="fill: #ff5d78;"/>
  <rect x="157.694" y="85.803" width="11.925" height="12.232" style="fill: #fff0f3;"/>
  <rect x="145.769" y="85.803" width="11.925" height="12.232" style="fill: #fff0f3;"/>
  <rect x="133.844" y="85.803" width="11.925" height="12.232" style="fill: #fff0f3;"/>
  <rect x="121.919" y="85.803" width="11.925" height="12.232" style="fill: #fff0f3;"/>
  <rect x="109.994" y="85.803" width="11.925" height="12.232" style="fill: #ff5572;"/>
  <rect x="98.069" y="85.803" width="11.925" height="12.232" style="fill: #fff0f3;"/>
  <rect x="86.144" y="85.803" width="11.925" height="12.232" style="fill: #fff0f3;"/>
  <rect x="74.219" y="85.803" width="11.925" height="12.232" style="fill: #fff0f3;"/>
  <rect x="62.294" y="85.803" width="11.925" height="12.232" style="fill: #fff0f3;"/>
  <rect x="50.369" y="85.803" width="11.925" height="12.232" style="fill: #ff506e;"/>
  <rect x="229.244" y="73.571" width="11.925" height="12.232" style="fill: #ff506e;"/>
  <rect x="217.319" y="73.571" width="11.925" height="12.232" style="fill: #ff506e;"/>
  <rect x="205.394" y="73.571" width="11.925" height="12.232" style="fill: #ff506e;"/>
  <rect x="169.619" y="73.571" width="11.925" height="12.232" style="fill: #fff0f3;"/>
  <rect x="157.694" y="73.571" width="11.925" height="12.232" style="fill: #fff0f3;"/>
  <rect x="145.769" y="73.571" width="11.925" height="12.232" style="fill: #fff0f3;"/>
  <rect x="133.844" y="73.571" width="11.925" height="12.232" style="fill: #fff0f3;"/>
  <rect x="121.919" y="73.571" width="11.925" height="12.232" style="fill: #fff0f3;"/>
  <rect x="109.994" y="73.571" width="11.925" height="12.232" style="fill: #fff0f3;"/>
  <rect x="74.219" y="73.571" width="11.925" height="12.232" style="fill: #ff506e;"/>
  <rect x="62.294" y="73.571" width="11.925" height="12.232" style="fill: #ff506e;"/>
  <rect x="50.369" y="73.571" width="11.925" height="12.232" style="fill: #ff506e;"/>
  <rect x="169.619" y="61.339" width="11.925" height="12.232" style="fill: #ff6f87;"/>
  <rect x="157.694" y="61.339" width="11.925" height="12.232" style="fill: #fff0f3;"/>
  <rect x="145.769" y="61.339" width="11.925" height="12.232" style="fill: #fff0f3;"/>
  <rect x="133.844" y="61.339" width="11.925" height="12.232" style="fill: #fff0f3;"/>
  <rect x="121.919" y="61.339" width="11.925" height="12.232" style="fill: #fff0f3;"/>
  <rect x="109.994" y="61.339" width="11.925" height="12.232" style="fill: #ff6680;"/>
  <rect x="169.619" y="49.106" width="11.925" height="12.232" style="fill: #ff506e;"/>
  <rect x="157.694" y="49.106" width="11.925" height="12.232" style="fill: #fff0f3;"/>
  <rect x="145.769" y="49.106" width="11.925" height="12.232" style="fill: #fff0f3;"/>
  <rect x="133.844" y="49.106" width="11.925" height="12.232" style="fill: #fff0f3;"/>
  <rect x="121.919" y="49.106" width="11.925" height="12.232" style="fill: #fff0f3;"/>
  <rect x="109.994" y="49.106" width="11.925" height="12.232" style="fill: #ff506e;"/>
  <rect x="169.619" y="36.874" width="11.925" height="12.232" style="fill: #ff506e;"/>
  <rect x="157.694" y="36.874" width="11.925" height="12.232" style="fill: #ff6f88;"/>
  <rect x="145.769" y="36.874" width="11.925" height="12.232" style="fill: #ff506e;"/>
  <rect x="133.844" y="36.874" width="11.925" height="12.232" style="fill: #ff506e;"/>
  <rect x="121.919" y="36.874" width="11.925" height="12.232" style="fill: #ff6a84;"/>
  <rect x="109.994" y="36.874" width="11.925" height="12.232" style="fill: #ff506e;"/>
  <rect x="157.694" y="24.642" width="11.925" height="12.232" style="fill: #ff506e;"/>
  <rect x="121.919" y="24.642" width="11.925" height="12.232" style="fill: #ff506e;"/>
</svg>