<?xml version="1.0" encoding="UTF-8"?>
<svg id="_图层_1" data-name="图层 1" xmlns="http://www.w3.org/2000/svg" viewBox="0 0 298.213 163.404">
  <rect x="229.319" y="138.32" width="12.35" height="6.15" style="fill: #94989b;"/>
  <rect x="216.969" y="138.32" width="12.35" height="6.15" style="fill: #94989b;"/>
  <rect x="204.619" y="138.32" width="12.35" height="6.15" style="fill: #94989b;"/>
  <rect x="192.269" y="138.32" width="12.35" height="6.15" style="fill: #94989b;"/>
  <rect x="179.919" y="138.32" width="12.35" height="6.15" style="fill: #94989b;"/>
  <rect x="167.569" y="138.32" width="12.35" height="6.15" style="fill: #94989b;"/>
  <rect x="155.219" y="138.32" width="12.35" height="6.15" style="fill: #94989b;"/>
  <rect x="142.869" y="138.32" width="12.35" height="6.15" style="fill: #94989b;"/>
  <rect x="130.519" y="138.32" width="12.35" height="6.15" style="fill: #94989b;"/>
  <rect x="118.169" y="138.32" width="12.35" height="6.15" style="fill: #94989b;"/>
  <rect x="105.819" y="138.32" width="12.35" height="6.15" style="fill: #94989b;"/>
  <rect x="93.469" y="138.32" width="12.35" height="6.15" style="fill: #94989b;"/>
  <rect x="81.119" y="138.32" width="12.35" height="6.15" style="fill: #94989b;"/>
  <rect x="68.769" y="138.32" width="12.35" height="6.15" style="fill: #bfc1c3;"/>
  <rect x="241.669" y="132.17" width="12.35" height="6.15" style="fill: #94989b;"/>
  <rect x="229.319" y="132.17" width="12.35" height="6.15" style="fill: #94989b;"/>
  <rect x="216.969" y="132.17" width="12.35" height="6.15" style="fill: #3e4347;"/>
  <rect x="204.619" y="132.17" width="12.35" height="6.15" style="fill: #3e4347;"/>
  <rect x="192.269" y="132.17" width="12.35" height="6.15" style="fill: #3e4347;"/>
  <rect x="179.919" y="132.17" width="12.35" height="6.15" style="fill: #3e4347;"/>
  <rect x="167.569" y="132.17" width="12.35" height="6.15" style="fill: #3e4347;"/>
  <rect x="155.219" y="132.17" width="12.35" height="6.15" style="fill: #3e4347;"/>
  <rect x="142.869" y="132.17" width="12.35" height="6.15" style="fill: #3e4347;"/>
  <rect x="130.519" y="132.17" width="12.35" height="6.15" style="fill: #3e4347;"/>
  <rect x="118.169" y="132.17" width="12.35" height="6.15" style="fill: #3e4347;"/>
  <rect x="105.819" y="132.17" width="12.35" height="6.15" style="fill: #3e4347;"/>
  <rect x="93.469" y="132.17" width="12.35" height="6.15" style="fill: #3e4347;"/>
  <rect x="81.119" y="132.17" width="12.35" height="6.15" style="fill: #3e4347;"/>
  <rect x="68.769" y="132.17" width="12.35" height="6.15" style="fill: #94989b;"/>
  <rect x="56.419" y="132.17" width="12.35" height="6.15" style="fill: #94989b;"/>
  <rect x="241.669" y="126.02" width="12.35" height="6.15" style="fill: #94989b;"/>
  <rect x="229.319" y="126.02" width="12.35" height="6.15" style="fill: #3e4347;"/>
  <rect x="216.969" y="126.02" width="12.35" height="6.15" style="fill: #3e4347;"/>
  <rect x="204.619" y="126.02" width="12.35" height="6.15" style="fill: #3e4347;"/>
  <rect x="192.269" y="126.02" width="12.35" height="6.15" style="fill: #3e4347;"/>
  <rect x="179.919" y="126.02" width="12.35" height="6.15" style="fill: #3e4347;"/>
  <rect x="167.569" y="126.02" width="12.35" height="6.15" style="fill: #3e4347;"/>
  <rect x="155.219" y="126.02" width="12.35" height="6.15" style="fill: #3e4347;"/>
  <rect x="142.869" y="126.02" width="12.35" height="6.15" style="fill: #3e4347;"/>
  <rect x="130.519" y="126.02" width="12.35" height="6.15" style="fill: #3e4347;"/>
  <rect x="118.169" y="126.02" width="12.35" height="6.15" style="fill: #3e4347;"/>
  <rect x="105.819" y="126.02" width="12.35" height="6.15" style="fill: #3e4347;"/>
  <rect x="93.469" y="126.02" width="12.35" height="6.15" style="fill: #3e4347;"/>
  <rect x="81.119" y="126.02" width="12.35" height="6.15" style="fill: #3e4347;"/>
  <rect x="68.769" y="126.02" width="12.35" height="6.15" style="fill: #3e4347;"/>
  <rect x="56.419" y="126.02" width="12.35" height="6.15" style="fill: #94989b;"/>
  <rect x="254.019" y="119.87" width="12.35" height="6.15" style="fill: #94989b;"/>
  <rect x="241.669" y="119.87" width="12.35" height="6.15" style="fill: #3e4347;"/>
  <rect x="229.319" y="119.87" width="12.35" height="6.15" style="fill: #3e4347;"/>
  <rect x="216.969" y="119.87" width="12.35" height="6.15" style="fill: #3e4347;"/>
  <rect x="204.619" y="119.87" width="12.35" height="6.15" style="fill: #3e4347;"/>
  <rect x="192.269" y="119.87" width="12.35" height="6.15" style="fill: #3e4347;"/>
  <rect x="179.919" y="119.87" width="12.35" height="6.15" style="fill: #3e4347;"/>
  <rect x="167.569" y="119.87" width="12.35" height="6.15" style="fill: #3e4347;"/>
  <rect x="155.219" y="119.87" width="12.35" height="6.15" style="fill: #3e4347;"/>
  <rect x="142.869" y="119.87" width="12.35" height="6.15" style="fill: #3e4347;"/>
  <rect x="130.519" y="119.87" width="12.35" height="6.15" style="fill: #3e4347;"/>
  <rect x="118.169" y="119.87" width="12.35" height="6.15" style="fill: #3e4347;"/>
  <rect x="105.819" y="119.87" width="12.35" height="6.15" style="fill: #3e4347;"/>
  <rect x="93.469" y="119.87" width="12.35" height="6.15" style="fill: #3e4347;"/>
  <rect x="81.119" y="119.87" width="12.35" height="6.15" style="fill: #3e4347;"/>
  <rect x="68.769" y="119.87" width="12.35" height="6.15" style="fill: #3e4347;"/>
  <rect x="56.419" y="119.87" width="12.35" height="6.15" style="fill: #3e4347;"/>
  <rect x="44.069" y="119.87" width="12.35" height="6.15" style="fill: #94989b;"/>
  <rect x="254.019" y="113.72" width="12.35" height="6.15" style="fill: #84888b;"/>
  <rect x="241.669" y="113.72" width="12.35" height="6.15" style="fill: #3e4347;"/>
  <rect x="229.319" y="113.72" width="12.35" height="6.15" style="fill: #3e4347;"/>
  <rect x="216.969" y="113.72" width="12.35" height="6.15" style="fill: #3e4347;"/>
  <rect x="204.619" y="113.72" width="12.35" height="6.15" style="fill: #3e4347;"/>
  <rect x="192.269" y="113.72" width="12.35" height="6.15" style="fill: #3e4347;"/>
  <rect x="179.919" y="113.72" width="12.35" height="6.15" style="fill: #3e4347;"/>
  <rect x="167.569" y="113.72" width="12.35" height="6.15" style="fill: #3e4347;"/>
  <rect x="155.219" y="113.72" width="12.35" height="6.15" style="fill: #3e4347;"/>
  <rect x="142.869" y="113.72" width="12.35" height="6.15" style="fill: #3e4347;"/>
  <rect x="130.519" y="113.72" width="12.35" height="6.15" style="fill: #3e4347;"/>
  <rect x="118.169" y="113.72" width="12.35" height="6.15" style="fill: #3e4347;"/>
  <rect x="105.819" y="113.72" width="12.35" height="6.15" style="fill: #3e4347;"/>
  <rect x="93.469" y="113.72" width="12.35" height="6.15" style="fill: #3e4347;"/>
  <rect x="81.119" y="113.72" width="12.35" height="6.15" style="fill: #3e4347;"/>
  <rect x="68.769" y="113.72" width="12.35" height="6.15" style="fill: #3e4347;"/>
  <rect x="56.419" y="113.72" width="12.35" height="6.15" style="fill: #3e4347;"/>
  <rect x="44.069" y="113.72" width="12.35" height="6.15" style="fill: #94989b;"/>
  <rect x="266.369" y="107.57" width="12.35" height="6.15" style="fill: #cacccd;"/>
  <rect x="254.019" y="107.57" width="12.35" height="6.15" style="fill: #3e4347;"/>
  <rect x="241.669" y="107.57" width="12.35" height="6.15" style="fill: #3e4347;"/>
  <rect x="229.319" y="107.57" width="12.35" height="6.15" style="fill: #83bf4f;"/>
  <rect x="216.969" y="107.57" width="12.35" height="6.15" style="fill: #83bf4f;"/>
  <rect x="204.619" y="107.57" width="12.35" height="6.15" style="fill: #3e4347;"/>
  <rect x="192.269" y="107.57" width="12.35" height="6.15" style="fill: #3e4347;"/>
  <rect x="179.919" y="107.57" width="12.35" height="6.15" style="fill: #3e4347;"/>
  <rect x="167.569" y="107.57" width="12.35" height="6.15" style="fill: #3e4347;"/>
  <rect x="155.219" y="107.57" width="12.35" height="6.15" style="fill: #ffe62e;"/>
  <rect x="142.869" y="107.57" width="12.35" height="6.15" style="fill: #ffe62e;"/>
  <rect x="130.519" y="107.57" width="12.35" height="6.15" style="fill: #3e4347;"/>
  <rect x="118.169" y="107.57" width="12.35" height="6.15" style="fill: #3e4347;"/>
  <rect x="105.819" y="107.57" width="12.35" height="6.15" style="fill: #3e4347;"/>
  <rect x="93.469" y="107.57" width="12.35" height="6.15" style="fill: #3e4347;"/>
  <rect x="81.119" y="107.57" width="12.35" height="6.15" style="fill: #ed4c5c;"/>
  <rect x="68.769" y="107.57" width="12.35" height="6.15" style="fill: #ed4c5c;"/>
  <rect x="56.419" y="107.57" width="12.35" height="6.15" style="fill: #3e4347;"/>
  <rect x="44.069" y="107.57" width="12.35" height="6.15" style="fill: #3e4347;"/>
  <rect x="266.369" y="101.42" width="12.35" height="6.15" style="fill: #94989b;"/>
  <rect x="254.019" y="101.42" width="12.35" height="6.15" style="fill: #3e4347;"/>
  <rect x="241.669" y="101.42" width="12.35" height="6.15" style="fill: #83bf4f;"/>
  <rect x="229.319" y="101.42" width="12.35" height="6.15" style="fill: #83bf4f;"/>
  <rect x="216.969" y="101.42" width="12.35" height="6.15" style="fill: #83bf4f;"/>
  <rect x="204.619" y="101.42" width="12.35" height="6.15" style="fill: #80bb4e;"/>
  <rect x="192.269" y="101.42" width="12.35" height="6.15" style="fill: #3e4347;"/>
  <rect x="179.919" y="101.42" width="12.35" height="6.15" style="fill: #3e4347;"/>
  <rect x="167.569" y="101.42" width="12.35" height="6.15" style="fill: #ffe62e;"/>
  <rect x="155.219" y="101.42" width="12.35" height="6.15" style="fill: #ffe62e;"/>
  <rect x="142.869" y="101.42" width="12.35" height="6.15" style="fill: #ffe62e;"/>
  <rect x="130.519" y="101.42" width="12.35" height="6.15" style="fill: #ffe62e;"/>
  <rect x="118.169" y="101.42" width="12.35" height="6.15" style="fill: #3e4347;"/>
  <rect x="105.819" y="101.42" width="12.35" height="6.15" style="fill: #3e4347;"/>
  <rect x="93.469" y="101.42" width="12.35" height="6.15" style="fill: #ed4c5c;"/>
  <rect x="81.119" y="101.42" width="12.35" height="6.15" style="fill: #ed4c5c;"/>
  <rect x="68.769" y="101.42" width="12.35" height="6.15" style="fill: #ed4c5c;"/>
  <rect x="56.419" y="101.42" width="12.35" height="6.15" style="fill: #ed4c5c;"/>
  <rect x="44.069" y="101.42" width="12.35" height="6.15" style="fill: #3e4347;"/>
  <rect x="31.719" y="101.42" width="12.35" height="6.15" style="fill: #94989b;"/>
  <rect x="266.369" y="95.27" width="12.35" height="6.15" style="fill: #94989b;"/>
  <rect x="254.019" y="95.27" width="12.35" height="6.15" style="fill: #465348;"/>
  <rect x="241.669" y="95.27" width="12.35" height="6.15" style="fill: #83bf4f;"/>
  <rect x="229.319" y="95.27" width="12.35" height="6.15" style="fill: #83bf4f;"/>
  <rect x="216.969" y="95.27" width="12.35" height="6.15" style="fill: #83bf4f;"/>
  <rect x="204.619" y="95.27" width="12.35" height="6.15" style="fill: #83bf4f;"/>
  <rect x="192.269" y="95.27" width="12.35" height="6.15" style="fill: #3e4347;"/>
  <rect x="179.919" y="95.27" width="12.35" height="6.15" style="fill: #3e4347;"/>
  <rect x="167.569" y="95.27" width="12.35" height="6.15" style="fill: #ffe62e;"/>
  <rect x="155.219" y="95.27" width="12.35" height="6.15" style="fill: #ffe62e;"/>
  <rect x="142.869" y="95.27" width="12.35" height="6.15" style="fill: #ffe62e;"/>
  <rect x="130.519" y="95.27" width="12.35" height="6.15" style="fill: #ffe62e;"/>
  <rect x="118.169" y="95.27" width="12.35" height="6.15" style="fill: #3e4347;"/>
  <rect x="105.819" y="95.27" width="12.35" height="6.15" style="fill: #3e4347;"/>
  <rect x="93.469" y="95.27" width="12.35" height="6.15" style="fill: #ed4c5c;"/>
  <rect x="81.119" y="95.27" width="12.35" height="6.15" style="fill: #ed4c5c;"/>
  <rect x="68.769" y="95.27" width="12.35" height="6.15" style="fill: #ed4c5c;"/>
  <rect x="56.419" y="95.27" width="12.35" height="6.15" style="fill: #ed4c5c;"/>
  <rect x="44.069" y="95.27" width="12.35" height="6.15" style="fill: #3e4347;"/>
  <rect x="31.719" y="95.27" width="12.35" height="6.15" style="fill: #94989b;"/>
  <rect x="266.369" y="89.12" width="12.35" height="6.15" style="fill: #94989b;"/>
  <rect x="254.019" y="89.12" width="12.35" height="6.15" style="fill: #83bf4f;"/>
  <rect x="241.669" y="89.12" width="12.35" height="6.15" style="fill: #83bf4f;"/>
  <rect x="229.319" y="89.12" width="12.35" height="6.15" style="fill: #83bf4f;"/>
  <rect x="216.969" y="89.12" width="12.35" height="6.15" style="fill: #83bf4f;"/>
  <rect x="204.619" y="89.12" width="12.35" height="6.15" style="fill: #83bf4f;"/>
  <rect x="192.269" y="89.12" width="12.35" height="6.15" style="fill: #3e4347;"/>
  <rect x="179.919" y="89.12" width="12.35" height="6.15" style="fill: #3e4347;"/>
  <rect x="167.569" y="89.12" width="12.35" height="6.15" style="fill: #ffe62e;"/>
  <rect x="155.219" y="89.12" width="12.35" height="6.15" style="fill: #ffe62e;"/>
  <rect x="142.869" y="89.12" width="12.35" height="6.15" style="fill: #ffe62e;"/>
  <rect x="130.519" y="89.12" width="12.35" height="6.15" style="fill: #ffe62e;"/>
  <rect x="118.169" y="89.12" width="12.35" height="6.15" style="fill: #3e4347;"/>
  <rect x="105.819" y="89.12" width="12.35" height="6.15" style="fill: #3e4347;"/>
  <rect x="93.469" y="89.12" width="12.35" height="6.15" style="fill: #ed4c5c;"/>
  <rect x="81.119" y="89.12" width="12.35" height="6.15" style="fill: #ed4c5c;"/>
  <rect x="68.769" y="89.12" width="12.35" height="6.15" style="fill: #ed4c5c;"/>
  <rect x="56.419" y="89.12" width="12.35" height="6.15" style="fill: #ed4c5c;"/>
  <rect x="44.069" y="89.12" width="12.35" height="6.15" style="fill: #ed4c5c;"/>
  <rect x="31.719" y="89.12" width="12.35" height="6.15" style="fill: #94989b;"/>
  <rect x="266.369" y="82.97" width="12.35" height="6.15" style="fill: #94989b;"/>
  <rect x="254.019" y="82.97" width="12.35" height="6.15" style="fill: #83bf4f;"/>
  <rect x="241.669" y="82.97" width="12.35" height="6.15" style="fill: #83bf4f;"/>
  <rect x="229.319" y="82.97" width="12.35" height="6.15" style="fill: #83bf4f;"/>
  <rect x="216.969" y="82.97" width="12.35" height="6.15" style="fill: #83bf4f;"/>
  <rect x="204.619" y="82.97" width="12.35" height="6.15" style="fill: #83bf4f;"/>
  <rect x="192.269" y="82.97" width="12.35" height="6.15" style="fill: #3e4347;"/>
  <rect x="179.919" y="82.97" width="12.35" height="6.15" style="fill: #dfcb32;"/>
  <rect x="167.569" y="82.97" width="12.35" height="6.15" style="fill: #ffe62e;"/>
  <rect x="155.219" y="82.97" width="12.35" height="6.15" style="fill: #ffe62e;"/>
  <rect x="142.869" y="82.97" width="12.35" height="6.15" style="fill: #ffe62e;"/>
  <rect x="130.519" y="82.97" width="12.35" height="6.15" style="fill: #ffe62e;"/>
  <rect x="118.169" y="82.97" width="12.35" height="6.15" style="fill: #73703f;"/>
  <rect x="105.819" y="82.97" width="12.35" height="6.15" style="fill: #3e4347;"/>
  <rect x="93.469" y="82.97" width="12.35" height="6.15" style="fill: #ed4c5c;"/>
  <rect x="81.119" y="82.97" width="12.35" height="6.15" style="fill: #ed4c5c;"/>
  <rect x="68.769" y="82.97" width="12.35" height="6.15" style="fill: #ed4c5c;"/>
  <rect x="56.419" y="82.97" width="12.35" height="6.15" style="fill: #ed4c5c;"/>
  <rect x="44.069" y="82.97" width="12.35" height="6.15" style="fill: #ed4c5c;"/>
  <rect x="31.719" y="82.97" width="12.35" height="6.15" style="fill: #94989b;"/>
  <rect x="266.369" y="76.82" width="12.35" height="6.15" style="fill: #94989b;"/>
  <rect x="254.019" y="76.82" width="12.35" height="6.15" style="fill: #83bf4f;"/>
  <rect x="241.669" y="76.82" width="12.35" height="6.15" style="fill: #83bf4f;"/>
  <rect x="229.319" y="76.82" width="12.35" height="6.15" style="fill: #83bf4f;"/>
  <rect x="216.969" y="76.82" width="12.35" height="6.15" style="fill: #83bf4f;"/>
  <rect x="204.619" y="76.82" width="12.35" height="6.15" style="fill: #83bf4f;"/>
  <rect x="192.269" y="76.82" width="12.35" height="6.15" style="fill: #3e4347;"/>
  <rect x="179.919" y="76.82" width="12.35" height="6.15" style="fill: #cdbc34;"/>
  <rect x="167.569" y="76.82" width="12.35" height="6.15" style="fill: #ffe62e;"/>
  <rect x="155.219" y="76.82" width="12.35" height="6.15" style="fill: #ffe62e;"/>
  <rect x="142.869" y="76.82" width="12.35" height="6.15" style="fill: #ffe62e;"/>
  <rect x="130.519" y="76.82" width="12.35" height="6.15" style="fill: #ffe62e;"/>
  <rect x="118.169" y="76.82" width="12.35" height="6.15" style="fill: #626142;"/>
  <rect x="105.819" y="76.82" width="12.35" height="6.15" style="fill: #3e4347;"/>
  <rect x="93.469" y="76.82" width="12.35" height="6.15" style="fill: #ed4c5c;"/>
  <rect x="81.119" y="76.82" width="12.35" height="6.15" style="fill: #ed4c5c;"/>
  <rect x="68.769" y="76.82" width="12.35" height="6.15" style="fill: #ed4c5c;"/>
  <rect x="56.419" y="76.82" width="12.35" height="6.15" style="fill: #ed4c5c;"/>
  <rect x="44.069" y="76.82" width="12.35" height="6.15" style="fill: #ed4c5c;"/>
  <rect x="31.719" y="76.82" width="12.35" height="6.15" style="fill: #94989b;"/>
  <rect x="266.369" y="70.67" width="12.35" height="6.15" style="fill: #94989b;"/>
  <rect x="254.019" y="70.67" width="12.35" height="6.15" style="fill: #83bf4f;"/>
  <rect x="241.669" y="70.67" width="12.35" height="6.15" style="fill: #83bf4f;"/>
  <rect x="229.319" y="70.67" width="12.35" height="6.15" style="fill: #83bf4f;"/>
  <rect x="216.969" y="70.67" width="12.35" height="6.15" style="fill: #83bf4f;"/>
  <rect x="204.619" y="70.67" width="12.35" height="6.15" style="fill: #83bf4f;"/>
  <rect x="192.269" y="70.67" width="12.35" height="6.15" style="fill: #3e4347;"/>
  <rect x="179.919" y="70.67" width="12.35" height="6.15" style="fill: #3e4347;"/>
  <rect x="167.569" y="70.67" width="12.35" height="6.15" style="fill: #ffe62e;"/>
  <rect x="155.219" y="70.67" width="12.35" height="6.15" style="fill: #ffe62e;"/>
  <rect x="142.869" y="70.67" width="12.35" height="6.15" style="fill: #ffe62e;"/>
  <rect x="130.519" y="70.67" width="12.35" height="6.15" style="fill: #ffe62e;"/>
  <rect x="118.169" y="70.67" width="12.35" height="6.15" style="fill: #3e4347;"/>
  <rect x="105.819" y="70.67" width="12.35" height="6.15" style="fill: #3e4347;"/>
  <rect x="93.469" y="70.67" width="12.35" height="6.15" style="fill: #ed4c5c;"/>
  <rect x="81.119" y="70.67" width="12.35" height="6.15" style="fill: #ed4c5c;"/>
  <rect x="68.769" y="70.67" width="12.35" height="6.15" style="fill: #ed4c5c;"/>
  <rect x="56.419" y="70.67" width="12.35" height="6.15" style="fill: #ed4c5c;"/>
  <rect x="44.069" y="70.67" width="12.35" height="6.15" style="fill: #ed4c5c;"/>
  <rect x="31.719" y="70.67" width="12.35" height="6.15" style="fill: #94989b;"/>
  <rect x="266.369" y="64.52" width="12.35" height="6.15" style="fill: #94989b;"/>
  <rect x="254.019" y="64.52" width="12.35" height="6.15" style="fill: #4c5e48;"/>
  <rect x="241.669" y="64.52" width="12.35" height="6.15" style="fill: #83bf4f;"/>
  <rect x="229.319" y="64.52" width="12.35" height="6.15" style="fill: #83bf4f;"/>
  <rect x="216.969" y="64.52" width="12.35" height="6.15" style="fill: #83bf4f;"/>
  <rect x="204.619" y="64.52" width="12.35" height="6.15" style="fill: #83bf4f;"/>
  <rect x="192.269" y="64.52" width="12.35" height="6.15" style="fill: #3e4347;"/>
  <rect x="179.919" y="64.52" width="12.35" height="6.15" style="fill: #3e4347;"/>
  <rect x="167.569" y="64.52" width="12.35" height="6.15" style="fill: #ffe62e;"/>
  <rect x="155.219" y="64.52" width="12.35" height="6.15" style="fill: #ffe62e;"/>
  <rect x="142.869" y="64.52" width="12.35" height="6.15" style="fill: #ffe62e;"/>
  <rect x="130.519" y="64.52" width="12.35" height="6.15" style="fill: #ffe62e;"/>
  <rect x="118.169" y="64.52" width="12.35" height="6.15" style="fill: #3e4347;"/>
  <rect x="105.819" y="64.52" width="12.35" height="6.15" style="fill: #3e4347;"/>
  <rect x="93.469" y="64.52" width="12.35" height="6.15" style="fill: #ed4c5c;"/>
  <rect x="81.119" y="64.52" width="12.35" height="6.15" style="fill: #ed4c5c;"/>
  <rect x="68.769" y="64.52" width="12.35" height="6.15" style="fill: #ed4c5c;"/>
  <rect x="56.419" y="64.52" width="12.35" height="6.15" style="fill: #ed4c5c;"/>
  <rect x="44.069" y="64.52" width="12.35" height="6.15" style="fill: #3e4347;"/>
  <rect x="31.719" y="64.52" width="12.35" height="6.15" style="fill: #94989b;"/>
  <rect x="266.369" y="58.37" width="12.35" height="6.15" style="fill: #94989b;"/>
  <rect x="254.019" y="58.37" width="12.35" height="6.15" style="fill: #3e4347;"/>
  <rect x="241.669" y="58.37" width="12.35" height="6.15" style="fill: #83bf4f;"/>
  <rect x="229.319" y="58.37" width="12.35" height="6.15" style="fill: #83bf4f;"/>
  <rect x="216.969" y="58.37" width="12.35" height="6.15" style="fill: #83bf4f;"/>
  <rect x="204.619" y="58.37" width="12.35" height="6.15" style="fill: #5e7d4a;"/>
  <rect x="192.269" y="58.37" width="12.35" height="6.15" style="fill: #3e4347;"/>
  <rect x="179.919" y="58.37" width="12.35" height="6.15" style="fill: #3e4347;"/>
  <rect x="167.569" y="58.37" width="12.35" height="6.15" style="fill: #ffe62e;"/>
  <rect x="155.219" y="58.37" width="12.35" height="6.15" style="fill: #ffe62e;"/>
  <rect x="142.869" y="58.37" width="12.35" height="6.15" style="fill: #ffe62e;"/>
  <rect x="130.519" y="58.37" width="12.35" height="6.15" style="fill: #ffe62e;"/>
  <rect x="118.169" y="58.37" width="12.35" height="6.15" style="fill: #3e4347;"/>
  <rect x="105.819" y="58.37" width="12.35" height="6.15" style="fill: #3e4347;"/>
  <rect x="93.469" y="58.37" width="12.35" height="6.15" style="fill: #d94b59;"/>
  <rect x="81.119" y="58.37" width="12.35" height="6.15" style="fill: #ed4c5c;"/>
  <rect x="68.769" y="58.37" width="12.35" height="6.15" style="fill: #ed4c5c;"/>
  <rect x="56.419" y="58.37" width="12.35" height="6.15" style="fill: #ed4c5c;"/>
  <rect x="44.069" y="58.37" width="12.35" height="6.15" style="fill: #3e4347;"/>
  <rect x="31.719" y="58.37" width="12.35" height="6.15" style="fill: #94989b;"/>
  <rect x="266.369" y="52.22" width="12.35" height="6.15" style="fill: #bfc1c3;"/>
  <rect x="254.019" y="52.22" width="12.35" height="6.15" style="fill: #3e4347;"/>
  <rect x="241.669" y="52.22" width="12.35" height="6.15" style="fill: #414847;"/>
  <rect x="229.319" y="52.22" width="12.35" height="6.15" style="fill: #83bf4f;"/>
  <rect x="216.969" y="52.22" width="12.35" height="6.15" style="fill: #83bf4f;"/>
  <rect x="204.619" y="52.22" width="12.35" height="6.15" style="fill: #3e4347;"/>
  <rect x="192.269" y="52.22" width="12.35" height="6.15" style="fill: #3e4347;"/>
  <rect x="179.919" y="52.22" width="12.35" height="6.15" style="fill: #3e4347;"/>
  <rect x="167.569" y="52.22" width="12.35" height="6.15" style="fill: #3e4347;"/>
  <rect x="155.219" y="52.22" width="12.35" height="6.15" style="fill: #ffe62e;"/>
  <rect x="142.869" y="52.22" width="12.35" height="6.15" style="fill: #ffe62e;"/>
  <rect x="130.519" y="52.22" width="12.35" height="6.15" style="fill: #3e4347;"/>
  <rect x="118.169" y="52.22" width="12.35" height="6.15" style="fill: #3e4347;"/>
  <rect x="105.819" y="52.22" width="12.35" height="6.15" style="fill: #3e4347;"/>
  <rect x="93.469" y="52.22" width="12.35" height="6.15" style="fill: #3e4347;"/>
  <rect x="81.119" y="52.22" width="12.35" height="6.15" style="fill: #ed4c5c;"/>
  <rect x="68.769" y="52.22" width="12.35" height="6.15" style="fill: #ed4c5c;"/>
  <rect x="56.419" y="52.22" width="12.35" height="6.15" style="fill: #3e4347;"/>
  <rect x="44.069" y="52.22" width="12.35" height="6.15" style="fill: #3e4347;"/>
  <rect x="254.019" y="46.07" width="12.35" height="6.15" style="fill: #94989b;"/>
  <rect x="241.669" y="46.07" width="12.35" height="6.15" style="fill: #3e4347;"/>
  <rect x="229.319" y="46.07" width="12.35" height="6.15" style="fill: #3e4347;"/>
  <rect x="216.969" y="46.07" width="12.35" height="6.15" style="fill: #3e4347;"/>
  <rect x="204.619" y="46.07" width="12.35" height="6.15" style="fill: #3e4347;"/>
  <rect x="192.269" y="46.07" width="12.35" height="6.15" style="fill: #3e4347;"/>
  <rect x="179.919" y="46.07" width="12.35" height="6.15" style="fill: #3e4347;"/>
  <rect x="167.569" y="46.07" width="12.35" height="6.15" style="fill: #3e4347;"/>
  <rect x="155.219" y="46.07" width="12.35" height="6.15" style="fill: #3e4347;"/>
  <rect x="142.869" y="46.07" width="12.35" height="6.15" style="fill: #3e4347;"/>
  <rect x="130.519" y="46.07" width="12.35" height="6.15" style="fill: #3e4347;"/>
  <rect x="118.169" y="46.07" width="12.35" height="6.15" style="fill: #3e4347;"/>
  <rect x="105.819" y="46.07" width="12.35" height="6.15" style="fill: #3e4347;"/>
  <rect x="93.469" y="46.07" width="12.35" height="6.15" style="fill: #3e4347;"/>
  <rect x="81.119" y="46.07" width="12.35" height="6.15" style="fill: #3e4347;"/>
  <rect x="68.769" y="46.07" width="12.35" height="6.15" style="fill: #3e4347;"/>
  <rect x="56.419" y="46.07" width="12.35" height="6.15" style="fill: #3e4347;"/>
  <rect x="44.069" y="46.07" width="12.35" height="6.15" style="fill: #94989b;"/>
  <rect x="254.019" y="39.92" width="12.35" height="6.15" style="fill: #94989b;"/>
  <rect x="241.669" y="39.92" width="12.35" height="6.15" style="fill: #3e4347;"/>
  <rect x="229.319" y="39.92" width="12.35" height="6.15" style="fill: #3e4347;"/>
  <rect x="216.969" y="39.92" width="12.35" height="6.15" style="fill: #3e4347;"/>
  <rect x="204.619" y="39.92" width="12.35" height="6.15" style="fill: #3e4347;"/>
  <rect x="192.269" y="39.92" width="12.35" height="6.15" style="fill: #3e4347;"/>
  <rect x="179.919" y="39.92" width="12.35" height="6.15" style="fill: #3e4347;"/>
  <rect x="167.569" y="39.92" width="12.35" height="6.15" style="fill: #3e4347;"/>
  <rect x="155.219" y="39.92" width="12.35" height="6.15" style="fill: #3e4347;"/>
  <rect x="142.869" y="39.92" width="12.35" height="6.15" style="fill: #3e4347;"/>
  <rect x="130.519" y="39.92" width="12.35" height="6.15" style="fill: #3e4347;"/>
  <rect x="118.169" y="39.92" width="12.35" height="6.15" style="fill: #3e4347;"/>
  <rect x="105.819" y="39.92" width="12.35" height="6.15" style="fill: #3e4347;"/>
  <rect x="93.469" y="39.92" width="12.35" height="6.15" style="fill: #3e4347;"/>
  <rect x="81.119" y="39.92" width="12.35" height="6.15" style="fill: #3e4347;"/>
  <rect x="68.769" y="39.92" width="12.35" height="6.15" style="fill: #3e4347;"/>
  <rect x="56.419" y="39.92" width="12.35" height="6.15" style="fill: #3e4347;"/>
  <rect x="44.069" y="39.92" width="12.35" height="6.15" style="fill: #94989b;"/>
  <rect x="241.669" y="33.77" width="12.35" height="6.15" style="fill: #94989b;"/>
  <rect x="229.319" y="33.77" width="12.35" height="6.15" style="fill: #3e4347;"/>
  <rect x="216.969" y="33.77" width="12.35" height="6.15" style="fill: #3e4347;"/>
  <rect x="204.619" y="33.77" width="12.35" height="6.15" style="fill: #3e4347;"/>
  <rect x="192.269" y="33.77" width="12.35" height="6.15" style="fill: #3e4347;"/>
  <rect x="179.919" y="33.77" width="12.35" height="6.15" style="fill: #3e4347;"/>
  <rect x="167.569" y="33.77" width="12.35" height="6.15" style="fill: #3e4347;"/>
  <rect x="155.219" y="33.77" width="12.35" height="6.15" style="fill: #3e4347;"/>
  <rect x="142.869" y="33.77" width="12.35" height="6.15" style="fill: #3e4347;"/>
  <rect x="130.519" y="33.77" width="12.35" height="6.15" style="fill: #3e4347;"/>
  <rect x="118.169" y="33.77" width="12.35" height="6.15" style="fill: #3e4347;"/>
  <rect x="105.819" y="33.77" width="12.35" height="6.15" style="fill: #3e4347;"/>
  <rect x="93.469" y="33.77" width="12.35" height="6.15" style="fill: #3e4347;"/>
  <rect x="81.119" y="33.77" width="12.35" height="6.15" style="fill: #3e4347;"/>
  <rect x="68.769" y="33.77" width="12.35" height="6.15" style="fill: #3e4347;"/>
  <rect x="56.419" y="33.77" width="12.35" height="6.15" style="fill: #94989b;"/>
  <rect x="241.669" y="27.62" width="12.35" height="6.15" style="fill: #94989b;"/>
  <rect x="229.319" y="27.62" width="12.35" height="6.15" style="fill: #94989b;"/>
  <rect x="216.969" y="27.62" width="12.35" height="6.15" style="fill: #3e4347;"/>
  <rect x="204.619" y="27.62" width="12.35" height="6.15" style="fill: #3e4347;"/>
  <rect x="192.269" y="27.62" width="12.35" height="6.15" style="fill: #3e4347;"/>
  <rect x="179.919" y="27.62" width="12.35" height="6.15" style="fill: #3e4347;"/>
  <rect x="167.569" y="27.62" width="12.35" height="6.15" style="fill: #3e4347;"/>
  <rect x="155.219" y="27.62" width="12.35" height="6.15" style="fill: #3e4347;"/>
  <rect x="142.869" y="27.62" width="12.35" height="6.15" style="fill: #3e4347;"/>
  <rect x="130.519" y="27.62" width="12.35" height="6.15" style="fill: #3e4347;"/>
  <rect x="118.169" y="27.62" width="12.35" height="6.15" style="fill: #3e4347;"/>
  <rect x="105.819" y="27.62" width="12.35" height="6.15" style="fill: #3e4347;"/>
  <rect x="93.469" y="27.62" width="12.35" height="6.15" style="fill: #3e4347;"/>
  <rect x="81.119" y="27.62" width="12.35" height="6.15" style="fill: #3e4347;"/>
  <rect x="68.769" y="27.62" width="12.35" height="6.15" style="fill: #94989b;"/>
  <rect x="56.419" y="27.62" width="12.35" height="6.15" style="fill: #94989b;"/>
  <rect x="229.319" y="21.47" width="12.35" height="6.15" style="fill: #94989b;"/>
  <rect x="216.969" y="21.47" width="12.35" height="6.15" style="fill: #94989b;"/>
  <rect x="204.619" y="21.47" width="12.35" height="6.15" style="fill: #94989b;"/>
  <rect x="192.269" y="21.47" width="12.35" height="6.15" style="fill: #94989b;"/>
  <rect x="179.919" y="21.47" width="12.35" height="6.15" style="fill: #94989b;"/>
  <rect x="167.569" y="21.47" width="12.35" height="6.15" style="fill: #94989b;"/>
  <rect x="155.219" y="21.47" width="12.35" height="6.15" style="fill: #94989b;"/>
  <rect x="142.869" y="21.47" width="12.35" height="6.15" style="fill: #94989b;"/>
  <rect x="130.519" y="21.47" width="12.35" height="6.15" style="fill: #94989b;"/>
  <rect x="118.169" y="21.47" width="12.35" height="6.15" style="fill: #94989b;"/>
  <rect x="105.819" y="21.47" width="12.35" height="6.15" style="fill: #94989b;"/>
  <rect x="93.469" y="21.47" width="12.35" height="6.15" style="fill: #94989b;"/>
  <rect x="81.119" y="21.47" width="12.35" height="6.15" style="fill: #94989b;"/>
  <rect x="68.769" y="21.47" width="12.35" height="6.15" style="fill: #a9acae;"/>
</svg>