<?xml version="1.0" encoding="UTF-8"?>
<svg id="_图层_1" data-name="图层 1" xmlns="http://www.w3.org/2000/svg" viewBox="0 0 279.83 245.106">
  <rect x="209.061" y="201.072" width="14.333" height="14.733" style="fill: #dfe9ef;"/>
  <rect x="194.727" y="201.072" width="14.333" height="14.733" style="fill: #dfe9ef;"/>
  <rect x="180.394" y="201.072" width="14.333" height="14.733" style="fill: #caeaf1;"/>
  <rect x="166.061" y="201.072" width="14.333" height="14.733" style="fill: #bbc3c7;"/>
  <rect x="151.727" y="201.072" width="14.333" height="14.733" style="fill: #bbc3c7;"/>
  <rect x="137.394" y="201.072" width="14.333" height="14.733" style="fill: #bbc3c7;"/>
  <rect x="123.061" y="201.072" width="14.333" height="14.733" style="fill: #bbc3c7;"/>
  <rect x="65.727" y="201.072" width="14.333" height="14.733" style="fill: #f7f9fb;"/>
  <rect x="51.394" y="201.072" width="14.333" height="14.733" style="fill: #dfe9ef;"/>
  <rect x="37.061" y="201.072" width="14.333" height="14.733" style="fill: #eaf1f4;"/>
  <rect x="223.394" y="186.339" width="14.333" height="14.733" style="fill: #dfe9ef;"/>
  <rect x="209.061" y="186.339" width="14.333" height="14.733" style="fill: #5df6ff;"/>
  <rect x="194.727" y="186.339" width="14.333" height="14.733" style="fill: #5df6ff;"/>
  <rect x="180.394" y="186.339" width="14.333" height="14.733" style="fill: #5df6ff;"/>
  <rect x="166.061" y="186.339" width="14.333" height="14.733" style="fill: #00c0cf;"/>
  <rect x="151.727" y="186.339" width="14.333" height="14.733" style="fill: #00c0cf;"/>
  <rect x="137.394" y="186.339" width="14.333" height="14.733" style="fill: #00c0cf;"/>
  <rect x="123.061" y="186.339" width="14.333" height="14.733" style="fill: #00c0cf;"/>
  <rect x="108.727" y="186.339" width="14.333" height="14.733" style="fill: #bbc3c7;"/>
  <rect x="94.394" y="186.339" width="14.333" height="14.733" style="fill: #dfe9ef;"/>
  <rect x="80.061" y="186.339" width="14.333" height="14.733" style="fill: #dfe9ef;"/>
  <rect x="65.727" y="186.339" width="14.333" height="14.733" style="fill: #9beff7;"/>
  <rect x="51.394" y="186.339" width="14.333" height="14.733" style="fill: #dfe9ef;"/>
  <rect x="223.394" y="171.606" width="14.333" height="14.733" style="fill: #baecf3;"/>
  <rect x="209.061" y="171.606" width="14.333" height="14.733" style="fill: #5df6ff;"/>
  <rect x="194.727" y="171.606" width="14.333" height="14.733" style="fill: #5df6ff;"/>
  <rect x="180.394" y="171.606" width="14.333" height="14.733" style="fill: #5df6ff;"/>
  <rect x="166.061" y="171.606" width="14.333" height="14.733" style="fill: #00c0cf;"/>
  <rect x="151.727" y="171.606" width="14.333" height="14.733" style="fill: #00c0cf;"/>
  <rect x="137.394" y="171.606" width="14.333" height="14.733" style="fill: #00c0cf;"/>
  <rect x="123.061" y="171.606" width="14.333" height="14.733" style="fill: #00c0cf;"/>
  <rect x="108.727" y="171.606" width="14.333" height="14.733" style="fill: #00c0cf;"/>
  <rect x="94.394" y="171.606" width="14.333" height="14.733" style="fill: #5df6ff;"/>
  <rect x="80.061" y="171.606" width="14.333" height="14.733" style="fill: #5df6ff;"/>
  <rect x="65.727" y="171.606" width="14.333" height="14.733" style="fill: #5df6ff;"/>
  <rect x="51.394" y="171.606" width="14.333" height="14.733" style="fill: #dfe9ef;"/>
  <rect x="223.394" y="156.872" width="14.333" height="14.733" style="fill: #dfe9ef;"/>
  <rect x="209.061" y="156.872" width="14.333" height="14.733" style="fill: #5df6ff;"/>
  <rect x="194.727" y="156.872" width="14.333" height="14.733" style="fill: #86c4cb;"/>
  <rect x="180.394" y="156.872" width="14.333" height="14.733" style="fill: #5df6ff;"/>
  <rect x="166.061" y="156.872" width="14.333" height="14.733" style="fill: #00c0cf;"/>
  <rect x="151.727" y="156.872" width="14.333" height="14.733" style="fill: #00c0cf;"/>
  <rect x="137.394" y="156.872" width="14.333" height="14.733" style="fill: #00c0cf;"/>
  <rect x="123.061" y="156.872" width="14.333" height="14.733" style="fill: #00c0cf;"/>
  <rect x="108.727" y="156.872" width="14.333" height="14.733" style="fill: #aa7eea;"/>
  <rect x="94.394" y="156.872" width="14.333" height="14.733" style="fill: #5df6ff;"/>
  <rect x="80.061" y="156.872" width="14.333" height="14.733" style="fill: #5df6ff;"/>
  <rect x="65.727" y="156.872" width="14.333" height="14.733" style="fill: #5df6ff;"/>
  <rect x="51.394" y="156.872" width="14.333" height="14.733" style="fill: #dfe9ef;"/>
  <rect x="223.394" y="142.139" width="14.333" height="14.733" style="fill: #dfe9ef;"/>
  <rect x="209.061" y="142.139" width="14.333" height="14.733" style="fill: #5df6ff;"/>
  <rect x="194.727" y="142.139" width="14.333" height="14.733" style="fill: #c68ef8;"/>
  <rect x="180.394" y="142.139" width="14.333" height="14.733" style="fill: #5df6ff;"/>
  <rect x="166.061" y="142.139" width="14.333" height="14.733" style="fill: #00c0cf;"/>
  <rect x="151.727" y="142.139" width="14.333" height="14.733" style="fill: #b28862;"/>
  <rect x="137.394" y="142.139" width="14.333" height="14.733" style="fill: #00c0cf;"/>
  <rect x="123.061" y="142.139" width="14.333" height="14.733" style="fill: #00c0cf;"/>
  <rect x="108.727" y="142.139" width="14.333" height="14.733" style="fill: #aa7eea;"/>
  <rect x="94.394" y="142.139" width="14.333" height="14.733" style="fill: #5df6ff;"/>
  <rect x="80.061" y="142.139" width="14.333" height="14.733" style="fill: #5df6ff;"/>
  <rect x="65.727" y="142.139" width="14.333" height="14.733" style="fill: #5df6ff;"/>
  <rect x="51.394" y="142.139" width="14.333" height="14.733" style="fill: #dfe9ef;"/>
  <rect x="223.394" y="127.406" width="14.333" height="14.733" style="fill: #dfe9ef;"/>
  <rect x="209.061" y="127.406" width="14.333" height="14.733" style="fill: #5df6ff;"/>
  <rect x="194.727" y="127.406" width="14.333" height="14.733" style="fill: #5df6ff;"/>
  <rect x="180.394" y="127.406" width="14.333" height="14.733" style="fill: #5df6ff;"/>
  <rect x="166.061" y="127.406" width="14.333" height="14.733" style="fill: #00c0cf;"/>
  <rect x="151.727" y="127.406" width="14.333" height="14.733" style="fill: #b28862;"/>
  <rect x="137.394" y="127.406" width="14.333" height="14.733" style="fill: #b28862;"/>
  <rect x="123.061" y="127.406" width="14.333" height="14.733" style="fill: #00c0cf;"/>
  <rect x="108.727" y="127.406" width="14.333" height="14.733" style="fill: #5df6ff;"/>
  <rect x="94.394" y="127.406" width="14.333" height="14.733" style="fill: #71ede6;"/>
  <rect x="80.061" y="127.406" width="14.333" height="14.733" style="fill: #5df6ff;"/>
  <rect x="65.727" y="127.406" width="14.333" height="14.733" style="fill: #5df6ff;"/>
  <rect x="51.394" y="127.406" width="14.333" height="14.733" style="fill: #dfe9ef;"/>
  <rect x="223.394" y="112.672" width="14.333" height="14.733" style="fill: #dfe9ef;"/>
  <rect x="209.061" y="112.672" width="14.333" height="14.733" style="fill: #5df6ff;"/>
  <rect x="194.727" y="112.672" width="14.333" height="14.733" style="fill: #5df6ff;"/>
  <rect x="180.394" y="112.672" width="14.333" height="14.733" style="fill: #679b6c;"/>
  <rect x="166.061" y="112.672" width="14.333" height="14.733" style="fill: #4b8a5e;"/>
  <rect x="151.727" y="112.672" width="14.333" height="14.733" style="fill: #02becb;"/>
  <rect x="137.394" y="112.672" width="14.333" height="14.733" style="fill: #00c0cf;"/>
  <rect x="123.061" y="112.672" width="14.333" height="14.733" style="fill: #00c0cf;"/>
  <rect x="108.727" y="112.672" width="14.333" height="14.733" style="fill: #5df6ff;"/>
  <rect x="94.394" y="112.672" width="14.333" height="14.733" style="fill: #c2cc87;"/>
  <rect x="80.061" y="112.672" width="14.333" height="14.733" style="fill: #60f4fa;"/>
  <rect x="65.727" y="112.672" width="14.333" height="14.733" style="fill: #5df6ff;"/>
  <rect x="51.394" y="112.672" width="14.333" height="14.733" style="fill: #dfe9ef;"/>
  <rect x="223.394" y="97.939" width="14.333" height="14.733" style="fill: #dfe9ef;"/>
  <rect x="209.061" y="97.939" width="14.333" height="14.733" style="fill: #5df6ff;"/>
  <rect x="194.727" y="97.939" width="14.333" height="14.733" style="fill: #679b6c;"/>
  <rect x="180.394" y="97.939" width="14.333" height="14.733" style="fill: #679b6c;"/>
  <rect x="166.061" y="97.939" width="14.333" height="14.733" style="fill: #4b8a5e;"/>
  <rect x="151.727" y="97.939" width="14.333" height="14.733" style="fill: #4b8a5e;"/>
  <rect x="137.394" y="97.939" width="14.333" height="14.733" style="fill: #2bafd5;"/>
  <rect x="123.061" y="97.939" width="14.333" height="14.733" style="fill: #00c0cf;"/>
  <rect x="108.727" y="97.939" width="14.333" height="14.733" style="fill: #c2cc87;"/>
  <rect x="94.394" y="97.939" width="14.333" height="14.733" style="fill: #c2cc87;"/>
  <rect x="80.061" y="97.939" width="14.333" height="14.733" style="fill: #5df6ff;"/>
  <rect x="65.727" y="97.939" width="14.333" height="14.733" style="fill: #5df6ff;"/>
  <rect x="51.394" y="97.939" width="14.333" height="14.733" style="fill: #dfe9ef;"/>
  <rect x="223.394" y="83.206" width="14.333" height="14.733" style="fill: #dfe9ef;"/>
  <rect x="209.061" y="83.206" width="14.333" height="14.733" style="fill: #5df6ff;"/>
  <rect x="194.727" y="83.206" width="14.333" height="14.733" style="fill: #679b6c;"/>
  <rect x="180.394" y="83.206" width="14.333" height="14.733" style="fill: #679b6c;"/>
  <rect x="166.061" y="83.206" width="14.333" height="14.733" style="fill: #468c64;"/>
  <rect x="151.727" y="83.206" width="14.333" height="14.733" style="fill: #00c0cf;"/>
  <rect x="137.394" y="83.206" width="14.333" height="14.733" style="fill: #00c0cf;"/>
  <rect x="123.061" y="83.206" width="14.333" height="14.733" style="fill: #427af1;"/>
  <rect x="108.727" y="83.206" width="14.333" height="14.733" style="fill: #ce6e71;"/>
  <rect x="94.394" y="83.206" width="14.333" height="14.733" style="fill: #c2cc87;"/>
  <rect x="80.061" y="83.206" width="14.333" height="14.733" style="fill: #c2cc87;"/>
  <rect x="65.727" y="83.206" width="14.333" height="14.733" style="fill: #5df6ff;"/>
  <rect x="51.394" y="83.206" width="14.333" height="14.733" style="fill: #dfe9ef;"/>
  <rect x="223.394" y="68.472" width="14.333" height="14.733" style="fill: #dfe9ef;"/>
  <rect x="209.061" y="68.472" width="14.333" height="14.733" style="fill: #5df6ff;"/>
  <rect x="194.727" y="68.472" width="14.333" height="14.733" style="fill: #5df6ff;"/>
  <rect x="180.394" y="68.472" width="14.333" height="14.733" style="fill: #5df6ff;"/>
  <rect x="166.061" y="68.472" width="14.333" height="14.733" style="fill: #00c0cf;"/>
  <rect x="151.727" y="68.472" width="14.333" height="14.733" style="fill: #00c0cf;"/>
  <rect x="137.394" y="68.472" width="14.333" height="14.733" style="fill: #00c0cf;"/>
  <rect x="123.061" y="68.472" width="14.333" height="14.733" style="fill: #427af1;"/>
  <rect x="108.727" y="68.472" width="14.333" height="14.733" style="fill: #c2f7fc;"/>
  <rect x="94.394" y="68.472" width="14.333" height="14.733" style="fill: #5df6ff;"/>
  <rect x="80.061" y="68.472" width="14.333" height="14.733" style="fill: #5df6ff;"/>
  <rect x="65.727" y="68.472" width="14.333" height="14.733" style="fill: #5df6ff;"/>
  <rect x="209.061" y="53.739" width="14.333" height="14.733" style="fill: #5df6ff;"/>
  <rect x="194.727" y="53.739" width="14.333" height="14.733" style="fill: #5df6ff;"/>
  <rect x="180.394" y="53.739" width="14.333" height="14.733" style="fill: #5df6ff;"/>
  <rect x="166.061" y="53.739" width="14.333" height="14.733" style="fill: #22c0cd;"/>
  <rect x="151.727" y="53.739" width="14.333" height="14.733" style="fill: #00c0cf;"/>
  <rect x="137.394" y="53.739" width="14.333" height="14.733" style="fill: #00c0cf;"/>
  <rect x="123.061" y="53.739" width="14.333" height="14.733" style="fill: #00c0cf;"/>
  <rect x="108.727" y="53.739" width="14.333" height="14.733" style="fill: #5df6ff;"/>
  <rect x="94.394" y="53.739" width="14.333" height="14.733" style="fill: #5df6ff;"/>
  <rect x="80.061" y="53.739" width="14.333" height="14.733" style="fill: #5df6ff;"/>
  <rect x="65.727" y="53.739" width="14.333" height="14.733" style="fill: #dfe9ef;"/>
  <rect x="209.061" y="39.006" width="14.333" height="14.733" style="fill: #c6ebf1;"/>
  <rect x="194.727" y="39.006" width="14.333" height="14.733" style="fill: #dfe9ef;"/>
  <rect x="180.394" y="39.006" width="14.333" height="14.733" style="fill: #dfe9ef;"/>
  <rect x="151.727" y="39.006" width="14.333" height="14.733" style="fill: #bbc3c7;"/>
  <rect x="137.394" y="39.006" width="14.333" height="14.733" style="fill: #bbc3c7;"/>
  <rect x="123.061" y="39.006" width="14.333" height="14.733" style="fill: #00c0cf;"/>
  <rect x="108.727" y="39.006" width="14.333" height="14.733" style="fill: #5df6ff;"/>
  <rect x="94.394" y="39.006" width="14.333" height="14.733" style="fill: #5df6ff;"/>
  <rect x="80.061" y="39.006" width="14.333" height="14.733" style="fill: #5df6ff;"/>
  <rect x="65.727" y="39.006" width="14.333" height="14.733" style="fill: #dfe9ef;"/>
  <rect x="209.061" y="24.272" width="14.333" height="14.733" style="fill: #dfe9ef;"/>
  <rect x="108.727" y="24.272" width="14.333" height="14.733" style="fill: #dfe9ef;"/>
  <rect x="94.394" y="24.272" width="14.333" height="14.733" style="fill: #dfe9ef;"/>
  <rect x="80.061" y="24.272" width="14.333" height="14.733" style="fill: #dfe9ef;"/>
  <rect x="65.727" y="24.272" width="14.333" height="14.733" style="fill: #f6f9fa;"/>
</svg>