<?xml version="1.0" encoding="UTF-8"?>
<svg id="_图层_1" data-name="图层 1" xmlns="http://www.w3.org/2000/svg" viewBox="0 0 371.745 322.723">
  <rect x="242.65" y="274.85" width="14.75" height="13.4" style="fill: #fdf3ea;"/>
  <rect x="227.9" y="274.85" width="14.75" height="13.4" style="fill: #f6c799;"/>
  <rect x="213.15" y="274.85" width="14.75" height="13.4" style="fill: #f6c799;"/>
  <rect x="198.4" y="274.85" width="14.75" height="13.4" style="fill: #f6c799;"/>
  <rect x="183.65" y="274.85" width="14.75" height="13.4" style="fill: #f6c799;"/>
  <rect x="168.9" y="274.85" width="14.75" height="13.4" style="fill: #f6c799;"/>
  <rect x="154.15" y="274.85" width="14.75" height="13.4" style="fill: #f6c799;"/>
  <rect x="139.4" y="274.85" width="14.75" height="13.4" style="fill: #f6c799;"/>
  <rect x="272.15" y="261.45" width="14.75" height="13.4" style="fill: #f6c799;"/>
  <rect x="257.4" y="261.45" width="14.75" height="13.4" style="fill: #f6c799;"/>
  <rect x="242.65" y="261.45" width="14.75" height="13.4" style="fill: #f6c799;"/>
  <rect x="227.9" y="261.45" width="14.75" height="13.4" style="fill: #f6c799;"/>
  <rect x="213.15" y="261.45" width="14.75" height="13.4" style="fill: #f6c799;"/>
  <rect x="198.4" y="261.45" width="14.75" height="13.4" style="fill: #f6c799;"/>
  <rect x="183.65" y="261.45" width="14.75" height="13.4" style="fill: #f6c799;"/>
  <rect x="168.9" y="261.45" width="14.75" height="13.4" style="fill: #8bb9b4;"/>
  <rect x="154.15" y="261.45" width="14.75" height="13.4" style="fill: #2caece;"/>
  <rect x="139.4" y="261.45" width="14.75" height="13.4" style="fill: #f2c69a;"/>
  <rect x="124.65" y="261.45" width="14.75" height="13.4" style="fill: #f6c799;"/>
  <rect x="109.9" y="261.45" width="14.75" height="13.4" style="fill: #f6c799;"/>
  <rect x="301.65" y="248.05" width="14.75" height="13.4" style="fill: #f8dabd;"/>
  <rect x="286.9" y="248.05" width="14.75" height="13.4" style="fill: #f6c799;"/>
  <rect x="272.15" y="248.05" width="14.75" height="13.4" style="fill: #f6c799;"/>
  <rect x="257.4" y="248.05" width="14.75" height="13.4" style="fill: #f6c799;"/>
  <rect x="242.65" y="248.05" width="14.75" height="13.4" style="fill: #f6c799;"/>
  <rect x="227.9" y="248.05" width="14.75" height="13.4" style="fill: #f6c799;"/>
  <rect x="213.15" y="248.05" width="14.75" height="13.4" style="fill: #f6c799;"/>
  <rect x="198.4" y="248.05" width="14.75" height="13.4" style="fill: #f6c799;"/>
  <rect x="183.65" y="248.05" width="14.75" height="13.4" style="fill: #2caece;"/>
  <rect x="168.9" y="248.05" width="14.75" height="13.4" style="fill: #2caece;"/>
  <rect x="154.15" y="248.05" width="14.75" height="13.4" style="fill: #2caece;"/>
  <rect x="139.4" y="248.05" width="14.75" height="13.4" style="fill: #2caece;"/>
  <rect x="124.65" y="248.05" width="14.75" height="13.4" style="fill: #2caece;"/>
  <rect x="109.9" y="248.05" width="14.75" height="13.4" style="fill: #f6c799;"/>
  <rect x="95.15" y="248.05" width="14.75" height="13.4" style="fill: #f6c799;"/>
  <rect x="80.4" y="248.05" width="14.75" height="13.4" style="fill: #f7d2ae;"/>
  <rect x="301.65" y="234.65" width="14.75" height="13.4" style="fill: #f6c799;"/>
  <rect x="286.9" y="234.65" width="14.75" height="13.4" style="fill: #f6c799;"/>
  <rect x="272.15" y="234.65" width="14.75" height="13.4" style="fill: #fff;"/>
  <rect x="257.4" y="234.65" width="14.75" height="13.4" style="fill: #fff;"/>
  <rect x="242.65" y="234.65" width="14.75" height="13.4" style="fill: #f6c799;"/>
  <rect x="227.9" y="234.65" width="14.75" height="13.4" style="fill: #f6c799;"/>
  <rect x="213.15" y="234.65" width="14.75" height="13.4" style="fill: #f6c799;"/>
  <rect x="198.4" y="234.65" width="14.75" height="13.4" style="fill: #f6c799;"/>
  <rect x="183.65" y="234.65" width="14.75" height="13.4" style="fill: #2caece;"/>
  <rect x="168.9" y="234.65" width="14.75" height="13.4" style="fill: #2caece;"/>
  <rect x="154.15" y="234.65" width="14.75" height="13.4" style="fill: #2caece;"/>
  <rect x="139.4" y="234.65" width="14.75" height="13.4" style="fill: #2caece;"/>
  <rect x="124.65" y="234.65" width="14.75" height="13.4" style="fill: #2caece;"/>
  <rect x="109.9" y="234.65" width="14.75" height="13.4" style="fill: #f6c799;"/>
  <rect x="95.15" y="234.65" width="14.75" height="13.4" style="fill: #f6c799;"/>
  <rect x="80.4" y="234.65" width="14.75" height="13.4" style="fill: #f6c799;"/>
  <rect x="316.4" y="221.25" width="14.75" height="13.4" style="fill: #f6c799;"/>
  <rect x="301.65" y="221.25" width="14.75" height="13.4" style="fill: #f6c799;"/>
  <rect x="286.9" y="221.25" width="14.75" height="13.4" style="fill: #fff;"/>
  <rect x="272.15" y="221.25" width="14.75" height="13.4" style="fill: #fff;"/>
  <rect x="257.4" y="221.25" width="14.75" height="13.4" style="fill: #fff;"/>
  <rect x="242.65" y="221.25" width="14.75" height="13.4" style="fill: #fff;"/>
  <rect x="227.9" y="221.25" width="14.75" height="13.4" style="fill: #f6c799;"/>
  <rect x="213.15" y="221.25" width="14.75" height="13.4" style="fill: #f6c799;"/>
  <rect x="198.4" y="221.25" width="14.75" height="13.4" style="fill: #f6c799;"/>
  <rect x="183.65" y="221.25" width="14.75" height="13.4" style="fill: #2caece;"/>
  <rect x="168.9" y="221.25" width="14.75" height="13.4" style="fill: #2caece;"/>
  <rect x="154.15" y="221.25" width="14.75" height="13.4" style="fill: #2caece;"/>
  <rect x="139.4" y="221.25" width="14.75" height="13.4" style="fill: #2caece;"/>
  <rect x="124.65" y="221.25" width="14.75" height="13.4" style="fill: #2caece;"/>
  <rect x="109.9" y="221.25" width="14.75" height="13.4" style="fill: #f6c799;"/>
  <rect x="95.15" y="221.25" width="14.75" height="13.4" style="fill: #f6c799;"/>
  <rect x="80.4" y="221.25" width="14.75" height="13.4" style="fill: #f6c799;"/>
  <rect x="65.65" y="221.25" width="14.75" height="13.4" style="fill: #f6c799;"/>
  <rect x="316.4" y="207.85" width="14.75" height="13.4" style="fill: #f6c799;"/>
  <rect x="301.65" y="207.85" width="14.75" height="13.4" style="fill: #f6c799;"/>
  <rect x="286.9" y="207.85" width="14.75" height="13.4" style="fill: #fff;"/>
  <rect x="272.15" y="207.85" width="14.75" height="13.4" style="fill: #fff;"/>
  <rect x="257.4" y="207.85" width="14.75" height="13.4" style="fill: #fff;"/>
  <rect x="242.65" y="207.85" width="14.75" height="13.4" style="fill: #fff;"/>
  <rect x="227.9" y="207.85" width="14.75" height="13.4" style="fill: #fcecdc;"/>
  <rect x="213.15" y="207.85" width="14.75" height="13.4" style="fill: #f6c799;"/>
  <rect x="198.4" y="207.85" width="14.75" height="13.4" style="fill: #f0c295;"/>
  <rect x="183.65" y="207.85" width="14.75" height="13.4" style="fill: #947151;"/>
  <rect x="168.9" y="207.85" width="14.75" height="13.4" style="fill: #927152;"/>
  <rect x="154.15" y="207.85" width="14.75" height="13.4" style="fill: #2caece;"/>
  <rect x="139.4" y="207.85" width="14.75" height="13.4" style="fill: #2caece;"/>
  <rect x="124.65" y="207.85" width="14.75" height="13.4" style="fill: #f6c799;"/>
  <rect x="109.9" y="207.85" width="14.75" height="13.4" style="fill: #f6c799;"/>
  <rect x="95.15" y="207.85" width="14.75" height="13.4" style="fill: #fdf516;"/>
  <rect x="80.4" y="207.85" width="14.75" height="13.4" style="fill: #fdf516;"/>
  <rect x="65.65" y="207.85" width="14.75" height="13.4" style="fill: #f6c799;"/>
  <rect x="50.9" y="207.85" width="14.75" height="13.4" style="fill: #f6c799;"/>
  <rect x="316.4" y="194.45" width="14.75" height="13.4" style="fill: #f6c799;"/>
  <rect x="301.65" y="194.45" width="14.75" height="13.4" style="fill: #f6c799;"/>
  <rect x="286.9" y="194.45" width="14.75" height="13.4" style="fill: #fff;"/>
  <rect x="272.15" y="194.45" width="14.75" height="13.4" style="fill: #fff;"/>
  <rect x="257.4" y="194.45" width="14.75" height="13.4" style="fill: #fff;"/>
  <rect x="242.65" y="194.45" width="14.75" height="13.4" style="fill: #fff;"/>
  <rect x="227.9" y="194.45" width="14.75" height="13.4" style="fill: #f6c799;"/>
  <rect x="213.15" y="194.45" width="14.75" height="13.4" style="fill: #947151;"/>
  <rect x="198.4" y="194.45" width="14.75" height="13.4" style="fill: #947151;"/>
  <rect x="183.65" y="194.45" width="14.75" height="13.4" style="fill: #947151;"/>
  <rect x="168.9" y="194.45" width="14.75" height="13.4" style="fill: #f6c799;"/>
  <rect x="154.15" y="194.45" width="14.75" height="13.4" style="fill: #f6c799;"/>
  <rect x="139.4" y="194.45" width="14.75" height="13.4" style="fill: #f6c799;"/>
  <rect x="124.65" y="194.45" width="14.75" height="13.4" style="fill: #fdf516;"/>
  <rect x="109.9" y="194.45" width="14.75" height="13.4" style="fill: #fdf516;"/>
  <rect x="95.15" y="194.45" width="14.75" height="13.4" style="fill: #fdf516;"/>
  <rect x="80.4" y="194.45" width="14.75" height="13.4" style="fill: #fdf516;"/>
  <rect x="65.65" y="194.45" width="14.75" height="13.4" style="fill: #fdf516;"/>
  <rect x="50.9" y="194.45" width="14.75" height="13.4" style="fill: #f6c799;"/>
  <rect x="316.4" y="181.05" width="14.75" height="13.4" style="fill: #f6c799;"/>
  <rect x="301.65" y="181.05" width="14.75" height="13.4" style="fill: #f6c799;"/>
  <rect x="286.9" y="181.05" width="14.75" height="13.4" style="fill: #f6c799;"/>
  <rect x="272.15" y="181.05" width="14.75" height="13.4" style="fill: #f6c799;"/>
  <rect x="257.4" y="181.05" width="14.75" height="13.4" style="fill: #f6c799;"/>
  <rect x="242.65" y="181.05" width="14.75" height="13.4" style="fill: #f6c799;"/>
  <rect x="227.9" y="181.05" width="14.75" height="13.4" style="fill: #f6c799;"/>
  <rect x="213.15" y="181.05" width="14.75" height="13.4" style="fill: #947151;"/>
  <rect x="198.4" y="181.05" width="14.75" height="13.4" style="fill: #947151;"/>
  <rect x="183.65" y="181.05" width="14.75" height="13.4" style="fill: #947151;"/>
  <rect x="168.9" y="181.05" width="14.75" height="13.4" style="fill: #f6c799;"/>
  <rect x="154.15" y="181.05" width="14.75" height="13.4" style="fill: #f6c799;"/>
  <rect x="139.4" y="181.05" width="14.75" height="13.4" style="fill: #f6c799;"/>
  <rect x="124.65" y="181.05" width="14.75" height="13.4" style="fill: #fdf516;"/>
  <rect x="109.9" y="181.05" width="14.75" height="13.4" style="fill: #fdf516;"/>
  <rect x="95.15" y="181.05" width="14.75" height="13.4" style="fill: #fdf516;"/>
  <rect x="80.4" y="181.05" width="14.75" height="13.4" style="fill: #fdf516;"/>
  <rect x="65.65" y="181.05" width="14.75" height="13.4" style="fill: #fdf516;"/>
  <rect x="50.9" y="181.05" width="14.75" height="13.4" style="fill: #f6c799;"/>
  <rect x="36.15" y="181.05" width="14.75" height="13.4" style="fill: #f6c799;"/>
  <rect x="301.65" y="167.65" width="14.75" height="13.4" style="fill: #f6c799;"/>
  <rect x="286.9" y="167.65" width="14.75" height="13.4" style="fill: #f6c799;"/>
  <rect x="272.15" y="167.65" width="14.75" height="13.4" style="fill: #f6c799;"/>
  <rect x="257.4" y="167.65" width="14.75" height="13.4" style="fill: #f6c799;"/>
  <rect x="242.65" y="167.65" width="14.75" height="13.4" style="fill: #f6c799;"/>
  <rect x="227.9" y="167.65" width="14.75" height="13.4" style="fill: #ddc9b6;"/>
  <rect x="213.15" y="167.65" width="14.75" height="13.4" style="fill: #947151;"/>
  <rect x="198.4" y="167.65" width="14.75" height="13.4" style="fill: #947151;"/>
  <rect x="183.65" y="167.65" width="14.75" height="13.4" style="fill: #f6c799;"/>
  <rect x="168.9" y="167.65" width="14.75" height="13.4" style="fill: #f6c799;"/>
  <rect x="154.15" y="167.65" width="14.75" height="13.4" style="fill: #f6c799;"/>
  <rect x="139.4" y="167.65" width="14.75" height="13.4" style="fill: #f6c799;"/>
  <rect x="124.65" y="167.65" width="14.75" height="13.4" style="fill: #fdf516;"/>
  <rect x="109.9" y="167.65" width="14.75" height="13.4" style="fill: #fdf516;"/>
  <rect x="95.15" y="167.65" width="14.75" height="13.4" style="fill: #fdf516;"/>
  <rect x="80.4" y="167.65" width="14.75" height="13.4" style="fill: #fdf516;"/>
  <rect x="65.65" y="167.65" width="14.75" height="13.4" style="fill: #fdf516;"/>
  <rect x="50.9" y="167.65" width="14.75" height="13.4" style="fill: #f6c799;"/>
  <rect x="36.15" y="167.65" width="14.75" height="13.4" style="fill: #f6c799;"/>
  <rect x="257.4" y="154.25" width="14.75" height="13.4" style="fill: #f6c799;"/>
  <rect x="242.65" y="154.25" width="14.75" height="13.4" style="fill: #f5c698;"/>
  <rect x="227.9" y="154.25" width="14.75" height="13.4" style="fill: #ccc;"/>
  <rect x="213.15" y="154.25" width="14.75" height="13.4" style="fill: #f6c799;"/>
  <rect x="198.4" y="154.25" width="14.75" height="13.4" style="fill: #f6c799;"/>
  <rect x="183.65" y="154.25" width="14.75" height="13.4" style="fill: #f6c799;"/>
  <rect x="168.9" y="154.25" width="14.75" height="13.4" style="fill: #f6c799;"/>
  <rect x="154.15" y="154.25" width="14.75" height="13.4" style="fill: #f6c799;"/>
  <rect x="139.4" y="154.25" width="14.75" height="13.4" style="fill: #f6c799;"/>
  <rect x="124.65" y="154.25" width="14.75" height="13.4" style="fill: #f6c799;"/>
  <rect x="109.9" y="154.25" width="14.75" height="13.4" style="fill: #fdf516;"/>
  <rect x="95.15" y="154.25" width="14.75" height="13.4" style="fill: #fdf516;"/>
  <rect x="80.4" y="154.25" width="14.75" height="13.4" style="fill: #f6c799;"/>
  <rect x="65.65" y="154.25" width="14.75" height="13.4" style="fill: #f6c799;"/>
  <rect x="50.9" y="154.25" width="14.75" height="13.4" style="fill: #f6c799;"/>
  <rect x="36.15" y="154.25" width="14.75" height="13.4" style="fill: #f6c799;"/>
  <rect x="257.4" y="140.85" width="14.75" height="13.4" style="fill: #ddd;"/>
  <rect x="242.65" y="140.85" width="14.75" height="13.4" style="fill: #666;"/>
  <rect x="227.9" y="140.85" width="14.75" height="13.4" style="fill: #666;"/>
  <rect x="213.15" y="140.85" width="14.75" height="13.4" style="fill: #f6c799;"/>
  <rect x="198.4" y="140.85" width="14.75" height="13.4" style="fill: #f6c799;"/>
  <rect x="183.65" y="140.85" width="14.75" height="13.4" style="fill: #f6c799;"/>
  <rect x="168.9" y="140.85" width="14.75" height="13.4" style="fill: #f6c799;"/>
  <rect x="154.15" y="140.85" width="14.75" height="13.4" style="fill: #f6c799;"/>
  <rect x="139.4" y="140.85" width="14.75" height="13.4" style="fill: #f6c799;"/>
  <rect x="124.65" y="140.85" width="14.75" height="13.4" style="fill: #f6c799;"/>
  <rect x="109.9" y="140.85" width="14.75" height="13.4" style="fill: #f6c799;"/>
  <rect x="95.15" y="140.85" width="14.75" height="13.4" style="fill: #f6c799;"/>
  <rect x="80.4" y="140.85" width="14.75" height="13.4" style="fill: #f6c799;"/>
  <rect x="65.65" y="140.85" width="14.75" height="13.4" style="fill: #f6c799;"/>
  <rect x="50.9" y="140.85" width="14.75" height="13.4" style="fill: #f6c799;"/>
  <rect x="36.15" y="140.85" width="14.75" height="13.4" style="fill: #f6c799;"/>
  <rect x="257.4" y="127.45" width="14.75" height="13.4" style="fill: #666;"/>
  <rect x="242.65" y="127.45" width="14.75" height="13.4" style="fill: #666;"/>
  <rect x="227.9" y="127.45" width="14.75" height="13.4" style="fill: #f6c799;"/>
  <rect x="213.15" y="127.45" width="14.75" height="13.4" style="fill: #f6c799;"/>
  <rect x="198.4" y="127.45" width="14.75" height="13.4" style="fill: #f6c799;"/>
  <rect x="183.65" y="127.45" width="14.75" height="13.4" style="fill: #f6c799;"/>
  <rect x="168.9" y="127.45" width="14.75" height="13.4" style="fill: #f6c799;"/>
  <rect x="154.15" y="127.45" width="14.75" height="13.4" style="fill: #f6c799;"/>
  <rect x="139.4" y="127.45" width="14.75" height="13.4" style="fill: #f6c799;"/>
  <rect x="124.65" y="127.45" width="14.75" height="13.4" style="fill: #f6c799;"/>
  <rect x="109.9" y="127.45" width="14.75" height="13.4" style="fill: #f6c799;"/>
  <rect x="95.15" y="127.45" width="14.75" height="13.4" style="fill: #f55;"/>
  <rect x="80.4" y="127.45" width="14.75" height="13.4" style="fill: #f55;"/>
  <rect x="65.65" y="127.45" width="14.75" height="13.4" style="fill: #f55;"/>
  <rect x="50.9" y="127.45" width="14.75" height="13.4" style="fill: #f6c799;"/>
  <rect x="36.15" y="127.45" width="14.75" height="13.4" style="fill: #f6c799;"/>
  <rect x="272.15" y="114.05" width="14.75" height="13.4" style="fill: #666;"/>
  <rect x="257.4" y="114.05" width="14.75" height="13.4" style="fill: #666;"/>
  <rect x="242.65" y="114.05" width="14.75" height="13.4" style="fill: #f6c799;"/>
  <rect x="227.9" y="114.05" width="14.75" height="13.4" style="fill: #f6c799;"/>
  <rect x="213.15" y="114.05" width="14.75" height="13.4" style="fill: #f6c799;"/>
  <rect x="198.4" y="114.05" width="14.75" height="13.4" style="fill: #f6c799;"/>
  <rect x="183.65" y="114.05" width="14.75" height="13.4" style="fill: #f6c799;"/>
  <rect x="168.9" y="114.05" width="14.75" height="13.4" style="fill: #f6c799;"/>
  <rect x="154.15" y="114.05" width="14.75" height="13.4" style="fill: #f6c799;"/>
  <rect x="139.4" y="114.05" width="14.75" height="13.4" style="fill: #f6c799;"/>
  <rect x="124.65" y="114.05" width="14.75" height="13.4" style="fill: #f6c799;"/>
  <rect x="109.9" y="114.05" width="14.75" height="13.4" style="fill: #f55;"/>
  <rect x="95.15" y="114.05" width="14.75" height="13.4" style="fill: #f55;"/>
  <rect x="80.4" y="114.05" width="14.75" height="13.4" style="fill: #f55;"/>
  <rect x="65.65" y="114.05" width="14.75" height="13.4" style="fill: #f55;"/>
  <rect x="50.9" y="114.05" width="14.75" height="13.4" style="fill: #f55;"/>
  <rect x="36.15" y="114.05" width="14.75" height="13.4" style="fill: #f6c799;"/>
  <rect x="286.9" y="100.65" width="14.75" height="13.4" style="fill: #666;"/>
  <rect x="272.15" y="100.65" width="14.75" height="13.4" style="fill: #666;"/>
  <rect x="257.4" y="100.65" width="14.75" height="13.4" style="fill: #666;"/>
  <rect x="242.65" y="100.65" width="14.75" height="13.4" style="fill: #f6c799;"/>
  <rect x="227.9" y="100.65" width="14.75" height="13.4" style="fill: #f6c799;"/>
  <rect x="213.15" y="100.65" width="14.75" height="13.4" style="fill: #f6c799;"/>
  <rect x="198.4" y="100.65" width="14.75" height="13.4" style="fill: #f6c799;"/>
  <rect x="183.65" y="100.65" width="14.75" height="13.4" style="fill: #f6c799;"/>
  <rect x="168.9" y="100.65" width="14.75" height="13.4" style="fill: #f6c799;"/>
  <rect x="154.15" y="100.65" width="14.75" height="13.4" style="fill: #f6c799;"/>
  <rect x="139.4" y="100.65" width="14.75" height="13.4" style="fill: #f6c799;"/>
  <rect x="124.65" y="100.65" width="14.75" height="13.4" style="fill: #f6c799;"/>
  <rect x="109.9" y="100.65" width="14.75" height="13.4" style="fill: #f55;"/>
  <rect x="95.15" y="100.65" width="14.75" height="13.4" style="fill: #f55;"/>
  <rect x="80.4" y="100.65" width="14.75" height="13.4" style="fill: #f55;"/>
  <rect x="65.65" y="100.65" width="14.75" height="13.4" style="fill: #f55;"/>
  <rect x="50.9" y="100.65" width="14.75" height="13.4" style="fill: #f6c799;"/>
  <rect x="301.65" y="87.25" width="14.75" height="13.4" style="fill: #666;"/>
  <rect x="286.9" y="87.25" width="14.75" height="13.4" style="fill: #666;"/>
  <rect x="272.15" y="87.25" width="14.75" height="13.4" style="fill: #666;"/>
  <rect x="257.4" y="87.25" width="14.75" height="13.4" style="fill: #f6c799;"/>
  <rect x="242.65" y="87.25" width="14.75" height="13.4" style="fill: #f6c799;"/>
  <rect x="227.9" y="87.25" width="14.75" height="13.4" style="fill: #f6c799;"/>
  <rect x="213.15" y="87.25" width="14.75" height="13.4" style="fill: #f6c799;"/>
  <rect x="198.4" y="87.25" width="14.75" height="13.4" style="fill: #f6c799;"/>
  <rect x="183.65" y="87.25" width="14.75" height="13.4" style="fill: #f6c799;"/>
  <rect x="168.9" y="87.25" width="14.75" height="13.4" style="fill: #f6c799;"/>
  <rect x="154.15" y="87.25" width="14.75" height="13.4" style="fill: #f6c799;"/>
  <rect x="139.4" y="87.25" width="14.75" height="13.4" style="fill: #83bf4f;"/>
  <rect x="124.65" y="87.25" width="14.75" height="13.4" style="fill: #c7c37a;"/>
  <rect x="109.9" y="87.25" width="14.75" height="13.4" style="fill: #f6c799;"/>
  <rect x="95.15" y="87.25" width="14.75" height="13.4" style="fill: #f6c799;"/>
  <rect x="80.4" y="87.25" width="14.75" height="13.4" style="fill: #f6c799;"/>
  <rect x="65.65" y="87.25" width="14.75" height="13.4" style="fill: #f6c799;"/>
  <rect x="50.9" y="87.25" width="14.75" height="13.4" style="fill: #f6c799;"/>
  <rect x="316.4" y="73.85" width="14.75" height="13.4" style="fill: #666;"/>
  <rect x="301.65" y="73.85" width="14.75" height="13.4" style="fill: #666;"/>
  <rect x="286.9" y="73.85" width="14.75" height="13.4" style="fill: #666;"/>
  <rect x="272.15" y="73.85" width="14.75" height="13.4" style="fill: #f6c799;"/>
  <rect x="257.4" y="73.85" width="14.75" height="13.4" style="fill: #f6c799;"/>
  <rect x="242.65" y="73.85" width="14.75" height="13.4" style="fill: #f6c799;"/>
  <rect x="227.9" y="73.85" width="14.75" height="13.4" style="fill: #f6c799;"/>
  <rect x="213.15" y="73.85" width="14.75" height="13.4" style="fill: #f6c799;"/>
  <rect x="198.4" y="73.85" width="14.75" height="13.4" style="fill: #f6c799;"/>
  <rect x="183.65" y="73.85" width="14.75" height="13.4" style="fill: #f6c799;"/>
  <rect x="168.9" y="73.85" width="14.75" height="13.4" style="fill: #f6c799;"/>
  <rect x="154.15" y="73.85" width="14.75" height="13.4" style="fill: #83bf4f;"/>
  <rect x="139.4" y="73.85" width="14.75" height="13.4" style="fill: #83bf4f;"/>
  <rect x="124.65" y="73.85" width="14.75" height="13.4" style="fill: #83bf4f;"/>
  <rect x="109.9" y="73.85" width="14.75" height="13.4" style="fill: #83bf4f;"/>
  <rect x="95.15" y="73.85" width="14.75" height="13.4" style="fill: #f6c799;"/>
  <rect x="80.4" y="73.85" width="14.75" height="13.4" style="fill: #f6c799;"/>
  <rect x="65.65" y="73.85" width="14.75" height="13.4" style="fill: #f6c799;"/>
  <rect x="316.4" y="60.45" width="14.75" height="13.4" style="fill: #666;"/>
  <rect x="301.65" y="60.45" width="14.75" height="13.4" style="fill: #666;"/>
  <rect x="272.15" y="60.45" width="14.75" height="13.4" style="fill: #f6c799;"/>
  <rect x="257.4" y="60.45" width="14.75" height="13.4" style="fill: #f6c799;"/>
  <rect x="242.65" y="60.45" width="14.75" height="13.4" style="fill: #f0c09a;"/>
  <rect x="227.9" y="60.45" width="14.75" height="13.4" style="fill: #9156b7;"/>
  <rect x="213.15" y="60.45" width="14.75" height="13.4" style="fill: #9156b7;"/>
  <rect x="198.4" y="60.45" width="14.75" height="13.4" style="fill: #9156b7;"/>
  <rect x="183.65" y="60.45" width="14.75" height="13.4" style="fill: #f6c799;"/>
  <rect x="168.9" y="60.45" width="14.75" height="13.4" style="fill: #83bf4f;"/>
  <rect x="154.15" y="60.45" width="14.75" height="13.4" style="fill: #83bf4f;"/>
  <rect x="139.4" y="60.45" width="14.75" height="13.4" style="fill: #83bf4f;"/>
  <rect x="124.65" y="60.45" width="14.75" height="13.4" style="fill: #83bf4f;"/>
  <rect x="109.9" y="60.45" width="14.75" height="13.4" style="fill: #83bf4f;"/>
  <rect x="95.15" y="60.45" width="14.75" height="13.4" style="fill: #f6c799;"/>
  <rect x="80.4" y="60.45" width="14.75" height="13.4" style="fill: #f6c799;"/>
  <rect x="257.4" y="47.05" width="14.75" height="13.4" style="fill: #f6c799;"/>
  <rect x="242.65" y="47.05" width="14.75" height="13.4" style="fill: #9156b7;"/>
  <rect x="227.9" y="47.05" width="14.75" height="13.4" style="fill: #9156b7;"/>
  <rect x="213.15" y="47.05" width="14.75" height="13.4" style="fill: #9156b7;"/>
  <rect x="198.4" y="47.05" width="14.75" height="13.4" style="fill: #9156b7;"/>
  <rect x="183.65" y="47.05" width="14.75" height="13.4" style="fill: #f6c799;"/>
  <rect x="168.9" y="47.05" width="14.75" height="13.4" style="fill: #f6c799;"/>
  <rect x="154.15" y="47.05" width="14.75" height="13.4" style="fill: #83bf4f;"/>
  <rect x="139.4" y="47.05" width="14.75" height="13.4" style="fill: #83bf4f;"/>
  <rect x="124.65" y="47.05" width="14.75" height="13.4" style="fill: #83bf4f;"/>
  <rect x="109.9" y="47.05" width="14.75" height="13.4" style="fill: #f6c799;"/>
  <rect x="95.15" y="47.05" width="14.75" height="13.4" style="fill: #f6c799;"/>
  <rect x="257.4" y="33.65" width="14.75" height="13.4" style="fill: #f6c99e;"/>
  <rect x="242.65" y="33.65" width="14.75" height="13.4" style="fill: #f6c799;"/>
  <rect x="227.9" y="33.65" width="14.75" height="13.4" style="fill: #9156b7;"/>
  <rect x="213.15" y="33.65" width="14.75" height="13.4" style="fill: #9156b7;"/>
  <rect x="198.4" y="33.65" width="14.75" height="13.4" style="fill: #9156b7;"/>
  <rect x="183.65" y="33.65" width="14.75" height="13.4" style="fill: #f6c799;"/>
  <rect x="168.9" y="33.65" width="14.75" height="13.4" style="fill: #f6c799;"/>
  <rect x="154.15" y="33.65" width="14.75" height="13.4" style="fill: #f6c799;"/>
  <rect x="139.4" y="33.65" width="14.75" height="13.4" style="fill: #f6c799;"/>
  <rect x="124.65" y="33.65" width="14.75" height="13.4" style="fill: #f6c799;"/>
  <rect x="109.9" y="33.65" width="14.75" height="13.4" style="fill: #f6c99d;"/>
  <rect x="227.9" y="20.25" width="14.75" height="13.4" style="fill: #f6c799;"/>
  <rect x="213.15" y="20.25" width="14.75" height="13.4" style="fill: #f6c799;"/>
  <rect x="198.4" y="20.25" width="14.75" height="13.4" style="fill: #f6c799;"/>
  <rect x="183.65" y="20.25" width="14.75" height="13.4" style="fill: #f6c799;"/>
  <rect x="168.9" y="20.25" width="14.75" height="13.4" style="fill: #f6c799;"/>
  <rect x="154.15" y="20.25" width="14.75" height="13.4" style="fill: #f6c799;"/>
</svg>