<?xml version="1.0" encoding="UTF-8"?>
<svg id="_图层_1" data-name="图层 1" xmlns="http://www.w3.org/2000/svg" viewBox="0 0 316.596 302.298">
  <rect x="198.238" y="259.361" width="11.148" height="12.8" style="fill: #788287;"/>
  <rect x="187.089" y="259.361" width="11.148" height="12.8" style="fill: #788287;"/>
  <rect x="175.941" y="259.361" width="11.148" height="12.8" style="fill: #788287;"/>
  <rect x="164.792" y="259.361" width="11.148" height="12.8" style="fill: #788287;"/>
  <rect x="153.644" y="259.361" width="11.148" height="12.8" style="fill: #788287;"/>
  <rect x="142.496" y="259.361" width="11.148" height="12.8" style="fill: #788287;"/>
  <rect x="253.979" y="246.561" width="11.148" height="12.8" style="fill: #414446;"/>
  <rect x="242.831" y="246.561" width="11.148" height="12.8" style="fill: #212528;"/>
  <rect x="231.683" y="246.561" width="11.148" height="12.8" style="fill: #212528;"/>
  <rect x="220.534" y="246.561" width="11.148" height="12.8" style="fill: #788287;"/>
  <rect x="209.386" y="246.561" width="11.148" height="12.8" style="fill: #778186;"/>
  <rect x="198.238" y="246.561" width="11.148" height="12.8" style="fill: #212528;"/>
  <rect x="187.089" y="246.561" width="11.148" height="12.8" style="fill: #212528;"/>
  <rect x="175.941" y="246.561" width="11.148" height="12.8" style="fill: #212528;"/>
  <rect x="164.792" y="246.561" width="11.148" height="12.8" style="fill: #212528;"/>
  <rect x="153.644" y="246.561" width="11.148" height="12.8" style="fill: #212528;"/>
  <rect x="142.496" y="246.561" width="11.148" height="12.8" style="fill: #212528;"/>
  <rect x="131.347" y="246.561" width="11.148" height="12.8" style="fill: #778186;"/>
  <rect x="120.199" y="246.561" width="11.148" height="12.8" style="fill: #788287;"/>
  <rect x="109.05" y="246.561" width="11.148" height="12.8" style="fill: #212528;"/>
  <rect x="97.902" y="246.561" width="11.148" height="12.8" style="fill: #212528;"/>
  <rect x="86.754" y="246.561" width="11.148" height="12.8" style="fill: #212528;"/>
  <rect x="75.605" y="246.561" width="11.148" height="12.8" style="fill: #212528;"/>
  <rect x="64.457" y="246.561" width="11.148" height="12.8" style="fill: #212528;"/>
  <rect x="53.308" y="246.561" width="11.148" height="12.8" style="fill: #212528;"/>
  <rect x="42.16" y="246.561" width="11.148" height="12.8" style="fill: #6e7173;"/>
  <rect x="253.979" y="233.761" width="11.148" height="12.8" style="fill: #212528;"/>
  <rect x="242.831" y="233.761" width="11.148" height="12.8" style="fill: #212528;"/>
  <rect x="231.683" y="233.761" width="11.148" height="12.8" style="fill: #788287;"/>
  <rect x="220.534" y="233.761" width="11.148" height="12.8" style="fill: #212528;"/>
  <rect x="209.386" y="233.761" width="11.148" height="12.8" style="fill: #212528;"/>
  <rect x="198.238" y="233.761" width="11.148" height="12.8" style="fill: #3e4347;"/>
  <rect x="187.089" y="233.761" width="11.148" height="12.8" style="fill: #3e4347;"/>
  <rect x="175.941" y="233.761" width="11.148" height="12.8" style="fill: #3e4347;"/>
  <rect x="164.792" y="233.761" width="11.148" height="12.8" style="fill: #3e4347;"/>
  <rect x="153.644" y="233.761" width="11.148" height="12.8" style="fill: #3e4347;"/>
  <rect x="142.496" y="233.761" width="11.148" height="12.8" style="fill: #3e4347;"/>
  <rect x="131.347" y="233.761" width="11.148" height="12.8" style="fill: #212528;"/>
  <rect x="120.199" y="233.761" width="11.148" height="12.8" style="fill: #212528;"/>
  <rect x="109.05" y="233.761" width="11.148" height="12.8" style="fill: #788287;"/>
  <rect x="97.902" y="233.761" width="11.148" height="12.8" style="fill: #212528;"/>
  <rect x="86.754" y="233.761" width="11.148" height="12.8" style="fill: #212528;"/>
  <rect x="75.605" y="233.761" width="11.148" height="12.8" style="fill: #212528;"/>
  <rect x="64.457" y="233.761" width="11.148" height="12.8" style="fill: #212528;"/>
  <rect x="53.308" y="233.761" width="11.148" height="12.8" style="fill: #212528;"/>
  <rect x="42.16" y="233.761" width="11.148" height="12.8" style="fill: #212528;"/>
  <rect x="253.979" y="220.961" width="11.148" height="12.8" style="fill: #3e4347;"/>
  <rect x="242.831" y="220.961" width="11.148" height="12.8" style="fill: #3e4347;"/>
  <rect x="231.683" y="220.961" width="11.148" height="12.8" style="fill: #626b6f;"/>
  <rect x="220.534" y="220.961" width="11.148" height="12.8" style="fill: #212528;"/>
  <rect x="209.386" y="220.961" width="11.148" height="12.8" style="fill: #3e4347;"/>
  <rect x="198.238" y="220.961" width="11.148" height="12.8" style="fill: #3e4347;"/>
  <rect x="187.089" y="220.961" width="11.148" height="12.8" style="fill: #3e4347;"/>
  <rect x="175.941" y="220.961" width="11.148" height="12.8" style="fill: #3e4347;"/>
  <rect x="164.792" y="220.961" width="11.148" height="12.8" style="fill: #3e4347;"/>
  <rect x="153.644" y="220.961" width="11.148" height="12.8" style="fill: #3e4347;"/>
  <rect x="142.496" y="220.961" width="11.148" height="12.8" style="fill: #9a9c9e;"/>
  <rect x="131.347" y="220.961" width="11.148" height="12.8" style="fill: #3e4347;"/>
  <rect x="120.199" y="220.961" width="11.148" height="12.8" style="fill: #212528;"/>
  <rect x="109.05" y="220.961" width="11.148" height="12.8" style="fill: #788287;"/>
  <rect x="97.902" y="220.961" width="11.148" height="12.8" style="fill: #3e4347;"/>
  <rect x="86.754" y="220.961" width="11.148" height="12.8" style="fill: #5a6268;"/>
  <rect x="75.605" y="220.961" width="11.148" height="12.8" style="fill: #636c72;"/>
  <rect x="64.457" y="220.961" width="11.148" height="12.8" style="fill: #636c72;"/>
  <rect x="53.308" y="220.961" width="11.148" height="12.8" style="fill: #636c72;"/>
  <rect x="42.16" y="220.961" width="11.148" height="12.8" style="fill: #3e4347;"/>
  <rect x="253.979" y="208.161" width="11.148" height="12.8" style="fill: #3e4347;"/>
  <rect x="242.831" y="208.161" width="11.148" height="12.8" style="fill: #788287;"/>
  <rect x="231.683" y="208.161" width="11.148" height="12.8" style="fill: #212528;"/>
  <rect x="220.534" y="208.161" width="11.148" height="12.8" style="fill: #3e4347;"/>
  <rect x="209.386" y="208.161" width="11.148" height="12.8" style="fill: #3e4347;"/>
  <rect x="198.238" y="208.161" width="11.148" height="12.8" style="fill: #3e4347;"/>
  <rect x="187.089" y="208.161" width="11.148" height="12.8" style="fill: #212528;"/>
  <rect x="175.941" y="208.161" width="11.148" height="12.8" style="fill: #212528;"/>
  <rect x="164.792" y="208.161" width="11.148" height="12.8" style="fill: #8b8d8f;"/>
  <rect x="153.644" y="208.161" width="11.148" height="12.8" style="fill: #828486;"/>
  <rect x="142.496" y="208.161" width="11.148" height="12.8" style="fill: #3e4347;"/>
  <rect x="131.347" y="208.161" width="11.148" height="12.8" style="fill: #3e4347;"/>
  <rect x="120.199" y="208.161" width="11.148" height="12.8" style="fill: #3e4347;"/>
  <rect x="109.05" y="208.161" width="11.148" height="12.8" style="fill: #212528;"/>
  <rect x="97.902" y="208.161" width="11.148" height="12.8" style="fill: #788287;"/>
  <rect x="86.754" y="208.161" width="11.148" height="12.8" style="fill: #636c72;"/>
  <rect x="75.605" y="208.161" width="11.148" height="12.8" style="fill: #636c72;"/>
  <rect x="64.457" y="208.161" width="11.148" height="12.8" style="fill: #636c72;"/>
  <rect x="53.308" y="208.161" width="11.148" height="12.8" style="fill: #636c72;"/>
  <rect x="42.16" y="208.161" width="11.148" height="12.8" style="fill: #50575c;"/>
  <rect x="253.979" y="195.361" width="11.148" height="12.8" style="fill: #3e4347;"/>
  <rect x="242.831" y="195.361" width="11.148" height="12.8" style="fill: #788287;"/>
  <rect x="231.683" y="195.361" width="11.148" height="12.8" style="fill: #212528;"/>
  <rect x="220.534" y="195.361" width="11.148" height="12.8" style="fill: #3e4347;"/>
  <rect x="209.386" y="195.361" width="11.148" height="12.8" style="fill: #3e4347;"/>
  <rect x="198.238" y="195.361" width="11.148" height="12.8" style="fill: #212528;"/>
  <rect x="187.089" y="195.361" width="11.148" height="12.8" style="fill: #212528;"/>
  <rect x="175.941" y="195.361" width="11.148" height="12.8" style="fill: #212528;"/>
  <rect x="164.792" y="195.361" width="11.148" height="12.8" style="fill: #8b8d8f;"/>
  <rect x="153.644" y="195.361" width="11.148" height="12.8" style="fill: #8b8d8f;"/>
  <rect x="142.496" y="195.361" width="11.148" height="12.8" style="fill: #24292c;"/>
  <rect x="131.347" y="195.361" width="11.148" height="12.8" style="fill: #3e4347;"/>
  <rect x="120.199" y="195.361" width="11.148" height="12.8" style="fill: #3e4347;"/>
  <rect x="109.05" y="195.361" width="11.148" height="12.8" style="fill: #212528;"/>
  <rect x="97.902" y="195.361" width="11.148" height="12.8" style="fill: #788287;"/>
  <rect x="86.754" y="195.361" width="11.148" height="12.8" style="fill: #636c72;"/>
  <rect x="75.605" y="195.361" width="11.148" height="12.8" style="fill: #636c72;"/>
  <rect x="64.457" y="195.361" width="11.148" height="12.8" style="fill: #636c72;"/>
  <rect x="53.308" y="195.361" width="11.148" height="12.8" style="fill: #636c72;"/>
  <rect x="42.16" y="195.361" width="11.148" height="12.8" style="fill: #50575c;"/>
  <rect x="253.979" y="182.561" width="11.148" height="12.8" style="fill: #3e4347;"/>
  <rect x="242.831" y="182.561" width="11.148" height="12.8" style="fill: #788287;"/>
  <rect x="231.683" y="182.561" width="11.148" height="12.8" style="fill: #212528;"/>
  <rect x="220.534" y="182.561" width="11.148" height="12.8" style="fill: #3e4347;"/>
  <rect x="209.386" y="182.561" width="11.148" height="12.8" style="fill: #3e4347;"/>
  <rect x="198.238" y="182.561" width="11.148" height="12.8" style="fill: #424648;"/>
  <rect x="187.089" y="182.561" width="11.148" height="12.8" style="fill: #212528;"/>
  <rect x="175.941" y="182.561" width="11.148" height="12.8" style="fill: #212528;"/>
  <rect x="164.792" y="182.561" width="11.148" height="12.8" style="fill: #212528;"/>
  <rect x="153.644" y="182.561" width="11.148" height="12.8" style="fill: #212528;"/>
  <rect x="142.496" y="182.561" width="11.148" height="12.8" style="fill: #2a2e32;"/>
  <rect x="131.347" y="182.561" width="11.148" height="12.8" style="fill: #3e4347;"/>
  <rect x="120.199" y="182.561" width="11.148" height="12.8" style="fill: #3e4347;"/>
  <rect x="109.05" y="182.561" width="11.148" height="12.8" style="fill: #212528;"/>
  <rect x="97.902" y="182.561" width="11.148" height="12.8" style="fill: #788287;"/>
  <rect x="86.754" y="182.561" width="11.148" height="12.8" style="fill: #636c72;"/>
  <rect x="75.605" y="182.561" width="11.148" height="12.8" style="fill: #636c72;"/>
  <rect x="64.457" y="182.561" width="11.148" height="12.8" style="fill: #636c72;"/>
  <rect x="53.308" y="182.561" width="11.148" height="12.8" style="fill: #636c72;"/>
  <rect x="42.16" y="182.561" width="11.148" height="12.8" style="fill: #50575c;"/>
  <rect x="253.979" y="169.761" width="11.148" height="12.8" style="fill: #3e4347;"/>
  <rect x="242.831" y="169.761" width="11.148" height="12.8" style="fill: #788287;"/>
  <rect x="231.683" y="169.761" width="11.148" height="12.8" style="fill: #212528;"/>
  <rect x="220.534" y="169.761" width="11.148" height="12.8" style="fill: #3e4347;"/>
  <rect x="209.386" y="169.761" width="11.148" height="12.8" style="fill: #9a9c9e;"/>
  <rect x="198.238" y="169.761" width="11.148" height="12.8" style="fill: #9a9c9e;"/>
  <rect x="187.089" y="169.761" width="11.148" height="12.8" style="fill: #8b8d8f;"/>
  <rect x="175.941" y="169.761" width="11.148" height="12.8" style="fill: #212528;"/>
  <rect x="164.792" y="169.761" width="11.148" height="12.8" style="fill: #212528;"/>
  <rect x="153.644" y="169.761" width="11.148" height="12.8" style="fill: #212528;"/>
  <rect x="142.496" y="169.761" width="11.148" height="12.8" style="fill: #3e4347;"/>
  <rect x="131.347" y="169.761" width="11.148" height="12.8" style="fill: #3e4347;"/>
  <rect x="120.199" y="169.761" width="11.148" height="12.8" style="fill: #3e4347;"/>
  <rect x="109.05" y="169.761" width="11.148" height="12.8" style="fill: #212528;"/>
  <rect x="97.902" y="169.761" width="11.148" height="12.8" style="fill: #788287;"/>
  <rect x="86.754" y="169.761" width="11.148" height="12.8" style="fill: #636c72;"/>
  <rect x="75.605" y="169.761" width="11.148" height="12.8" style="fill: #636c72;"/>
  <rect x="64.457" y="169.761" width="11.148" height="12.8" style="fill: #636c72;"/>
  <rect x="53.308" y="169.761" width="11.148" height="12.8" style="fill: #636c72;"/>
  <rect x="42.16" y="169.761" width="11.148" height="12.8" style="fill: #50575c;"/>
  <rect x="253.979" y="156.961" width="11.148" height="12.8" style="fill: #3e4347;"/>
  <rect x="242.831" y="156.961" width="11.148" height="12.8" style="fill: #3e4347;"/>
  <rect x="231.683" y="156.961" width="11.148" height="12.8" style="fill: #788287;"/>
  <rect x="220.534" y="156.961" width="11.148" height="12.8" style="fill: #212528;"/>
  <rect x="209.386" y="156.961" width="11.148" height="12.8" style="fill: #3e4347;"/>
  <rect x="198.238" y="156.961" width="11.148" height="12.8" style="fill: #9a9c9e;"/>
  <rect x="187.089" y="156.961" width="11.148" height="12.8" style="fill: #9a9c9e;"/>
  <rect x="175.941" y="156.961" width="11.148" height="12.8" style="fill: #3e4347;"/>
  <rect x="164.792" y="156.961" width="11.148" height="12.8" style="fill: #3e4347;"/>
  <rect x="153.644" y="156.961" width="11.148" height="12.8" style="fill: #3e4347;"/>
  <rect x="142.496" y="156.961" width="11.148" height="12.8" style="fill: #3e4347;"/>
  <rect x="131.347" y="156.961" width="11.148" height="12.8" style="fill: #3e4347;"/>
  <rect x="120.199" y="156.961" width="11.148" height="12.8" style="fill: #212528;"/>
  <rect x="109.05" y="156.961" width="11.148" height="12.8" style="fill: #788287;"/>
  <rect x="97.902" y="156.961" width="11.148" height="12.8" style="fill: #3e4347;"/>
  <rect x="86.754" y="156.961" width="11.148" height="12.8" style="fill: #636c72;"/>
  <rect x="75.605" y="156.961" width="11.148" height="12.8" style="fill: #636c72;"/>
  <rect x="64.457" y="156.961" width="11.148" height="12.8" style="fill: #636c72;"/>
  <rect x="53.308" y="156.961" width="11.148" height="12.8" style="fill: #636c72;"/>
  <rect x="42.16" y="156.961" width="11.148" height="12.8" style="fill: #50575c;"/>
  <rect x="253.979" y="144.161" width="11.148" height="12.8" style="fill: #3e4347;"/>
  <rect x="242.831" y="144.161" width="11.148" height="12.8" style="fill: #3e4347;"/>
  <rect x="231.683" y="144.161" width="11.148" height="12.8" style="fill: #788287;"/>
  <rect x="220.534" y="144.161" width="11.148" height="12.8" style="fill: #2b2f33;"/>
  <rect x="209.386" y="144.161" width="11.148" height="12.8" style="fill: #212528;"/>
  <rect x="198.238" y="144.161" width="11.148" height="12.8" style="fill: #3e4347;"/>
  <rect x="187.089" y="144.161" width="11.148" height="12.8" style="fill: #3e4347;"/>
  <rect x="175.941" y="144.161" width="11.148" height="12.8" style="fill: #3e4347;"/>
  <rect x="164.792" y="144.161" width="11.148" height="12.8" style="fill: #3e4347;"/>
  <rect x="153.644" y="144.161" width="11.148" height="12.8" style="fill: #3e4347;"/>
  <rect x="142.496" y="144.161" width="11.148" height="12.8" style="fill: #3e4347;"/>
  <rect x="131.347" y="144.161" width="11.148" height="12.8" style="fill: #212528;"/>
  <rect x="120.199" y="144.161" width="11.148" height="12.8" style="fill: #2a2f32;"/>
  <rect x="109.05" y="144.161" width="11.148" height="12.8" style="fill: #636b70;"/>
  <rect x="97.902" y="144.161" width="11.148" height="12.8" style="fill: #3e4347;"/>
  <rect x="86.754" y="144.161" width="11.148" height="12.8" style="fill: #616a6f;"/>
  <rect x="75.605" y="144.161" width="11.148" height="12.8" style="fill: #636c72;"/>
  <rect x="64.457" y="144.161" width="11.148" height="12.8" style="fill: #636c72;"/>
  <rect x="53.308" y="144.161" width="11.148" height="12.8" style="fill: #636c72;"/>
  <rect x="42.16" y="144.161" width="11.148" height="12.8" style="fill: #3e4347;"/>
  <rect x="253.979" y="131.361" width="11.148" height="12.8" style="fill: #51575b;"/>
  <rect x="242.831" y="131.361" width="11.148" height="12.8" style="fill: #51575b;"/>
  <rect x="231.683" y="131.361" width="11.148" height="12.8" style="fill: #51575b;"/>
  <rect x="220.534" y="131.361" width="11.148" height="12.8" style="fill: #666e72;"/>
  <rect x="209.386" y="131.361" width="11.148" height="12.8" style="fill: #788287;"/>
  <rect x="198.238" y="131.361" width="11.148" height="12.8" style="fill: #212528;"/>
  <rect x="187.089" y="131.361" width="11.148" height="12.8" style="fill: #212528;"/>
  <rect x="175.941" y="131.361" width="11.148" height="12.8" style="fill: #212528;"/>
  <rect x="164.792" y="131.361" width="11.148" height="12.8" style="fill: #212528;"/>
  <rect x="153.644" y="131.361" width="11.148" height="12.8" style="fill: #212528;"/>
  <rect x="142.496" y="131.361" width="11.148" height="12.8" style="fill: #212528;"/>
  <rect x="131.347" y="131.361" width="11.148" height="12.8" style="fill: #788287;"/>
  <rect x="120.199" y="131.361" width="11.148" height="12.8" style="fill: #666e73;"/>
  <rect x="109.05" y="131.361" width="11.148" height="12.8" style="fill: #51575b;"/>
  <rect x="97.902" y="131.361" width="11.148" height="12.8" style="fill: #51575b;"/>
  <rect x="86.754" y="131.361" width="11.148" height="12.8" style="fill: #51575b;"/>
  <rect x="75.605" y="131.361" width="11.148" height="12.8" style="fill: #212528;"/>
  <rect x="64.457" y="131.361" width="11.148" height="12.8" style="fill: #4d5256;"/>
  <rect x="53.308" y="131.361" width="11.148" height="12.8" style="fill: #51575b;"/>
  <rect x="42.16" y="131.361" width="11.148" height="12.8" style="fill: #51575b;"/>
  <rect x="253.979" y="118.561" width="11.148" height="12.8" style="fill: #51575b;"/>
  <rect x="242.831" y="118.561" width="11.148" height="12.8" style="fill: #51575b;"/>
  <rect x="231.683" y="118.561" width="11.148" height="12.8" style="fill: #51575b;"/>
  <rect x="220.534" y="118.561" width="11.148" height="12.8" style="fill: #51575b;"/>
  <rect x="209.386" y="118.561" width="11.148" height="12.8" style="fill: #3e4347;"/>
  <rect x="198.238" y="118.561" width="11.148" height="12.8" style="fill: #646c71;"/>
  <rect x="187.089" y="118.561" width="11.148" height="12.8" style="fill: #788287;"/>
  <rect x="175.941" y="118.561" width="11.148" height="12.8" style="fill: #788287;"/>
  <rect x="164.792" y="118.561" width="11.148" height="12.8" style="fill: #788287;"/>
  <rect x="153.644" y="118.561" width="11.148" height="12.8" style="fill: #788287;"/>
  <rect x="142.496" y="118.561" width="11.148" height="12.8" style="fill: #4d5357;"/>
  <rect x="131.347" y="118.561" width="11.148" height="12.8" style="fill: #3e4347;"/>
  <rect x="120.199" y="118.561" width="11.148" height="12.8" style="fill: #51575b;"/>
  <rect x="109.05" y="118.561" width="11.148" height="12.8" style="fill: #51575b;"/>
  <rect x="97.902" y="118.561" width="11.148" height="12.8" style="fill: #51575b;"/>
  <rect x="86.754" y="118.561" width="11.148" height="12.8" style="fill: #51575b;"/>
  <rect x="75.605" y="118.561" width="11.148" height="12.8" style="fill: #212528;"/>
  <rect x="64.457" y="118.561" width="11.148" height="12.8" style="fill: #212528;"/>
  <rect x="53.308" y="118.561" width="11.148" height="12.8" style="fill: #51575b;"/>
  <rect x="42.16" y="118.561" width="11.148" height="12.8" style="fill: #51575b;"/>
  <rect x="242.831" y="105.761" width="11.148" height="12.8" style="fill: #212528;"/>
  <rect x="231.683" y="105.761" width="11.148" height="12.8" style="fill: #212528;"/>
  <rect x="220.534" y="105.761" width="11.148" height="12.8" style="fill: #51575b;"/>
  <rect x="209.386" y="105.761" width="11.148" height="12.8" style="fill: #51575b;"/>
  <rect x="198.238" y="105.761" width="11.148" height="12.8" style="fill: #3e4347;"/>
  <rect x="187.089" y="105.761" width="11.148" height="12.8" style="fill: #3e4347;"/>
  <rect x="175.941" y="105.761" width="11.148" height="12.8" style="fill: #3e4347;"/>
  <rect x="164.792" y="105.761" width="11.148" height="12.8" style="fill: #3e4347;"/>
  <rect x="153.644" y="105.761" width="11.148" height="12.8" style="fill: #3e4347;"/>
  <rect x="142.496" y="105.761" width="11.148" height="12.8" style="fill: #3e4347;"/>
  <rect x="131.347" y="105.761" width="11.148" height="12.8" style="fill: #51575b;"/>
  <rect x="120.199" y="105.761" width="11.148" height="12.8" style="fill: #51575b;"/>
  <rect x="109.05" y="105.761" width="11.148" height="12.8" style="fill: #212528;"/>
  <rect x="97.902" y="105.761" width="11.148" height="12.8" style="fill: #212528;"/>
  <rect x="86.754" y="105.761" width="11.148" height="12.8" style="fill: #212528;"/>
  <rect x="75.605" y="105.761" width="11.148" height="12.8" style="fill: #212528;"/>
  <rect x="64.457" y="105.761" width="11.148" height="12.8" style="fill: #212528;"/>
  <rect x="220.534" y="92.961" width="11.148" height="12.8" style="fill: #e4e5e5;"/>
  <rect x="209.386" y="92.961" width="11.148" height="12.8" style="fill: #51575b;"/>
  <rect x="198.238" y="92.961" width="11.148" height="12.8" style="fill: #51575b;"/>
  <rect x="187.089" y="92.961" width="11.148" height="12.8" style="fill: #51575b;"/>
  <rect x="175.941" y="92.961" width="11.148" height="12.8" style="fill: #51575b;"/>
  <rect x="164.792" y="92.961" width="11.148" height="12.8" style="fill: #51575b;"/>
  <rect x="153.644" y="92.961" width="11.148" height="12.8" style="fill: #51575b;"/>
  <rect x="142.496" y="92.961" width="11.148" height="12.8" style="fill: #51575b;"/>
  <rect x="131.347" y="92.961" width="11.148" height="12.8" style="fill: #51575b;"/>
  <rect x="120.199" y="92.961" width="11.148" height="12.8" style="fill: #e1e2e2;"/>
  <rect x="242.831" y="80.161" width="11.148" height="12.8" style="fill: #ffce31;"/>
  <rect x="231.683" y="80.161" width="11.148" height="12.8" style="fill: #ffce31;"/>
  <rect x="220.534" y="80.161" width="11.148" height="12.8" style="fill: #ffce31;"/>
  <rect x="209.386" y="80.161" width="11.148" height="12.8" style="fill: #ffce31;"/>
  <rect x="198.238" y="80.161" width="11.148" height="12.8" style="fill: #ffd03c;"/>
  <rect x="187.089" y="80.161" width="11.148" height="12.8" style="fill: #fff;"/>
  <rect x="175.941" y="80.161" width="11.148" height="12.8" style="fill: #fff;"/>
  <rect x="164.792" y="80.161" width="11.148" height="12.8" style="fill: #fff;"/>
  <rect x="153.644" y="80.161" width="11.148" height="12.8" style="fill: #fff;"/>
  <rect x="142.496" y="80.161" width="11.148" height="12.8" style="fill: #ffd03c;"/>
  <rect x="131.347" y="80.161" width="11.148" height="12.8" style="fill: #ffce31;"/>
  <rect x="120.199" y="80.161" width="11.148" height="12.8" style="fill: #ffce31;"/>
  <rect x="109.05" y="80.161" width="11.148" height="12.8" style="fill: #ffce31;"/>
  <rect x="97.902" y="80.161" width="11.148" height="12.8" style="fill: #ffce31;"/>
  <rect x="209.386" y="67.361" width="11.148" height="12.8" style="fill: #51575b;"/>
  <rect x="198.238" y="67.361" width="11.148" height="12.8" style="fill: #fff;"/>
  <rect x="187.089" y="67.361" width="11.148" height="12.8" style="fill: #fff;"/>
  <rect x="175.941" y="67.361" width="11.148" height="12.8" style="fill: #fffcf4;"/>
  <rect x="164.792" y="67.361" width="11.148" height="12.8" style="fill: #fff;"/>
  <rect x="153.644" y="67.361" width="11.148" height="12.8" style="fill: #fff;"/>
  <rect x="142.496" y="67.361" width="11.148" height="12.8" style="fill: #fff;"/>
  <rect x="131.347" y="67.361" width="11.148" height="12.8" style="fill: #51575b;"/>
  <rect x="209.386" y="54.561" width="11.148" height="12.8" style="fill: #ffce31;"/>
  <rect x="198.238" y="54.561" width="11.148" height="12.8" style="fill: #51575b;"/>
  <rect x="187.089" y="54.561" width="11.148" height="12.8" style="fill: #51575b;"/>
  <rect x="175.941" y="54.561" width="11.148" height="12.8" style="fill: #51575b;"/>
  <rect x="164.792" y="54.561" width="11.148" height="12.8" style="fill: #51575b;"/>
  <rect x="153.644" y="54.561" width="11.148" height="12.8" style="fill: #51575b;"/>
  <rect x="142.496" y="54.561" width="11.148" height="12.8" style="fill: #51575b;"/>
  <rect x="131.347" y="54.561" width="11.148" height="12.8" style="fill: #ffce31;"/>
  <rect x="231.683" y="41.761" width="11.148" height="12.8" style="fill: #ffce31;"/>
  <rect x="220.534" y="41.761" width="11.148" height="12.8" style="fill: #ffce31;"/>
  <rect x="120.199" y="41.761" width="11.148" height="12.8" style="fill: #ffce31;"/>
  <rect x="109.05" y="41.761" width="11.148" height="12.8" style="fill: #ffce31;"/>
  <rect x="187.089" y="28.961" width="11.148" height="12.8" style="fill: #ffce31;"/>
  <rect x="153.644" y="28.961" width="11.148" height="12.8" style="fill: #ffce31;"/>
  <rect x="187.089" y="16.161" width="11.148" height="12.8" style="fill: #ffce31;"/>
  <rect x="153.644" y="16.161" width="11.148" height="12.8" style="fill: #ffce31;"/>
  <rect x="142.496" y="16.161" width="11.148" height="12.8" style="fill: #ffd03c;"/>
</svg>