<?xml version="1.0" encoding="UTF-8"?>
<svg id="_图层_1" data-name="图层 1" xmlns="http://www.w3.org/2000/svg" viewBox="0 0 290.043 255.319">
  <rect x="154.269" y="228.086" width="11.05" height="11.1" style="fill: #076170;"/>
  <rect x="143.219" y="228.086" width="11.05" height="11.1" style="fill: #3baacf;"/>
  <rect x="165.319" y="216.986" width="11.05" height="11.1" style="fill: #076170;"/>
  <rect x="154.269" y="216.986" width="11.05" height="11.1" style="fill: #076170;"/>
  <rect x="143.219" y="216.986" width="11.05" height="11.1" style="fill: #3baacf;"/>
  <rect x="132.169" y="216.986" width="11.05" height="11.1" style="fill: #3baacf;"/>
  <rect x="187.419" y="205.886" width="11.05" height="11.1" style="fill: #b3690e;"/>
  <rect x="176.369" y="205.886" width="11.05" height="11.1" style="fill: #076170;"/>
  <rect x="165.319" y="205.886" width="11.05" height="11.1" style="fill: #076170;"/>
  <rect x="154.269" y="205.886" width="11.05" height="11.1" style="fill: #076170;"/>
  <rect x="143.219" y="205.886" width="11.05" height="11.1" style="fill: #3baacf;"/>
  <rect x="132.169" y="205.886" width="11.05" height="11.1" style="fill: #3baacf;"/>
  <rect x="121.119" y="205.886" width="11.05" height="11.1" style="fill: #3baacf;"/>
  <rect x="110.069" y="205.886" width="11.05" height="11.1" style="fill: #e9c243;"/>
  <rect x="99.019" y="205.886" width="11.05" height="11.1" style="fill: #eac44b;"/>
  <rect x="209.519" y="194.786" width="11.05" height="11.1" style="fill: #7d662c;"/>
  <rect x="198.469" y="194.786" width="11.05" height="11.1" style="fill: #b3690e;"/>
  <rect x="187.419" y="194.786" width="11.05" height="11.1" style="fill: #b3690e;"/>
  <rect x="176.369" y="194.786" width="11.05" height="11.1" style="fill: #076170;"/>
  <rect x="165.319" y="194.786" width="11.05" height="11.1" style="fill: #076170;"/>
  <rect x="154.269" y="194.786" width="11.05" height="11.1" style="fill: #076170;"/>
  <rect x="143.219" y="194.786" width="11.05" height="11.1" style="fill: #3baacf;"/>
  <rect x="132.169" y="194.786" width="11.05" height="11.1" style="fill: #3baacf;"/>
  <rect x="121.119" y="194.786" width="11.05" height="11.1" style="fill: #3baacf;"/>
  <rect x="110.069" y="194.786" width="11.05" height="11.1" style="fill: #e9c243;"/>
  <rect x="99.019" y="194.786" width="11.05" height="11.1" style="fill: #e9c243;"/>
  <rect x="87.969" y="194.786" width="11.05" height="11.1" style="fill: #e9c243;"/>
  <rect x="76.919" y="194.786" width="11.05" height="11.1" style="fill: #41add0;"/>
  <rect x="220.569" y="183.686" width="11.05" height="11.1" style="fill: #076170;"/>
  <rect x="209.519" y="183.686" width="11.05" height="11.1" style="fill: #b3690e;"/>
  <rect x="198.469" y="183.686" width="11.05" height="11.1" style="fill: #b3690e;"/>
  <rect x="187.419" y="183.686" width="11.05" height="11.1" style="fill: #b3690e;"/>
  <rect x="176.369" y="183.686" width="11.05" height="11.1" style="fill: #076170;"/>
  <rect x="165.319" y="183.686" width="11.05" height="11.1" style="fill: #076170;"/>
  <rect x="154.269" y="183.686" width="11.05" height="11.1" style="fill: #076170;"/>
  <rect x="143.219" y="183.686" width="11.05" height="11.1" style="fill: #3baacf;"/>
  <rect x="132.169" y="183.686" width="11.05" height="11.1" style="fill: #3baacf;"/>
  <rect x="121.119" y="183.686" width="11.05" height="11.1" style="fill: #3baacf;"/>
  <rect x="110.069" y="183.686" width="11.05" height="11.1" style="fill: #e9c243;"/>
  <rect x="99.019" y="183.686" width="11.05" height="11.1" style="fill: #e9c243;"/>
  <rect x="87.969" y="183.686" width="11.05" height="11.1" style="fill: #e9c243;"/>
  <rect x="76.919" y="183.686" width="11.05" height="11.1" style="fill: #3baacf;"/>
  <rect x="65.869" y="183.686" width="11.05" height="11.1" style="fill: #3baacf;"/>
  <rect x="220.569" y="172.586" width="11.05" height="11.1" style="fill: #076170;"/>
  <rect x="209.519" y="172.586" width="11.05" height="11.1" style="fill: #b3690e;"/>
  <rect x="198.469" y="172.586" width="11.05" height="11.1" style="fill: #b3690e;"/>
  <rect x="187.419" y="172.586" width="11.05" height="11.1" style="fill: #b3690e;"/>
  <rect x="176.369" y="172.586" width="11.05" height="11.1" style="fill: #076170;"/>
  <rect x="165.319" y="172.586" width="11.05" height="11.1" style="fill: #076170;"/>
  <rect x="154.269" y="172.586" width="11.05" height="11.1" style="fill: #076170;"/>
  <rect x="143.219" y="172.586" width="11.05" height="11.1" style="fill: #3baacf;"/>
  <rect x="132.169" y="172.586" width="11.05" height="11.1" style="fill: #3baacf;"/>
  <rect x="121.119" y="172.586" width="11.05" height="11.1" style="fill: #3baacf;"/>
  <rect x="110.069" y="172.586" width="11.05" height="11.1" style="fill: #e9c243;"/>
  <rect x="99.019" y="172.586" width="11.05" height="11.1" style="fill: #e9c243;"/>
  <rect x="87.969" y="172.586" width="11.05" height="11.1" style="fill: #e9c243;"/>
  <rect x="76.919" y="172.586" width="11.05" height="11.1" style="fill: #3baacf;"/>
  <rect x="65.869" y="172.586" width="11.05" height="11.1" style="fill: #3baacf;"/>
  <rect x="231.619" y="161.486" width="11.05" height="11.1" style="fill: #076170;"/>
  <rect x="220.569" y="161.486" width="11.05" height="11.1" style="fill: #076170;"/>
  <rect x="209.519" y="161.486" width="11.05" height="11.1" style="fill: #b3690e;"/>
  <rect x="198.469" y="161.486" width="11.05" height="11.1" style="fill: #b3690e;"/>
  <rect x="187.419" y="161.486" width="11.05" height="11.1" style="fill: #b3690e;"/>
  <rect x="176.369" y="161.486" width="11.05" height="11.1" style="fill: #076170;"/>
  <rect x="165.319" y="161.486" width="11.05" height="11.1" style="fill: #076170;"/>
  <rect x="154.269" y="161.486" width="11.05" height="11.1" style="fill: #076170;"/>
  <rect x="143.219" y="161.486" width="11.05" height="11.1" style="fill: #3baacf;"/>
  <rect x="132.169" y="161.486" width="11.05" height="11.1" style="fill: #3baacf;"/>
  <rect x="121.119" y="161.486" width="11.05" height="11.1" style="fill: #3baacf;"/>
  <rect x="110.069" y="161.486" width="11.05" height="11.1" style="fill: #e9c243;"/>
  <rect x="99.019" y="161.486" width="11.05" height="11.1" style="fill: #e9c243;"/>
  <rect x="87.969" y="161.486" width="11.05" height="11.1" style="fill: #e9c243;"/>
  <rect x="76.919" y="161.486" width="11.05" height="11.1" style="fill: #3baacf;"/>
  <rect x="65.869" y="161.486" width="11.05" height="11.1" style="fill: #3baacf;"/>
  <rect x="231.619" y="150.386" width="11.05" height="11.1" style="fill: #076170;"/>
  <rect x="220.569" y="150.386" width="11.05" height="11.1" style="fill: #076170;"/>
  <rect x="209.519" y="150.386" width="11.05" height="11.1" style="fill: #b3690e;"/>
  <rect x="198.469" y="150.386" width="11.05" height="11.1" style="fill: #b3690e;"/>
  <rect x="187.419" y="150.386" width="11.05" height="11.1" style="fill: #b3690e;"/>
  <rect x="176.369" y="150.386" width="11.05" height="11.1" style="fill: #076170;"/>
  <rect x="165.319" y="150.386" width="11.05" height="11.1" style="fill: #076170;"/>
  <rect x="154.269" y="150.386" width="11.05" height="11.1" style="fill: #076170;"/>
  <rect x="143.219" y="150.386" width="11.05" height="11.1" style="fill: #3baacf;"/>
  <rect x="132.169" y="150.386" width="11.05" height="11.1" style="fill: #3baacf;"/>
  <rect x="121.119" y="150.386" width="11.05" height="11.1" style="fill: #3baacf;"/>
  <rect x="110.069" y="150.386" width="11.05" height="11.1" style="fill: #e9c243;"/>
  <rect x="99.019" y="150.386" width="11.05" height="11.1" style="fill: #e9c243;"/>
  <rect x="87.969" y="150.386" width="11.05" height="11.1" style="fill: #e9c243;"/>
  <rect x="76.919" y="150.386" width="11.05" height="11.1" style="fill: #3baacf;"/>
  <rect x="65.869" y="150.386" width="11.05" height="11.1" style="fill: #3baacf;"/>
  <rect x="231.619" y="139.286" width="11.05" height="11.1" style="fill: #076170;"/>
  <rect x="220.569" y="139.286" width="11.05" height="11.1" style="fill: #076170;"/>
  <rect x="209.519" y="139.286" width="11.05" height="11.1" style="fill: #b3690e;"/>
  <rect x="198.469" y="139.286" width="11.05" height="11.1" style="fill: #b3690e;"/>
  <rect x="187.419" y="139.286" width="11.05" height="11.1" style="fill: #b3690e;"/>
  <rect x="176.369" y="139.286" width="11.05" height="11.1" style="fill: #076170;"/>
  <rect x="165.319" y="139.286" width="11.05" height="11.1" style="fill: #076170;"/>
  <rect x="154.269" y="139.286" width="11.05" height="11.1" style="fill: #076170;"/>
  <rect x="143.219" y="139.286" width="11.05" height="11.1" style="fill: #3baacf;"/>
  <rect x="132.169" y="139.286" width="11.05" height="11.1" style="fill: #3baacf;"/>
  <rect x="121.119" y="139.286" width="11.05" height="11.1" style="fill: #3baacf;"/>
  <rect x="110.069" y="139.286" width="11.05" height="11.1" style="fill: #e9c243;"/>
  <rect x="99.019" y="139.286" width="11.05" height="11.1" style="fill: #e9c243;"/>
  <rect x="87.969" y="139.286" width="11.05" height="11.1" style="fill: #e9c243;"/>
  <rect x="76.919" y="139.286" width="11.05" height="11.1" style="fill: #3baacf;"/>
  <rect x="65.869" y="139.286" width="11.05" height="11.1" style="fill: #3baacf;"/>
  <rect x="231.619" y="128.186" width="11.05" height="11.1" style="fill: #076170;"/>
  <rect x="220.569" y="128.186" width="11.05" height="11.1" style="fill: #076170;"/>
  <rect x="209.519" y="128.186" width="11.05" height="11.1" style="fill: #b3690e;"/>
  <rect x="198.469" y="128.186" width="11.05" height="11.1" style="fill: #b3690e;"/>
  <rect x="187.419" y="128.186" width="11.05" height="11.1" style="fill: #b3690e;"/>
  <rect x="176.369" y="128.186" width="11.05" height="11.1" style="fill: #076170;"/>
  <rect x="165.319" y="128.186" width="11.05" height="11.1" style="fill: #05444f;"/>
  <rect x="154.269" y="128.186" width="11.05" height="11.1" style="fill: #05444f;"/>
  <rect x="143.219" y="128.186" width="11.05" height="11.1" style="fill: #297791;"/>
  <rect x="132.169" y="128.186" width="11.05" height="11.1" style="fill: #297791;"/>
  <rect x="121.119" y="128.186" width="11.05" height="11.1" style="fill: #3aa9ce;"/>
  <rect x="110.069" y="128.186" width="11.05" height="11.1" style="fill: #e9c243;"/>
  <rect x="99.019" y="128.186" width="11.05" height="11.1" style="fill: #e9c243;"/>
  <rect x="87.969" y="128.186" width="11.05" height="11.1" style="fill: #e9c243;"/>
  <rect x="76.919" y="128.186" width="11.05" height="11.1" style="fill: #3baacf;"/>
  <rect x="65.869" y="128.186" width="11.05" height="11.1" style="fill: #3baacf;"/>
  <rect x="231.619" y="117.086" width="11.05" height="11.1" style="fill: #076170;"/>
  <rect x="220.569" y="117.086" width="11.05" height="11.1" style="fill: #076170;"/>
  <rect x="209.519" y="117.086" width="11.05" height="11.1" style="fill: #b3690e;"/>
  <rect x="198.469" y="117.086" width="11.05" height="11.1" style="fill: #7e4a0a;"/>
  <rect x="187.419" y="117.086" width="11.05" height="11.1" style="fill: #7e4a0a;"/>
  <rect x="176.369" y="117.086" width="11.05" height="11.1" style="fill: #05444f;"/>
  <rect x="165.319" y="117.086" width="11.05" height="11.1" style="fill: #054f5c;"/>
  <rect x="154.269" y="117.086" width="11.05" height="11.1" style="fill: #076170;"/>
  <rect x="143.219" y="117.086" width="11.05" height="11.1" style="fill: #2a93b1;"/>
  <rect x="132.169" y="117.086" width="11.05" height="11.1" style="fill: #3baacf;"/>
  <rect x="121.119" y="117.086" width="11.05" height="11.1" style="fill: #3baacf;"/>
  <rect x="110.069" y="117.086" width="11.05" height="11.1" style="fill: #f8d048;"/>
  <rect x="99.019" y="117.086" width="11.05" height="11.1" style="fill: #a4882f;"/>
  <rect x="87.969" y="117.086" width="11.05" height="11.1" style="fill: #e9c243;"/>
  <rect x="76.919" y="117.086" width="11.05" height="11.1" style="fill: #d8bf50;"/>
  <rect x="65.869" y="117.086" width="11.05" height="11.1" style="fill: #3baacf;"/>
  <rect x="242.669" y="105.986" width="11.05" height="11.1" style="fill: #196c7a;"/>
  <rect x="231.619" y="105.986" width="11.05" height="11.1" style="fill: #05444f;"/>
  <rect x="220.569" y="105.986" width="11.05" height="11.1" style="fill: #05444f;"/>
  <rect x="209.519" y="105.986" width="11.05" height="11.1" style="fill: #9a590e;"/>
  <rect x="198.469" y="105.986" width="11.05" height="11.1" style="fill: #c47116;"/>
  <rect x="187.419" y="105.986" width="11.05" height="11.1" style="fill: #076170;"/>
  <rect x="176.369" y="105.986" width="11.05" height="11.1" style="fill: #076170;"/>
  <rect x="165.319" y="105.986" width="11.05" height="11.1" style="fill: #076170;"/>
  <rect x="154.269" y="105.986" width="11.05" height="11.1" style="fill: #076170;"/>
  <rect x="143.219" y="105.986" width="11.05" height="11.1" style="fill: #2a93b1;"/>
  <rect x="132.169" y="105.986" width="11.05" height="11.1" style="fill: #3baacf;"/>
  <rect x="121.119" y="105.986" width="11.05" height="11.1" style="fill: #3baacf;"/>
  <rect x="110.069" y="105.986" width="11.05" height="11.1" style="fill: #f8d048;"/>
  <rect x="99.019" y="105.986" width="11.05" height="11.1" style="fill: #f8d048;"/>
  <rect x="87.969" y="105.986" width="11.05" height="11.1" style="fill: #f8d048;"/>
  <rect x="76.919" y="105.986" width="11.05" height="11.1" style="fill: #f8d048;"/>
  <rect x="65.869" y="105.986" width="11.05" height="11.1" style="fill: #297791;"/>
  <rect x="54.819" y="105.986" width="11.05" height="11.1" style="fill: #359abc;"/>
  <rect x="242.669" y="94.886" width="11.05" height="11.1" style="fill: #05444f;"/>
  <rect x="231.619" y="94.886" width="11.05" height="11.1" style="fill: #065f6e;"/>
  <rect x="220.569" y="94.886" width="11.05" height="11.1" style="fill: #c47116;"/>
  <rect x="209.519" y="94.886" width="11.05" height="11.1" style="fill: #c47116;"/>
  <rect x="198.469" y="94.886" width="11.05" height="11.1" style="fill: #c47116;"/>
  <rect x="187.419" y="94.886" width="11.05" height="11.1" style="fill: #076170;"/>
  <rect x="176.369" y="94.886" width="11.05" height="11.1" style="fill: #076170;"/>
  <rect x="165.319" y="94.886" width="11.05" height="11.1" style="fill: #076170;"/>
  <rect x="154.269" y="94.886" width="11.05" height="11.1" style="fill: #319db7;"/>
  <rect x="143.219" y="94.886" width="11.05" height="11.1" style="fill: #4fc7e8;"/>
  <rect x="132.169" y="94.886" width="11.05" height="11.1" style="fill: #44b7da;"/>
  <rect x="121.119" y="94.886" width="11.05" height="11.1" style="fill: #3baacf;"/>
  <rect x="110.069" y="94.886" width="11.05" height="11.1" style="fill: #f8d048;"/>
  <rect x="99.019" y="94.886" width="11.05" height="11.1" style="fill: #f8d048;"/>
  <rect x="87.969" y="94.886" width="11.05" height="11.1" style="fill: #f8d048;"/>
  <rect x="76.919" y="94.886" width="11.05" height="11.1" style="fill: #f8d048;"/>
  <rect x="65.869" y="94.886" width="11.05" height="11.1" style="fill: #3baacf;"/>
  <rect x="54.819" y="94.886" width="11.05" height="11.1" style="fill: #3baacf;"/>
  <rect x="253.719" y="83.786" width="11.05" height="11.1" style="fill: #0d6573;"/>
  <rect x="242.669" y="83.786" width="11.05" height="11.1" style="fill: #076170;"/>
  <rect x="231.619" y="83.786" width="11.05" height="11.1" style="fill: #28635f;"/>
  <rect x="220.569" y="83.786" width="11.05" height="11.1" style="fill: #c47116;"/>
  <rect x="209.519" y="83.786" width="11.05" height="11.1" style="fill: #c47116;"/>
  <rect x="198.469" y="83.786" width="11.05" height="11.1" style="fill: #f0ae11;"/>
  <rect x="187.419" y="83.786" width="11.05" height="11.1" style="fill: #f0ae11;"/>
  <rect x="176.369" y="83.786" width="11.05" height="11.1" style="fill: #ecae15;"/>
  <rect x="165.319" y="83.786" width="11.05" height="11.1" style="fill: #4fc7e8;"/>
  <rect x="154.269" y="83.786" width="11.05" height="11.1" style="fill: #4fc7e8;"/>
  <rect x="143.219" y="83.786" width="11.05" height="11.1" style="fill: #4fc7e8;"/>
  <rect x="132.169" y="83.786" width="11.05" height="11.1" style="fill: #824000;"/>
  <rect x="121.119" y="83.786" width="11.05" height="11.1" style="fill: #824000;"/>
  <rect x="110.069" y="83.786" width="11.05" height="11.1" style="fill: #824000;"/>
  <rect x="99.019" y="83.786" width="11.05" height="11.1" style="fill: #ea9f07;"/>
  <rect x="87.969" y="83.786" width="11.05" height="11.1" style="fill: #ea9f07;"/>
  <rect x="76.919" y="83.786" width="11.05" height="11.1" style="fill: #ea9f07;"/>
  <rect x="65.869" y="83.786" width="11.05" height="11.1" style="fill: #3baacf;"/>
  <rect x="54.819" y="83.786" width="11.05" height="11.1" style="fill: #3baacf;"/>
  <rect x="43.769" y="83.786" width="11.05" height="11.1" style="fill: #3baacf;"/>
  <rect x="253.719" y="72.686" width="11.05" height="11.1" style="fill: #076170;"/>
  <rect x="242.669" y="72.686" width="11.05" height="11.1" style="fill: #4fc7e8;"/>
  <rect x="231.619" y="72.686" width="11.05" height="11.1" style="fill: #4fc7e8;"/>
  <rect x="220.569" y="72.686" width="11.05" height="11.1" style="fill: #4fc7e8;"/>
  <rect x="209.519" y="72.686" width="11.05" height="11.1" style="fill: #4fc7e8;"/>
  <rect x="198.469" y="72.686" width="11.05" height="11.1" style="fill: #a15f04;"/>
  <rect x="187.419" y="72.686" width="11.05" height="11.1" style="fill: #824000;"/>
  <rect x="176.369" y="72.686" width="11.05" height="11.1" style="fill: #824000;"/>
  <rect x="165.319" y="72.686" width="11.05" height="11.1" style="fill: #824000;"/>
  <rect x="154.269" y="72.686" width="11.05" height="11.1" style="fill: #824000;"/>
  <rect x="143.219" y="72.686" width="11.05" height="11.1" style="fill: #824000;"/>
  <rect x="132.169" y="72.686" width="11.05" height="11.1" style="fill: #824000;"/>
  <rect x="121.119" y="72.686" width="11.05" height="11.1" style="fill: #824000;"/>
  <rect x="110.069" y="72.686" width="11.05" height="11.1" style="fill: #824000;"/>
  <rect x="99.019" y="72.686" width="11.05" height="11.1" style="fill: #824000;"/>
  <rect x="87.969" y="72.686" width="11.05" height="11.1" style="fill: #ea9f07;"/>
  <rect x="76.919" y="72.686" width="11.05" height="11.1" style="fill: #ea9f07;"/>
  <rect x="65.869" y="72.686" width="11.05" height="11.1" style="fill: #ea9f07;"/>
  <rect x="54.819" y="72.686" width="11.05" height="11.1" style="fill: #ea9f07;"/>
  <rect x="220.569" y="61.586" width="11.05" height="11.1" style="fill: #f0ae11;"/>
  <rect x="209.519" y="61.586" width="11.05" height="11.1" style="fill: #f0ae11;"/>
  <rect x="198.469" y="61.586" width="11.05" height="11.1" style="fill: #824000;"/>
  <rect x="187.419" y="61.586" width="11.05" height="11.1" style="fill: #824000;"/>
  <rect x="176.369" y="61.586" width="11.05" height="11.1" style="fill: #824000;"/>
  <rect x="165.319" y="61.586" width="11.05" height="11.1" style="fill: #824000;"/>
  <rect x="154.269" y="61.586" width="11.05" height="11.1" style="fill: #f0ae11;"/>
  <rect x="143.219" y="61.586" width="11.05" height="11.1" style="fill: #f8d048;"/>
  <rect x="132.169" y="61.586" width="11.05" height="11.1" style="fill: #eba610;"/>
  <rect x="121.119" y="61.586" width="11.05" height="11.1" style="fill: #ea9f07;"/>
  <rect x="110.069" y="61.586" width="11.05" height="11.1" style="fill: #824000;"/>
  <rect x="99.019" y="61.586" width="11.05" height="11.1" style="fill: #d48b05;"/>
  <rect x="87.969" y="61.586" width="11.05" height="11.1" style="fill: #ea9f07;"/>
  <rect x="76.919" y="61.586" width="11.05" height="11.1" style="fill: #ea9f07;"/>
  <rect x="65.869" y="61.586" width="11.05" height="11.1" style="fill: #ea9f07;"/>
  <rect x="54.819" y="61.586" width="11.05" height="11.1" style="fill: #ea9f07;"/>
  <rect x="220.569" y="50.486" width="11.05" height="11.1" style="fill: #f0ae11;"/>
  <rect x="209.519" y="50.486" width="11.05" height="11.1" style="fill: #f0ae11;"/>
  <rect x="198.469" y="50.486" width="11.05" height="11.1" style="fill: #824000;"/>
  <rect x="187.419" y="50.486" width="11.05" height="11.1" style="fill: #824000;"/>
  <rect x="176.369" y="50.486" width="11.05" height="11.1" style="fill: #f0ae11;"/>
  <rect x="165.319" y="50.486" width="11.05" height="11.1" style="fill: #f0ae11;"/>
  <rect x="154.269" y="50.486" width="11.05" height="11.1" style="fill: #ea9f07;"/>
  <rect x="143.219" y="50.486" width="11.05" height="11.1" style="fill: #f8d048;"/>
  <rect x="132.169" y="50.486" width="11.05" height="11.1" style="fill: #f8d048;"/>
  <rect x="121.119" y="50.486" width="11.05" height="11.1" style="fill: #f8d048;"/>
  <rect x="110.069" y="50.486" width="11.05" height="11.1" style="fill: #f8d459;"/>
  <rect x="99.019" y="50.486" width="11.05" height="11.1" style="fill: #eaa00a;"/>
  <rect x="87.969" y="50.486" width="11.05" height="11.1" style="fill: #ea9f07;"/>
  <rect x="76.919" y="50.486" width="11.05" height="11.1" style="fill: #ea9f07;"/>
  <rect x="65.869" y="50.486" width="11.05" height="11.1" style="fill: #f9e4bb;"/>
  <rect x="220.569" y="39.386" width="11.05" height="11.1" style="fill: #f8db96;"/>
  <rect x="209.519" y="39.386" width="11.05" height="11.1" style="fill: #f0ae11;"/>
  <rect x="198.469" y="39.386" width="11.05" height="11.1" style="fill: #f0ae11;"/>
  <rect x="187.419" y="39.386" width="11.05" height="11.1" style="fill: #f0ae11;"/>
  <rect x="176.369" y="39.386" width="11.05" height="11.1" style="fill: #ea9f07;"/>
  <rect x="165.319" y="39.386" width="11.05" height="11.1" style="fill: #ea9f07;"/>
  <rect x="154.269" y="39.386" width="11.05" height="11.1" style="fill: #ea9f07;"/>
  <rect x="132.169" y="39.386" width="11.05" height="11.1" style="fill: #f8d048;"/>
  <rect x="121.119" y="39.386" width="11.05" height="11.1" style="fill: #f8d048;"/>
  <rect x="110.069" y="39.386" width="11.05" height="11.1" style="fill: #f8d048;"/>
  <rect x="99.019" y="39.386" width="11.05" height="11.1" style="fill: #f8d048;"/>
  <rect x="176.369" y="28.286" width="11.05" height="11.1" style="fill: #ea9f07;"/>
  <rect x="165.319" y="28.286" width="11.05" height="11.1" style="fill: #ea9f07;"/>
  <rect x="154.269" y="28.286" width="11.05" height="11.1" style="fill: #ea9f07;"/>
  <rect x="132.169" y="28.286" width="11.05" height="11.1" style="fill: #f8d048;"/>
</svg>