<?xml version="1.0" encoding="UTF-8"?>
<svg id="_图层_1" data-name="图层 1" xmlns="http://www.w3.org/2000/svg" viewBox="0 0 232.851 263.489">
  <rect x="154.82" y="227.933" width="11.3" height="11.65" style="fill: #3e4347;"/>
  <rect x="143.52" y="227.933" width="11.3" height="11.65" style="fill: #3e4347;"/>
  <rect x="132.22" y="227.933" width="11.3" height="11.65" style="fill: #3e4347;"/>
  <rect x="120.92" y="227.933" width="11.3" height="11.65" style="fill: #3e4347;"/>
  <rect x="109.62" y="227.933" width="11.3" height="11.65" style="fill: #3e4347;"/>
  <rect x="98.32" y="227.933" width="11.3" height="11.65" style="fill: #3e4347;"/>
  <rect x="87.02" y="227.933" width="11.3" height="11.65" style="fill: #3e4347;"/>
  <rect x="166.12" y="216.283" width="11.3" height="11.65" style="fill: #3e4347;"/>
  <rect x="154.82" y="216.283" width="11.3" height="11.65" style="fill: #3e4347;"/>
  <rect x="143.52" y="216.283" width="11.3" height="11.65" style="fill: #3e4347;"/>
  <rect x="132.22" y="216.283" width="11.3" height="11.65" style="fill: #3e4347;"/>
  <rect x="120.92" y="216.283" width="11.3" height="11.65" style="fill: #3e4347;"/>
  <rect x="109.62" y="216.283" width="11.3" height="11.65" style="fill: #3e4347;"/>
  <rect x="98.32" y="216.283" width="11.3" height="11.65" style="fill: #3e4347;"/>
  <rect x="87.02" y="216.283" width="11.3" height="11.65" style="fill: #3e4347;"/>
  <rect x="75.72" y="216.283" width="11.3" height="11.65" style="fill: #3e4347;"/>
  <rect x="64.42" y="216.283" width="11.3" height="11.65" style="fill: #3e4347;"/>
  <rect x="177.42" y="204.633" width="11.3" height="11.65" style="fill: #3e4347;"/>
  <rect x="166.12" y="204.633" width="11.3" height="11.65" style="fill: #3e4347;"/>
  <rect x="154.82" y="204.633" width="11.3" height="11.65" style="fill: #3e4347;"/>
  <rect x="143.52" y="204.633" width="11.3" height="11.65" style="fill: #3e4347;"/>
  <rect x="132.22" y="204.633" width="11.3" height="11.65" style="fill: #3e4347;"/>
  <rect x="120.92" y="204.633" width="11.3" height="11.65" style="fill: #3e4347;"/>
  <rect x="109.62" y="204.633" width="11.3" height="11.65" style="fill: #3e4347;"/>
  <rect x="98.32" y="204.633" width="11.3" height="11.65" style="fill: #fff;"/>
  <rect x="87.02" y="204.633" width="11.3" height="11.65" style="fill: #fff;"/>
  <rect x="75.72" y="204.633" width="11.3" height="11.65" style="fill: #3e4347;"/>
  <rect x="64.42" y="204.633" width="11.3" height="11.65" style="fill: #3e4347;"/>
  <rect x="188.72" y="192.983" width="11.3" height="11.65" style="fill: #3e4347;"/>
  <rect x="177.42" y="192.983" width="11.3" height="11.65" style="fill: #3e4347;"/>
  <rect x="166.12" y="192.983" width="11.3" height="11.65" style="fill: #3e4347;"/>
  <rect x="154.82" y="192.983" width="11.3" height="11.65" style="fill: #3e4347;"/>
  <rect x="143.52" y="192.983" width="11.3" height="11.65" style="fill: #3e4347;"/>
  <rect x="132.22" y="192.983" width="11.3" height="11.65" style="fill: #3e4347;"/>
  <rect x="120.92" y="192.983" width="11.3" height="11.65" style="fill: #3e4347;"/>
  <rect x="109.62" y="192.983" width="11.3" height="11.65" style="fill: #3e4347;"/>
  <rect x="98.32" y="192.983" width="11.3" height="11.65" style="fill: #3e4347;"/>
  <rect x="87.02" y="192.983" width="11.3" height="11.65" style="fill: #fff;"/>
  <rect x="75.72" y="192.983" width="11.3" height="11.65" style="fill: #3e4347;"/>
  <rect x="64.42" y="192.983" width="11.3" height="11.65" style="fill: #3e4347;"/>
  <rect x="53.12" y="192.983" width="11.3" height="11.65" style="fill: #3e4347;"/>
  <rect x="188.72" y="181.333" width="11.3" height="11.65" style="fill: #3e4347;"/>
  <rect x="177.42" y="181.333" width="11.3" height="11.65" style="fill: #3e4347;"/>
  <rect x="166.12" y="181.333" width="11.3" height="11.65" style="fill: #3e4347;"/>
  <rect x="154.82" y="181.333" width="11.3" height="11.65" style="fill: #3e4347;"/>
  <rect x="143.52" y="181.333" width="11.3" height="11.65" style="fill: #3e4347;"/>
  <rect x="132.22" y="181.333" width="11.3" height="11.65" style="fill: #3e4347;"/>
  <rect x="120.92" y="181.333" width="11.3" height="11.65" style="fill: #3e4347;"/>
  <rect x="109.62" y="181.333" width="11.3" height="11.65" style="fill: #3e4347;"/>
  <rect x="98.32" y="181.333" width="11.3" height="11.65" style="fill: #3e4347;"/>
  <rect x="87.02" y="181.333" width="11.3" height="11.65" style="fill: #3e4347;"/>
  <rect x="75.72" y="181.333" width="11.3" height="11.65" style="fill: #3e4347;"/>
  <rect x="64.42" y="181.333" width="11.3" height="11.65" style="fill: #3e4347;"/>
  <rect x="53.12" y="181.333" width="11.3" height="11.65" style="fill: #3e4347;"/>
  <rect x="188.72" y="169.683" width="11.3" height="11.65" style="fill: #3e4347;"/>
  <rect x="177.42" y="169.683" width="11.3" height="11.65" style="fill: #3e4347;"/>
  <rect x="166.12" y="169.683" width="11.3" height="11.65" style="fill: #3e4347;"/>
  <rect x="154.82" y="169.683" width="11.3" height="11.65" style="fill: #3e4347;"/>
  <rect x="143.52" y="169.683" width="11.3" height="11.65" style="fill: #3e4347;"/>
  <rect x="132.22" y="169.683" width="11.3" height="11.65" style="fill: #3e4347;"/>
  <rect x="120.92" y="169.683" width="11.3" height="11.65" style="fill: #3e4347;"/>
  <rect x="109.62" y="169.683" width="11.3" height="11.65" style="fill: #3e4347;"/>
  <rect x="98.32" y="169.683" width="11.3" height="11.65" style="fill: #3e4347;"/>
  <rect x="87.02" y="169.683" width="11.3" height="11.65" style="fill: #3e4347;"/>
  <rect x="75.72" y="169.683" width="11.3" height="11.65" style="fill: #fff;"/>
  <rect x="64.42" y="169.683" width="11.3" height="11.65" style="fill: #fff;"/>
  <rect x="53.12" y="169.683" width="11.3" height="11.65" style="fill: #3e4347;"/>
  <rect x="41.82" y="169.683" width="11.3" height="11.65" style="fill: #3e4347;"/>
  <rect x="188.72" y="158.033" width="11.3" height="11.65" style="fill: #3e4347;"/>
  <rect x="177.42" y="158.033" width="11.3" height="11.65" style="fill: #3e4347;"/>
  <rect x="166.12" y="158.033" width="11.3" height="11.65" style="fill: #3e4347;"/>
  <rect x="154.82" y="158.033" width="11.3" height="11.65" style="fill: #3e4347;"/>
  <rect x="143.52" y="158.033" width="11.3" height="11.65" style="fill: #3e4347;"/>
  <rect x="132.22" y="158.033" width="11.3" height="11.65" style="fill: #3e4347;"/>
  <rect x="120.92" y="158.033" width="11.3" height="11.65" style="fill: #3e4347;"/>
  <rect x="109.62" y="158.033" width="11.3" height="11.65" style="fill: #3e4347;"/>
  <rect x="98.32" y="158.033" width="11.3" height="11.65" style="fill: #3e4347;"/>
  <rect x="87.02" y="158.033" width="11.3" height="11.65" style="fill: #3e4347;"/>
  <rect x="75.72" y="158.033" width="11.3" height="11.65" style="fill: #fff;"/>
  <rect x="64.42" y="158.033" width="11.3" height="11.65" style="fill: #fff;"/>
  <rect x="53.12" y="158.033" width="11.3" height="11.65" style="fill: #3e4347;"/>
  <rect x="41.82" y="158.033" width="11.3" height="11.65" style="fill: #3e4347;"/>
  <rect x="188.72" y="146.383" width="11.3" height="11.65" style="fill: #3e4347;"/>
  <rect x="177.42" y="146.383" width="11.3" height="11.65" style="fill: #3e4347;"/>
  <rect x="166.12" y="146.383" width="11.3" height="11.65" style="fill: #3e4347;"/>
  <rect x="154.82" y="146.383" width="11.3" height="11.65" style="fill: #3e4347;"/>
  <rect x="143.52" y="146.383" width="11.3" height="11.65" style="fill: #3e4347;"/>
  <rect x="132.22" y="146.383" width="11.3" height="11.65" style="fill: #3e4347;"/>
  <rect x="120.92" y="146.383" width="11.3" height="11.65" style="fill: #3e4347;"/>
  <rect x="109.62" y="146.383" width="11.3" height="11.65" style="fill: #3e4347;"/>
  <rect x="98.32" y="146.383" width="11.3" height="11.65" style="fill: #3e4347;"/>
  <rect x="87.02" y="146.383" width="11.3" height="11.65" style="fill: #3e4347;"/>
  <rect x="75.72" y="146.383" width="11.3" height="11.65" style="fill: #3e4347;"/>
  <rect x="64.42" y="146.383" width="11.3" height="11.65" style="fill: #fff;"/>
  <rect x="53.12" y="146.383" width="11.3" height="11.65" style="fill: #3e4347;"/>
  <rect x="41.82" y="146.383" width="11.3" height="11.65" style="fill: #3e4347;"/>
  <rect x="188.72" y="134.733" width="11.3" height="11.65" style="fill: #3e4347;"/>
  <rect x="177.42" y="134.733" width="11.3" height="11.65" style="fill: #3e4347;"/>
  <rect x="166.12" y="134.733" width="11.3" height="11.65" style="fill: #3e4347;"/>
  <rect x="154.82" y="134.733" width="11.3" height="11.65" style="fill: #3e4347;"/>
  <rect x="143.52" y="134.733" width="11.3" height="11.65" style="fill: #3e4347;"/>
  <rect x="132.22" y="134.733" width="11.3" height="11.65" style="fill: #3e4347;"/>
  <rect x="120.92" y="134.733" width="11.3" height="11.65" style="fill: #3e4347;"/>
  <rect x="109.62" y="134.733" width="11.3" height="11.65" style="fill: #3e4347;"/>
  <rect x="98.32" y="134.733" width="11.3" height="11.65" style="fill: #3e4347;"/>
  <rect x="87.02" y="134.733" width="11.3" height="11.65" style="fill: #3e4347;"/>
  <rect x="75.72" y="134.733" width="11.3" height="11.65" style="fill: #3e4347;"/>
  <rect x="64.42" y="134.733" width="11.3" height="11.65" style="fill: #3e4347;"/>
  <rect x="53.12" y="134.733" width="11.3" height="11.65" style="fill: #3e4347;"/>
  <rect x="177.42" y="123.083" width="11.3" height="11.65" style="fill: #3e4347;"/>
  <rect x="166.12" y="123.083" width="11.3" height="11.65" style="fill: #3e4347;"/>
  <rect x="154.82" y="123.083" width="11.3" height="11.65" style="fill: #3e4347;"/>
  <rect x="143.52" y="123.083" width="11.3" height="11.65" style="fill: #3e4347;"/>
  <rect x="132.22" y="123.083" width="11.3" height="11.65" style="fill: #3e4347;"/>
  <rect x="120.92" y="123.083" width="11.3" height="11.65" style="fill: #3e4347;"/>
  <rect x="109.62" y="123.083" width="11.3" height="11.65" style="fill: #3e4347;"/>
  <rect x="98.32" y="123.083" width="11.3" height="11.65" style="fill: #3e4347;"/>
  <rect x="87.02" y="123.083" width="11.3" height="11.65" style="fill: #3e4347;"/>
  <rect x="75.72" y="123.083" width="11.3" height="11.65" style="fill: #3e4347;"/>
  <rect x="64.42" y="123.083" width="11.3" height="11.65" style="fill: #3e4347;"/>
  <rect x="53.12" y="123.083" width="11.3" height="11.65" style="fill: #3e4347;"/>
  <rect x="177.42" y="111.433" width="11.3" height="11.65" style="fill: #626669;"/>
  <rect x="166.12" y="111.433" width="11.3" height="11.65" style="fill: #3e4347;"/>
  <rect x="154.82" y="111.433" width="11.3" height="11.65" style="fill: #3e4347;"/>
  <rect x="143.52" y="111.433" width="11.3" height="11.65" style="fill: #3e4347;"/>
  <rect x="132.22" y="111.433" width="11.3" height="11.65" style="fill: #3e4347;"/>
  <rect x="120.92" y="111.433" width="11.3" height="11.65" style="fill: #3e4347;"/>
  <rect x="109.62" y="111.433" width="11.3" height="11.65" style="fill: #3e4347;"/>
  <rect x="98.32" y="111.433" width="11.3" height="11.65" style="fill: #3e4347;"/>
  <rect x="87.02" y="111.433" width="11.3" height="11.65" style="fill: #3e4347;"/>
  <rect x="75.72" y="111.433" width="11.3" height="11.65" style="fill: #3e4347;"/>
  <rect x="64.42" y="111.433" width="11.3" height="11.65" style="fill: #3e4347;"/>
  <rect x="53.12" y="111.433" width="11.3" height="11.65" style="fill: #3e4347;"/>
  <rect x="166.12" y="99.783" width="11.3" height="11.65" style="fill: #74777a;"/>
  <rect x="154.82" y="99.783" width="11.3" height="11.65" style="fill: #3e4347;"/>
  <rect x="143.52" y="99.783" width="11.3" height="11.65" style="fill: #3e4347;"/>
  <rect x="132.22" y="99.783" width="11.3" height="11.65" style="fill: #3e4347;"/>
  <rect x="120.92" y="99.783" width="11.3" height="11.65" style="fill: #3e4347;"/>
  <rect x="109.62" y="99.783" width="11.3" height="11.65" style="fill: #3e4347;"/>
  <rect x="98.32" y="99.783" width="11.3" height="11.65" style="fill: #3e4347;"/>
  <rect x="87.02" y="99.783" width="11.3" height="11.65" style="fill: #3e4347;"/>
  <rect x="75.72" y="99.783" width="11.3" height="11.65" style="fill: #3e4347;"/>
  <rect x="64.42" y="99.783" width="11.3" height="11.65" style="fill: #3e4347;"/>
  <rect x="53.12" y="99.783" width="11.3" height="11.65" style="fill: #3e4347;"/>
  <rect x="143.52" y="88.133" width="11.3" height="11.65" style="fill: #74777a;"/>
  <rect x="132.22" y="88.133" width="11.3" height="11.65" style="fill: #3e4347;"/>
  <rect x="120.92" y="88.133" width="11.3" height="11.65" style="fill: #3e4347;"/>
  <rect x="109.62" y="88.133" width="11.3" height="11.65" style="fill: #3e4347;"/>
  <rect x="98.32" y="88.133" width="11.3" height="11.65" style="fill: #3e4347;"/>
  <rect x="64.42" y="88.133" width="11.3" height="11.65" style="fill: #3e4347;"/>
  <rect x="53.12" y="88.133" width="11.3" height="11.65" style="fill: #3e4347;"/>
  <rect x="41.82" y="88.133" width="11.3" height="11.65" style="fill: #d49971;"/>
  <rect x="154.82" y="76.483" width="11.3" height="11.65" style="fill: #f2848f;"/>
  <rect x="41.82" y="76.483" width="11.3" height="11.65" style="fill: #d59d76;"/>
  <rect x="166.12" y="64.833" width="11.3" height="11.65" style="fill: #ffce31;"/>
  <rect x="143.52" y="64.833" width="11.3" height="11.65" style="fill: #ffcf39;"/>
  <rect x="41.82" y="64.833" width="11.3" height="11.65" style="fill: #d69f79;"/>
  <rect x="177.42" y="53.183" width="11.3" height="11.65" style="fill: #ed4c5c;"/>
  <rect x="143.52" y="53.183" width="11.3" height="11.65" style="fill: #d9a784;"/>
  <rect x="132.22" y="53.183" width="11.3" height="11.65" style="fill: #d3976e;"/>
  <rect x="120.92" y="53.183" width="11.3" height="11.65" style="fill: #d69f79;"/>
  <rect x="109.62" y="53.183" width="11.3" height="11.65" style="fill: #d69f79;"/>
  <rect x="98.32" y="53.183" width="11.3" height="11.65" style="fill: #d69f79;"/>
  <rect x="87.02" y="53.183" width="11.3" height="11.65" style="fill: #d69f79;"/>
  <rect x="75.72" y="53.183" width="11.3" height="11.65" style="fill: #d69f79;"/>
  <rect x="64.42" y="53.183" width="11.3" height="11.65" style="fill: #d69f79;"/>
  <rect x="53.12" y="53.183" width="11.3" height="11.65" style="fill: #d3976e;"/>
  <rect x="166.12" y="41.533" width="11.3" height="11.65" style="fill: #ffd655;"/>
  <rect x="143.52" y="41.533" width="11.3" height="11.65" style="fill: #ffce31;"/>
  <rect x="154.82" y="29.883" width="11.3" height="11.65" style="fill: #f2848f;"/>
</svg>