<?xml version="1.0" encoding="UTF-8"?>
<svg id="_图层_1" data-name="图层 1" xmlns="http://www.w3.org/2000/svg" viewBox="0 0 279.83 241.021">
  <rect x="210.514" y="208.851" width="9.65" height="9.65" style="fill: #42ade2;"/>
  <rect x="200.864" y="208.851" width="9.65" height="9.65" style="fill: #42ade2;"/>
  <rect x="104.364" y="208.851" width="9.65" height="9.65" style="fill: #98d2ef;"/>
  <rect x="210.514" y="199.201" width="9.65" height="9.65" style="fill: #42ade2;"/>
  <rect x="200.864" y="199.201" width="9.65" height="9.65" style="fill: #42ade2;"/>
  <rect x="104.364" y="199.201" width="9.65" height="9.65" style="fill: #42ade2;"/>
  <rect x="210.514" y="189.551" width="9.65" height="9.65" style="fill: #42ade2;"/>
  <rect x="200.864" y="189.551" width="9.65" height="9.65" style="fill: #42ade2;"/>
  <rect x="191.214" y="189.551" width="9.65" height="9.65" style="fill: #42ade2;"/>
  <rect x="104.364" y="189.551" width="9.65" height="9.65" style="fill: #42ade2;"/>
  <rect x="94.714" y="189.551" width="9.65" height="9.65" style="fill: #42ade2;"/>
  <rect x="210.514" y="179.901" width="9.65" height="9.65" style="fill: #42ade2;"/>
  <rect x="200.864" y="179.901" width="9.65" height="9.65" style="fill: #42ade2;"/>
  <rect x="191.214" y="179.901" width="9.65" height="9.65" style="fill: #42ade2;"/>
  <rect x="94.714" y="179.901" width="9.65" height="9.65" style="fill: #42ade2;"/>
  <rect x="75.414" y="179.901" width="9.65" height="9.65" style="fill: #acb8bf;"/>
  <rect x="210.514" y="170.251" width="9.65" height="9.65" style="fill: #42ade2;"/>
  <rect x="200.864" y="170.251" width="9.65" height="9.65" style="fill: #42ade2;"/>
  <rect x="191.214" y="170.251" width="9.65" height="9.65" style="fill: #42ade2;"/>
  <rect x="181.564" y="170.251" width="9.65" height="9.65" style="fill: #42ade2;"/>
  <rect x="94.714" y="170.251" width="9.65" height="9.65" style="fill: #42ade2;"/>
  <rect x="85.064" y="170.251" width="9.65" height="9.65" style="fill: #acb8bf;"/>
  <rect x="210.514" y="160.601" width="9.65" height="9.65" style="fill: #42ade2;"/>
  <rect x="200.864" y="160.601" width="9.65" height="9.65" style="fill: #42ade2;"/>
  <rect x="191.214" y="160.601" width="9.65" height="9.65" style="fill: #42ade2;"/>
  <rect x="181.564" y="160.601" width="9.65" height="9.65" style="fill: #42ade2;"/>
  <rect x="114.014" y="160.601" width="9.65" height="9.65" style="fill: #dae3ea;"/>
  <rect x="104.364" y="160.601" width="9.65" height="9.65" style="fill: #dae3ea;"/>
  <rect x="94.714" y="160.601" width="9.65" height="9.65" style="fill: #acb8bf;"/>
  <rect x="85.064" y="160.601" width="9.65" height="9.65" style="fill: #42ade2;"/>
  <rect x="75.414" y="160.601" width="9.65" height="9.65" style="fill: #42ade2;"/>
  <rect x="65.764" y="160.601" width="9.65" height="9.65" style="fill: #42ade2;"/>
  <rect x="210.514" y="150.951" width="9.65" height="9.65" style="fill: #bde2f4;"/>
  <rect x="200.864" y="150.951" width="9.65" height="9.65" style="fill: #42ade2;"/>
  <rect x="191.214" y="150.951" width="9.65" height="9.65" style="fill: #42ade2;"/>
  <rect x="181.564" y="150.951" width="9.65" height="9.65" style="fill: #42ade2;"/>
  <rect x="171.914" y="150.951" width="9.65" height="9.65" style="fill: #44aee2;"/>
  <rect x="114.014" y="150.951" width="9.65" height="9.65" style="fill: #dae3ea;"/>
  <rect x="104.364" y="150.951" width="9.65" height="9.65" style="fill: #acb8bf;"/>
  <rect x="94.714" y="150.951" width="9.65" height="9.65" style="fill: #dae3ea;"/>
  <rect x="75.414" y="150.951" width="9.65" height="9.65" style="fill: #e9f5fb;"/>
  <rect x="65.764" y="150.951" width="9.65" height="9.65" style="fill: #42ade2;"/>
  <rect x="56.114" y="150.951" width="9.65" height="9.65" style="fill: #42ade2;"/>
  <rect x="46.464" y="150.951" width="9.65" height="9.65" style="fill: #42ade2;"/>
  <rect x="200.864" y="141.301" width="9.65" height="9.65" style="fill: #42ade2;"/>
  <rect x="191.214" y="141.301" width="9.65" height="9.65" style="fill: #42ade2;"/>
  <rect x="181.564" y="141.301" width="9.65" height="9.65" style="fill: #42ade2;"/>
  <rect x="171.914" y="141.301" width="9.65" height="9.65" style="fill: #42ade2;"/>
  <rect x="142.964" y="141.301" width="9.65" height="9.65" style="fill: #eaeff3;"/>
  <rect x="133.314" y="141.301" width="9.65" height="9.65" style="fill: #dae3ea;"/>
  <rect x="123.664" y="141.301" width="9.65" height="9.65" style="fill: #dae3ea;"/>
  <rect x="114.014" y="141.301" width="9.65" height="9.65" style="fill: #acb8bf;"/>
  <rect x="104.364" y="141.301" width="9.65" height="9.65" style="fill: #dae3ea;"/>
  <rect x="94.714" y="141.301" width="9.65" height="9.65" style="fill: #dae3ea;"/>
  <rect x="210.514" y="131.651" width="9.65" height="9.65" style="fill: #acb8bf;"/>
  <rect x="200.864" y="131.651" width="9.65" height="9.65" style="fill: #42ade2;"/>
  <rect x="191.214" y="131.651" width="9.65" height="9.65" style="fill: #42ade2;"/>
  <rect x="181.564" y="131.651" width="9.65" height="9.65" style="fill: #42ade2;"/>
  <rect x="171.914" y="131.651" width="9.65" height="9.65" style="fill: #42ade2;"/>
  <rect x="162.264" y="131.651" width="9.65" height="9.65" style="fill: #aedbf2;"/>
  <rect x="152.614" y="131.651" width="9.65" height="9.65" style="fill: #dae3ea;"/>
  <rect x="142.964" y="131.651" width="9.65" height="9.65" style="fill: #dae3ea;"/>
  <rect x="133.314" y="131.651" width="9.65" height="9.65" style="fill: #dae3ea;"/>
  <rect x="123.664" y="131.651" width="9.65" height="9.65" style="fill: #dae3ea;"/>
  <rect x="114.014" y="131.651" width="9.65" height="9.65" style="fill: #dae3ea;"/>
  <rect x="104.364" y="131.651" width="9.65" height="9.65" style="fill: #dae3ea;"/>
  <rect x="210.514" y="122.001" width="9.65" height="9.65" style="fill: #c5cdd2;"/>
  <rect x="200.864" y="122.001" width="9.65" height="9.65" style="fill: #42ade2;"/>
  <rect x="191.214" y="122.001" width="9.65" height="9.65" style="fill: #42ade2;"/>
  <rect x="181.564" y="122.001" width="9.65" height="9.65" style="fill: #42ade2;"/>
  <rect x="171.914" y="122.001" width="9.65" height="9.65" style="fill: #42ade2;"/>
  <rect x="162.264" y="122.001" width="9.65" height="9.65" style="fill: #dae3ea;"/>
  <rect x="152.614" y="122.001" width="9.65" height="9.65" style="fill: #dae3ea;"/>
  <rect x="142.964" y="122.001" width="9.65" height="9.65" style="fill: #dae3ea;"/>
  <rect x="133.314" y="122.001" width="9.65" height="9.65" style="fill: #dae3ea;"/>
  <rect x="123.664" y="122.001" width="9.65" height="9.65" style="fill: #dae3ea;"/>
  <rect x="114.014" y="122.001" width="9.65" height="9.65" style="fill: #dae3ea;"/>
  <rect x="200.864" y="112.351" width="9.65" height="9.65" style="fill: #42ade2;"/>
  <rect x="191.214" y="112.351" width="9.65" height="9.65" style="fill: #42ade2;"/>
  <rect x="181.564" y="112.351" width="9.65" height="9.65" style="fill: #42ade2;"/>
  <rect x="171.914" y="112.351" width="9.65" height="9.65" style="fill: #dae3ea;"/>
  <rect x="162.264" y="112.351" width="9.65" height="9.65" style="fill: #dae3ea;"/>
  <rect x="152.614" y="112.351" width="9.65" height="9.65" style="fill: #dae3ea;"/>
  <rect x="142.964" y="112.351" width="9.65" height="9.65" style="fill: #dae3ea;"/>
  <rect x="133.314" y="112.351" width="9.65" height="9.65" style="fill: #dae3ea;"/>
  <rect x="123.664" y="112.351" width="9.65" height="9.65" style="fill: #dae3ea;"/>
  <rect x="114.014" y="112.351" width="9.65" height="9.65" style="fill: #e4ebf0;"/>
  <rect x="200.864" y="102.701" width="9.65" height="9.65" style="fill: #42ade2;"/>
  <rect x="191.214" y="102.701" width="9.65" height="9.65" style="fill: #42ade2;"/>
  <rect x="181.564" y="102.701" width="9.65" height="9.65" style="fill: #dae3ea;"/>
  <rect x="171.914" y="102.701" width="9.65" height="9.65" style="fill: #dae3ea;"/>
  <rect x="162.264" y="102.701" width="9.65" height="9.65" style="fill: #dae3ea;"/>
  <rect x="152.614" y="102.701" width="9.65" height="9.65" style="fill: #dae3ea;"/>
  <rect x="142.964" y="102.701" width="9.65" height="9.65" style="fill: #dae3ea;"/>
  <rect x="133.314" y="102.701" width="9.65" height="9.65" style="fill: #dae3ea;"/>
  <rect x="123.664" y="102.701" width="9.65" height="9.65" style="fill: #dae3ea;"/>
  <rect x="200.864" y="93.051" width="9.65" height="9.65" style="fill: #42ade2;"/>
  <rect x="191.214" y="93.051" width="9.65" height="9.65" style="fill: #dae3ea;"/>
  <rect x="181.564" y="93.051" width="9.65" height="9.65" style="fill: #dae3ea;"/>
  <rect x="171.914" y="93.051" width="9.65" height="9.65" style="fill: #dae3ea;"/>
  <rect x="162.264" y="93.051" width="9.65" height="9.65" style="fill: #dae3ea;"/>
  <rect x="152.614" y="93.051" width="9.65" height="9.65" style="fill: #dae3ea;"/>
  <rect x="142.964" y="93.051" width="9.65" height="9.65" style="fill: #dae3ea;"/>
  <rect x="133.314" y="93.051" width="9.65" height="9.65" style="fill: #dae3ea;"/>
  <rect x="123.664" y="93.051" width="9.65" height="9.65" style="fill: #b8e0f3;"/>
  <rect x="200.864" y="83.401" width="9.65" height="9.65" style="fill: #dae3ea;"/>
  <rect x="191.214" y="83.401" width="9.65" height="9.65" style="fill: #dae3ea;"/>
  <rect x="181.564" y="83.401" width="9.65" height="9.65" style="fill: #dae3ea;"/>
  <rect x="171.914" y="83.401" width="9.65" height="9.65" style="fill: #dae3ea;"/>
  <rect x="162.264" y="83.401" width="9.65" height="9.65" style="fill: #dae3ea;"/>
  <rect x="152.614" y="83.401" width="9.65" height="9.65" style="fill: #dae3ea;"/>
  <rect x="142.964" y="83.401" width="9.65" height="9.65" style="fill: #dae3ea;"/>
  <rect x="133.314" y="83.401" width="9.65" height="9.65" style="fill: #42ade2;"/>
  <rect x="123.664" y="83.401" width="9.65" height="9.65" style="fill: #42ade2;"/>
  <rect x="114.014" y="83.401" width="9.65" height="9.65" style="fill: #42ade2;"/>
  <rect x="104.364" y="83.401" width="9.65" height="9.65" style="fill: #48afe3;"/>
  <rect x="200.864" y="73.751" width="9.65" height="9.65" style="fill: #dae3ea;"/>
  <rect x="191.214" y="73.751" width="9.65" height="9.65" style="fill: #dae3ea;"/>
  <rect x="181.564" y="73.751" width="9.65" height="9.65" style="fill: #dae3ea;"/>
  <rect x="171.914" y="73.751" width="9.65" height="9.65" style="fill: #dae3ea;"/>
  <rect x="162.264" y="73.751" width="9.65" height="9.65" style="fill: #dae3ea;"/>
  <rect x="152.614" y="73.751" width="9.65" height="9.65" style="fill: #dae3ea;"/>
  <rect x="142.964" y="73.751" width="9.65" height="9.65" style="fill: #42ade2;"/>
  <rect x="133.314" y="73.751" width="9.65" height="9.65" style="fill: #42ade2;"/>
  <rect x="123.664" y="73.751" width="9.65" height="9.65" style="fill: #42ade2;"/>
  <rect x="114.014" y="73.751" width="9.65" height="9.65" style="fill: #42ade2;"/>
  <rect x="104.364" y="73.751" width="9.65" height="9.65" style="fill: #42ade2;"/>
  <rect x="94.714" y="73.751" width="9.65" height="9.65" style="fill: #42ade2;"/>
  <rect x="85.064" y="73.751" width="9.65" height="9.65" style="fill: #42ade2;"/>
  <rect x="210.514" y="64.101" width="9.65" height="9.65" style="fill: #dae3ea;"/>
  <rect x="200.864" y="64.101" width="9.65" height="9.65" style="fill: #dae3ea;"/>
  <rect x="191.214" y="64.101" width="9.65" height="9.65" style="fill: #dae3ea;"/>
  <rect x="181.564" y="64.101" width="9.65" height="9.65" style="fill: #dae3ea;"/>
  <rect x="171.914" y="64.101" width="9.65" height="9.65" style="fill: #dae3ea;"/>
  <rect x="162.264" y="64.101" width="9.65" height="9.65" style="fill: #dae3ea;"/>
  <rect x="152.614" y="64.101" width="9.65" height="9.65" style="fill: #42ade2;"/>
  <rect x="142.964" y="64.101" width="9.65" height="9.65" style="fill: #42ade2;"/>
  <rect x="133.314" y="64.101" width="9.65" height="9.65" style="fill: #42ade2;"/>
  <rect x="123.664" y="64.101" width="9.65" height="9.65" style="fill: #42ade2;"/>
  <rect x="114.014" y="64.101" width="9.65" height="9.65" style="fill: #42ade2;"/>
  <rect x="104.364" y="64.101" width="9.65" height="9.65" style="fill: #42ade2;"/>
  <rect x="94.714" y="64.101" width="9.65" height="9.65" style="fill: #42ade2;"/>
  <rect x="85.064" y="64.101" width="9.65" height="9.65" style="fill: #42ade2;"/>
  <rect x="75.414" y="64.101" width="9.65" height="9.65" style="fill: #42ade2;"/>
  <rect x="65.764" y="64.101" width="9.65" height="9.65" style="fill: #42ade2;"/>
  <rect x="220.164" y="54.451" width="9.65" height="9.65" style="fill: #dae3ea;"/>
  <rect x="210.514" y="54.451" width="9.65" height="9.65" style="fill: #dae3ea;"/>
  <rect x="200.864" y="54.451" width="9.65" height="9.65" style="fill: #dae3ea;"/>
  <rect x="191.214" y="54.451" width="9.65" height="9.65" style="fill: #dae3ea;"/>
  <rect x="181.564" y="54.451" width="9.65" height="9.65" style="fill: #dae3ea;"/>
  <rect x="171.914" y="54.451" width="9.65" height="9.65" style="fill: #dae3ea;"/>
  <rect x="162.264" y="54.451" width="9.65" height="9.65" style="fill: #42ade2;"/>
  <rect x="152.614" y="54.451" width="9.65" height="9.65" style="fill: #42ade2;"/>
  <rect x="142.964" y="54.451" width="9.65" height="9.65" style="fill: #42ade2;"/>
  <rect x="133.314" y="54.451" width="9.65" height="9.65" style="fill: #42ade2;"/>
  <rect x="123.664" y="54.451" width="9.65" height="9.65" style="fill: #42ade2;"/>
  <rect x="114.014" y="54.451" width="9.65" height="9.65" style="fill: #42ade2;"/>
  <rect x="104.364" y="54.451" width="9.65" height="9.65" style="fill: #42ade2;"/>
  <rect x="94.714" y="54.451" width="9.65" height="9.65" style="fill: #42ade2;"/>
  <rect x="85.064" y="54.451" width="9.65" height="9.65" style="fill: #42ade2;"/>
  <rect x="75.414" y="54.451" width="9.65" height="9.65" style="fill: #42ade2;"/>
  <rect x="65.764" y="54.451" width="9.65" height="9.65" style="fill: #42ade2;"/>
  <rect x="56.114" y="54.451" width="9.65" height="9.65" style="fill: #42ade2;"/>
  <rect x="46.464" y="54.451" width="9.65" height="9.65" style="fill: #42ade2;"/>
  <rect x="220.164" y="44.801" width="9.65" height="9.65" style="fill: #61676b;"/>
  <rect x="210.514" y="44.801" width="9.65" height="9.65" style="fill: #dae3ea;"/>
  <rect x="200.864" y="44.801" width="9.65" height="9.65" style="fill: #dae3ea;"/>
  <rect x="191.214" y="44.801" width="9.65" height="9.65" style="fill: #dae3ea;"/>
  <rect x="133.314" y="44.801" width="9.65" height="9.65" style="fill: #d2d9dd;"/>
  <rect x="123.664" y="44.801" width="9.65" height="9.65" style="fill: #acb8bf;"/>
  <rect x="104.364" y="44.801" width="9.65" height="9.65" style="fill: #acdbf2;"/>
  <rect x="94.714" y="44.801" width="9.65" height="9.65" style="fill: #42ade2;"/>
  <rect x="85.064" y="44.801" width="9.65" height="9.65" style="fill: #42ade2;"/>
  <rect x="75.414" y="44.801" width="9.65" height="9.65" style="fill: #42ade2;"/>
  <rect x="65.764" y="44.801" width="9.65" height="9.65" style="fill: #42ade2;"/>
  <rect x="56.114" y="44.801" width="9.65" height="9.65" style="fill: #42ade2;"/>
  <rect x="46.464" y="44.801" width="9.65" height="9.65" style="fill: #42ade2;"/>
  <rect x="229.814" y="35.151" width="9.65" height="9.65" style="fill: #dae3ea;"/>
  <rect x="220.164" y="35.151" width="9.65" height="9.65" style="fill: #dae3ea;"/>
  <rect x="210.514" y="35.151" width="9.65" height="9.65" style="fill: #697074;"/>
  <rect x="200.864" y="35.151" width="9.65" height="9.65" style="fill: #dae3ea;"/>
  <rect x="229.814" y="25.501" width="9.65" height="9.65" style="fill: #dae3ea;"/>
  <rect x="220.164" y="25.501" width="9.65" height="9.65" style="fill: #dae3ea;"/>
  <rect x="210.514" y="25.501" width="9.65" height="9.65" style="fill: #dce4eb;"/>
</svg>