<?xml version="1.0" encoding="UTF-8"?>
<svg id="_图层_1" data-name="图层 1" xmlns="http://www.w3.org/2000/svg" viewBox="0 0 279.83 251.234">
  <rect x="143.947" y="223.684" width="10.25" height="10.6" style="fill: #947151;"/>
  <rect x="133.697" y="223.684" width="10.25" height="10.6" style="fill: #947151;"/>
  <rect x="143.947" y="213.084" width="10.25" height="10.6" style="fill: #947151;"/>
  <rect x="133.697" y="213.084" width="10.25" height="10.6" style="fill: #947151;"/>
  <rect x="143.947" y="202.484" width="10.25" height="10.6" style="fill: #947151;"/>
  <rect x="133.697" y="202.484" width="10.25" height="10.6" style="fill: #947151;"/>
  <rect x="143.947" y="191.884" width="10.25" height="10.6" style="fill: #947151;"/>
  <rect x="133.697" y="191.884" width="10.25" height="10.6" style="fill: #947151;"/>
  <rect x="92.697" y="191.884" width="10.25" height="10.6" style="fill: #83bf4f;"/>
  <rect x="82.447" y="191.884" width="10.25" height="10.6" style="fill: #abd387;"/>
  <rect x="184.947" y="181.284" width="10.25" height="10.6" style="fill: #83bf4f;"/>
  <rect x="174.697" y="181.284" width="10.25" height="10.6" style="fill: #75a843;"/>
  <rect x="164.447" y="181.284" width="10.25" height="10.6" style="fill: #83bf4f;"/>
  <rect x="154.197" y="181.284" width="10.25" height="10.6" style="fill: #83bf4f;"/>
  <rect x="143.947" y="181.284" width="10.25" height="10.6" style="fill: #83bf4f;"/>
  <rect x="133.697" y="181.284" width="10.25" height="10.6" style="fill: #947151;"/>
  <rect x="123.447" y="181.284" width="10.25" height="10.6" style="fill: #83bf4f;"/>
  <rect x="113.197" y="181.284" width="10.25" height="10.6" style="fill: #83bf4f;"/>
  <rect x="102.947" y="181.284" width="10.25" height="10.6" style="fill: #83bf4f;"/>
  <rect x="92.697" y="181.284" width="10.25" height="10.6" style="fill: #83bf4f;"/>
  <rect x="82.447" y="181.284" width="10.25" height="10.6" style="fill: #83bf4f;"/>
  <rect x="72.197" y="181.284" width="10.25" height="10.6" style="fill: #76ab44;"/>
  <rect x="61.947" y="181.284" width="10.25" height="10.6" style="fill: #83bf4f;"/>
  <rect x="195.197" y="170.684" width="10.25" height="10.6" style="fill: #83bf4f;"/>
  <rect x="184.947" y="170.684" width="10.25" height="10.6" style="fill: #83bf4f;"/>
  <rect x="174.697" y="170.684" width="10.25" height="10.6" style="fill: #75a843;"/>
  <rect x="164.447" y="170.684" width="10.25" height="10.6" style="fill: #83bf4f;"/>
  <rect x="154.197" y="170.684" width="10.25" height="10.6" style="fill: #83bf4f;"/>
  <rect x="143.947" y="170.684" width="10.25" height="10.6" style="fill: #83bf4f;"/>
  <rect x="133.697" y="170.684" width="10.25" height="10.6" style="fill: #947151;"/>
  <rect x="123.447" y="170.684" width="10.25" height="10.6" style="fill: #8d8c50;"/>
  <rect x="113.197" y="170.684" width="10.25" height="10.6" style="fill: #83bf4f;"/>
  <rect x="102.947" y="170.684" width="10.25" height="10.6" style="fill: #83bf4f;"/>
  <rect x="92.697" y="170.684" width="10.25" height="10.6" style="fill: #83bf4f;"/>
  <rect x="82.447" y="170.684" width="10.25" height="10.6" style="fill: #83bf4f;"/>
  <rect x="72.197" y="170.684" width="10.25" height="10.6" style="fill: #75a843;"/>
  <rect x="61.947" y="170.684" width="10.25" height="10.6" style="fill: #83bf4f;"/>
  <rect x="51.697" y="170.684" width="10.25" height="10.6" style="fill: #83bf4f;"/>
  <rect x="205.447" y="160.084" width="10.25" height="10.6" style="fill: #83bf4f;"/>
  <rect x="195.197" y="160.084" width="10.25" height="10.6" style="fill: #83bf4f;"/>
  <rect x="184.947" y="160.084" width="10.25" height="10.6" style="fill: #83bf4f;"/>
  <rect x="174.697" y="160.084" width="10.25" height="10.6" style="fill: #75a843;"/>
  <rect x="164.447" y="160.084" width="10.25" height="10.6" style="fill: #80bb4d;"/>
  <rect x="154.197" y="160.084" width="10.25" height="10.6" style="fill: #75a843;"/>
  <rect x="143.947" y="160.084" width="10.25" height="10.6" style="fill: #83bf4f;"/>
  <rect x="133.697" y="160.084" width="10.25" height="10.6" style="fill: #947151;"/>
  <rect x="123.447" y="160.084" width="10.25" height="10.6" style="fill: #947151;"/>
  <rect x="113.197" y="160.084" width="10.25" height="10.6" style="fill: #947151;"/>
  <rect x="102.947" y="160.084" width="10.25" height="10.6" style="fill: #947151;"/>
  <rect x="92.697" y="160.084" width="10.25" height="10.6" style="fill: #83bf4f;"/>
  <rect x="82.447" y="160.084" width="10.25" height="10.6" style="fill: #83bf4f;"/>
  <rect x="72.197" y="160.084" width="10.25" height="10.6" style="fill: #75a843;"/>
  <rect x="61.947" y="160.084" width="10.25" height="10.6" style="fill: #7fb94c;"/>
  <rect x="51.697" y="160.084" width="10.25" height="10.6" style="fill: #83bf4f;"/>
  <rect x="41.447" y="160.084" width="10.25" height="10.8" style="fill: #83bf4f;"/>
  <rect x="205.447" y="149.484" width="10.25" height="10.6" style="fill: #83bf4f;"/>
  <rect x="195.197" y="149.484" width="10.25" height="10.6" style="fill: #75a843;"/>
  <rect x="184.947" y="149.484" width="10.25" height="10.6" style="fill: #83bf4f;"/>
  <rect x="174.697" y="149.484" width="10.25" height="10.6" style="fill: #83bf4f;"/>
  <rect x="164.447" y="149.484" width="10.25" height="10.6" style="fill: #83bf4f;"/>
  <rect x="154.197" y="149.484" width="10.25" height="10.6" style="fill: #7db54a;"/>
  <rect x="143.947" y="149.484" width="10.25" height="10.6" style="fill: #83bf4f;"/>
  <rect x="133.697" y="149.484" width="10.25" height="10.6" style="fill: #947151;"/>
  <rect x="123.447" y="149.484" width="10.25" height="10.6" style="fill: #947151;"/>
  <rect x="113.197" y="149.484" width="10.25" height="10.6" style="fill: #83bf4f;"/>
  <rect x="102.947" y="149.484" width="10.25" height="10.6" style="fill: #83bf4f;"/>
  <rect x="92.697" y="149.484" width="10.25" height="10.6" style="fill: #83bf4f;"/>
  <rect x="82.447" y="149.484" width="10.25" height="10.6" style="fill: #83bf4f;"/>
  <rect x="72.197" y="149.484" width="10.25" height="10.6" style="fill: #83bf4f;"/>
  <rect x="61.947" y="149.484" width="10.25" height="10.6" style="fill: #75a843;"/>
  <rect x="51.697" y="149.484" width="10.25" height="10.6" style="fill: #7db64a;"/>
  <rect x="41.447" y="149.484" width="10.25" height="10.6" style="fill: #83bf4f;"/>
  <rect x="225.947" y="138.884" width="10.25" height="10.6" style="fill: #83bf4f;"/>
  <rect x="215.697" y="138.884" width="10.25" height="10.6" style="fill: #83bf4f;"/>
  <rect x="205.447" y="138.884" width="10.25" height="10.6" style="fill: #83bf4f;"/>
  <rect x="195.197" y="138.884" width="10.25" height="10.6" style="fill: #7eb74a;"/>
  <rect x="184.947" y="138.884" width="10.25" height="10.6" style="fill: #83bf4f;"/>
  <rect x="174.697" y="138.884" width="10.25" height="10.6" style="fill: #83bf4f;"/>
  <rect x="164.447" y="138.884" width="10.25" height="10.6" style="fill: #83bf4f;"/>
  <rect x="154.197" y="138.884" width="10.25" height="10.6" style="fill: #83bf4f;"/>
  <rect x="143.947" y="138.884" width="10.25" height="10.6" style="fill: #947151;"/>
  <rect x="133.697" y="138.884" width="10.25" height="10.6" style="fill: #947151;"/>
  <rect x="123.447" y="138.884" width="10.25" height="10.6" style="fill: #947151;"/>
  <rect x="113.197" y="138.884" width="10.25" height="10.6" style="fill: #83bf4f;"/>
  <rect x="102.947" y="138.884" width="10.25" height="10.6" style="fill: #75a843;"/>
  <rect x="92.697" y="138.884" width="10.25" height="10.6" style="fill: #83bf4f;"/>
  <rect x="82.447" y="138.884" width="10.25" height="10.6" style="fill: #83bf4f;"/>
  <rect x="72.197" y="138.884" width="10.25" height="10.6" style="fill: #83bf4f;"/>
  <rect x="61.947" y="138.884" width="10.25" height="10.6" style="fill: #83bf4f;"/>
  <rect x="51.697" y="138.884" width="10.25" height="10.6" style="fill: #83bf4f;"/>
  <rect x="41.447" y="138.884" width="10.25" height="10.6" style="fill: #83bf4f;"/>
  <rect x="236.197" y="128.284" width="10.25" height="10.6" style="fill: #87c155;"/>
  <rect x="225.947" y="128.284" width="10.25" height="10.6" style="fill: #83bf4f;"/>
  <rect x="215.697" y="128.284" width="10.25" height="10.6" style="fill: #75a843;"/>
  <rect x="205.447" y="128.284" width="10.25" height="10.6" style="fill: #83bf4f;"/>
  <rect x="195.197" y="128.284" width="10.25" height="10.6" style="fill: #83bf4f;"/>
  <rect x="184.947" y="128.284" width="10.25" height="10.6" style="fill: #83bf4f;"/>
  <rect x="174.697" y="128.284" width="10.25" height="10.6" style="fill: #947151;"/>
  <rect x="164.447" y="128.284" width="10.25" height="10.6" style="fill: #83bf4f;"/>
  <rect x="154.197" y="128.284" width="10.25" height="10.6" style="fill: #83bf4f;"/>
  <rect x="143.947" y="128.284" width="10.25" height="10.6" style="fill: #81bc4d;"/>
  <rect x="133.697" y="128.284" width="10.25" height="10.6" style="fill: #83bf4f;"/>
  <rect x="123.447" y="128.284" width="10.25" height="10.6" style="fill: #947151;"/>
  <rect x="113.197" y="128.284" width="10.25" height="10.6" style="fill: #83bf4f;"/>
  <rect x="102.947" y="128.284" width="10.25" height="10.6" style="fill: #75a843;"/>
  <rect x="92.697" y="128.284" width="10.25" height="10.6" style="fill: #83bf4f;"/>
  <rect x="82.447" y="128.284" width="10.25" height="10.6" style="fill: #83bf4f;"/>
  <rect x="72.197" y="128.284" width="10.25" height="10.6" style="fill: #83bf4f;"/>
  <rect x="61.947" y="128.284" width="10.25" height="10.6" style="fill: #83bf4f;"/>
  <rect x="51.697" y="128.284" width="10.25" height="10.6" style="fill: #83bf4f;"/>
  <rect x="41.447" y="128.284" width="10.25" height="10.6" style="fill: #83bf4f;"/>
  <rect x="236.197" y="117.684" width="10.25" height="10.6" style="fill: #83bf4f;"/>
  <rect x="225.947" y="117.684" width="10.25" height="10.6" style="fill: #83bf4f;"/>
  <rect x="215.697" y="117.684" width="10.25" height="10.6" style="fill: #75a843;"/>
  <rect x="205.447" y="117.684" width="10.25" height="10.6" style="fill: #83bf4f;"/>
  <rect x="195.197" y="117.684" width="10.25" height="10.6" style="fill: #83bf4f;"/>
  <rect x="184.947" y="117.684" width="10.25" height="10.6" style="fill: #83bf4f;"/>
  <rect x="174.697" y="117.684" width="10.25" height="10.6" style="fill: #83bf4f;"/>
  <rect x="164.447" y="117.684" width="10.25" height="10.6" style="fill: #83bf4f;"/>
  <rect x="154.197" y="117.684" width="10.25" height="10.6" style="fill: #83bf4f;"/>
  <rect x="143.947" y="117.684" width="10.25" height="10.6" style="fill: #75a843;"/>
  <rect x="133.697" y="117.684" width="10.25" height="10.6" style="fill: #83bf4f;"/>
  <rect x="123.447" y="117.684" width="10.25" height="10.6" style="fill: #947151;"/>
  <rect x="113.197" y="117.684" width="10.25" height="10.6" style="fill: #947151;"/>
  <rect x="102.947" y="117.684" width="10.25" height="10.6" style="fill: #83bf4f;"/>
  <rect x="92.697" y="117.684" width="10.25" height="10.6" style="fill: #83bf4f;"/>
  <rect x="82.447" y="117.684" width="10.25" height="10.6" style="fill: #75a843;"/>
  <rect x="72.197" y="117.684" width="10.25" height="10.6" style="fill: #83bf4f;"/>
  <rect x="61.947" y="117.684" width="10.25" height="10.6" style="fill: #83bf4f;"/>
  <rect x="51.697" y="117.684" width="10.25" height="10.6" style="fill: #83bf4f;"/>
  <rect x="236.197" y="107.084" width="10.25" height="10.6" style="fill: #83bf4f;"/>
  <rect x="225.947" y="107.084" width="10.25" height="10.6" style="fill: #83bf4f;"/>
  <rect x="215.697" y="107.084" width="10.25" height="10.6" style="fill: #83bf4f;"/>
  <rect x="205.447" y="107.084" width="10.25" height="10.6" style="fill: #83bf4f;"/>
  <rect x="195.197" y="107.084" width="10.25" height="10.6" style="fill: #83bf4f;"/>
  <rect x="184.947" y="107.084" width="10.25" height="10.6" style="fill: #83bf4f;"/>
  <rect x="174.697" y="107.084" width="10.25" height="10.6" style="fill: #83bf4f;"/>
  <rect x="164.447" y="107.084" width="10.25" height="10.6" style="fill: #83bf4f;"/>
  <rect x="154.197" y="107.084" width="10.25" height="10.6" style="fill: #83bf4f;"/>
  <rect x="143.947" y="107.084" width="10.25" height="10.6" style="fill: #75a843;"/>
  <rect x="133.697" y="107.084" width="10.25" height="10.6" style="fill: #83bf4f;"/>
  <rect x="123.447" y="107.084" width="10.25" height="10.6" style="fill: #84b64f;"/>
  <rect x="113.197" y="107.084" width="10.25" height="10.6" style="fill: #83bf4f;"/>
  <rect x="102.947" y="107.084" width="10.25" height="10.6" style="fill: #937250;"/>
  <rect x="92.697" y="107.084" width="10.25" height="10.6" style="fill: #83bf4f;"/>
  <rect x="82.447" y="107.084" width="10.25" height="10.6" style="fill: #75a843;"/>
  <rect x="72.197" y="107.084" width="10.25" height="10.6" style="fill: #83bf4f;"/>
  <rect x="61.947" y="107.084" width="10.25" height="10.6" style="fill: #83bf4f;"/>
  <rect x="51.697" y="107.084" width="10.25" height="10.6" style="fill: #83bf4f;"/>
  <rect x="41.447" y="107.084" width="10.25" height="10.6" style="fill: #fff;"/>
  <rect x="236.197" y="96.484" width="10.25" height="10.6" style="fill: #83bf4f;"/>
  <rect x="225.947" y="96.484" width="10.25" height="10.6" style="fill: #83bf4f;"/>
  <rect x="215.697" y="96.484" width="10.25" height="10.6" style="fill: #83bf4f;"/>
  <rect x="205.447" y="96.484" width="10.25" height="10.6" style="fill: #83bf4f;"/>
  <rect x="195.197" y="96.484" width="10.25" height="10.6" style="fill: #83bf4f;"/>
  <rect x="184.947" y="96.484" width="10.25" height="10.6" style="fill: #83bf4f;"/>
  <rect x="174.697" y="96.484" width="10.25" height="10.6" style="fill: #7db54a;"/>
  <rect x="164.447" y="96.484" width="10.25" height="10.6" style="fill: #83bf4f;"/>
  <rect x="154.197" y="96.484" width="10.25" height="10.6" style="fill: #83bf4f;"/>
  <rect x="143.947" y="96.484" width="10.25" height="10.6" style="fill: #83bf4f;"/>
  <rect x="133.697" y="96.484" width="10.25" height="10.6" style="fill: #83bf4f;"/>
  <rect x="123.447" y="96.484" width="10.25" height="10.6" style="fill: #83bf4f;"/>
  <rect x="113.197" y="96.484" width="10.25" height="10.6" style="fill: #83bf4f;"/>
  <rect x="102.947" y="96.484" width="10.25" height="10.6" style="fill: #83bf4f;"/>
  <rect x="92.697" y="96.484" width="10.25" height="10.6" style="fill: #917c50;"/>
  <rect x="82.447" y="96.484" width="10.25" height="10.6" style="fill: #83bf4f;"/>
  <rect x="72.197" y="96.484" width="10.25" height="10.6" style="fill: #83bf4f;"/>
  <rect x="61.947" y="96.484" width="10.25" height="10.6" style="fill: #83bf4f;"/>
  <rect x="51.697" y="96.484" width="10.25" height="10.6" style="fill: #83bf4f;"/>
  <rect x="225.947" y="85.884" width="10.25" height="10.6" style="fill: #83bf4f;"/>
  <rect x="215.697" y="85.884" width="10.25" height="10.6" style="fill: #83bf4f;"/>
  <rect x="205.447" y="85.884" width="10.25" height="10.6" style="fill: #83bf4f;"/>
  <rect x="195.197" y="85.884" width="10.25" height="10.6" style="fill: #83bf4f;"/>
  <rect x="184.947" y="85.884" width="10.25" height="10.6" style="fill: #7fba4c;"/>
  <rect x="174.697" y="85.884" width="10.25" height="10.6" style="fill: #75a843;"/>
  <rect x="164.447" y="85.884" width="10.25" height="10.6" style="fill: #83bf4f;"/>
  <rect x="154.197" y="85.884" width="10.25" height="10.6" style="fill: #83bf4f;"/>
  <rect x="143.947" y="85.884" width="10.25" height="10.6" style="fill: #83bf4f;"/>
  <rect x="133.697" y="85.884" width="10.25" height="10.6" style="fill: #947151;"/>
  <rect x="123.447" y="85.884" width="10.25" height="10.6" style="fill: #83bf4f;"/>
  <rect x="113.197" y="85.884" width="10.25" height="10.6" style="fill: #75a843;"/>
  <rect x="102.947" y="85.884" width="10.25" height="10.6" style="fill: #83bf4f;"/>
  <rect x="92.697" y="85.884" width="10.25" height="10.6" style="fill: #83bf4f;"/>
  <rect x="82.447" y="85.884" width="10.25" height="10.6" style="fill: #83bf4f;"/>
  <rect x="72.197" y="85.884" width="10.25" height="10.6" style="fill: #83bf4f;"/>
  <rect x="61.947" y="85.884" width="10.25" height="10.6" style="fill: #75a843;"/>
  <rect x="51.697" y="85.884" width="10.25" height="10.6" style="fill: #7fb94b;"/>
  <rect x="41.447" y="85.884" width="10.25" height="10.6" style="fill: #83bf4f;"/>
  <rect x="215.697" y="75.284" width="10.25" height="10.6" style="fill: #83bf4f;"/>
  <rect x="205.447" y="75.284" width="10.25" height="10.6" style="fill: #83bf4f;"/>
  <rect x="195.197" y="75.284" width="10.25" height="10.6" style="fill: #83bf4f;"/>
  <rect x="184.947" y="75.284" width="10.25" height="10.6" style="fill: #83bf4f;"/>
  <rect x="174.697" y="75.284" width="10.25" height="10.6" style="fill: #83bf4f;"/>
  <rect x="164.447" y="75.284" width="10.25" height="10.6" style="fill: #75a843;"/>
  <rect x="154.197" y="75.284" width="10.25" height="10.6" style="fill: #83bf4f;"/>
  <rect x="143.947" y="75.284" width="10.25" height="10.6" style="fill: #83bf4f;"/>
  <rect x="133.697" y="75.284" width="10.25" height="10.6" style="fill: #83bf4f;"/>
  <rect x="123.447" y="75.284" width="10.25" height="10.6" style="fill: #83bf4f;"/>
  <rect x="113.197" y="75.284" width="10.25" height="10.6" style="fill: #75a843;"/>
  <rect x="102.947" y="75.284" width="10.25" height="10.6" style="fill: #83bf4f;"/>
  <rect x="92.697" y="75.284" width="10.25" height="10.6" style="fill: #83bf4f;"/>
  <rect x="82.447" y="75.284" width="10.25" height="10.6" style="fill: #83bf4f;"/>
  <rect x="72.197" y="75.284" width="10.25" height="10.6" style="fill: #83bf4f;"/>
  <rect x="61.947" y="75.284" width="10.25" height="10.6" style="fill: #7db54a;"/>
  <rect x="51.697" y="75.284" width="10.25" height="10.6" style="fill: #83bf4f;"/>
  <rect x="41.447" y="75.284" width="10.25" height="10.6" style="fill: #83bf4f;"/>
  <rect x="195.197" y="64.684" width="10.25" height="10.6" style="fill: #83bf4f;"/>
  <rect x="184.947" y="64.684" width="10.25" height="10.6" style="fill: #83bf4f;"/>
  <rect x="174.697" y="64.684" width="10.25" height="10.6" style="fill: #83bf4f;"/>
  <rect x="164.447" y="64.684" width="10.25" height="10.6" style="fill: #75a843;"/>
  <rect x="154.197" y="64.684" width="10.25" height="10.6" style="fill: #83bf4f;"/>
  <rect x="143.947" y="64.684" width="10.25" height="10.6" style="fill: #937450;"/>
  <rect x="133.697" y="64.684" width="10.25" height="10.6" style="fill: #83bf4f;"/>
  <rect x="123.447" y="64.684" width="10.25" height="10.6" style="fill: #75a843;"/>
  <rect x="113.197" y="64.684" width="10.25" height="10.6" style="fill: #83bf4f;"/>
  <rect x="102.947" y="64.684" width="10.25" height="10.6" style="fill: #83bf4f;"/>
  <rect x="92.697" y="64.684" width="10.25" height="10.6" style="fill: #83bf4f;"/>
  <rect x="82.447" y="64.684" width="10.25" height="10.6" style="fill: #83bf4f;"/>
  <rect x="72.197" y="64.684" width="10.25" height="10.6" style="fill: #75a843;"/>
  <rect x="61.947" y="64.684" width="10.25" height="10.6" style="fill: #83bf4f;"/>
  <rect x="51.697" y="64.684" width="10.25" height="10.6" style="fill: #83bf4f;"/>
  <rect x="195.197" y="54.084" width="10.25" height="10.6" style="fill: #83bf4f;"/>
  <rect x="184.947" y="54.084" width="10.25" height="10.6" style="fill: #79af46;"/>
  <rect x="174.697" y="54.084" width="10.25" height="10.6" style="fill: #75a843;"/>
  <rect x="164.447" y="54.084" width="10.25" height="10.6" style="fill: #83bf4f;"/>
  <rect x="154.197" y="54.084" width="10.25" height="10.6" style="fill: #83bf4f;"/>
  <rect x="143.947" y="54.084" width="10.25" height="10.6" style="fill: #83bf4f;"/>
  <rect x="133.697" y="54.084" width="10.25" height="10.6" style="fill: #83bf4f;"/>
  <rect x="123.447" y="54.084" width="10.25" height="10.6" style="fill: #75a843;"/>
  <rect x="113.197" y="54.084" width="10.25" height="10.6" style="fill: #83bf4f;"/>
  <rect x="102.947" y="54.084" width="10.25" height="10.6" style="fill: #83bf4f;"/>
  <rect x="92.697" y="54.084" width="10.25" height="10.6" style="fill: #83bf4f;"/>
  <rect x="82.447" y="54.084" width="10.25" height="10.6" style="fill: #83bf4f;"/>
  <rect x="72.197" y="54.084" width="10.25" height="10.6" style="fill: #75a843;"/>
  <rect x="61.947" y="54.084" width="10.25" height="10.6" style="fill: #83bf4f;"/>
  <rect x="51.697" y="54.084" width="10.25" height="10.6" style="fill: #83bf4f;"/>
  <rect x="184.947" y="43.484" width="10.25" height="10.6" style="fill: #83bf4f;"/>
  <rect x="174.697" y="43.484" width="10.25" height="10.6" style="fill: #83bf4f;"/>
  <rect x="164.447" y="43.484" width="10.25" height="10.6" style="fill: #83bf4f;"/>
  <rect x="154.197" y="43.484" width="10.25" height="10.6" style="fill: #83bf4f;"/>
  <rect x="143.947" y="43.484" width="10.25" height="10.6" style="fill: #83bf4f;"/>
  <rect x="133.697" y="43.484" width="10.25" height="10.6" style="fill: #83bf4f;"/>
  <rect x="123.447" y="43.484" width="10.25" height="10.6" style="fill: #83bf4f;"/>
  <rect x="113.197" y="43.484" width="10.25" height="10.6" style="fill: #83bf4f;"/>
  <rect x="102.947" y="43.484" width="10.25" height="10.6" style="fill: #83bf4f;"/>
  <rect x="92.697" y="43.484" width="10.25" height="10.6" style="fill: #83bf4f;"/>
  <rect x="82.447" y="43.484" width="10.25" height="10.6" style="fill: #83bf4f;"/>
  <rect x="72.197" y="43.484" width="10.25" height="10.6" style="fill: #83bf4f;"/>
  <rect x="61.947" y="43.484" width="10.25" height="10.6" style="fill: #8ac35a;"/>
  <rect x="184.947" y="32.884" width="10.25" height="10.6" style="fill: #c5e1ac;"/>
  <rect x="174.697" y="32.884" width="10.25" height="10.6" style="fill: #83bf4f;"/>
  <rect x="164.447" y="32.884" width="10.25" height="10.6" style="fill: #83bf4f;"/>
  <rect x="154.197" y="32.884" width="10.25" height="10.6" style="fill: #83bf4f;"/>
  <rect x="143.947" y="32.884" width="10.25" height="10.6" style="fill: #83bf4f;"/>
  <rect x="133.697" y="32.884" width="10.25" height="10.6" style="fill: #83bf4f;"/>
  <rect x="123.447" y="32.884" width="10.25" height="10.6" style="fill: #83bf4f;"/>
  <rect x="113.197" y="32.884" width="10.25" height="10.6" style="fill: #83bf4f;"/>
  <rect x="164.447" y="22.284" width="10.25" height="10.6" style="fill: #83bf4f;"/>
  <rect x="154.197" y="22.284" width="10.25" height="10.6" style="fill: #83bf4f;"/>
  <rect x="143.947" y="22.284" width="10.25" height="10.6" style="fill: #83bf4f;"/>
  <rect x="133.697" y="22.284" width="10.25" height="10.6" style="fill: #83bf4f;"/>
  <rect x="123.447" y="22.284" width="10.25" height="10.6" style="fill: #c3e0aa;"/>
</svg>