<?xml version="1.0" encoding="UTF-8"?>
<svg id="_图层_1" data-name="图层 1" xmlns="http://www.w3.org/2000/svg" viewBox="0 0 400 400">
  <path d="M94.957,238.064l-54.128-50.043-25.532-51.064,9.191-50.043,30.638-8.17,15.319-40.851c23.489-1.021,38.809-6.128,44.936,1.021s16.34,12.255,20.426,12.255,26.553,1.021,32.681,1.021,50.043,0,54.128-1.021,31.66-12.255,31.66-12.255c0,0,23.489-9.191,31.66-3.064s36.766,8.17,49.021,13.277,36.766,3.064,40.851,18.383,14.298-3.064-2.043,38.809-29.617,77.617-36.766,90.894-11.234,13.277-15.319,13.277-13.277,3.064-13.277,3.064l-34.723-91.915H110.277l-15.319,116.426Z" style="fill: #ff7917;"/>
</svg>