<?xml version="1.0" encoding="UTF-8"?>
<svg id="_图层_1" data-name="图层 1" xmlns="http://www.w3.org/2000/svg" viewBox="0 0 400 400">
  <path d="M151.015,302.911c8.954-18.894,28.21-29.861,47.854-34.638,11.53-2.804,23.414-3.792,35.246-4.206,8.852-.31,19.98-.048,25.155,8.46,3.141,5.165,4.05,11.735,4.518,17.656,.548,6.933,.124,13.911-1.299,20.718l4.569-.597c-4.015-7.656-8.233-15.58-14.749-21.436-6.807-6.118-15.419-8.895-24.349-10.072-4.408-.581-8.85-.802-13.291-.941-4.898-.153-9.931-.418-14.72,.839-4.632,1.216-8.509,4.025-12.331,6.784s-7.795,5.301-11.933,7.565c-4.601,2.518-9.379,4.704-14.303,6.511-2.424,.889-4.88,1.692-7.361,2.407-1.221,.352-2.514,.833-3.782,.962-.273,.028-.643-.041-.874,.011-.646,.144,.473-.924-.205,.314l-1.494,1.149,1.856-.336c1.329-.241,2.081-1.857,1.746-3.075-.384-1.399-1.742-1.988-3.075-1.746-1.639,.297-3.151,.47-3.747,2.347-.763,2.401,.715,4.979,2.981,5.895,2.574,1.04,5.399,.03,7.924-.698,2.41-.695,4.797-1.473,7.153-2.331,9.564-3.486,18.655-8.223,26.934-14.148,3.964-2.837,7.871-5.942,12.738-7.003,4.911-1.07,10.209-.553,15.193-.349,9.108,.373,18.7,1.262,26.708,6.007,8.97,5.314,13.982,14.943,18.664,23.87,.97,1.85,4.132,1.494,4.569-.597,1.35-6.455,1.938-13.072,1.628-19.663-.285-6.063-1.053-12.466-3.251-18.164-2.013-5.221-5.441-9.642-10.529-12.154-4.762-2.352-10.113-3.082-15.371-3.226-5.858-.161-11.769,.251-17.606,.712-6.371,.504-12.735,1.274-19.011,2.49-11.443,2.218-22.698,6.041-32.596,12.284-10.045,6.336-18.754,15.069-23.876,25.878-.578,1.219-.339,2.698,.897,3.42,1.088,.637,2.84,.329,3.42-.897Z" style="fill: #0f1700;"/>
</svg>