<?xml version="1.0" encoding="UTF-8"?>
<svg id="_图层_1" data-name="图层 1" xmlns="http://www.w3.org/2000/svg" viewBox="0 0 400 400">
  <path d="M65.565,173.938c-13.739-5.334-30.75-.457-39.575,11.347-2.176,2.911-3.908,6.257-4.344,9.865-.343,2.841,.126,5.71,.573,8.536,2.523,15.959,4.36,32.026,5.504,48.142,.631,8.895,1.028,18.016-1.546,26.554-2.8,9.287-8.97,17.366-11.141,26.819-1.005,4.378-1.114,8.921-.796,13.401,1.169,16.463,8.251,32.444,19.662,44.367,1.892,1.977,4.177,3.965,6.913,3.994,2.473,.026,4.636-1.558,6.593-3.071,3.141-2.429,6.279-4.861,9.415-7.296,3.078-2.39,6.234-4.875,8.143-8.272,2.795-4.975,2.473-11.052,1.918-16.731-1.093-11.19-2.785-22.321-5.065-33.331-1.762-8.51-3.889-17.111-3.217-25.775,.588-7.576,3.29-14.803,5.847-21.959,8.341-23.337,15.504-47.925,12.87-72.568-.35-3.277-1.002-6.793-3.399-9.056-1.396-1.318-3.237-2.053-5.068-2.63-7.031-2.217-14.811-2.49-21.706,.119s-12.755,8.299-14.736,15.399l33.153-7.855Z" style="fill: #ffae73;"/>
</svg>