<?xml version="1.0" encoding="UTF-8"?>
<svg id="Tiled.art" xmlns="http://www.w3.org/2000/svg" viewBox="0 0 296.17 220.596">
  <polygon points="8.995 214.106 76.457 28.755 98.005 28.755 105.848 7.207 291.199 7.207 215.894 214.106 8.995 214.106" style="fill: #00b1ff;"/>
  <path d="M84.461,142.979l7.843-21.548h-21.548l7.843-21.548h21.548l7.843-21.548h-21.548l7.843-21.548h21.548l7.843-21.548h21.548l-7.843,21.548h21.548l-7.843,21.548h-21.548l-7.843,21.548h21.548l7.843-21.548h21.548l-7.843,21.548h21.548l7.843-21.548h21.548l-7.843,21.548h21.548l-15.686,43.097h-21.548l7.843-21.548h-43.097l-7.843,21.548h43.097l-7.843,21.548h21.548l-7.843,21.548H90.324l7.843-21.548h21.548l7.843-21.548h-21.548l-7.843,21.548h-21.548l-7.843,21.548h-21.548l15.686-43.097h21.548ZM166.773,35.237h86.193l-15.686,43.097h-21.548l7.843-21.548h-21.548l-7.843,21.548h-21.548l7.843-21.548h-21.548l7.843-21.548Z" style="fill: #fff;"/>
</svg>