<?xml version="1.0" encoding="UTF-8"?>
<svg id="Tiled.art" xmlns="http://www.w3.org/2000/svg" viewBox="0 0 173.617 187.915">
  <g>
    <polygon points="15.132 122.41 15.132 11.762 165.285 11.762 165.285 102.657 145.533 102.657 145.533 122.41 15.132 122.41" style="fill: #00b1ff;"/>
    <path d="M40.827,37.456h39.506v39.506h-19.753v-19.753h-19.753v-19.753Zm0,39.506h19.753v19.753h-19.753v-19.753Zm59.258-19.753v-19.753h39.506v39.506h-19.753v-19.753h-19.753Zm0,19.753h19.753v19.753h-19.753v-19.753Z" style="fill: #00b1ff;"/>
  </g>
  <polygon points="15.132 174.112 15.132 63.464 165.285 11.762 165.285 102.657 145.533 109.458 145.533 129.211 15.132 174.112" style="fill: #ff0;"/>
  <path d="M40.827,80.311l39.506-13.603v39.506l-19.753,6.801v-19.753l-19.753,6.801v-19.753Zm0,39.506l19.753-6.801v19.753l-19.753,6.801v-19.753Zm59.258-40.157v-19.753l39.506-13.603v39.506l-19.753,6.801v-19.753l-19.753,6.801Zm0,19.753l19.753-6.801v19.753l-19.753,6.801v-19.753Z" style="fill: #00b1ff;"/>
</svg>