<?xml version="1.0" encoding="UTF-8"?>
<svg id="Tiled.art" xmlns="http://www.w3.org/2000/svg" viewBox="0 0 259.404 269.617">
  <polygon points="39.907 160.597 39.907 40.066 61.81 40.066 61.81 26.054 250.213 26.054 250.213 160.597 39.907 160.597" style="fill: #ff0;"/>
  <polygon points="17.787 213.039 17.787 25.786 39.69 25.786 39.69 11.773 228.093 11.773 250.213 192.288 17.787 213.039" style="fill: #ff0;"/>
  <polygon points="40.594 264.402 40.594 98.592 62.425 91.082 62.425 69.269 106.089 54.248 106.089 32.435 184.718 5.385 184.718 27.197 228.382 12.176 228.382 33.989 250.213 26.478 250.213 192.288 40.594 264.402" style="fill: #00b1ff;"/>
  <path d="M68.993,182.634v-21.812l43.663-15.021v-21.812l-43.663,15.021v-21.812l21.832-7.511v-21.812l43.663-15.021v-21.812l21.832-7.511v21.812l43.663-15.021v21.812l21.832-7.511v21.812l-21.832,7.511v21.812l-21.832,7.511v-21.812l-43.663,15.021v21.812l43.663-15.021v21.812l-21.832,7.511v43.625l-21.832,7.511v-43.625l-65.495,22.532Zm0,21.812l21.832-7.511v21.812l-21.832,7.511v-21.812ZM199.983,115.757l21.832-7.511v21.812l-21.832,7.511v-21.812Zm0,43.625l21.832-7.511v21.812l-21.832,7.511v-21.812Z" style="fill: #fff;"/>
</svg>