<?xml version="1.0" encoding="UTF-8"?>
<svg id="Tiled.art" xmlns="http://www.w3.org/2000/svg" viewBox="0 0 228.766 294.128">
  <polygon points="11.098 144.69 11.098 24.159 33.001 24.159 33.001 10.147 221.405 10.147 221.405 144.69 11.098 144.69" style="fill: #ff0;"/>
  <polygon points="11.098 212.481 11.098 24.078 33.001 32.05 33.001 10.147 199.502 70.748 199.502 92.651 221.405 100.623 221.405 289.027 11.098 212.481" style="fill: #00b1ff;"/>
  <path d="M39.59,62.94l21.903,7.972V202.332l-21.903-7.972V62.94Zm21.903-13.931l21.903,7.972v21.903l-21.903-7.972v-21.903Zm21.903,29.875l21.903,7.972v-21.903l65.71,23.916v21.903l21.903,7.972v43.806l-21.903-7.972v-21.903l-21.903-7.972v21.903l21.903,7.972v21.903l-21.903-7.972v21.903l21.903,7.972v21.903l-21.903-7.972v21.903l-43.806-15.944v-21.903l21.903,7.972v-21.903l-21.903-7.972v-21.903l-21.903-7.972V78.885Zm0,109.516v-21.903l21.903,7.972v21.903l-21.903-7.972Zm43.806-49.765v-21.903l-21.903-7.972v21.903l21.903,7.972Zm43.806,37.847l21.903,7.972v21.903l-21.903-7.972v-21.903Zm0,43.806l21.903,7.972v21.903l-21.903-7.972v-21.903Z" style="fill: #fff;"/>
</svg>