<?xml version="1.0" encoding="UTF-8"?>
<svg id="Tiled.art" xmlns="http://www.w3.org/2000/svg" viewBox="0 0 12181.787 2916.766">
  <rect x="61.277" y="2154.111" width="185.679" height="185.73" style="fill: #00b1ff;"/>
  <polygon points="246.955 2525.537 61.277 2525.537 61.277 2896.959 432.699 2896.959 432.699 2711.267 246.955 2711.267 246.955 2525.537" style="fill: #00b1ff;"/>
  <rect x="2349.132" y="2236.656" width="989.188" height="185.727" style="fill: #00b1ff;"/>
  <rect x="1359.987" y="2050.961" width="989.145" height="185.695" style="fill: #00b1ff;"/>
  <polygon points="1359.987 2236.656 618.399 2236.656 618.399 2050.961 1359.987 2050.961 1359.987 1865.231 370.799 1865.231 370.799 1968.416 246.955 1968.416 246.955 2154.111 432.699 2154.111 432.699 2236.656 370.799 2236.656 370.799 2339.842 246.955 2339.842 246.955 2525.537 370.799 2525.537 370.799 2608.078 432.699 2608.078 432.699 2711.267 618.399 2711.267 618.399 2608.078 2349.132 2608.078 2349.132 2422.383 1359.987 2422.383 1359.987 2236.656" style="fill: #00b1ff;"/>
  <rect x="3335.33" y="761.621" width="185.744" height="185.695" style="fill: #00b1ff;"/>
  <rect x="4639.416" y="633.93" width="959.56" height="185.695" style="fill: #00b1ff;"/>
  <polygon points="6372.728 1005.353 4639.416 1005.353 4639.416 819.625 3679.877 819.625 3679.877 1133.046 3335.33 1133.046 3335.33 947.316 3149.651 947.316 3149.651 1679.536 1359.987 1679.536 1359.987 1865.231 2349.132 1865.231 2349.132 2050.961 3338.321 2050.961 3338.321 1690.167 3521.074 1690.167 3521.074 1504.472 3335.33 1504.472 3335.33 1318.741 3521.074 1318.741 3521.074 1504.472 3679.877 1504.472 3679.877 1562.473 5598.976 1562.473 5598.976 1376.778 4639.416 1376.778 4639.416 1191.048 5598.976 1191.048 5598.976 1376.778 6558.515 1376.778 6558.515 1005.353 6558.45 1005.353 6558.45 846.311 6372.728 846.311 6372.728 1005.353" style="fill: #00b1ff;"/>
  <polygon points="8481.212 41.599 8481.212 227.294 10300.872 227.294 10300.872 413.024 8481.212 413.024 8481.212 227.294 6744.15 227.294 6744.15 103.464 6372.728 103.464 6372.728 289.159 6558.45 289.159 6558.45 474.886 6372.728 474.886 6372.728 289.159 6187.027 289.159 6187.027 660.581 6558.45 660.581 6558.45 846.311 6744.15 846.311 6744.15 598.719 10300.872 598.719 10300.872 784.446 12120.511 784.446 12120.511 41.599 8481.212 41.599" style="fill: #00b1ff;"/>
  <rect x="8481.212" y="784.446" width="1819.66" height="185.695" style="fill: #00b1ff;"/>
</svg>