<?xml version="1.0" encoding="UTF-8"?>
<svg id="Tiled.art" xmlns="http://www.w3.org/2000/svg" viewBox="0 0 255.319 255.319">
  <polygon points="15.377 242.282 15.377 38.895 39.023 38.895 39.023 15.25 218.765 15.25 218.765 62.54 242.41 62.54 242.41 242.282 15.377 242.282" style="fill: #00b1ff;"/>
  <path d="M46.135,69.653h23.645v23.645h-23.645v-23.645Zm0,47.29h23.645v23.645h23.645v23.645H46.135v-47.29Zm70.936,70.936v23.645H46.135v-23.645H117.071ZM69.781,46.008h118.226v47.29h23.645v70.936h-23.645v-47.29h-23.645v-47.29h-23.645v70.936h23.645v23.645h-23.645v23.645h-23.645V69.653h-47.29v-23.645Zm0,47.29h23.645v23.645h-23.645v-23.645Zm70.936,94.581h23.645v23.645h-23.645v-23.645Zm23.645-23.645h23.645v23.645h-23.645v-23.645Zm23.645,23.645h23.645v23.645h-23.645v-23.645Z" style="fill: #fff;"/>
</svg>